<?xml version="1.0" standalone="no"?>
<!DOCTYPE svg PUBLIC "-//W3C//DTD SVG 1.1//EN" "http://www.w3.org/Graphics/SVG/1.1/DTD/svg11.dtd" >
<svg>
<metadata>
Created by FontForge 20090914 at Thu Jan 12 13:02:57 2017
 By www-data
Copyright (c) 2002, 2006 Parachute&#194;&#168;, www.parachute.gr.  All rights reserved.
</metadata>
<defs>
<font id="PFBeauSansPro-SemiBold" horiz-adv-x="1263" >
  <font-face 
    font-family="PF BeauSans Pro SemiBold"
    font-weight="600"
    font-stretch="normal"
    units-per-em="2048"
    panose-1="2 0 5 3 0 0 0 2 0 4"
    ascent="1536"
    descent="-512"
    x-height="1075"
    cap-height="1436"
    bbox="-319.914 -470.999 2666 1893.06"
    underline-thickness="102"
    underline-position="-102"
    unicode-range="U+0020-U+FB02"
  />
<missing-glyph horiz-adv-x="748" 
d="M68 0v1365h544v-1365h-544zM136 68h408v1229h-408v-1229z" />
    <glyph glyph-name="uniFB01" unicode="fi" horiz-adv-x="1212" 
d="M20 924l-0.000976562 76.998c0 12 1.83301 21.167 5.5 27.5s12.834 10.833 27.501 13.5l148 35v84c0 48 6.5 93.5 19.5 136.5s35.167 80.833 66.5 113.5s73.666 58.667 126.999 78s120.666 29 201.999 29c12 0 29.833 -0.833008 53.5 -2.5s50.167 -4.16699 79.5 -7.5
s61.666 -7.66602 96.999 -12.999s71.333 -12.666 108 -21.999c10.667 -2.66699 17.5 -7.5 20.5 -14.5s3.16699 -15.833 0.5 -26.5l-27 -119c-4 -19.333 -16.333 -27 -37 -23c-52 10.667 -102.833 18.167 -152.5 22.5s-86.167 6.5 -109.5 6.5
c-45.333 0 -81.5 -4.5 -108.5 -13.5s-48 -21.333 -63 -37s-25.333 -33 -31 -52s-8.5 -38.833 -8.5 -59.5v-82h604c16.667 0 27 -2.66699 31 -8s6 -14.333 6 -27v-1005c0 -15.333 -3 -25 -9 -29s-16.667 -6 -32 -6h-159c-15.333 0 -25.666 2 -30.999 6s-8 13.667 -8 29v856
h-402v-856c0 -15.333 -3 -25 -9 -29s-16 -6 -30 -6h-159c-15.333 0 -25.666 2 -30.999 6s-8 13.667 -8 29v856h-148c-15.333 0 -24.666 3 -27.999 9s-5 14 -5 24z" />
    <glyph glyph-name="uniFB02" unicode="fl" horiz-adv-x="1314" 
d="M20 926l-0.000976562 75.002c0 12 1.83301 21.167 5.5 27.5s12.834 10.833 27.501 13.5l148 35v86c0 48 6.5 93.5 19.5 136.5s35.167 80.833 66.5 113.5s73.666 58.667 126.999 78s120.666 29 201.999 29c23.333 0 63.333 -2.16699 120 -6.5
s117.334 -13.833 182.001 -28.5l129 26c15.333 1.33301 25.5 0 30.5 -4s7.5 -13.333 7.5 -28v-1198c0 -36.667 5.16699 -61.334 15.5 -74.001s29.166 -19 56.499 -19c10.667 0 23.334 0.333008 38.001 1s26.667 2 36 4c10.667 1.33301 18.5 0.166016 23.5 -3.50098
s8.16699 -10.834 9.5 -21.501l14 -115c2.66699 -12 2.66699 -20.5 0 -25.5s-11 -10.833 -25 -17.5c-27.333 -10.667 -58.333 -18 -93 -22s-65.667 -6 -93 -6c-76.667 0 -132.667 18 -168 54s-53 97.667 -53 185v1082c-39.333 6.66699 -77.833 11 -115.5 13
s-64.834 3 -81.501 3c-45.333 0 -81.5 -4.5 -108.5 -13.5s-48 -21 -63 -36s-25.333 -31.667 -31 -50s-8.5 -37.833 -8.5 -58.5v-86h246c15.333 0 24.666 -2.66699 27.999 -8s5 -13.666 5 -24.999v-114c0 -12 -1.66699 -20.833 -5 -26.5s-12.666 -8.5 -27.999 -8.5h-246v-858
c0 -15.333 -3 -25 -9 -29s-16 -6 -30 -6h-159c-15.333 0 -25.666 2 -30.999 6s-8 13.667 -8 29v858h-148c-15.333 0 -24.666 3 -27.999 9s-5 14 -5 24z" />
    <glyph glyph-name=".notdef" horiz-adv-x="748" 
d="M68 0v1365h544v-1365h-544zM136 68h408v1229h-408v-1229z" />
    <glyph glyph-name="space" unicode=" " horiz-adv-x="573" 
 />
    <glyph glyph-name="exclam" unicode="!" horiz-adv-x="583" 
d="M129 143c0 44 16 81.999 48 113.999s70.667 48 116 48c46.667 0 85.667 -15.667 117 -47s47 -69.666 47 -114.999s-15.833 -83.5 -47.5 -114.5s-70.5 -46.5 -116.5 -46.5c-46.667 0 -85.667 15.333 -117 46s-47 69 -47 115zM162 1395
c-1.33301 10.667 0.999023 19.8311 6.99902 27.498s16.667 11.5 32 11.5h180c18 0 29.667 -4.16699 35 -12.5s7.33301 -17.166 6 -26.499l-47 -908c0 -15.333 -3.5 -25.166 -10.5 -29.499s-19.167 -6.5 -36.5 -6.5h-78c-27.333 0 -41.666 10.667 -42.999 32z" />
    <glyph glyph-name="quotedbl" unicode="&#x22;" horiz-adv-x="845" 
d="M119 1399c-2.66699 10.667 -0.668945 19.8311 5.99805 27.498s17.667 11.5 33 11.5h184c19.333 0 31.333 -4.16699 36 -12.5s6.33398 -17.166 5.00098 -26.499l-51 -502c-2.66699 -15.333 -7.16699 -25.333 -13.5 -30s-18.166 -7 -35.499 -7h-70
c-16.667 0 -28 2.33301 -34 7s-9.66699 13.334 -11 26.001zM460.998 1399c-1.33301 10.667 1.33008 19.832 7.99707 27.499s17.667 11.5 33 11.5h184c19.333 0 31.333 -4.16699 36 -12.5s6.33398 -17.166 5.00098 -26.499l-51 -502
c-2.66699 -15.333 -7.16699 -25.333 -13.5 -30s-18.166 -7 -35.499 -7h-72c-27.333 0 -41.666 11 -42.999 33z" />
    <glyph glyph-name="numbersign" unicode="#" 
d="M94 315l17.001 84.002c2.66699 10.667 5.66699 18.5 9 23.5s11.666 7.5 24.999 7.5h168l70 338h-172c-13.333 0 -21.5 2.66699 -24.5 8s-3.83301 13.666 -2.5 24.999l19 82c2.66699 9.33301 6 16.666 10 21.999s13 8 27 8h174l53 258
c2.66699 10.667 6.33398 17.834 11.001 21.501s12.667 5.5 24 5.5h94c13.333 0 22.833 -1.66699 28.5 -5s7.16699 -11.333 4.5 -24l-54 -256h271l53 258c2.66699 10.667 6 17.834 10 21.501s12.333 5.5 25 5.5h94c12 0 20.833 -1.66699 26.5 -5s7.16699 -11.333 4.5 -24
l-53 -256h168c12 0 19.667 -2.66699 23 -8s4.33301 -13.333 3 -24l-18 -80c-2.66699 -12 -6.5 -20.5 -11.5 -25.5s-12.833 -7.5 -23.5 -7.5h-170l-70 -338h170c20.667 0 29 -11 25 -33l-19 -82c-4 -20.667 -14.667 -30.667 -32 -30h-172l-54 -258
c-2.66699 -10.667 -5.66699 -17.834 -9 -21.501s-11.666 -5.5 -24.999 -5.5h-99c-10.667 0 -18.834 1.66699 -24.501 5s-6.83398 11.333 -3.50098 24l51 256h-269l-53 -258c-2.66699 -10.667 -5.66699 -17.834 -9 -21.501s-11.333 -5.5 -24 -5.5h-98
c-10.667 0 -19.167 1.66699 -25.5 5s-8.16602 11.333 -5.49902 24l54 256h-168c-20.667 0 -28.334 10 -23.001 30zM475.001 430.002h270l70 338h-268z" />
    <glyph glyph-name="dollar" unicode="$" 
d="M133 141c1.33301 2.66699 4.5 10.501 9.5 23.501l16.5 43l17 43c5.33301 13 8.66602 21.5 9.99902 25.5c8 18 21.667 23.667 41 17c39.333 -18 81.333 -33.833 126 -47.5s89.334 -24.5 134.001 -32.5v446c-49.333 22 -93 44.667 -131 68s-70.333 49.333 -97 78
s-47.167 60.667 -61.5 96s-21.5 75.666 -21.5 120.999c-1.33301 90 24 167.833 76 233.5s130.333 109.167 235 130.5v173c0 15.333 3.16699 23.833 9.5 25.5s14.833 2.5 25.5 2.5h37c13.333 0 22.833 -1 28.5 -3s8.5 -10.333 8.5 -25v-1762
c0 -15.333 -2.66699 -23.833 -8 -25.5s-15 -2.5 -29 -2.5h-37c-10.667 0 -19.167 1 -25.5 3s-9.5 10.333 -9.5 25v191c-60 6.66699 -119.333 18.5 -178 35.5s-114 40.5 -166 70.5c-16.667 8 -20 23.667 -10 47zM406 1034c0 -53.333 27.001 -98.332 81.001 -134.999v260
c-28.667 -15.333 -49.334 -33.833 -62.001 -55.5s-19 -44.834 -19 -69.501zM666.001 -202.998l0.000976562 1762c0 15.333 3 23.833 9 25.5s15 2.5 27 2.5h33c13.333 0 22.833 -1 28.5 -3s8.5 -10.333 8.5 -25v-168c44 -5.33301 87.833 -13.833 131.5 -25.5
s85.167 -27.167 124.5 -46.5c16.667 -6.66699 21.334 -20.334 14.001 -41.001l-49 -137c-4 -12 -8.33301 -18.833 -13 -20.5s-12 -1.16699 -22 1.5c-65.333 20.667 -127.333 36.334 -186 47.001v-395c45.333 -20.667 89.166 -42.5 131.499 -65.5s79.833 -50.167 112.5 -81.5
s58.5 -67.166 77.5 -107.499s28.5 -87.833 28.5 -142.5c0 -57.333 -8.83301 -108.166 -26.5 -152.499s-41.834 -82.333 -72.501 -114s-67.5 -57.667 -110.5 -78s-89.833 -34.5 -140.5 -42.5v-193c0 -15.333 -2.66699 -23.833 -8 -25.5s-15 -2.5 -29 -2.5h-33
c-12 0 -21 1 -27 3s-9 10.333 -9 25zM772.002 211c39.333 13.333 70 34.166 92 62.499s33 61.5 33 99.5c0 36.667 -10.5 68.334 -31.5 95.001s-52.167 51.667 -93.5 75v-332z" />
    <glyph glyph-name="percent" unicode="%" horiz-adv-x="1925" 
d="M90 961c0 64 7.83301 122.669 23.5 176.002s38.834 98.666 69.501 135.999s69.667 66.333 117 87s103 31 167 31c65.333 0 121.666 -10.333 168.999 -31s86 -49.334 116 -86.001s52.167 -81.334 66.5 -134.001s21.5 -111.667 21.5 -177c0 -64 -7.5 -122 -22.5 -174
s-38 -97.167 -69 -135.5s-70.333 -67.666 -118 -87.999s-103.5 -30.5 -167.5 -30.5c-125.333 0 -218.833 38.5 -280.5 115.5s-92.5 180.5 -92.5 310.5zM287 963.002c0 -35.333 2.66797 -69.4971 8.00098 -102.497s15.166 -62.167 29.499 -87.5s32.833 -45.5 55.5 -60.5
s51.667 -22.5 87 -22.5c34 0 62.333 7.5 85 22.5s40.834 35.167 54.501 60.5s23.5 54.166 29.5 86.499s9 66.166 9 101.499s-3 69.333 -9 102s-15.833 61.667 -29.5 87s-32.5 45.5 -56.5 60.5s-53 22.5 -87 22.5s-62.333 -7.5 -85 -22.5s-40.834 -34.833 -54.501 -59.5
s-23.167 -53.334 -28.5 -86.001s-8 -66.667 -8 -102zM463.001 -43.9951c-4 6 -2.66992 14.667 3.99707 26l842 1417c6.66699 12 12.334 20.5 17.001 25.5s14 7.5 28 7.5h96c8 0 14.833 -2.83301 20.5 -8.5s4.83398 -15.167 -2.49902 -28.5l-839 -1413
c-6.66699 -12 -14.167 -20.833 -22.5 -26.5s-20.166 -8.5 -35.499 -8.5h-84c-12 0 -20 3 -24 9zM1085 414.005c0 64 8.00098 122.669 24.001 176.002s39.333 98.666 70 135.999s69.5 66.333 116.5 87s102.5 31 166.5 31c65.333 0 121.666 -10.333 168.999 -31
s86 -49.334 116 -86.001s52.167 -81.334 66.5 -134.001s21.5 -111.667 21.5 -177c0 -64 -7.5 -122 -22.5 -174s-37.833 -97.167 -68.5 -135.5s-70 -67.666 -118 -87.999s-104 -30.5 -168 -30.5c-125.333 0 -218.833 38.5 -280.5 115.5s-92.5 180.5 -92.5 310.5z
M1282 416.007c0 -35.333 2.66797 -69.4971 8.00098 -102.497s15.166 -62.167 29.499 -87.5s32.833 -45.5 55.5 -60.5s51.667 -22.5 87 -22.5c34 0 62.333 7.5 85 22.5s40.834 35.167 54.501 60.5s23.5 54.166 29.5 86.499s9 66.166 9 101.499s-3 69.333 -9 102
s-15.833 61.667 -29.5 87s-32.5 45.5 -56.5 60.5s-53 22.5 -87 22.5s-62.333 -7.5 -85 -22.5s-40.834 -34.833 -54.501 -59.5s-23.167 -53.334 -28.5 -86.001s-8 -66.667 -8 -102z" />
    <glyph glyph-name="ampersand" unicode="&#x26;" horiz-adv-x="1536" 
d="M139 342c0 50.667 8.16504 98.4961 24.498 143.496s38.166 87.333 65.499 127s59.833 75.834 97.5 108.501s76.834 61.334 117.501 86.001c-36.667 44 -69.334 93.833 -98.001 149.5s-43 110.167 -43 163.5c0 52 9.5 98.833 28.5 140.5s45.333 77.167 79 106.5
s72.667 51.833 117 67.5s91.166 23.5 140.499 23.5c50.667 0 97.334 -7.5 140.001 -22.5s79.834 -35.833 111.501 -62.5s56.667 -58.667 75 -96s27.5 -79.333 27.5 -126c0 -49.333 -7.83301 -93.833 -23.5 -133.5s-36.167 -75.834 -61.5 -108.501
s-53.666 -61.667 -84.999 -87s-63.333 -48 -96 -68c34 -45.333 64.667 -84 92 -116l82 -95c39.333 70.667 87.666 133.334 144.999 188.001s123.666 91.667 198.999 111c18 5.33301 34.833 9 50.5 11s32.834 3.66699 51.501 5c13.333 0 22.333 -6 27 -18l20 -140
c4 -16.667 -4.66699 -26 -26 -28c-46.667 -8 -86.667 -21.667 -120 -41s-63 -42 -89 -68s-48.167 -55 -66.5 -87s-35.833 -65 -52.5 -99l79 -91.5l97 -111.5c36.667 -44 76.334 -89 119.001 -135c5.33301 -5.33301 7.33301 -13.166 6 -23.499s-8.66602 -15.5 -21.999 -15.5
h-183c-15.333 0 -28 1.66699 -38 5s-19.667 10.666 -29 21.999l-70 75c-18 19.333 -34.5 37.833 -49.5 55.5s-23.833 27.834 -26.5 30.501c-49.333 -57.333 -108.333 -107.166 -177 -149.499s-151 -63.5 -247 -63.5c-120 0 -214.833 32.5 -284.5 97.5
s-104.5 154.833 -104.5 269.5zM366.998 359.996c0 -60 15.665 -104.667 46.998 -134s77 -44 137 -44c24.667 0 49.667 4.83301 75 14.5s49.5 22.334 72.5 38.001s44.833 33.667 65.5 54s38.334 42.166 53.001 65.499l-122.5 150l-119.5 147
c-27.333 -18 -53.5 -37.167 -78.5 -57.5s-47.167 -42.333 -66.5 -66s-34.666 -49.5 -45.999 -77.5s-17 -58 -17 -90zM527.996 1126c0 -38 11.668 -77.165 35.001 -117.498s48 -75.5 74 -105.5c18 10.667 36.5 23.667 55.5 39s36.667 32.166 53 50.499
s29.666 38.666 39.999 60.999s15.5 47.166 15.5 74.499c0 32.667 -11 63.834 -33 93.501s-54.667 44.5 -98 44.5c-44 0 -78.667 -13 -104 -39s-38 -59.667 -38 -101z" />
    <glyph glyph-name="quotesingle" unicode="'" horiz-adv-x="501" 
d="M119 1399c-1.33301 10.667 0.998047 19.8311 6.99805 27.498s16.667 11.5 32 11.5h184c19.333 0 31.333 -4.16699 36 -12.5s6.33398 -17.166 5.00098 -26.499l-51 -502c-2.66699 -15.333 -7.16699 -25.333 -13.5 -30s-18.166 -7 -35.499 -7h-70
c-16.667 0 -28 2.33301 -34 7s-9.66699 13.334 -11 26.001z" />
    <glyph glyph-name="parenleft" unicode="(" horiz-adv-x="647" 
d="M76 655c0 88.667 10.168 172.002 30.501 250.002s48.333 151.167 84 219.5s76.334 132.166 122.001 191.499s94.5 115 146.5 167c9.33301 9.33301 17.166 14 23.499 14s14.166 -3.33301 23.499 -10l86 -60c13.333 -9.33301 14.666 -20 3.99902 -32
c-87.333 -106.667 -153.5 -218 -198.5 -334s-67.5 -247 -67.5 -393c0 -78 5.83301 -150.5 17.5 -217.5s28.667 -129.833 51 -188.5s50.333 -114.834 84 -168.501s71.5 -105.834 113.5 -156.501c10.667 -13.333 10 -25.666 -2 -36.999l-88 -62
c-9.33301 -8 -17.166 -11 -23.499 -9s-13.5 7 -21.5 15c-52 52 -101.167 107 -147.5 165s-87.333 120.5 -123 187.5s-63.667 138.333 -84 214s-30.5 157.167 -30.5 244.5z" />
    <glyph glyph-name="parenright" unicode=")" horiz-adv-x="659" 
d="M74 1410c0 4.66699 3.99902 9.66504 11.999 14.998l86 62c10.667 8 19.167 11.667 25.5 11s13.5 -5 21.5 -13c50.667 -52 99.167 -107.667 145.5 -167s87.333 -122.833 123 -190.5s63.667 -139.667 84 -216s30.5 -158.166 30.5 -245.499
c0 -88.667 -10.167 -171.667 -30.5 -249s-48 -149.833 -83 -217.5s-75.667 -130.834 -122 -189.501s-95.5 -113.334 -147.5 -164.001c-8 -9.33301 -15.167 -14.666 -21.5 -15.999s-14.833 1.33398 -25.5 8.00098l-86 60c-13.333 8.66699 -14.666 20.667 -3.99902 36
c87.333 106.667 153.5 217.334 198.5 332.001s67.5 245 67.5 391c0 155.333 -23.167 291.166 -69.5 407.499s-111.833 225.833 -196.5 328.5c-5.33301 6.66699 -8 12.334 -8 17.001z" />
    <glyph glyph-name="asterisk" unicode="*" horiz-adv-x="1009" 
d="M144.5 1078c-3.66699 4.66699 -3.50098 14.667 0.499023 30l31 98c5.33301 23.333 20.333 29.666 45 18.999l228 -97l-25 252c-2.66699 19.333 8.33301 29 33 29h108c13.333 0 21.833 -2 25.5 -6s4.83398 -11.667 3.50098 -23l-23 -254l226 99c15.333 6.66699 26 8 32 4
s10.333 -11.667 13 -23l32 -102c8 -23.333 2 -36.333 -18 -39l-244 -61l162 -187c10.667 -10.667 15 -19.834 13 -27.501s-8.33301 -14.834 -19 -21.501l-82 -61c-13.333 -10.667 -23.166 -15.5 -29.499 -14.5s-12.833 8.5 -19.5 22.5c-2.66699 4 -10.167 16.833 -22.5 38.5
s-26.333 44.834 -42 69.501l-43 69c-13 21.333 -20.167 34 -21.5 38l-129 -219c-6.66699 -13.333 -13.5 -20.166 -20.5 -20.499s-15.167 2.83398 -24.5 9.50098c-2.66699 1.33301 -8.16699 5.5 -16.5 12.5l-28 23c-10.333 8.33301 -19.833 15.5 -28.5 21.5
s-13.667 10.333 -15 13c-10.667 6.66699 -16.834 13.167 -18.501 19.5s2.5 14.833 12.5 25.5l161 191l-233 59c-12 4 -19.833 8.33301 -23.5 13z" />
    <glyph glyph-name="plus" unicode="+" 
d="M123 637l0.00195312 135c0 15.333 2 26 6 32s13.667 9 29 9h360v371c0 15.333 3.16699 25 9.5 29s16.166 6 29.499 6h152c15.333 0 25.666 -2.16699 30.999 -6.5s8 -13.833 8 -28.5v-371h358c15.333 0 25 -3 29 -9s6 -16.667 6 -32v-135
c0 -15.333 -2.16699 -25.666 -6.5 -30.999s-13.833 -8 -28.5 -8h-358v-373c0 -15.333 -2.83301 -25 -8.5 -29s-15.834 -6 -30.501 -6h-152c-13.333 0 -23.166 2.16699 -29.499 6.5s-9.5 13.833 -9.5 28.5v373h-360c-15.333 0 -25 2.66699 -29 8s-6 15.666 -6 30.999z" />
    <glyph glyph-name="comma" unicode="," horiz-adv-x="538" 
d="M125 -229l29.002 505c1.33301 10.667 4.66602 20.167 9.99902 28.5s15.666 12.5 30.999 12.5h213c18 0 29.667 -4 35 -12s6.33301 -17.667 3 -29l-149 -501c-4 -15.333 -8.5 -25.333 -13.5 -30s-14.833 -7 -29.5 -7h-86c-30 0 -44.333 11 -43 33z" />
    <glyph glyph-name="hyphen" unicode="-" horiz-adv-x="768" 
d="M102 512v168.002c0 15.333 2.16699 25.666 6.5 30.999s13.833 8 28.5 8h494c15.333 0 25 -2.83301 29 -8.5s6 -15.834 6 -30.501v-168c0 -13.333 -2.16699 -23.166 -6.5 -29.499s-13.833 -9.5 -28.5 -9.5h-494c-15.333 0 -25 3.16699 -29 9.5s-6 16.166 -6 29.499z" />
    <glyph glyph-name="period" unicode="." horiz-adv-x="581" 
d="M119 145c0 24.667 4.33301 47.3311 13 67.998s21 38.834 37 54.501s34.5 27.834 55.5 36.501s43.167 13 66.5 13c50.667 0 92.334 -16.333 125.001 -49s49 -73.667 49 -123c0 -48 -16.333 -88.333 -49 -121s-74.334 -49 -125.001 -49c-23.333 0 -45.5 4.5 -66.5 13.5
s-39.5 21 -55.5 36s-28.333 32.833 -37 53.5s-13 43 -13 67z" />
    <glyph glyph-name="slash" unicode="/" horiz-adv-x="919" 
d="M31 -162l643.001 1723c6.66699 22 23 32.667 49 32h147c9.33301 0 17.5 -2.33301 24.5 -7s7.83301 -13.667 2.5 -27l-641 -1723c-6.66699 -22 -24.334 -33 -53.001 -33h-142c-12 0 -21 2.83301 -27 8.5s-7 14.5 -3 26.5z" />
    <glyph glyph-name="zero" unicode="0" 
d="M72 686c0 106.667 11.502 204 34.502 292s57.833 163 104.5 225s105.167 110.167 175.5 144.5s152.5 51.5 246.5 51.5c98 0 182.5 -16.833 253.5 -50.5s129 -81.5 174 -143.5s78.167 -136.667 99.5 -224s32 -184.333 32 -291s-11.333 -203.667 -34 -291
s-56.834 -162 -102.501 -224s-104 -110.5 -175 -145.5s-154.833 -52.5 -251.5 -52.5c-94 0 -176.333 16.833 -247 50.5s-128.834 81.5 -174.501 143.5s-79.667 136.667 -102 224s-33.5 184.333 -33.5 291zM315.002 690c0 -66.667 5.16797 -130.67 15.501 -192.003
s27.5 -115.666 51.5 -162.999s56.5 -85.333 97.5 -114s92.167 -43 153.5 -43c60 0 110.5 14 151.5 42s73.833 65.5 98.5 112.5s42 101.333 52 163s15 125.167 15 190.5c0 66.667 -5.33301 131.167 -16 193.5s-28.334 117 -53.001 164s-57.5 84.5 -98.5 112.5
s-92.167 42 -153.5 42c-60 0 -110.167 -14 -150.5 -42s-72.5 -65.167 -96.5 -111.5s-41.167 -100.166 -51.5 -161.499s-15.5 -125.666 -15.5 -192.999z" />
    <glyph glyph-name="one" unicode="1" 
d="M256 39l-0.000976562 127c0 15.333 2 25.666 6 30.999s13.667 8 29 8h231v944l-227 -37c-15.333 -2.66699 -25 -1.66699 -29 3s-6 13.334 -6 26.001v116c0 12 2 21.5 6 28.5s13.667 13.5 29 19.5l321 90c36.667 10.667 69.834 10.834 99.501 0.500977
s44.5 -35.833 44.5 -76.5v-1114h244c15.333 0 24.833 -2.83301 28.5 -8.5s5.5 -15.834 5.5 -30.501v-127c0 -15.333 -2 -25.666 -6 -30.999s-13.333 -8 -28 -8h-713c-15.333 0 -25 2.66699 -29 8s-6 15.666 -6 30.999z" />
    <glyph glyph-name="two" unicode="2" 
d="M125 170c0 45.333 15.332 98.0059 45.999 158.006s76 120.667 136 182c56 57.333 113.333 106.833 172 148.5s109.334 75.5 152.001 101.5c42 26 77.333 49.5 106 70.5s51.5 41.5 68.5 61.5s29 39.833 36 59.5s10.5 41.167 10.5 64.5
c0 49.333 -19.833 89.666 -59.5 120.999s-100.5 47 -182.5 47c-52 0 -104.833 -9 -158.5 -27s-105.167 -44.667 -154.5 -80c-10.667 -6.66699 -20.5 -10.334 -29.5 -11.001s-16.833 4.33301 -23.5 15l-80 113c-12 19.333 -9.33301 35.666 8 48.999
c65.333 50.667 137 89.334 215 116.001s158 40 240 40c64 0 124.333 -7.5 181 -22.5s106.5 -37.833 149.5 -68.5s77.167 -69.334 102.5 -116.001s38 -101.334 38 -164.001c0 -50.667 -7.83301 -96.5 -23.5 -137.5s-38.167 -78.833 -67.5 -113.5
s-64.833 -67.334 -106.5 -98.001s-87.834 -60.334 -138.501 -89.001c-38 -22 -76.167 -46.667 -114.5 -74s-74.333 -57.333 -108 -90s-63.667 -67.5 -90 -104.5s-47.166 -75.833 -62.499 -116.5h676c15.333 0 25 -2.83301 29 -8.5s6 -15.834 6 -30.501v-127
c0 -15.333 -2.16699 -25.666 -6.5 -30.999s-13.833 -8 -28.5 -8h-768c-61.333 0 -105 12 -131 36s-39 68.667 -39 134z" />
    <glyph glyph-name="three" unicode="3" 
d="M102 162l75.999 118.997c13.333 22 33.333 24.667 60 8c50.667 -35.333 103.5 -60.666 158.5 -75.999s109.167 -23 162.5 -23c98 0 170.667 22.333 218 67s71 103.667 71 177c0 24.667 -5.16699 49 -15.5 73s-26 45.167 -47 63.5s-48.333 33 -82 44
s-72.834 16.5 -117.501 16.5h-58c-23.333 0 -39.666 3.66699 -48.999 11s-14 24 -14 50v68c0 26 4 43.667 12 53s21.667 14 41 14h55c78 0 137.5 17.167 178.5 51.5s61.5 80.166 61.5 137.499c0 30 -6.83301 55.833 -20.5 77.5s-31.334 39.334 -53.001 53.001
s-46.5 23.667 -74.5 30s-56.333 9.5 -85 9.5c-54.667 0 -110 -8.16699 -166 -24.5s-105.333 -39.5 -148 -69.5c-26 -16.667 -45.667 -14 -59 8l-70 108c-6.66699 9.33301 -10 17.5 -10 24.5s4.66699 13.833 14 20.5c28.667 24.667 61.5 46.334 98.5 65.001s75.667 34 116 46
s81.333 21.167 123 27.5s82.167 9.5 121.5 9.5c61.333 0 119.666 -7.16699 174.999 -21.5s103.833 -36.166 145.5 -65.499s74.834 -66.166 99.501 -110.499s37 -96.5 37 -156.5c0 -70.667 -20.167 -134.5 -60.5 -191.5s-92.5 -97.167 -156.5 -120.5v-10
c79.333 -15.333 141.833 -52.333 187.5 -111s68.5 -127.334 68.5 -206.001c0 -62.667 -12.333 -120.334 -37 -173.001s-59.5 -98.167 -104.5 -136.5s-99.333 -68.166 -163 -89.499s-134.167 -32 -211.5 -32c-87.333 0 -171.666 10 -252.999 30s-155 56.667 -221 110
c-13.333 12 -14.666 27 -3.99902 45z" />
    <glyph glyph-name="four" unicode="4" 
d="M61 397v34.999c0 24.667 3.5 48.334 10.5 71.001s19.5 45.334 37.5 68.001l571 740c16.667 22 36.167 43.167 58.5 63.5s51.833 30.5 88.5 30.5h78c42 0 71.333 -8.83301 88 -26.5s25 -48.5 25 -92.5v-797h137c15.333 0 25.666 -2.33301 30.999 -7s8 -14.334 8 -29.001
v-123c0 -15.333 -2.66699 -25.333 -8 -30s-15.666 -7 -30.999 -7h-137v-258c0 -15.333 -3.16699 -25 -9.5 -29s-16.833 -6 -31.5 -6h-160c-13.333 0 -22.833 2 -28.5 6s-8.5 13.667 -8.5 29v256h-602c-30 0 -57 6.5 -81 19.5s-36 41.833 -36 86.5zM319 497.999l5 -9h454v594
l-6 7z" />
    <glyph glyph-name="five" unicode="5" 
d="M104 160l82 125.002c13.333 20.667 34 22 62 4c50.667 -34 105 -59 163 -75s117.667 -24 179 -24c100 0 177.833 23.333 233.5 70s83.5 109.667 83.5 189c0 39.333 -7.16699 73 -21.5 101s-33.333 51.167 -57 69.5s-51.334 32 -83.001 41s-64.5 13.5 -98.5 13.5
c-35.333 0 -66 -2 -92 -6s-50.667 -9.5 -74 -16.5s-45.833 -15.333 -67.5 -25l-71.5 -30.5c-34 -13.333 -68 -14 -102 -2l-47 16c-23.333 8 -40.166 20 -50.499 36s-14.166 39.667 -11.499 71l51 520c5.33301 48 21 83.167 47 105.5s57 33.5 93 33.5h694
c16.667 0 27.334 -2.66699 32.001 -8s7 -16.333 7 -33v-127c0 -15.333 -2.83301 -26 -8.5 -32s-15.834 -9 -30.501 -9h-610l-37 -338c49.333 20.667 100.166 34.167 152.499 40.5s102.5 9.5 150.5 9.5c66.667 0 129.334 -10 188.001 -30s109.167 -48 151.5 -84
s75.833 -80 100.5 -132s37 -110 37 -174c0 -76.667 -13.333 -145 -40 -205s-63.834 -110.833 -111.501 -152.5s-105 -73.5 -172 -95.5s-140.833 -33 -221.5 -33c-87.333 0 -174 9.66699 -260 29s-163 57.666 -231 114.999c-15.333 13.333 -18.333 27.666 -9 42.999z" />
    <glyph glyph-name="six" unicode="6" 
d="M88 623c0 109.333 12.6641 211.667 37.9971 307s65 178.166 119 248.499s123.667 125.666 209 165.999s188 60.5 308 60.5c39.333 0 83 -2.66699 131 -8s89.667 -15.666 125 -30.999c10.667 -2.66699 18.5 -7.16699 23.5 -13.5s3.83301 -17.5 -3.5 -33.5l-39 -131
c-4 -12 -9.66699 -19.167 -17 -21.5s-18 -1.5 -32 2.5c-23.333 6.66699 -52.333 12.834 -87 18.501s-67.667 8.5 -99 8.5c-120 0 -214.833 -33.833 -284.5 -101.5s-113.5 -157.5 -131.5 -269.5c44 15.333 97.667 27.333 161 36s121 13 173 13
c68 0 132.833 -8.16699 194.5 -24.5s115.334 -41.833 161.001 -76.5s82.167 -79 109.5 -133s41 -118.667 41 -194c0 -80.667 -14.667 -150.667 -44 -210s-68.666 -108 -117.999 -146s-105.666 -66.333 -168.999 -85s-129.333 -28 -198 -28
c-187.333 0 -329.333 57.5 -426 172.5s-145 272.833 -145 473.5zM329.997 557.001c0 -56 8.16699 -106.832 24.5 -152.499s38.833 -84.834 67.5 -117.501s63.5 -58 104.5 -76s86.167 -27 135.5 -27c86 0 154.5 21.167 205.5 63.5s76.5 103.833 76.5 184.5
c0 69.333 -21.833 126.333 -65.5 171s-110.5 67 -200.5 67c-60 0 -117.333 -3.83301 -172 -11.5s-112.667 -20.167 -174 -37.5c-1.33301 -18 -2 -31.167 -2 -39.5v-24.5z" />
    <glyph glyph-name="seven" unicode="7" 
d="M100 1210l-0.00390625 125c0 16.667 2.5 28 7.5 34s14.833 9 29.5 9h871c28.667 0 52.834 -6.5 72.501 -19.5s29.5 -35.833 29.5 -68.5v-57c0 -22 -2.66699 -42.5 -8 -61.5s-13.666 -38.833 -24.999 -59.5l-581 -1075c-8 -15.333 -16.167 -25.333 -24.5 -30
s-22.166 -7 -41.499 -7h-176c-12 -0 -21.167 4.83301 -27.5 14.5s-6.16602 21.167 0.500977 34.5l607 1120h-697c-15.333 0 -25.333 3.16699 -30 9.5s-7 16.833 -7 31.5z" />
    <glyph glyph-name="eight" unicode="8" 
d="M100 391c0 38 6.16797 75.1689 18.501 111.502s29.166 69.833 50.499 100.5s47 57.667 77 81s62.667 41 98 53v6c-35.333 13.333 -65 31 -89 53s-43.5 45.333 -58.5 70s-25.833 50 -32.5 76s-10 49.333 -10 70c0 61.333 12.167 116.5 36.5 165.5s58 90.333 101 124
s93.5 59.334 151.5 77.001s120 26.5 186 26.5c72.667 0 137.834 -9.16699 195.501 -27.5s107 -44.333 148 -78s72.5 -73.334 94.5 -119.001s33 -95.834 33 -150.501c0 -20.667 -3.5 -44.5 -10.5 -71.5s-18.333 -53.833 -34 -80.5s-35.334 -52 -59.001 -76
s-52.834 -43.667 -87.501 -59v-6c42 -12 78.5 -30 109.5 -54s56.333 -51.333 76 -82s34.334 -63.667 44.001 -99s14.5 -71 14.5 -107c0 -52 -11 -102.833 -33 -152.5s-54.833 -94.334 -98.5 -134.001s-98.167 -71.5 -163.5 -95.5s-142.333 -36 -231 -36
c-87.333 0 -163.833 10.333 -229.5 31s-120.667 49.5 -165 86.5s-77.5 80.667 -99.5 131s-33 105.5 -33 165.5zM346.001 403.002c0 -28.667 4.83301 -56.167 14.5 -82.5s25.334 -50.166 47.001 -71.499s50.667 -38.5 87 -51.5s80.5 -19.5 132.5 -19.5
c53.333 0 98 7.16699 134 21.5s64.667 32.5 86 54.5s36.666 46.667 45.999 74s14 54.666 14 81.999c0 36.667 -7.16699 69 -21.5 97s-34.5 51.833 -60.5 71.5s-56 34.334 -90 44.001s-70 14.5 -108 14.5c-36.667 0 -72.167 -5.5 -106.5 -16.5s-64.5 -26.333 -90.5 -46
s-46.5 -43.834 -61.5 -72.501s-22.5 -61.667 -22.5 -99zM391.001 995.002c0 -52 22.499 -94.333 67.499 -127s100.5 -49 166.5 -49c31.333 0 61.333 4.83301 90 14.5s53.834 22.667 75.501 39s39 35.333 52 57s19.5 45.5 19.5 71.5c0 56 -19.5 102.833 -58.5 140.5
s-98.5 56.5 -178.5 56.5c-39.333 0 -73.833 -5.5 -103.5 -16.5s-54 -26 -73 -45s-33.333 -40.833 -43 -65.5s-14.5 -50 -14.5 -76z" />
    <glyph glyph-name="nine" unicode="9" 
d="M74 936c0 80.667 14.666 150.668 43.999 210.001s68.5 108.166 117.5 146.499s105.333 66.666 169 84.999s129.5 27.5 197.5 27.5c92.667 0 174.5 -14.667 245.5 -44s130.833 -72 179.5 -128s85.334 -124 110.001 -204s37 -169.667 37 -269
c0 -109.333 -12.667 -211.833 -38 -307.5s-65.333 -178.667 -120 -249s-124.667 -125.666 -210 -165.999s-188 -60.5 -308 -60.5c-38 0 -81 2.83301 -129 8.5s-89.667 15.834 -125 30.501c-10.667 4 -18.5 8.83301 -23.5 14.5s-4.83301 16.5 0.5 32.5l41 132
c4 23.333 19 30.666 45 21.999c19.333 -6.66699 47.833 -13.5 85.5 -20.5s72.167 -10.5 103.5 -10.5c120 0 214.833 33.833 284.5 101.5s113.834 157.5 132.501 269.5c-44 -15.333 -95.167 -27.333 -153.5 -36s-113.5 -13 -165.5 -13c-68 0 -133.5 8.16699 -196.5 24.5
s-118.333 42 -166 77s-85.834 79.333 -114.501 133s-43 118.167 -43 193.5zM316.999 950.001c0 -69.333 23.666 -126.167 70.999 -170.5s112 -66.5 194 -66.5c61.333 0 119 3.66699 173 11s111.667 20 173 38c2.66699 18 4 31.333 4 40v25c0 54.667 -8.83301 105 -26.5 151
s-42 85.333 -73 118s-66.167 58.167 -105.5 76.5s-81.666 27.5 -126.999 27.5c-36.667 0 -72.167 -5.5 -106.5 -16.5s-64.333 -27 -90 -48s-46.5 -47.333 -62.5 -79s-24 -67.167 -24 -106.5z" />
    <glyph glyph-name="colon" unicode=":" horiz-adv-x="579" 
d="M119 150c0 23.333 4.33301 45.166 13 65.499s21 38.333 37 54s34.167 27.834 54.5 36.501s42.833 13 67.5 13c49.333 0 90.333 -15.833 123 -47.5s49 -71.5 49 -119.5s-16.833 -88.333 -50.5 -121s-74.167 -49 -121.5 -49c-48 0 -88.667 16 -122 48s-50 72 -50 120z
M119 918c0 23.333 4.33301 45.165 13 65.498s21 38.333 37 54s34.167 27.834 54.5 36.501s42.833 13 67.5 13c49.333 0 90.333 -16.167 123 -48.5s49 -72.5 49 -120.5c0 -23.333 -4.5 -45.666 -13.5 -66.999s-21.333 -39.5 -37 -54.5s-33.667 -26.833 -54 -35.5
s-42.833 -13 -67.5 -13c-48 0 -88.667 16.333 -122 49s-50 73 -50 121z" />
    <glyph glyph-name="semicolon" unicode=";" horiz-adv-x="569" 
d="M133 -227l31.002 502.999c1.33301 10.667 4.66602 20.167 9.99902 28.5s15.666 12.5 30.999 12.5h211c19.333 0 31.333 -4.33301 36 -13s5.66699 -18 3 -28l-148 -499c-5.33301 -15.333 -10.333 -25.666 -15 -30.999s-14.667 -8 -30 -8h-84
c-31.333 0 -46.333 11.667 -45 35zM139.002 917.999c0 48 16.5029 88.166 49.5029 120.499s73.833 48.5 122.5 48.5c48 0 88.667 -16.167 122 -48.5s50 -72.5 50 -120.5c0 -23.333 -4.33301 -45.666 -13 -66.999s-20.834 -39.5 -36.501 -54.5s-33.834 -26.833 -54.501 -35.5
s-43.334 -13 -68.001 -13c-49.333 0 -90.333 16.333 -123 49s-49 73 -49 121z" />
    <glyph glyph-name="less" unicode="&#x3c;" 
d="M123 664l-0.00195312 68.999c0 23.333 5.16699 39.833 15.5 49.5s25.5 19.167 45.5 28.5l916 424c16.667 6.66699 27.334 7 32.001 1s7 -16 7 -30v-131c0 -15.333 -2.16699 -27.666 -6.5 -36.999s-13.833 -17.333 -28.5 -24l-678 -305l670 -297
c19.333 -10.667 31.333 -19.834 36 -27.501s7 -21.167 7 -40.5v-139c0 -10.667 -2.5 -19.167 -7.5 -25.5s-14.833 -6.16602 -29.5 0.500977l-918 420c-19.333 9.33301 -33.666 18.5 -42.999 27.5s-15.333 21.167 -18 36.5z" />
    <glyph glyph-name="equal" unicode="=" 
d="M164 440l0.000976562 130.998c0 13.333 1.66699 22.833 5 28.5s12.666 8.5 27.999 8.5h870c15.333 0 25 -2.66699 29 -8s6 -15.666 6 -30.999v-127c0 -15.333 -2 -25.666 -6 -30.999s-13.667 -8 -29 -8h-868c-15.333 0 -25 2.83301 -29 8.5s-6 15.167 -6 28.5z
M164.001 828.998v129c0 15.333 2 25.666 6 30.999s13.667 8 29 8h866c15.333 0 25 -2.66699 29 -8s6 -15.666 6 -30.999v-129c0 -15.333 -2.16699 -25.5 -6.5 -30.5s-13.833 -7.5 -28.5 -7.5h-866c-15.333 0 -25 2.66699 -29 8s-6 15.333 -6 30z" />
    <glyph glyph-name="greater" unicode="&#x3e;" 
d="M125 205v139.002c0 19.333 2.33301 32.666 7 39.999s16.667 16.666 36 27.999l670 297l-678 305c-15.333 6.66699 -25 14.834 -29 24.501s-6 21.834 -6 36.501v131c0 13.333 2.33301 23.166 7 29.499s15.334 6.16602 32.001 -0.500977l915 -424
c20.667 -9.33301 36.167 -18.833 46.5 -28.5s15.5 -26.167 15.5 -49.5v-69c-2.66699 -15.333 -8.83398 -27.5 -18.501 -36.5s-24.167 -18.167 -43.5 -27.5l-917 -420c-15.333 -6.66699 -25.333 -7 -30 -1s-7 14.667 -7 26z" />
    <glyph glyph-name="question" unicode="?" horiz-adv-x="1124" 
d="M121 1253c-10.667 19.333 -7.33203 34.998 10.001 46.998c32.667 24.667 68.167 46.334 106.5 65.001s76.666 34.167 114.999 46.5s75.833 21.5 112.5 27.5s70.667 9 102 9c64 0 124.5 -7.16699 181.5 -21.5s106.167 -36.166 147.5 -65.499s74 -66.833 98 -112.5
s36 -99.5 36 -161.5c0 -36.667 -6.16699 -71.334 -18.5 -104.001s-28 -63.334 -47 -92.001s-41.167 -55.667 -66.5 -81s-51 -49.666 -77 -72.999l-75.5 -68.5c-24.333 -22.333 -46.5 -44.5 -66.5 -66.5s-35.833 -44.5 -47.5 -67.5s-17.5 -47.5 -17.5 -73.5v-43
c0 -9.33301 -2 -16.833 -6 -22.5s-12 -8.5 -24 -8.5h-174c-12 0 -20.167 2.66699 -24.5 8s-6.5 13 -6.5 23v57c0 42 7.5 80.167 22.5 114.5s34.167 65.833 57.5 94.5s49.333 55.334 78 80.001l84 74c39.333 35.333 74.333 71.333 105 108s46 80.334 46 131.001
c0 16.667 -3 33.834 -9 51.501s-17.167 34 -33.5 49s-38.5 27.667 -66.5 38s-63.333 15.5 -106 15.5c-52 0 -104.167 -8.5 -156.5 -25.5s-103.833 -42.833 -154.5 -77.5c-10.667 -6.66699 -20.167 -10.334 -28.5 -11.001s-15.833 4.66602 -22.5 15.999zM322.002 136.998
c0 46.667 17 86 51 118s75 48 123 48c16.667 0 34.5 -2.66699 53.5 -8s36.667 -14.833 53 -28.5s29.833 -31.167 40.5 -52.5s16 -47 16 -77c0 -46.667 -16 -86 -48 -118s-71.667 -48 -119 -48c-48 0 -88.333 15.833 -121 47.5s-49 71.167 -49 118.5z" />
    <glyph glyph-name="at" unicode="@" horiz-adv-x="2013" 
d="M160 664c0 118.667 22.8271 228.832 68.4941 330.499s108.5 189.334 188.5 263.001s174.5 131.334 283.5 173.001s227.167 62.5 354.5 62.5c122.667 0 233.5 -18.5 332.5 -55.5s183 -89.167 252 -156.5s122.167 -148.833 159.5 -244.5s56 -202.834 56 -321.501
c0 -74 -10.167 -141 -30.5 -201s-49.666 -111.5 -87.999 -154.5s-83.666 -76.5 -135.999 -100.5s-110.166 -36 -173.499 -36c-69.333 0 -125.833 12.333 -169.5 37s-71.5 55.334 -83.5 92.001c-31.333 -23.333 -70.666 -44.166 -117.999 -62.499s-93.333 -27.5 -138 -27.5
c-102.667 0 -179.667 22.5 -231 67.5s-77 110.5 -77 196.5c0 38 6.5 74.833 19.5 110.5s33.5 67.167 61.5 94.5s64.5 49.166 109.5 65.499s100.5 24.5 166.5 24.5h170v19c0 19.333 -2.16699 37.166 -6.5 53.499s-11.833 30.166 -22.5 41.499s-26 20.5 -46 27.5
s-46.333 10.5 -79 10.5c-35.333 0 -73.5 -3.5 -114.5 -10.5s-75.833 -13.833 -104.5 -20.5c-15.333 -2.66699 -26.666 -3.33398 -33.999 -2.00098s-12.333 9 -15 23l-21 90c-2.66699 10.667 -2.66699 19.5 0 26.5s11.667 13.833 27 20.5
c87.333 28.667 183.666 43 288.999 43c114.667 0 197.5 -25.333 248.5 -76s76.5 -123.667 76.5 -219v-328c0 -10.667 1 -23.167 3 -37.5s7.16699 -28.666 15.5 -42.999s20.666 -26.333 36.999 -36s38.833 -14.5 67.5 -14.5c72.667 0 127.667 30 165 90s56 136.667 56 230
c0 92.667 -14.333 177.167 -43 253.5s-70.167 141.5 -124.5 195.5s-120.166 96 -197.499 126s-163.666 45 -258.999 45c-108 0 -206 -17.333 -294 -52s-163.167 -81.667 -225.5 -141s-110.5 -129.666 -144.5 -210.999s-51 -167.666 -51 -258.999
c0 -96.667 16.333 -185.334 49 -266.001s79 -149.834 139 -207.501s132 -102.5 216 -134.5s176.667 -48 278 -48c27.333 0 65.166 3.16699 113.499 9.5s99.166 18.833 152.499 37.5c10.667 4 19.834 5.66699 27.501 5s13.5 -7 17.5 -19l31 -88
c4 -12 3.66699 -21.167 -1 -27.5s-12.667 -12.166 -24 -17.499c-49.333 -23.333 -103.166 -39.833 -161.499 -49.5s-112.166 -14.5 -161.499 -14.5c-131.333 0 -249.833 20.167 -355.5 60.5s-195.667 96.333 -270 168s-131.333 157.667 -171 258s-59.5 210.833 -59.5 331.5z
M812.994 531.998c0 -42 14.668 -70.165 44.001 -84.498s61.666 -21.5 96.999 -21.5c23.333 0 51.333 4.5 84 13.5s65 24.167 97 45.5v179h-148c-18 0 -37.167 -1.16699 -57.5 -3.5s-39 -7.83301 -56 -16.5s-31.333 -21.834 -43 -39.501s-17.5 -41.834 -17.5 -72.501z" />
    <glyph glyph-name="A" unicode="A" horiz-adv-x="1308" 
d="M32.5 13.5c-3.66699 9 -3.50195 18.833 0.498047 29.5l442 1296c6.66699 20.667 13.5 37.167 20.5 49.5s15.667 21.833 26 28.5s22.333 11.834 36 15.501s29.834 5.5 48.501 5.5h88c42 0 72 -6.5 90 -19.5s33.667 -39.5 47 -79.5l445 -1296
c4 -10.667 4.33301 -20.5 1 -29.5s-12.666 -13.5 -27.999 -13.5h-188c-15.333 0 -27.333 1.66699 -36 5s-15.667 12.666 -21 27.999l-91 280h-520l-90 -278c-4 -12 -9.83301 -20.833 -17.5 -26.5s-19.5 -8.5 -35.5 -8.5h-189c-15.333 0 -24.833 4.5 -28.5 13.5zM454.998 526
h393l-107 344l-86 291h-10l-84 -284z" />
    <glyph glyph-name="B" unicode="B" horiz-adv-x="1359" 
d="M154 117l0.000976562 1202c0 39.333 8.16699 68.666 24.5 87.999s46.166 29 89.499 29l475 2c62.667 0 121.334 -6.83301 176.001 -20.5s101.5 -34.834 140.5 -63.501s69.833 -65.5 92.5 -110.5s34 -99.167 34 -162.5c0 -61.333 -15.333 -116.833 -46 -166.5
s-69.334 -87.5 -116.001 -113.5v-15c38 -15.333 71.333 -35.5 100 -60.5s52 -53.167 70 -84.5s31.333 -64.833 40 -100.5s13 -71.834 13 -108.501c0 -64 -12.667 -122.667 -38 -176s-59.5 -99.166 -102.5 -137.499s-93.5 -67.666 -151.5 -87.999s-120.333 -30.5 -187 -30.5
h-500c-44 0 -74 9.16699 -90 27.5s-24 48.166 -24 89.499zM403.001 225.002h338.004c49.333 0 89.666 7.16699 120.999 21.5s56.666 32.5 75.999 54.5s32.666 46.333 39.999 73s11 51.667 11 75c0 65.333 -20.833 118.833 -62.5 160.5s-102.834 62.5 -183.501 62.5h-340
v-447zM403.005 879.002l332.003 0.00195312c19.333 0 40.166 2.33301 62.499 7s43.166 13.5 62.499 26.5s35.166 30.667 47.499 53s18.5 52.166 18.5 89.499c0 49.333 -16.167 88.166 -48.5 116.499s-75.5 42.5 -129.5 42.5h-345v-335z" />
    <glyph glyph-name="C" unicode="C" horiz-adv-x="1269" 
d="M113 700c0 113.333 15.6699 216.5 47.0029 309.5s75 172.333 131 238s123.5 116.5 202.5 152.5s167.167 54 264.5 54c61.333 0 124.333 -5.5 189 -16.5s130.667 -34.167 198 -69.5c10.667 -5.33301 17.667 -11.833 21 -19.5s1 -20.834 -7 -39.501l-57 -119
c-5.33301 -13.333 -10.833 -22.166 -16.5 -26.499s-15.834 -3.16602 -30.501 3.50098c-45.333 18 -91.5 32.167 -138.5 42.5s-96.5 15.5 -148.5 15.5c-68 0 -127 -14.333 -177 -43s-91 -67.334 -123 -116.001s-55.833 -104.667 -71.5 -168s-23.5 -129.333 -23.5 -198
c0 -68 6.5 -131.667 19.5 -191s34.833 -111.166 65.5 -155.499s72.167 -79.5 124.5 -105.5s117.5 -39 195.5 -39c61.333 0 118 7.16699 170 21.5s100.667 30.5 146 48.5c19.333 8 32.666 9.16699 39.999 3.5s13 -13.834 17 -24.501l53 -117
c9.33301 -19.333 12.666 -32.666 9.99902 -39.999s-9.33398 -14.333 -20.001 -21c-69.333 -40.667 -143.666 -68 -222.999 -82s-156 -21 -230 -21c-207.333 0 -363.833 60.167 -469.5 180.5s-158.5 301.166 -158.5 542.499z" />
    <glyph glyph-name="D" unicode="D" horiz-adv-x="1409" 
d="M154 117l0.00195312 1202.01c0 39.333 8.16699 68.666 24.5 87.999s46.166 29 89.499 29l379 2c110.667 0 207 -17.833 289 -53.5s149.667 -84.834 203 -147.501s92.833 -137.334 118.5 -224.001s38.5 -182 38.5 -286c0 -102.667 -11.5 -198.334 -34.5 -287.001
s-59.833 -165.334 -110.5 -230.001s-115.834 -115.834 -195.501 -153.501s-175.5 -56.5 -287.5 -56.5h-400c-44 0 -74 9.16699 -90 27.5s-24 48.166 -24 89.499zM406.002 223.007h226.998c79.333 0 144.833 12.667 196.5 38s92.834 60.166 123.501 104.499
s52.5 96.833 65.5 157.5s19.5 127.334 19.5 200.001c0 69.333 -6.5 133.833 -19.5 193.5s-35.167 111.667 -66.5 156s-73.666 79 -126.999 104s-119.333 37.5 -198 37.5h-221v-991z" />
    <glyph glyph-name="E" unicode="E" horiz-adv-x="1224" 
d="M154 367l0.00195312 700.001c0 48 6.5 94.167 19.5 138.5s34.167 83.5 63.5 117.5s67.166 61.333 113.499 82s102.166 31 167.499 31h572c18 0 29.167 -3.83301 33.5 -11.5s6.5 -19.5 6.5 -35.5v-129c0 -18 -2.33301 -30.167 -7 -36.5s-15.667 -9.5 -33 -9.5h-545
c-52 0 -88.667 -11.5 -110 -34.5s-32 -56.5 -32 -100.5v-215h619c18 0 29.333 -3.33301 34 -10s7 -19.667 7 -39v-113c0 -16.667 -2.33301 -28.667 -7 -36s-16 -11 -34 -11h-619v-299c0 -44 11.333 -77.167 34 -99.5s58.667 -33.5 108 -33.5h557
c19.333 0 31.333 -3.33301 36 -10s7 -19.667 7 -39v-127c0 -15.333 -2.83301 -27 -8.5 -35s-17.167 -12 -34.5 -12h-584c-72.667 0 -132.167 10.167 -178.5 30.5s-83.5 47.666 -111.5 81.999s-47.333 73.333 -58 117s-16 89.5 -16 137.5z" />
    <glyph glyph-name="F" unicode="F" horiz-adv-x="1196" 
d="M154 43l-0.000976562 1024c0 48 5.66699 94.167 17 138.5s31.333 83.5 60 117.5s66.334 61.333 113.001 82s104.667 31 174 31h576c19.333 0 31.333 -3.83301 36 -11.5s7 -19.5 7 -35.5v-127c0 -18 -2.83301 -30.5 -8.5 -37.5s-17.167 -10.5 -34.5 -10.5h-549
c-52 0 -88.667 -11.167 -110 -33.5s-32 -55.5 -32 -99.5v-239h615c18 0 29.333 -3.16699 34 -9.5s7 -18.833 7 -37.5v-117c0 -15.333 -2.5 -27 -7.5 -35s-16.167 -12 -33.5 -12h-615v-588c0 -19.333 -3 -31.333 -9 -36s-18.667 -7 -38 -7h-155c-15.333 0 -27 2.66699 -35 8
s-12 17 -12 35z" />
    <glyph glyph-name="G" unicode="G" horiz-adv-x="1374" 
d="M113 705c0 113.333 14.332 216 42.999 308s70.667 170.833 126 236.5s122.833 116.167 202.5 151.5s170.834 53 273.501 53c62.667 0 128.5 -5.5 197.5 -16.5s136.833 -34.167 203.5 -69.5c10.667 -5.33301 17.834 -11.833 21.501 -19.5s0.5 -20.834 -9.5 -39.501
l-55 -127c-6.66699 -13.333 -12.667 -21.833 -18 -25.5s-15.666 -2.83398 -30.999 2.49902c-45.333 18 -93.833 32.167 -145.5 42.5s-104.167 15.5 -157.5 15.5c-70.667 0 -131 -14 -181 -42s-90.333 -65.667 -121 -113s-53.167 -102.333 -67.5 -165
s-21.5 -128.334 -21.5 -197.001c0 -69.333 5.83301 -134.333 17.5 -195s32.167 -113.167 61.5 -157.5s69.5 -79.166 120.5 -104.499s115.5 -38 193.5 -38c9.33301 0 23 0.333008 41 1s37.167 2 57.5 4s42.166 5.66699 65.499 11s45.666 12.333 66.999 21v385
c-8 1.33301 -16.5 2 -25.5 2h-27.5c-86 0 -174 -19.333 -264 -58c-16.667 -6.66699 -28.667 -10.334 -36 -11.001s-14.333 6 -21 20l-48 129c-5.33301 10.667 -7 19.834 -5 27.501s9.33301 14.834 22 21.501c46.667 27.333 102 49.166 166 65.499s127.333 24.5 190 24.5
c35.333 0 64.333 -1 87 -3s45 -5 67 -9c60 -10.667 100.5 -31.167 121.5 -61.5s31.5 -76.833 31.5 -139.5v-477c0 -16.667 -2.66699 -30.834 -8 -42.501s-15.333 -22.167 -30 -31.5c-38 -23.333 -80 -42.166 -126 -56.499s-91.167 -25.166 -135.5 -32.499
s-85.333 -12.166 -123 -14.499s-68.167 -3.5 -91.5 -3.5c-207.333 0 -363.833 60.833 -469.5 182.5s-158.5 303.5 -158.5 545.5z" />
    <glyph glyph-name="H" unicode="H" horiz-adv-x="1445" 
d="M154 43v1348c0 18 4 29.667 12 35s19.667 8 35 8h155c19.333 0 32.5 -2.5 39.5 -7.5s10.5 -16.833 10.5 -35.5v-531h636v531c0 18 3.83301 29.667 11.5 35s19.834 8 36.501 8h155c19.333 0 32 -2.5 38 -7.5s9 -16.833 9 -35.5v-1348c0 -19.333 -3 -31.333 -9 -36
s-18.667 -7 -38 -7h-155c-16.667 0 -28.834 2.66699 -36.501 8s-11.5 17 -11.5 35v602h-636v-602c0 -19.333 -3.5 -31.333 -10.5 -36s-20.167 -7 -39.5 -7h-155c-15.333 0 -27 2.66699 -35 8s-12 17 -12 35z" />
    <glyph glyph-name="I" unicode="I" horiz-adv-x="606" 
d="M178 43v1348c0 18 3.83301 29.667 11.5 35s19.5 8 35.5 8h156c19.333 0 32.333 -2.5 39 -7.5s10 -16.833 10 -35.5v-1348c0 -19.333 -3.33301 -31.333 -10 -36s-19.667 -7 -39 -7h-156c-16.667 0 -28.667 2.66699 -36 8s-11 17 -11 35z" />
    <glyph glyph-name="J" unicode="J" horiz-adv-x="1179" 
d="M14.5 98c-3 5.33301 -0.164062 17.002 8.50293 35.002l61 131c5.33301 10.667 11.833 16.834 19.5 18.501s17.5 -0.5 29.5 -6.5c45.333 -20.667 97 -38 155 -52s117 -21 177 -21c58.667 0 107.5 8.5 146.5 25.5s70 41.833 93 74.5s39.667 72.667 50 120
s15.5 101.666 15.5 162.999l-2 805c0 19.333 4.16699 31.333 12.5 36s19.833 7 34.5 7h158c18 0 30.333 -2.5 37 -7.5s10 -16.833 10 -35.5v-255c0 -74.667 -0.333008 -144.167 -1 -208.5s-1 -125.833 -1 -184.5v-184c0 -90 -10.333 -170.833 -31 -242.5
s-52.834 -132.834 -96.501 -183.501s-100 -89.334 -169 -116.001s-152.5 -40 -250.5 -40c-28.667 0 -61.834 1.83301 -99.501 5.5s-75.834 9.5 -114.501 17.5s-77.167 18.5 -115.5 31.5s-73.833 29.167 -106.5 48.5c-10.667 6.66699 -17.5 12.667 -20.5 18z" />
    <glyph glyph-name="K" unicode="K" horiz-adv-x="1343" 
d="M154 43l0.000976562 1348c0 18 4 29.667 12 35s19.667 8 35 8h153c19.333 0 32 -2.5 38 -7.5s9 -16.833 9 -35.5v-623l9 -4l204 260l312 381c8 9.33301 18.167 16.5 30.5 21.5s28.833 7.5 49.5 7.5h208c12 0 20.167 -3.5 24.5 -10.5s2.5 -15.167 -5.5 -24.5l-399 -481
l487 -871c6.66699 -11.333 10 -20.666 10 -27.999c0 -12.667 -10.333 -19 -31 -19h-182c-26 0 -44.333 1.66699 -55 5s-22.334 16 -35.001 38l-366 668l-261 -320v-348c0 -19.333 -3 -31.333 -9 -36s-18.667 -7 -38 -7h-153c-15.333 0 -27 2.66699 -35 8s-12 17 -12 35z" />
    <glyph glyph-name="L" unicode="L" horiz-adv-x="1159" 
d="M154 367v1026c0 18 3.66699 29.667 11 35s19.333 8 36 8h153c19.333 0 32.333 -2.5 39 -7.5s10 -16.833 10 -35.5v-1026c0 -53.333 13.333 -91 40 -113s63.334 -33 110.001 -33h549c15.333 0 25 -2.66699 29 -8s6 -15.666 6 -30.999v-143
c0 -13.333 -2.16699 -23.166 -6.5 -29.499s-13.833 -9.5 -28.5 -9.5h-588c-70.667 0 -129.334 10.167 -176.001 30.5s-83.667 47.666 -111 81.999s-46.333 73.333 -57 117s-16 89.5 -16 137.5z" />
    <glyph glyph-name="M" unicode="M" horiz-adv-x="1716" 
d="M154 43l-0.00195312 1268c0 42 8.16699 73.333 24.5 94s47.5 31 93.5 31h84c35.333 0 62 -6.16699 80 -18.5s34.333 -37.166 49 -74.499l244 -600l127 -317h8l127 319l242 598c15.333 36.667 32.5 61.334 51.5 74.001s46.167 19 81.5 19h78
c44 0 74.833 -9.66699 92.5 -29s26.5 -50 26.5 -92v-1272c0 -19.333 -3.5 -31.333 -10.5 -36s-19.167 -7 -36.5 -7h-146c-15.333 -0 -26.666 2.33301 -33.999 7s-11 16.667 -11 36v946h-12l-109 -278l-182 -453c-15.333 -35.333 -30.166 -59.166 -44.499 -71.499
s-38.5 -18.5 -72.5 -18.5h-92c-34 0 -58.167 6.16699 -72.5 18.5s-28.5 36.166 -42.5 71.499l-180 432l-110 275h-13v-922c0 -19.333 -3.33301 -31.333 -10 -36s-19 -7 -37 -7h-147c-15.333 -0 -27 2.33301 -35 7s-12 16.667 -12 36z" />
    <glyph glyph-name="N" unicode="N" horiz-adv-x="1468" 
d="M154 43l0.00195312 1268c0 44 8.5 75.833 25.5 95.5s47.833 29.5 92.5 29.5h72c35.333 0 61.166 -6.5 77.499 -19.5s35.5 -36.5 57.5 -70.5l408 -678l174 -295h8v1020c0 18 3.5 29.667 10.5 35s19.167 8 36.5 8h152c18 0 30.333 -2.83301 37 -8.5s10 -17.167 10 -34.5
v-1270c0 -39.333 -8.16699 -69.666 -24.5 -90.999s-47.833 -32 -94.5 -32h-72c-18 -0 -33 1.33301 -45 4s-22.833 7.5 -32.5 14.5s-18.834 16.167 -27.501 27.5s-18.667 25.333 -30 42l-409 680l-172 293h-9v-1018c0 -19.333 -3 -31.333 -9 -36s-18.667 -7 -38 -7h-151
c-15.333 0 -27 2.66699 -35 8s-12 17 -12 35z" />
    <glyph glyph-name="O" unicode="O" horiz-adv-x="1472" 
d="M113 715c0 117.333 15.333 221.668 46 313.001s73.667 168.833 129 232.5s120.833 112.167 196.5 145.5s159.167 50 250.5 50c102.667 0 193.167 -16.667 271.5 -50s143.5 -81.833 195.5 -145.5s91.333 -140.834 118 -231.501s40 -192.667 40 -306
c0 -237.333 -52.167 -421 -156.5 -551s-262.5 -195 -474.5 -195c-206 0 -360.167 62.5 -462.5 187.5s-153.5 308.5 -153.5 550.5zM369 725.002c0 -79.333 5.66797 -151.001 17.001 -215.001s31.333 -119 60 -165s66.667 -81.167 114 -105.5s105.666 -36.5 174.999 -36.5
s127.666 14.333 174.999 43s85.333 66.5 114 113.5s48.834 101.333 60.501 163s17.5 125.834 17.5 192.501c0 68 -5.16699 133.167 -15.5 195.5s-28.833 117.333 -55.5 165s-63.5 85.5 -110.5 113.5s-107.5 42 -181.5 42c-62.667 0 -117.167 -13.333 -163.5 -40
s-84.833 -63.167 -115.5 -109.5s-53.5 -100 -68.5 -161s-22.5 -126.167 -22.5 -195.5z" />
    <glyph glyph-name="P" unicode="P" horiz-adv-x="1280" 
d="M154 43l0.00195312 1278c0 38 8.16699 67 24.5 87s46.166 30 89.499 30h488c68 0 130.333 -10.667 187 -32s105.167 -51.5 145.5 -90.5s71.833 -85.333 94.5 -139s34 -112.834 34 -177.501c0 -36.667 -5.83301 -80.5 -17.5 -131.5s-35 -100.5 -70 -148.5
s-83.833 -88.667 -146.5 -122s-145.334 -50 -248.001 -50h-334v-504c0 -19.333 -3 -31.333 -9 -36s-18.667 -7 -38 -7h-153c-15.333 0 -27 2.66699 -35 8s-12 17 -12 35zM403.002 758.001l307.999 0.00292969c86 0 148.667 21.167 188 63.5s59 96.166 59 161.499
c0 23.333 -3.66699 48.666 -11 75.999s-20.166 52.166 -38.499 74.499s-44 41 -77 56s-74.5 22.5 -124.5 22.5h-304v-454z" />
    <glyph glyph-name="Q" unicode="Q" horiz-adv-x="1472" 
d="M113 715c0 117.333 15.333 221.668 46 313.001s73.667 168.833 129 232.5s120.833 112.167 196.5 145.5s159.167 50 250.5 50c102.667 0 193.167 -16.667 271.5 -50s143.5 -81.833 195.5 -145.5s91.333 -140.834 118 -231.501s40 -192.667 40 -306
c0 -237.333 -52.167 -421 -156.5 -551s-262.5 -195 -474.5 -195c-206 0 -360.167 62.5 -462.5 187.5s-153.5 308.5 -153.5 550.5zM369 725.002c0 -79.333 5.66797 -151.001 17.001 -215.001s31.333 -119 60 -165s66.667 -81.167 114 -105.5s105.666 -36.5 174.999 -36.5
s127.666 14.333 174.999 43s85.333 66.5 114 113.5s48.834 101.333 60.501 163s17.5 125.834 17.5 192.501c0 68 -5.16699 133.167 -15.5 195.5s-28.833 117.333 -55.5 165s-63.5 85.5 -110.5 113.5s-107.5 42 -181.5 42c-62.667 0 -117.167 -13.333 -163.5 -40
s-84.833 -63.167 -115.5 -109.5s-53.5 -100 -68.5 -161s-22.5 -126.167 -22.5 -195.5zM641.001 -142.999c0 13.333 2 22.833 6 28.5s13.667 8.5 29 8.5h231c114.667 0 216.5 -13 305.5 -39s155.167 -54.667 198.5 -86c10.667 -8 17.5 -15.5 20.5 -22.5
s0.833008 -16.833 -6.5 -29.5l-59 -104c-6.66699 -12 -15.167 -19.833 -25.5 -23.5s-22.833 -0.5 -37.5 9.5c-53.333 30 -118.333 53.5 -195 70.5s-162 25.5 -256 25.5h-176c-15.333 0 -25 3 -29 9s-6 15.333 -6 28v125z" />
    <glyph glyph-name="R" unicode="R" horiz-adv-x="1325" 
d="M154 43l0.000976562 1278c0 39.333 8.16699 68.666 24.5 87.999s46.166 29 89.499 29h484c68 0 130 -10 186 -30s103.833 -48.333 143.5 -85s70 -80.334 91 -131.001s31.5 -106.667 31.5 -168c0 -80.667 -19.5 -150.667 -58.5 -210s-89.833 -102 -152.5 -128v-8
c48 -20.667 83.667 -48.667 107 -84s41.666 -77.666 54.999 -126.999l113 -424c2.66699 -9.33301 2 -18.833 -2 -28.5s-12.333 -14.5 -25 -14.5h-182c-10.667 0 -21.5 1.66699 -32.5 5s-19.5 12.666 -25.5 27.999l-98 379c-20.667 72.667 -50 121.834 -88 147.501
s-93.333 38.5 -166 38.5h-241v-555c0 -19.333 -3.16699 -31.333 -9.5 -36s-19.166 -7 -38.499 -7h-159c-15.333 0 -27 2.66699 -35 8s-12 17 -12 35zM410.001 807.001l303.002 -0.000976562c83.333 0 143.666 19.833 180.999 59.5s56 88.167 56 145.5
c0 20.667 -3 42.5 -9 65.5s-17.167 44.833 -33.5 65.5s-38.833 37.334 -67.5 50.001s-66.334 19 -113.001 19h-317v-405z" />
    <glyph glyph-name="S" unicode="S" horiz-adv-x="1200" 
d="M80 141l60.9971 139.998c9.33301 20.667 24.333 26.667 45 18c65.333 -27.333 133.333 -50.166 204 -68.499s138.667 -27.5 204 -27.5c104 0 177.5 17.667 220.5 53s64.5 79.666 64.5 132.999c0 28.667 -5.5 54 -16.5 76s-28.167 42.167 -51.5 60.5
s-52.666 36 -87.999 53s-77.666 35.167 -126.999 54.5c-74 28.667 -140.333 57.334 -199 86.001s-107.834 59.667 -147.501 93s-70 70.833 -91 112.5s-31.5 89.167 -31.5 142.5c0 57.333 9.5 109.833 28.5 157.5s47.667 89 86 124s86.5 62 144.5 81s126 28.5 204 28.5
c36.667 0 74.834 -2 114.501 -6s79.334 -9.5 119.001 -16.5s77.834 -15.833 114.501 -26.5s70.667 -23 102 -37c10.667 -6.66699 17.5 -12.667 20.5 -18s1.83301 -15 -3.5 -29l-49 -139c-5.33301 -15.333 -10.5 -23.666 -15.5 -24.999s-12.833 -0.666016 -23.5 2.00098
c-68 23.333 -134.833 40.833 -200.5 52.5s-126.5 17.5 -182.5 17.5c-70.667 0 -122.167 -14.667 -154.5 -44s-48.5 -64 -48.5 -104c0 -24.667 5.83301 -46.834 17.5 -66.501s30.5 -38.667 56.5 -57s58.333 -36.666 97 -54.999s86 -38.5 142 -60.5
c58.667 -24.667 114.667 -49.667 168 -75s100.5 -55 141.5 -89s73.5 -73.833 97.5 -119.5s36 -101.5 36 -167.5c0 -70.667 -13.333 -132.334 -40 -185.001s-62.834 -96 -108.501 -130s-100 -59.667 -163 -77s-130.5 -26 -202.5 -26c-86 0 -176.167 8.33301 -270.5 25
s-181.833 46.667 -262.5 90c-19.333 8 -23.333 24.333 -12 49z" />
    <glyph glyph-name="T" unicode="T" horiz-adv-x="1150" 
d="M29 1253l0.000976562 142.002c0 15.333 2 25.666 6 30.999s13.333 8 28 8h1024c15.333 0 25.333 -2.83301 30 -8.5s7 -15.834 7 -30.501v-142c0 -13.333 -2.33301 -22.666 -7 -27.999s-14.667 -8 -30 -8h-389v-1174c0 -19.333 -3 -31.333 -9 -36s-18.667 -7 -38 -7h-159
c-16.667 0 -28.834 2.66699 -36.501 8s-11.5 17 -11.5 35v1174h-381c-15.333 0 -24.833 2.66699 -28.5 8s-5.5 14.666 -5.5 27.999z" />
    <glyph glyph-name="U" unicode="U" horiz-adv-x="1427" 
d="M152 1391c0 18 4 29.667 12 35s19.667 8 35 8h159c19.333 0 32.166 -2.5 38.499 -7.5s9.5 -16.833 9.5 -35.5v-781c0 -69.333 5 -130 15 -182s29 -95 57 -129s67 -59.5 117 -76.5s115.333 -25.5 196 -25.5c20.667 0 53 1 97 3s90 7.66699 138 17v1174
c0 18 3.83301 29.667 11.5 35s19.5 8 35.5 8h160c19.333 0 31 -2.5 35 -7.5s6 -16.833 6 -35.5v-1192c0 -52 -11.667 -95.167 -35 -129.5s-65.666 -57.5 -126.999 -69.5c-26 -5.33301 -53.667 -9.33301 -83 -12s-58.333 -5.16699 -87 -7.5s-56 -3.83301 -82 -4.5
s-49 -1 -69 -1c-114.667 0 -212.667 10.667 -294 32s-147.333 56.5 -198 105.5s-87.5 114.5 -110.5 196.5s-34.5 183.667 -34.5 305z" />
    <glyph glyph-name="V" unicode="V" horiz-adv-x="1329" 
d="M33 1405c-2.66699 8 -2.66992 15.166 -0.00292969 21.499s9.33398 9.5 20.001 9.5h197c15.333 0 26 -2.5 32 -7.5s10.333 -12.833 13 -23.5l262 -813l102 -326h13l94 322l268 819c4 13.333 9.83301 21.5 17.5 24.5s18.167 4.5 31.5 4.5h195c10.667 0 17 -3.16699 19 -9.5
s1.66699 -13.5 -1 -21.5l-452 -1311c-12 -36.667 -26.667 -61.167 -44 -73.5s-42.333 -19.166 -75 -20.499h-111c-35.333 -0 -62.166 5.83301 -80.499 17.5s-35.166 37.167 -50.499 76.5z" />
    <glyph glyph-name="W" unicode="W" horiz-adv-x="1765" 
d="M31 1403c-5.33301 22 2.66406 33 23.9971 33h199c15.333 0 26.666 -2.16699 33.999 -6.5s12.333 -13.166 15 -26.499l131 -739l60 -345h12l69 345l140 663c6.66699 35.333 18.5 62.333 35.5 81s47.5 28 91.5 28h100c38 0 65 -9.33301 81 -28s27.333 -44.334 34 -77.001
l137 -667l70 -340h12l59 342l133 735c5.33301 23.333 20.333 35 45 35h199c20.667 0 28.334 -11 23.001 -33l-283 -1311c-9.33301 -40.667 -23.666 -66.5 -42.999 -77.5s-46.666 -16.5 -81.999 -16.5h-104c-34 0 -59.667 7.83301 -77 23.5s-30.666 43.167 -39.999 82.5
l-145 682l-70 347h-10l-72 -347l-150 -682c-8 -38 -20.167 -65.167 -36.5 -81.5s-41.5 -24.5 -75.5 -24.5h-109c-34 0 -60.833 5.16699 -80.5 15.5s-34.5 35.833 -44.5 76.5z" />
    <glyph glyph-name="X" unicode="X" horiz-adv-x="1206" 
d="M20.5 11.5c-3 7.66699 -2.16797 14.834 2.49902 21.501l438 706l-408 666c-4 6.66699 -4.66699 13.5 -2 20.5s10.334 10.5 23.001 10.5h192c22 0 37.5 -2.5 46.5 -7.5s17.5 -14.833 25.5 -29.5l268 -459l266 459c8 15.333 16.5 25.333 25.5 30s24.5 7 46.5 7h184
c12 0 19.5 -3.83301 22.5 -11.5s1.83301 -15.5 -3.5 -23.5l-402 -658l439 -710c4 -6.66699 4.33301 -13.834 1 -21.501s-10.666 -11.5 -21.999 -11.5h-200c-20.667 -0 -35.834 2.33301 -45.501 7s-18.5 14.667 -26.5 30l-291 502l-291 -502
c-8 -15.333 -16.833 -25.333 -26.5 -30s-24.5 -7 -44.5 -7h-197c-10.667 -0 -17.5 3.83301 -20.5 11.5z" />
    <glyph glyph-name="Y" unicode="Y" horiz-adv-x="1220" 
d="M23 1405c-2.66699 6.66699 -2.66699 13.5 0 20.5s9.33398 10.5 20.001 10.5h207c15.333 0 26 -2.5 32 -7.5s12.333 -14.167 19 -27.5l160 -314l149 -311h11l157 324l154 303c6.66699 12 13.167 20.5 19.5 25.5s16.166 7.5 29.499 7.5h199c12 0 18.667 -3.16699 20 -9.5
s0.666016 -12.833 -2.00098 -19.5l-459 -854v-516c0 -15.333 -2.66699 -25.333 -8 -30s-15.666 -7 -30.999 -7h-170c-13.333 -0 -23 2.33301 -29 7s-9 14.667 -9 30v514z" />
    <glyph glyph-name="Z" unicode="Z" horiz-adv-x="1273" 
d="M61 104v39.001c0 30 4.5 55 13.5 75s23.167 41 42.5 63l778 931l-2 9h-694c-15.333 0 -25 3 -29 9s-6 16 -6 30v135c0 15.333 2 26 6 32s13.667 9 29 9h866c40.667 0 70.667 -7.83301 90 -23.5s29 -44.834 29 -87.501v-53c0 -28.667 -5.83301 -54.334 -17.5 -77.001
s-26.5 -45 -44.5 -67l-751 -901l4 -12h788c15.333 0 25 -3 29 -9s6 -16.667 6 -32v-135c0 -15.333 -2 -25.666 -6 -30.999s-13.667 -8 -29 -8h-987c-36.667 0 -65 8.16699 -85 24.5s-30 42.833 -30 79.5z" />
    <glyph glyph-name="bracketleft" unicode="[" horiz-adv-x="681" 
d="M139 -145l0.00292969 1581c0 12 2.16699 21.5 6.5 28.5s13.833 10.5 28.5 10.5h414c15.333 0 24.666 -3.16699 27.999 -9.5s5 -14.833 5 -25.5v-111c0 -12 -2.16699 -20.5 -6.5 -25.5s-13.833 -7.5 -28.5 -7.5h-215v-1302h217c15.333 0 24.666 -2.33301 27.999 -7
s5 -13.334 5 -26.001v-108c0 -13.333 -1.83301 -22.833 -5.5 -28.5s-12.834 -8.5 -27.501 -8.5h-414c-15.333 0 -25 3.33301 -29 10s-6 16.334 -6 29.001z" />
    <glyph glyph-name="backslash" unicode="\" horiz-adv-x="919" 
d="M31 1559c-5.33301 12 -4.33203 20.667 3.00098 26s15 8 23 8h148c15.333 0 26.333 -2.66699 33 -8s12.667 -14 18 -26l641 -1721c4 -12 3 -20.833 -3 -26.5s-15.333 -8.5 -28 -8.5h-141c-28.667 0 -46.334 11.667 -53.001 35z" />
    <glyph glyph-name="bracketright" unicode="]" horiz-adv-x="686" 
d="M117 -39c0 12 1.66699 20.499 5 25.499s12.666 7.5 27.999 7.5h217v1302h-217c-15.333 0 -24.666 2.83301 -27.999 8.5s-5 13.834 -5 24.501v109c0 13.333 1.66699 22.833 5 28.5s12.666 8.5 27.999 8.5h411c15.333 0 25.333 -3.5 30 -10.5s7 -16.5 7 -28.5v-1581
c0 -12 -2.33301 -21.5 -7 -28.5s-14.667 -10.5 -30 -10.5h-414c-13.333 0 -21.666 2.66699 -24.999 8s-5 15 -5 29v108z" />
    <glyph glyph-name="asciicircum" unicode="^" horiz-adv-x="1126" 
d="M64.5 784.5c-3.66699 7 -1.83203 15.167 5.50098 24.5l381 623c9.33301 15.333 19.5 28.666 30.5 39.999s25.833 17 44.5 17h54c24.667 0 41.667 -4.16699 51 -12.5s19.666 -21.166 30.999 -38.499l380 -625c8 -12 9.33301 -21.167 4 -27.5s-13.333 -9.5 -24 -9.5h-156
c-13.333 0 -24.5 2 -33.5 6s-16.833 12.333 -23.5 25l-248 422h-6l-242 -414c-9.33301 -16.667 -17.833 -27.667 -25.5 -33s-20.167 -8 -37.5 -8h-160c-13.333 0 -21.833 3.5 -25.5 10.5z" />
    <glyph glyph-name="underscore" unicode="_" horiz-adv-x="1024" 
d="M-33 -184c0 15.333 1.66699 25.998 5 31.998s12.666 9 27.999 9h1024c15.333 0 25 -3.16699 29 -9.5s6 -16.833 6 -31.5v-56c0 -15.333 -2 -25.666 -6 -30.999s-13.667 -8 -29 -8h-1024c-15.333 0 -24.666 2.83301 -27.999 8.5s-5 15.834 -5 30.501v56z" />
    <glyph glyph-name="grave" unicode="`" horiz-adv-x="1101" 
d="M302 1548.5c2 7 8.66797 11.833 20.001 14.5l178 47c15.333 2.66699 26 1.5 32 -3.5s10.333 -10.833 13 -17.5l137 -338c6.66699 -13.333 8.66699 -22.333 6 -27s-9.33398 -8.66699 -20.001 -12l-84 -30c-10.667 -2.66699 -19.167 -3 -25.5 -1s-13.5 8.33301 -21.5 19
l-230 328c-5.33301 6.66699 -7 13.5 -5 20.5z" />
    <glyph glyph-name="a" unicode="a" horiz-adv-x="1140" 
d="M92 319c0 48 7.83301 94.1641 23.5 138.497s41.334 83.333 77.001 117s81.834 60.667 138.501 81s126 30.5 208 30.5h229v35c0 26 -2.66699 49.833 -8 71.5s-15.833 40.667 -31.5 57s-37.167 29 -64.5 38s-63 13.5 -107 13.5c-46.667 0 -97.167 -4 -151.5 -12
s-98.833 -17.667 -133.5 -29c-15.333 -4 -26.333 -4.66699 -33 -2s-11.334 10.334 -14.001 23.001l-28 116c-5.33301 22 0.666992 36.333 18 43c57.333 22 120.166 37.5 188.499 46.5s132.5 13.5 192.5 13.5c142 0 246.167 -31.5 312.5 -94.5s99.5 -154.5 99.5 -274.5v-614
c0 -32.667 -13 -55.334 -39 -68.001c-30 -13.333 -62.5 -24.833 -97.5 -34.5s-70.833 -17.167 -107.5 -22.5s-73.167 -9.16602 -109.5 -11.499s-70.833 -3.5 -103.5 -3.5c-90 0 -164.667 9.33301 -224 28s-106.5 43.334 -141.5 74.001s-59.333 66.834 -73 108.501
s-20.5 85.5 -20.5 131.5zM336 327.997c0 -58.667 19.832 -99.6689 59.499 -123.002s92.167 -35 157.5 -35c9.33301 0 22.5 0.333008 39.5 1s35.167 2.33398 54.5 5.00098s39.5 6.16699 60.5 10.5s40.5 9.83301 58.5 16.5v301h-197c-23.333 0 -48.166 -1.33301 -74.499 -4
s-51.5 -10.167 -75.5 -22.5s-43.833 -30.166 -59.5 -53.499s-23.5 -55.333 -23.5 -96z" />
    <glyph glyph-name="b" unicode="b" horiz-adv-x="1189" 
d="M133 100l-0.000976562 1360c0 15.333 3.16699 25.333 9.5 30s16.833 7 31.5 7h160c15.333 0 25.666 -2 30.999 -6s8 -14.333 8 -31v-397c39.333 12 82.5 21.167 129.5 27.5s89.167 9.5 126.5 9.5c82 0 152.667 -13.667 212 -41s107.666 -65.666 144.999 -114.999
s65.333 -107.666 84 -174.999s28 -140.666 28 -219.999c0 -82 -10 -157.833 -30 -227.5s-51.167 -130.167 -93.5 -181.5s-96.166 -91.333 -161.499 -120s-143 -43 -233 -43c-69.333 0 -140.666 5.5 -213.999 16.5s-140.666 30.167 -201.999 57.5
c-12 5.33301 -20.167 11.833 -24.5 19.5s-6.5 17.5 -6.5 29.5zM372.999 206.997c32.667 -10.667 66.667 -17.832 102 -21.499s66.666 -5.5 93.999 -5.5c42 0 80.5 6.5 115.5 19.5s64.833 33.833 89.5 62.5s43.834 65.667 57.501 111s20.5 100.666 20.5 165.999
c0 120 -23.167 209.333 -69.5 268s-110.5 88 -192.5 88c-22 0 -52.833 -2 -92.5 -6s-81.167 -13 -124.5 -27v-655z" />
    <glyph glyph-name="c" unicode="c" horiz-adv-x="1009" 
d="M92 530c0 86 11.666 164.166 34.999 234.499s56.5 130.5 99.5 180.5s94.833 88.333 155.5 115s129.334 40 206.001 40c56 0 110.167 -5.83301 162.5 -17.5s101.833 -29.834 148.5 -54.501c12 -6.66699 19.5 -13.5 22.5 -20.5s0.833008 -17.167 -6.5 -30.5l-51 -121
c-5.33301 -10.667 -11 -17.5 -17 -20.5s-17.333 -0.833008 -34 6.5c-32.667 12 -66.834 22.5 -102.501 31.5s-73.167 13.5 -112.5 13.5c-46.667 0 -86.667 -10 -120 -30s-60.5 -46.333 -81.5 -79s-36.333 -70.5 -46 -113.5s-14.5 -87.833 -14.5 -134.5
c0 -48 4 -92.667 12 -134s22 -77.666 42 -108.999s47 -56 81 -74s77.667 -27 131 -27c44 0 87.833 5.5 131.5 16.5s79.834 23.5 108.501 37.5c15.333 6.66699 26 8.66699 32 6s11 -9.66699 15 -21l51 -119c13.333 -22 9.33301 -39 -12 -51
c-56 -31.333 -116.5 -52.166 -181.5 -62.499s-125.5 -15.5 -181.5 -15.5c-152.667 0 -269.667 46.5 -351 139.5s-122 230.833 -122 413.5z" />
    <glyph glyph-name="d" unicode="d" horiz-adv-x="1187" 
d="M92 522c0 76.667 9.66992 149.833 29.0029 219.5s49.333 130.834 90 183.501s92.5 94.667 155.5 126s138.833 47 227.5 47c27.333 0 59.833 -1.33301 97.5 -4s78.167 -9.66699 121.5 -21v387c0 15.333 3 25 9 29s16.667 6 32 6h160c13.333 0 23.166 -2 29.499 -6
s9.5 -13.667 9.5 -29v-1358c0 -26 -19.833 -47.167 -59.5 -63.5s-85.834 -28.833 -138.501 -37.5s-104.834 -14.834 -156.501 -18.501s-89.167 -5.5 -112.5 -5.5c-91.333 0 -168.5 13 -231.5 39s-114 63 -153 111s-67 105.333 -84 172s-25.5 141 -25.5 223zM340.003 521.999
c0 -125.333 24.168 -213.667 72.501 -265s116.833 -77 205.5 -77c28.667 0 62.5 2.83301 101.5 8.5s70.167 13.167 93.5 22.5v657c-42 10.667 -78.5 17.5 -109.5 20.5s-60.167 4.5 -87.5 4.5c-80.667 0 -146.834 -28.667 -198.501 -86s-77.5 -152.333 -77.5 -285z" />
    <glyph glyph-name="e" unicode="e" horiz-adv-x="1130" 
d="M92 532c0 90 12.333 170.334 37 241.001s58.5 130.167 101.5 178.5s94.667 85.166 155 110.499s125.833 38 196.5 38c157.333 0 273.666 -40.333 348.999 -121s113 -191.334 113 -332.001c0 -35.333 -4 -64.666 -12 -87.999s-19.5 -41.833 -34.5 -55.5
s-32.5 -23.167 -52.5 -28.5s-41.333 -8 -64 -8h-545c1.33301 -53.333 9.5 -98 24.5 -134s35.5 -65.333 61.5 -88s56 -38.834 90 -48.501s71 -14.5 111 -14.5c44 0 87 5.5 129 16.5s78.667 24.167 110 39.5c22 9.33301 37 5 45 -13l56 -116c9.33301 -22 4.33301 -38 -15 -48
c-52 -31.333 -108.667 -53.166 -170 -65.499s-120 -18.5 -176 -18.5c-165.333 0 -291.666 44.5 -378.999 133.5s-131 229.5 -131 421.5zM344 639.001h470.998c0 36.667 -3.33301 70.667 -10 102s-18.667 59 -36 83s-40.5 42.833 -69.5 56.5s-66.833 20.5 -113.5 20.5
c-36.667 0 -69.5 -7.16699 -98.5 -21.5s-53.667 -33.833 -74 -58.5s-36.666 -52.667 -48.999 -84s-19.166 -64 -20.499 -98z" />
    <glyph glyph-name="f" unicode="f" horiz-adv-x="753" 
d="M18 924l-0.00195312 77.002c0 12 2.16699 21.167 6.5 27.5s13.833 10.833 28.5 13.5l146 33v129c0 94 24.833 169.5 74.5 226.5s130.5 85.5 242.5 85.5c20.667 0 53.834 -1.83301 99.501 -5.5s91.167 -12.167 136.5 -25.5c12 -4 18.667 -9.16699 20 -15.5
s0.666016 -14.166 -2.00098 -23.499l-27 -131c-4 -18 -16 -25 -36 -21c-27.333 5.33301 -53.333 9.16602 -78 11.499s-46 3.5 -64 3.5c-50.667 0 -84.834 -11 -102.501 -33s-26.5 -48.667 -26.5 -80v-121h248c15.333 0 24.666 -2.33301 27.999 -7s5 -13.334 5 -26.001v-118
c0 -10.667 -1.66699 -18.834 -5 -24.501s-12.666 -8.5 -27.999 -8.5h-248v-856c0 -15.333 -2.66699 -25 -8 -29s-15.666 -6 -30.999 -6h-159c-13.333 0 -23.166 2 -29.499 6s-9.5 13.667 -9.5 29v856h-148c-15.333 0 -24.666 3 -27.999 9s-5 14 -5 24z" />
    <glyph glyph-name="g" unicode="g" horiz-adv-x="1187" 
d="M92 528c0 82 10.334 157.836 31.001 227.503s52.167 129.5 94.5 179.5s95.833 89.333 160.5 118s142 43 232 43c69.333 0 140.333 -5.16699 213 -15.5s139.667 -29.166 201 -56.499c13.333 -6.66699 22.166 -13.834 26.499 -21.501s6.5 -16.834 6.5 -27.501v-877
c0 -92.667 -11.667 -171.834 -35 -237.501s-57.833 -120.334 -103.5 -164.001s-102.334 -77.667 -170.001 -102s-146.5 -42.833 -236.5 -55.5c-23.333 -4 -36.333 3.66699 -39 23l-20 155c-1.33301 18 6.66699 29 24 33c50.667 8 96.834 17.833 138.501 29.5
s77.167 27.5 106.5 47.5s51.833 44.667 67.5 74s23.5 65.666 23.5 108.999v13c-39.333 -12 -82 -21.167 -128 -27.5s-88 -9.5 -126 -9.5c-80.667 0 -150.334 13.333 -209.001 40s-107.167 63.834 -145.5 111.501s-66.666 104.667 -84.999 171s-27.5 139.5 -27.5 219.5z
M338.001 539.003c0 -120 23.1689 -208.166 69.502 -264.499s110.5 -84.5 192.5 -84.5c22 0 52.5 2.16699 91.5 6.5s80.167 12.5 123.5 24.5v647c-32.667 9.33301 -66.334 16.166 -101.001 20.499s-65.667 6.5 -93 6.5c-42 0 -80.5 -6.5 -115.5 -19.5
s-64.833 -33.5 -89.5 -61.5s-43.834 -64.5 -57.501 -109.5s-20.5 -100.167 -20.5 -165.5z" />
    <glyph glyph-name="h" unicode="h" horiz-adv-x="1196" 
d="M133 35l0.00195312 1427c0 15.333 3.16699 25 9.5 29s16.166 6 29.499 6h160c15.333 0 25.666 -2 30.999 -6s8 -13.667 8 -29v-401c39.333 13.333 82.5 23.166 129.5 29.499s89.167 9.5 126.5 9.5c151.333 0 262.166 -42 332.499 -126s105.5 -200.333 105.5 -349v-590
c0 -15.333 -3 -25 -9 -29s-16.667 -6 -32 -6h-162c-13.333 0 -23.166 2 -29.499 6s-9.5 13.667 -9.5 29v573c0 92.667 -18.333 163.334 -55 212.001s-98 73 -184 73c-35.333 0 -72.5 -2.33301 -111.5 -7s-72.833 -13.334 -101.5 -26.001v-825
c0 -15.333 -2.83301 -25 -8.5 -29s-15.834 -6 -30.501 -6h-160c-13.333 0 -23.166 2 -29.499 6s-9.5 13.667 -9.5 29z" />
    <glyph glyph-name="i" unicode="i" horiz-adv-x="585" 
d="M147 1356c0 40.667 14.333 75.334 43 104.001s63.667 43 105 43c40.667 0 75.334 -14.333 104.001 -43s43 -63.334 43 -104.001s-14.333 -75.5 -43 -104.5s-63.334 -43.5 -104.001 -43.5s-75.5 14.333 -104.5 43s-43.5 63.667 -43.5 105zM174 35v1005
c0 15.333 3.16699 25 9.5 29s16.166 6 29.499 6h158c15.333 0 26 -2 32 -6s9 -13.667 9 -29v-1005c0 -15.333 -3.16699 -25 -9.5 -29s-16.833 -6 -31.5 -6h-158c-13.333 0 -23.166 2 -29.499 6s-9.5 13.667 -9.5 29z" />
    <glyph glyph-name="j" unicode="j" horiz-adv-x="610" 
d="M-42 -263.5c4.66699 5 12.6689 10.832 24.002 17.499c45.333 20.667 81.5 44.334 108.5 71.001s48 56 63 88s24.833 66.167 29.5 102.5s7 74.833 7 115.5v909c0 15.333 3.16699 25 9.5 29s16.166 6 29.499 6h162c15.333 0 25.666 -2 30.999 -6s8 -13.667 8 -29v-882
c0 -98 -9.5 -181.667 -28.5 -251s-45.333 -127.5 -79 -174.5s-73.334 -84.833 -119.001 -113.5s-94.5 -52 -146.5 -70c-26 -6.66699 -41.667 -1 -47 17l-51 143c-5.33301 13.333 -5.66602 22.5 -0.999023 27.5zM164.002 1356c0 40.667 14.667 75.334 44 104.001
s63.666 43 102.999 43c40.667 0 75.5 -14.333 104.5 -43s43.5 -63.334 43.5 -104.001s-14.333 -75.5 -43 -104.5s-63.667 -43.5 -105 -43.5c-39.333 0 -73.666 14.333 -102.999 43s-44 63.667 -44 105z" />
    <glyph glyph-name="k" unicode="k" horiz-adv-x="1069" 
d="M131 35l-0.000976562 1427c0 15.333 3.16699 25 9.5 29s16.166 6 29.499 6h160c15.333 0 25.666 -2 30.999 -6s8 -13.667 8 -29v-819l8 -4l350 416c6.66699 6.66699 12.834 11.667 18.501 15s15.834 5 30.501 5h207c12 0 19.167 -3.66699 21.5 -11
s-0.166992 -14.666 -7.5 -21.999l-272 -325l315 -686c2.66699 -8 2.66699 -15.167 0 -21.5s-10 -9.5 -22 -9.5h-184c-27.333 0 -44.666 9.66699 -51.999 29l-223 499l-190 -217v-276c0 -15.333 -2.83301 -25 -8.5 -29s-15.834 -6 -30.501 -6h-160
c-13.333 0 -23.166 2 -29.499 6s-9.5 13.667 -9.5 29z" />
    <glyph glyph-name="l" unicode="l" horiz-adv-x="620" 
d="M152 217l-0.000976562 1245c0 15.333 3 25 9 29s15.667 6 29 6h162c15.333 0 26 -2 32 -6s9 -13.667 9 -29v-1188c0 -35.333 4.83301 -59.5 14.5 -72.5s28.167 -19.5 55.5 -19.5c10.667 0 23.167 0.666992 37.5 2s26.5 2.66602 36.5 3.99902
c10.667 1.33301 18.334 0.333008 23.001 -3s7.66699 -10.333 9 -21l15 -115c2.66699 -13.333 2.66699 -22.5 0 -27.5s-11 -10.833 -25 -17.5c-27.333 -10.667 -58.333 -17.834 -93 -21.501s-65.667 -5.5 -93 -5.5c-76.667 0 -132.667 17.833 -168 53.5
s-53 97.834 -53 186.501z" />
    <glyph glyph-name="m" unicode="m" horiz-adv-x="1863" 
d="M133 35l-0.000976562 870c0 24.667 1.66699 46.5 5 65.5s9.83301 35.667 19.5 50s23.667 26.333 42 36s41.833 17.834 70.5 24.501l45 6.5c20.667 3 43 5.16699 67 6.5l70.5 4c23 1.33301 42.833 2 59.5 2c83.333 0 154.333 -8.16699 213 -24.5s110.667 -42.5 156 -78.5
c48 31.333 104.333 56.333 169 75s133.667 28 207 28c84.667 0 157.167 -12.333 217.5 -37s109.166 -58.834 146.499 -102.501s65 -96.5 83 -158.5s27 -130 27 -204v-563c0 -15.333 -3.16699 -25 -9.5 -29s-16.833 -6 -31.5 -6h-158c-13.333 0 -23.166 2 -29.499 6
s-9.5 13.667 -9.5 29v532c0 110.667 -19.833 192.667 -59.5 246s-108.5 80 -206.5 80c-35.333 0 -75 -4.5 -119 -13.5s-79.667 -20.833 -107 -35.5c16.667 -38 27.667 -79 33 -123s8 -91.667 8 -143v-543c0 -15.333 -3 -25 -9 -29s-16.667 -6 -32 -6h-159
c-13.333 0 -23.166 2 -29.499 6s-9.5 13.667 -9.5 29v547c0 48 -3.83301 91 -11.5 129s-21.334 70.667 -41.001 98s-47.667 48.5 -84 63.5s-83.166 22.5 -140.499 22.5c-8 0 -18.833 -0.333008 -32.5 -1l-43 -2c-15 -0.666992 -29.667 -2 -44 -4l-35.5 -5v-848
c0 -15.333 -2.83301 -25 -8.5 -29s-15.834 -6 -30.501 -6h-160c-13.333 0 -23.166 2 -29.499 6s-9.5 13.667 -9.5 29z" />
    <glyph glyph-name="n" unicode="n" horiz-adv-x="1196" 
d="M133 35v876.003c0 49.333 8.83301 87.666 26.5 114.999s54.5 45.666 110.5 54.999c13.333 1.33301 31.666 3.5 54.999 6.5s48 5.16699 74 6.5l76 4c24.667 1.33301 46 2 64 2c90 0 168 -9.66699 234 -29s120.5 -49.666 163.5 -90.999s74.833 -95.5 95.5 -162.5
s31 -147.833 31 -242.5v-540c0 -15.333 -2.66699 -25 -8 -29s-15.666 -6 -30.999 -6h-162c-13.333 0 -23.166 2 -29.499 6s-9.5 13.667 -9.5 29v545c0 53.333 -4.33301 99.666 -13 138.999s-24 72 -46 98s-51.833 45.5 -89.5 58.5s-85.167 19.5 -142.5 19.5
c-15.333 0 -36.833 -0.333008 -64.5 -1s-59.834 -4.33398 -96.501 -11.001v-848c0 -15.333 -2.83301 -25 -8.5 -29s-15.834 -6 -30.501 -6h-160c-13.333 0 -23.166 2 -29.499 6s-9.5 13.667 -9.5 29z" />
    <glyph glyph-name="o" unicode="o" horiz-adv-x="1177" 
d="M92 537c0 90 12.3301 169.832 36.9971 239.499s58.834 128.334 102.501 176.001s95.834 84.167 156.501 109.5s128 38 202 38c162.667 0 285.834 -49.5 369.501 -148.5s125.5 -235.167 125.5 -408.5c0 -181.333 -41.833 -321 -125.5 -419s-208.834 -147 -375.501 -147
c-165.333 0 -288.666 47.5 -369.999 142.5s-122 234.167 -122 417.5zM333.997 542.999c0 -113.333 18.332 -202.5 54.999 -267.5s102.334 -97.5 197.001 -97.5c48 0 88.333 10 121 30s58.834 46.333 78.501 79s34 70.5 43 113.5s13.5 88.5 13.5 136.5
c0 49.333 -3.83301 95.666 -11.5 138.999s-20.667 81.833 -39 115.5s-43.5 60 -75.5 79s-72.667 28.5 -122 28.5c-44 0 -82.333 -9.16699 -115 -27.5s-59.834 -43.166 -81.501 -74.499s-37.667 -69 -48 -113s-15.5 -91 -15.5 -141z" />
    <glyph glyph-name="p" unicode="p" horiz-adv-x="1187" 
d="M133 -381l-0.000976562 1352c0 12 2 21.5 6 28.5s13 13.833 27 20.5c68 30 140 50.5 216 61.5s148 16.5 216 16.5c88.667 0 164.5 -14.333 227.5 -43s114.5 -68.334 154.5 -119.001s69.333 -110.167 88 -178.5s28 -141.166 28 -218.499
c0 -76.667 -10 -148.834 -30 -216.501s-49.667 -127 -89 -178s-89.166 -91.167 -149.499 -120.5s-130.833 -44 -211.5 -44c-36.667 0 -74.5 2 -113.5 6s-82.167 11.333 -129.5 22v-389c0 -15.333 -2.83301 -25 -8.5 -29s-15.834 -6 -30.501 -6h-162
c-13.333 0 -23.166 2.16699 -29.499 6.5s-9.5 13.833 -9.5 28.5zM372.999 213.001c42 -10.667 78.9971 -18.166 110.997 -22.499s61.667 -6.5 89 -6.5c39.333 0 75.833 6.16699 109.5 18.5s62.834 32.5 87.501 60.5s43.834 64.667 57.501 110s20.5 101.333 20.5 168
c0 65.333 -6.5 120.166 -19.5 164.499s-31.833 80.5 -56.5 108.5s-54.667 48.167 -90 60.5s-75 18.5 -119 18.5c-27.333 0 -59.666 -2.66699 -96.999 -8s-68.333 -12.333 -93 -21v-651z" />
    <glyph glyph-name="q" unicode="q" horiz-adv-x="1189" 
d="M92 524c0 83.333 10.334 159.835 31.001 229.502s51.834 130.167 93.501 181.5s95.167 91.333 160.5 120s143 43 233 43c69.333 0 140.333 -5.5 213 -16.5s139.667 -30.167 201 -57.5c13.333 -6.66699 22.166 -13.834 26.499 -21.501s6.5 -16.834 6.5 -27.501v-1362
c0 -15.333 -3.16699 -25 -9.5 -29s-16.833 -6 -31.5 -6h-160c-15.333 0 -26 2 -32 6s-9 13.667 -9 29v403c-39.333 -12 -82.333 -21 -129 -27s-89 -9 -127 -9c-82 0 -152.333 13.167 -211 39.5s-106.834 63.833 -144.501 112.5s-65.667 106 -84 172s-27.5 139.333 -27.5 220
zM338.001 537.002c0 -120 23.1689 -208.833 69.502 -266.5s110.5 -86.5 192.5 -86.5c22 0 52.5 2.16699 91.5 6.5s80.167 13.166 123.5 26.499v651c-32.667 10.667 -66.334 17.834 -101.001 21.501s-65.667 5.5 -93 5.5c-42 0 -80.5 -6.5 -115.5 -19.5
s-64.833 -33.833 -89.5 -62.5s-43.834 -65.5 -57.501 -110.5s-20.5 -100.167 -20.5 -165.5z" />
    <glyph glyph-name="r" unicode="r" horiz-adv-x="901" 
d="M152 35l0.00292969 878c0 54.667 9.16699 95.334 27.5 122.001s56.833 44 115.5 52c24.667 2.66699 49.667 5.16699 75 7.5s50.666 3.5 75.999 3.5c83.333 0 163.666 -11 240.999 -33s147.333 -59 210 -111c9.33301 -6.66699 13.666 -13 12.999 -19s-3 -12.667 -7 -20
l-94 -135c-6.66699 -10.667 -13.5 -15.334 -20.5 -14.001s-15.167 5.33301 -24.5 12c-39.333 34 -82 60.333 -128 79s-96.333 28 -151 28c-16.667 0 -33 -0.666992 -49 -2s-31.667 -3.33301 -47 -6v-842c0 -15.333 -3 -25 -9 -29s-16.667 -6 -32 -6h-158
c-13.333 0 -23 2 -29 6s-9 13.667 -9 29z" />
    <glyph glyph-name="s" unicode="s" horiz-adv-x="987" 
d="M76 117l49 114.005c6.66699 12 13.5 19.833 20.5 23.5s17.833 2.16699 32.5 -4.5c49.333 -23.333 104 -41.5 164 -54.5s113.333 -19.5 160 -19.5c57.333 0 100.333 11.333 129 34s43 51.667 43 87c0 39.333 -18.5 70.666 -55.5 93.999s-92.167 48.666 -165.5 75.999
c-56 20.667 -104.833 41.167 -146.5 61.5s-76.167 43.166 -103.5 68.499s-48.166 53.666 -62.499 84.999s-21.5 67.666 -21.5 108.999c0 45.333 8.16699 86.666 24.5 123.999s40.5 69.666 72.5 96.999s72 48.833 120 64.5s103.333 23.5 166 23.5
c57.333 0 114.666 -5.16699 171.999 -15.5s112.666 -26.5 165.999 -48.5c10.667 -5.33301 17 -12 19 -20s1.66699 -17.667 -1 -29l-47 -117c-4 -10.667 -9.16699 -16.667 -15.5 -18s-14.833 0 -25.5 4c-53.333 19.333 -100.166 32.333 -140.499 39s-83.5 10 -129.5 10
c-50.667 0 -87.667 -10.5 -111 -31.5s-35 -44.5 -35 -70.5c0 -19.333 3.83301 -35.833 11.5 -49.5s19.667 -26.334 36 -38.001s37.833 -23.5 64.5 -35.5s59 -25 97 -39c44 -16.667 86.833 -34.167 128.5 -52.5s78.5 -40.5 110.5 -66.5s57.833 -56.667 77.5 -92
s29.5 -78.333 29.5 -129c0 -54.667 -10.167 -102.5 -30.5 -143.5s-48.666 -74.833 -84.999 -101.5s-79 -46.5 -128 -59.5s-102.167 -19.5 -159.5 -19.5c-32.667 0 -67.5 1.83301 -104.5 5.5s-73.833 8.83398 -110.5 15.501s-72.167 15.834 -106.5 27.501
s-65.833 25.834 -94.5 42.501c-20.667 10.667 -25.334 27 -14.001 49z" />
    <glyph glyph-name="t" unicode="t" horiz-adv-x="804" 
d="M31 928l0.00390625 84.001c0 12 2 20.833 6 26.5s12.667 9.83398 26 12.501l156 34l27 195c2.66699 15.333 7 25.666 13 30.999s16.667 10.666 32 15.999l119 41c10.667 2.66699 19.334 1.66699 26.001 -3s10 -14.667 10 -30v-260h220c15.333 0 24.5 -3 27.5 -9
s4.5 -14 4.5 -24v-114c0 -12 -1.66699 -20.833 -5 -26.5s-12.333 -8.5 -27 -8.5h-220v-594c0 -44 10.333 -74.167 31 -90.5s52 -24.5 94 -24.5c8 0 19 0.333008 33 1s28.167 1.66699 42.5 3s28.666 3.16602 42.999 5.49902s26.166 4.16602 35.499 5.49902
c13.333 2.66699 22.166 2.33398 26.499 -0.999023s7.16602 -10 8.49902 -20l22 -131c1.33301 -8 1.66602 -15.167 0.999023 -21.5s-7 -12.166 -19 -17.499c-46.667 -15.333 -93.167 -24.333 -139.5 -27s-82.5 -4 -108.5 -4c-112 0 -191.167 24 -237.5 72
s-69.5 121 -69.5 219v625h-146c-15.333 0 -24.5 3 -27.5 9s-4.5 14.667 -4.5 26z" />
    <glyph glyph-name="u" unicode="u" horiz-adv-x="1175" 
d="M133 502l0.00195312 539.999c0 15.333 2.83301 25 8.5 29s15.834 6 30.501 6h160c13.333 0 23.166 -2 29.499 -6s9.5 -13.667 9.5 -29v-544c0 -53.333 3.33301 -99.833 10 -139.5s20 -72.5 40 -98.5s47.667 -45.5 83 -58.5s81.666 -19.5 138.999 -19.5
c15.333 0 37 0.333008 65 1s60.333 4.66699 97 12v847c0 15.333 2.66699 25 8 29s15.666 6 30.999 6h160c13.333 0 23 -2 29 -6s9 -13.667 9 -29v-876c0 -48 -10.833 -86 -32.5 -114s-56.5 -46.667 -104.5 -56c-18 -2.66699 -38.5 -5.33398 -61.5 -8.00098
s-46.833 -4.66699 -71.5 -6s-48.5 -2.5 -71.5 -3.5s-43.5 -1.5 -61.5 -1.5c-92.667 0 -171.167 9.66699 -235.5 29s-116.333 49.833 -156 91.5s-68.667 95.834 -87 162.501s-27.5 147.334 -27.5 242.001z" />
    <glyph glyph-name="v" unicode="v" horiz-adv-x="1075" 
d="M31 1047c-5.33301 19.333 1.99512 28.667 21.9951 28h185c15.333 0 25.5 -1.66699 30.5 -5s9.16699 -10.333 12.5 -21l157 -486l101 -348h12l100 346l152 486c2.66699 10.667 6.33398 18 11.001 22s14.667 6 30 6h180c20.667 0 27.334 -8.66699 20.001 -26l-319 -959
c-13.333 -39.333 -28.666 -65.833 -45.999 -79.5s-43.666 -20.5 -78.999 -20.5h-115c-30 0 -54.167 5.83301 -72.5 17.5s-35.166 39.167 -50.499 82.5z" />
    <glyph glyph-name="w" unicode="w" horiz-adv-x="1572" 
d="M39 1051c-5.33301 19.333 2.00586 28.668 22.0059 28.001h185c13.333 0 22.5 -1.66699 27.5 -5s8.83301 -10.333 11.5 -21l90 -480l55 -311h12l76 264l117 416c8 27.333 19.5 49.166 34.5 65.499s42.5 24.5 82.5 24.5h84c34 0 56.833 -8.5 68.5 -25.5
s22.167 -39.833 31.5 -68.5l113 -389l84 -299h12l53 319l88 484c2.66699 10.667 6.16699 17.334 10.5 20.001s13.166 4 26.499 4l188 2c19.333 0 27 -9.33301 23 -28l-221 -959c-10.667 -44 -26.334 -72 -47.001 -84s-45.334 -18 -74.001 -18h-92
c-35.333 0 -61 6.16699 -77 18.5s-30 38.166 -42 77.499l-102 346l-88 322h-9l-90 -332l-104 -336c-10.667 -35.333 -24.334 -60.166 -41.001 -74.499s-42.667 -21.5 -78 -21.5h-96c-28.667 0 -52.334 6.16699 -71.001 18.5s-33.334 40.166 -44.001 83.499z" />
    <glyph glyph-name="x" unicode="x" horiz-adv-x="1019" 
d="M25 39l350 528l-309 473c-4 6.66699 -5.5 14.167 -4.5 22.5s7.83301 12.5 20.5 12.5h190c16.667 0 29.167 -2.33301 37.5 -7s15.833 -12.667 22.5 -24l180 -313l186 313c6.66699 10.667 14.167 18.5 22.5 23.5s20.166 7.5 35.499 7.5h184
c15.333 0 23.333 -3.66699 24 -11s-0.333008 -14 -3 -20l-318 -469l354 -538c5.33301 -8 7.33301 -16.167 6 -24.5s-9.33301 -12.5 -24 -12.5h-195c-19.333 0 -32.666 3 -39.999 9s-14.333 14.667 -21 26l-217 366l-221 -366c-6.66699 -10.667 -14.5 -19.167 -23.5 -25.5
s-21.833 -9.5 -38.5 -9.5h-182c-26 0 -31.333 13 -16 39z" />
    <glyph glyph-name="y" unicode="y" horiz-adv-x="1069" 
d="M23 1047c-5.33301 19.333 1.99805 28.666 21.998 27.999h188c15.333 0 25.666 -1.66699 30.999 -5s9.33301 -10.333 12 -21l140 -471l106 -371h13l114 375l152 465c2.66699 10.667 6.33398 18 11.001 22s14.667 6 30 6h186c20.667 0 27.667 -8.66699 21 -26l-410 -1225v2
c-31.333 -94 -74.666 -160.5 -129.999 -199.5s-126 -58.5 -212 -58.5c-22 0 -49 1.33301 -81 4s-65 9.33398 -99 20.001c-15.333 2.66699 -24.666 6.83398 -27.999 12.501s-3.66602 14.5 -0.999023 26.5l29 125c2.66699 13.333 7 21.166 13 23.499
s15.333 2.16602 28 -0.500977c23.333 -5.33301 41.333 -9.16602 54 -11.499s28 -3.5 46 -3.5c48 0 86 9.33301 114 28s50 52.667 66 102l43 129h-49c-24.667 0 -44.834 4 -60.501 12s-29.5 31.667 -41.5 71z" />
    <glyph glyph-name="z" unicode="z" horiz-adv-x="985" 
d="M43 82v43c0 20.667 2.66699 41.167 8 61.5s17.666 40.833 36.999 61.5l559 629l-2 6h-516c-15.333 0 -25 2.66699 -29 8s-6 14.333 -6 27v122c0 10.667 2 19.167 6 25.5s13.667 9.5 29 9.5h709c34 0 58.833 -5.83301 74.5 -17.5s23.5 -33.834 23.5 -66.501v-49
c0 -19.333 -2.66699 -38.166 -8 -56.499s-15.666 -35.5 -30.999 -51.5l-563 -633l4 -6h565c15.333 0 25 -3.16699 29 -9.5s6 -14.833 6 -25.5v-125c0 -12 -2 -20.833 -6 -26.5s-13.667 -8.5 -29 -8.5h-768c-34 -0 -57.833 7.83301 -71.5 23.5s-20.5 35.167 -20.5 58.5z" />
    <glyph glyph-name="braceleft" unicode="{" horiz-adv-x="784" 
d="M125 612l-0.00195312 110.998c0 9.33301 1.66699 15.833 5 19.5s10.666 6.83398 21.999 9.50098c35.333 5.33301 62.5 21 81.5 47s28.5 69 28.5 129v192c0 128.667 33.833 219.667 101.5 273s160.834 81.333 279.501 84c15.333 1.33301 23 -5.66699 23 -21v-131
c0 -16.667 -7.66699 -25.667 -23 -27c-58.667 -2.66699 -98.167 -18.334 -118.5 -47.001s-30.5 -65.334 -30.5 -110.001v-211c0 -69.333 -13 -125.666 -39 -168.999s-60.333 -74.333 -103 -93v-9c42 -18 76.167 -48 102.5 -90s39.5 -99.333 39.5 -172v-262
c0 -44 10.167 -80.5 30.5 -109.5s59.166 -45.833 116.499 -50.5c10.667 -1.33301 17.5 -3.66602 20.5 -6.99902s4.5 -8.33301 4.5 -15v-137c0 -15.333 -7 -23 -21 -23c-57.333 1.33301 -109.166 9.16602 -155.499 23.499s-86.666 35.833 -120.999 64.5
s-60.666 65.834 -78.999 111.501s-27.5 100.834 -27.5 165.501v248c0 60 -9.83301 103.167 -29.5 129.5s-47.167 41.833 -82.5 46.5c-9.33301 2.66699 -15.833 5.66699 -19.5 9s-5.5 10.333 -5.5 21z" />
    <glyph glyph-name="bar" unicode="|" horiz-adv-x="485" 
d="M141 -264v1831c0 15.333 3.16699 25.333 9.5 30s16.166 7 29.499 7h135c15.333 0 25.666 -2.5 30.999 -7.5s8 -14.833 8 -29.5v-1831c0 -15.333 -2.66699 -25.333 -8 -30s-15.666 -7 -30.999 -7h-135c-13.333 0 -23.166 2.33301 -29.499 7s-9.5 14.667 -9.5 30z" />
    <glyph glyph-name="braceright" unicode="}" horiz-adv-x="784" 
d="M129 -47c0 13.333 8.33496 20.6699 25.002 22.0029c57.333 4 96.166 21.167 116.499 51.5s30.5 67.166 30.5 110.499v260c0 72.667 13.333 130.167 40 172.5s61 73.166 103 92.499v6c-44 19.333 -78.833 50.333 -104.5 93s-38.5 99.667 -38.5 171v211
c0 45.333 -10.167 82.166 -30.5 110.499s-59.833 43.833 -118.5 46.5c-15.333 1.33301 -23 10.333 -23 27v129c0 15.333 7.66699 23 23 23c60 -1.33301 113.5 -8.83301 160.5 -22.5s86.833 -34.5 119.5 -62.5s58 -64.167 76 -108.5s27 -98.833 27 -163.5v-194
c0 -58.667 9.16699 -101.334 27.5 -128.001s45.166 -42.667 80.499 -48c12 -1.33301 19.833 -4.16602 23.5 -8.49902s5.5 -11.166 5.5 -20.499v-111c0 -18 -8.33301 -27.333 -25 -28c-35.333 -5.33301 -62.833 -21.333 -82.5 -48s-29.5 -70 -29.5 -130v-248
c0 -64 -9.33301 -119 -28 -165s-45 -83.333 -79 -112s-74.5 -49.834 -121.5 -63.501s-99.167 -21.167 -156.5 -22.5c-13.333 0 -20.333 7 -21 21v137z" />
    <glyph glyph-name="asciitilde" unicode="~" 
d="M139 588c44 58.667 88.835 102.331 134.502 130.998s97.167 43 154.5 43c38 0 75.5 -6.5 112.5 -19.5s72.833 -27 107.5 -42l100.5 -42c32.333 -13 62.833 -19.5 91.5 -19.5c31.333 0 57.5 8.83301 78.5 26.5s43.833 42.167 68.5 73.5c10.667 15.333 25 17.333 43 6
l88 -61c9.33301 -6.66699 14 -13.5 14 -20.5s-2.66699 -15.167 -8 -24.5c-34 -57.333 -74.5 -102.333 -121.5 -135s-101.833 -49 -164.5 -49c-36.667 0 -72.834 6.16699 -108.501 18.5s-71 26.333 -106 42s-68.833 29.5 -101.5 41.5s-63.334 18 -92.001 18
c-31.333 0 -60 -6.66699 -86 -20s-52 -33.666 -78 -60.999c-13.333 -13.333 -27 -15.666 -41 -6.99902l-80 62c-13.333 12 -15.333 25 -6 39z" />
    <glyph glyph-name="uni00A0" unicode="&#xa0;" horiz-adv-x="573" 
 />
    <glyph glyph-name="cent" unicode="&#xa2;" 
d="M205 530c0 158.667 37.167 287.833 111.5 387.5s177.166 158.5 308.499 176.5v174c0 12 2.33301 19.667 7 23s11.667 5 21 5h64c10.667 0 17.667 -1.66699 21 -5s5 -11 5 -23v-170c48 -2.66699 94.833 -9.5 140.5 -20.5s88.5 -27.5 128.5 -49.5
c12 -6.66699 19.333 -13.5 22 -20.5s0.666992 -17.167 -6 -30.5l-51 -121c-5.33301 -10.667 -11.166 -17.5 -17.499 -20.5s-17.5 -0.833008 -33.5 6.5c-28.667 10.667 -58 19.834 -88 27.501s-61.667 12.834 -95 15.501v-699c39.333 2.66699 77.833 9.16699 115.5 19.5
s69.5 21.833 95.5 34.5c15.333 6.66699 26 8.66699 32 6s11 -9.66699 15 -21l52 -119c13.333 -22 9 -39 -13 -51c-45.333 -26 -94.166 -44.333 -146.499 -55s-102.5 -17.334 -150.5 -20.001v-175c0 -12 -1.66699 -19.667 -5 -23s-10.333 -5 -21 -5h-64
c-9.33301 0 -16.333 1.66699 -21 5s-7 11 -7 23v175c-136.667 10.667 -240.834 61.667 -312.501 153s-107.5 223.666 -107.5 396.999zM449 529.999c0 -39.333 2.66699 -77.167 8 -113.5s14.833 -69.166 28.5 -98.499s31.667 -54.5 54 -75.5s50.833 -36.167 85.5 -45.5v675
c-31.333 -10.667 -58 -27.334 -80 -50.001s-40.167 -49 -54.5 -79s-24.833 -63.5 -31.5 -100.5s-10 -74.5 -10 -112.5z" />
    <glyph glyph-name="sterling" unicode="&#xa3;" 
d="M154 668v88.002c0 13.333 2 23.166 6 29.499s13.333 9.5 28 9.5h129c-1.33301 12 -3.66602 26.833 -6.99902 44.5l-10 55.5c-3.33301 19.333 -6.33301 38.5 -9 57.5s-4 36.833 -4 53.5c0 66.667 11.5 123.834 34.5 171.501s55.333 86.834 97 117.501
s91.167 53.5 148.5 68.5s120.333 22.5 189 22.5c61.333 0 120.666 -5.66699 177.999 -17s110 -30.666 158 -57.999c12 -6.66699 19 -13.834 21 -21.501s-1 -19.167 -9 -34.5l-49 -104c-5.33301 -12 -11.166 -19.833 -17.499 -23.5s-17.5 -1.83398 -33.5 5.49902
c-35.333 15.333 -73.166 27 -113.499 35s-82.5 12 -126.5 12c-70.667 0 -127 -14.667 -169 -44s-63 -72.666 -63 -129.999c0 -10.667 1.16699 -25.334 3.5 -44.001l7.5 -58c2.66699 -20 5.66699 -39.833 9 -59.5s6.33301 -36.167 9 -49.5h369c15.333 0 25 -2.83301 29 -8.5
s6 -15.834 6 -30.501v-88c0 -15.333 -2.16699 -25.333 -6.5 -30s-13.833 -7 -28.5 -7h-350c1.33301 -19.333 2.33301 -38.5 3 -57.5s1 -38.167 1 -57.5c-1.33301 -50.667 -6.83301 -104 -16.5 -160s-34.167 -105.667 -73.5 -149h600c15.333 0 24.5 -2.33301 27.5 -7
s4.5 -14.667 4.5 -30v-133c0 -15.333 -1.66699 -25.333 -5 -30s-12.333 -7 -27 -7h-850c-56 0 -84 22 -84 66v45c0 28.667 4.66699 50.167 14 64.5s23.666 30.166 42.999 47.499c26 20.667 46.833 42.667 62.5 66s28 47.166 37 71.499s15.167 48.833 18.5 73.5
s5.66602 49.334 6.99902 74.001c1.33301 10.667 2 27 2 49s-1.33301 46.667 -4 74h-152c-15.333 0 -24.833 2.33301 -28.5 7s-5.5 14.667 -5.5 30z" />
    <glyph glyph-name="yen" unicode="&#xa5;" 
d="M106 1348c-2.66699 5.33301 -2.5 11.332 0.5 17.999s9.83301 10 20.5 10h192c15.333 0 26 -1.66699 32 -5s12 -11.666 18 -24.999l143 -316l117 -285h10l115 285l137 316c6.66699 20.667 22.334 30.667 47.001 30h195c10.667 0 16.667 -3 18 -9
s0.666016 -12.333 -2.00098 -19l-275 -572h220c15.333 0 24.5 -3 27.5 -9s4.5 -15.333 4.5 -28v-71c0 -13.333 -1.66699 -22.833 -5 -28.5s-12.333 -8.5 -27 -8.5h-906c-15.333 0 -24.5 2.66699 -27.5 8s-4.5 15 -4.5 29v71c0 12 1.66699 21.167 5 27.5s12.333 9.5 27 9.5
h197zM156 419.999v71.999c0 12 1.66699 21 5 27s12.333 9 27 9h906c15.333 0 24.5 -3 27.5 -9s4.5 -15 4.5 -27v-72c0 -13.333 -1.66699 -22.833 -5 -28.5s-12.333 -8.5 -27 -8.5h-342v-350c0 -15.333 -2.5 -24.666 -7.5 -27.999s-14.833 -5 -29.5 -5h-164
c-12 0 -21.167 2 -27.5 6s-9.5 13 -9.5 27v350h-326c-15.333 0 -24.5 2.66699 -27.5 8s-4.5 15 -4.5 29z" />
    <glyph glyph-name="section" unicode="&#xa7;" horiz-adv-x="1193" 
d="M145 754c0 49.333 14.3301 98.8408 42.9971 148.508s67.667 90.167 117 121.5c-18 24.667 -32.333 51.667 -43 81s-16 58.333 -16 87c0 42 7.83301 82.167 23.5 120.5s39.834 72.166 72.501 101.499s73.667 52.5 123 69.5s108 25.5 176 25.5c52 0 106 -4.33301 162 -13
s106.333 -24.667 151 -48c19.333 -10.667 24.333 -26.334 15 -47.001l-45 -103c-4 -10.667 -8.83301 -17.667 -14.5 -21s-15.167 -1.66602 -28.5 5.00098c-31.333 12 -65.833 22.167 -103.5 30.5s-74.167 12.5 -109.5 12.5c-69.333 0 -119.5 -9.83301 -150.5 -29.5
s-46.5 -48.167 -46.5 -85.5c0 -39.333 21.167 -79.5 63.5 -120.5s92.166 -84.833 149.499 -131.5l152.5 -128c45.667 -38.667 84.5 -76.334 116.5 -113.001s57 -72.834 75 -108.501s27 -73.167 27 -112.5c0 -48 -15 -95.5 -45 -142.5s-69 -86.167 -117 -117.5
c20.667 -27.333 37.5 -56.5 50.5 -87.5s19.5 -62.167 19.5 -93.5c0 -40.667 -9 -79.834 -27 -117.501s-45 -70.834 -81 -99.501s-81.333 -51.834 -136 -69.501s-119 -26.5 -193 -26.5c-52 0 -104.833 4.83301 -158.5 14.5s-102.5 25.834 -146.5 48.501
c-19.333 12 -23.333 27 -12 45l49 107c4 10.667 8.5 17.5 13.5 20.5s14.167 0.833008 27.5 -6.5c28.667 -10.667 61.167 -20.834 97.5 -30.501s74.833 -14.5 115.5 -14.5c70.667 0 121.834 13.333 153.501 40s47.5 57 47.5 91c0 31.333 -17.5 66.166 -52.5 104.499
s-78.5 78.166 -130.5 119.499c-50.667 38 -99.167 76.167 -145.5 114.5s-87.166 76.833 -122.499 115.5s-63.666 78.167 -84.999 118.5s-32 81.833 -32 124.5zM374.997 768.008c0 -20.667 4.66699 -40.499 14 -59.499s24 -39.5 44 -61.5s45.667 -47.333 77 -76
s69.666 -62 114.999 -100l72.5 -62.5c27.667 -23.667 50.5 -41.834 68.5 -54.501c18 15.333 32.333 33.166 43 53.499s16 40.166 16 59.499c0 26 -5 49.5 -15 70.5s-25 42.833 -45 65.5s-45.333 47.334 -76 74.001l-107 95c-27.333 26 -53.333 48.833 -78 68.5
s-44.667 37.834 -60 54.501c-19.333 -15.333 -35.666 -33.833 -48.999 -55.5s-20 -45.5 -20 -71.5z" />
    <glyph glyph-name="dieresis" unicode="&#xa8;" horiz-adv-x="1167" 
d="M266 1368c0 35.333 13.333 66.333 40 93s57.667 40 93 40s66.833 -13.333 94.5 -40s41.5 -57.667 41.5 -93c0 -34 -13.667 -64.333 -41 -91s-59 -40 -95 -40c-35.333 0 -66.333 13.333 -93 40s-40 57 -40 91zM659 1368c0 18 3.83301 34.833 11.5 50.5
s17.667 29.667 30 42s26.666 22.166 42.999 29.499s33.5 11 51.5 11c35.333 0 66.333 -13.333 93 -40s40 -57.667 40 -93c0 -34 -13.333 -64.333 -40 -91s-57.667 -40 -93 -40c-18 0 -35.167 3.83301 -51.5 11.5s-30.666 17.5 -42.999 29.5s-22.333 25.833 -30 41.5
s-11.5 31.834 -11.5 48.501z" />
    <glyph glyph-name="copyright" unicode="&#xa9;" horiz-adv-x="1701" 
d="M113 717c0 105.333 18.667 203 56 293s89.166 168 155.499 234s144.833 117.833 235.5 155.5s188.667 56.5 294 56.5s203 -18.833 293 -56.5s168.5 -89.5 235.5 -155.5s119.167 -144 156.5 -234s56 -187.667 56 -293s-18.667 -203 -56 -293s-89.5 -168.167 -156.5 -234.5
s-145.5 -118.333 -235.5 -156s-187.667 -56.5 -293 -56.5s-203.333 18.833 -294 56.5s-169.167 89.667 -235.5 156s-118.166 144.5 -155.499 234.5s-56 187.667 -56 293zM238 717c0 -90 15.667 -173.333 47 -250s74.333 -142.667 129 -198s119.5 -98.333 194.5 -129
s156.833 -46 245.5 -46c87.333 0 168.5 15.333 243.5 46s139.833 73.667 194.5 129s97.667 121.333 129 198s47 160 47 250s-15.667 172.833 -47 248.5s-74.333 141.167 -129 196.5s-119.5 98.333 -194.5 129s-156.167 46 -243.5 46c-88.667 0 -170.5 -15.333 -245.5 -46
s-139.833 -73.667 -194.5 -129s-97.667 -120.833 -129 -196.5s-47 -158.5 -47 -248.5zM457 702c0 70.667 9.5 135.501 28.5 194.501s45.833 109.667 80.5 152s76.334 74.833 125.001 97.5s103 34 163 34c64 0 122.333 -12.333 175 -37s92.667 -56.667 120 -96
c5.33301 -6.66699 6.66602 -12.5 3.99902 -17.5s-7.33398 -10.833 -14.001 -17.5l-68 -64c-8 -8 -15.833 -10 -23.5 -6s-14.834 9.33301 -21.501 16c-23.333 22 -48.666 39.167 -75.999 51.5s-58.666 18.5 -93.999 18.5c-78 0 -136.333 -29.667 -175 -89
s-58 -138.333 -58 -237c0 -96.667 19.333 -174.667 58 -234s96.334 -89 173.001 -89c36.667 0 68.667 7.16699 96 21.5s52 33.166 74 56.499c12 12 20.167 17.667 24.5 17s11.166 -5 20.499 -13l78 -66c13.333 -9.33301 14 -20.333 2 -33c-34 -42 -74 -75.333 -120 -100
s-103.667 -37 -173 -37c-62.667 0 -118.667 12 -168 36s-91 57.167 -125 99.5s-60.167 92.5 -78.5 150.5s-27.5 121.667 -27.5 191z" />
    <glyph glyph-name="ordfeminine" unicode="&#xaa;" horiz-adv-x="786" 
d="M55 764c0 32.667 5.83203 63.667 17.499 93s29.834 55.333 54.501 78s57.167 40.834 97.5 54.501s89.166 20.5 146.499 20.5h139v10c0 12 -1.33301 23.5 -4 34.5s-8.5 21.333 -17.5 31s-21.667 17.167 -38 22.5s-38.166 8 -65.499 8c-30 0 -63.5 -2 -100.5 -6
s-66.833 -9.33301 -89.5 -16c-10.667 -2.66699 -20.167 -4.5 -28.5 -5.5s-14.833 6.16699 -19.5 21.5l-22 86c-5.33301 19.333 3 33.666 25 42.999c36.667 13.333 78.834 22.833 126.501 28.5s92.167 8.5 133.5 8.5c102.667 0 177 -21.5 223 -64.5s69 -104.833 69 -185.5
v-391c0 -26 -11.333 -44.333 -34 -55c-42 -19.333 -89 -32.5 -141 -39.5s-102 -10.5 -150 -10.5c-64 0 -116.5 6.16699 -157.5 18.5s-73.833 29.5 -98.5 51.5s-41.834 47 -51.501 75s-14.5 57.667 -14.5 89zM247.999 770c0 -32.667 12.3311 -54.833 36.998 -66.5
s56.667 -17.5 96 -17.5c10.667 0 28.667 0.666992 54 2s49.666 5.33301 72.999 12v166h-117c-13.333 0 -28.166 -1 -44.499 -3s-31.666 -6 -45.999 -12s-26.666 -15.5 -36.999 -28.5s-15.5 -30.5 -15.5 -52.5z" />
    <glyph glyph-name="guillemotleft" unicode="&#xab;" horiz-adv-x="1075" 
d="M121 508c0 18 3.99902 34.834 11.999 50.501s15.667 29.5 23 41.5l186 309c9.33301 15.333 18.833 26.666 28.5 33.999s27.5 11 53.5 11h143c13.333 0 22.5 -4.33301 27.5 -13s4.16699 -19.334 -2.5 -32.001l-240 -405l250 -402c8 -15.333 9.33301 -26.666 4 -33.999
s-15.666 -11 -30.999 -11h-145c-26 0 -44.167 3.83301 -54.5 11.5s-18.833 18.167 -25.5 31.5l-198 322c-6.66699 12 -13.5 26.333 -20.5 43s-10.5 31 -10.5 43zM501.999 508.001c0 18 4 34.834 12 50.501s15.667 29.5 23 41.5l186 309
c9.33301 15.333 18.833 26.666 28.5 33.999s27.5 11 53.5 11h143c13.333 0 22.5 -4.33301 27.5 -13s4.16699 -19.334 -2.5 -32.001l-240 -405l250 -402c8 -15.333 9.33301 -26.666 4 -33.999s-15.666 -11 -30.999 -11h-145c-26 0 -44.167 3.83301 -54.5 11.5
s-18.833 18.167 -25.5 31.5l-199 322c-6.66699 12 -13.334 26.333 -20.001 43s-10 31 -10 43z" />
    <glyph glyph-name="logicalnot" unicode="&#xac;" 
d="M123 637l0.000976562 135.001c0 15.333 2.33301 26 7 32s14.667 9 30 9h946c23.333 0 35 -13.667 35 -41v-545c0 -15.333 -2.83301 -25.333 -8.5 -30s-15.834 -7 -30.501 -7h-144c-13.333 0 -23 2.5 -29 7.5s-9 14.833 -9 29.5v371h-760c-15.333 0 -25.333 2.66699 -30 8
s-7 15.666 -7 30.999z" />
    <glyph glyph-name="uni00AD" unicode="&#xad;" horiz-adv-x="768" 
d="M102 512v168.002c0 15.333 2.16699 25.666 6.5 30.999s13.833 8 28.5 8h494c15.333 0 25 -2.83301 29 -8.5s6 -15.834 6 -30.501v-168c0 -13.333 -2.16699 -23.166 -6.5 -29.499s-13.833 -9.5 -28.5 -9.5h-494c-15.333 0 -25 3.16699 -29 9.5s-6 16.166 -6 29.499z" />
    <glyph glyph-name="registered" unicode="&#xae;" horiz-adv-x="1157" 
d="M104 979c0 66.667 12.3311 129 36.998 187s58.167 108.5 100.5 151.5s92.5 76.833 150.5 101.5s120.667 37 188 37c66.667 0 129 -12.333 187 -37s107.833 -58.5 149.5 -101.5s74.5 -93.5 98.5 -151.5s36 -120.333 36 -187s-12.333 -129 -37 -187
s-58.5 -108.167 -101.5 -150.5s-93.167 -75.5 -150.5 -99.5s-118.666 -36 -183.999 -36c-66.667 0 -129.167 12 -187.5 36s-108.666 57.167 -150.999 99.5s-75.5 92.5 -99.5 150.5s-36 120.333 -36 187zM200.998 979c0 -53.333 9.5 -103.499 28.5 -150.499
s45.167 -87.667 78.5 -122s73.333 -61.333 120 -81s96.667 -29.5 150 -29.5s102.833 9.83301 148.5 29.5s85.167 46.667 118.5 81s59.5 74.666 78.5 120.999s28.5 96.833 28.5 151.5s-9.5 105.5 -28.5 152.5s-45.167 88 -78.5 123s-73 62.333 -119 82
s-95.333 29.5 -148 29.5c-53.333 0 -103.333 -9.83301 -150 -29.5s-86.667 -47 -120 -82s-59.5 -76 -78.5 -123s-28.5 -97.833 -28.5 -152.5zM378.998 727.001l0.00195312 481c0 34 16.333 51.333 49 52h180c54.667 0 97.667 -15.167 129 -45.5s47 -69.166 47 -116.499
c0 -28.667 -7.5 -55 -22.5 -79s-33.833 -42.667 -56.5 -56v-2c20.667 -6.66699 35.334 -17.334 44.001 -32.001s15 -30 19 -46l41 -154c1.33301 -5.33301 1.66602 -10 0.999023 -14s-6.33398 -6 -17.001 -6h-70c-6.66699 0 -11.834 0.666992 -15.501 2s-6.16699 6 -7.5 14
l-41 139c-6.66699 26 -17.167 44.167 -31.5 54.5s-33.166 15.5 -56.499 15.5h-86v-207c0 -8 -1.33301 -13 -4 -15s-8 -3 -16 -3h-68c-6.66699 0 -11.334 1 -14.001 3s-4 7 -4 15zM485 1022h110.999c28.667 0 49.5 6.83301 62.5 20.5s19.5 30.167 19.5 49.5
c0 15.333 -5.16699 31 -15.5 47s-31.166 24 -62.499 24h-115v-141z" />
    <glyph glyph-name="degree" unicode="&#xb0;" horiz-adv-x="833" 
d="M109 1133c0 45.333 7.83203 86.333 23.499 123s37.5 68.667 65.5 96s61 48.5 99 63.5s79 22.5 123 22.5s84.667 -7.5 122 -22.5s70 -36.167 98 -63.5s49.833 -59.333 65.5 -96s23.5 -77.667 23.5 -123s-7.83301 -86.833 -23.5 -124.5s-37.5 -69.834 -65.5 -96.501
s-61.167 -47.5 -99.5 -62.5s-79.166 -22.5 -122.499 -22.5c-44 0 -85 7.5 -123 22.5s-70.667 35.833 -98 62.5s-48.833 58.834 -64.5 96.501s-23.5 79.167 -23.5 124.5zM249.999 1133c0 -50.667 16.333 -92.832 49 -126.499s73 -50.5 121 -50.5c49.333 0 90 16.833 122 50.5
s48 75.834 48 126.501c0 49.333 -16 90.666 -48 123.999s-72.667 50 -122 50c-48 0 -88.333 -16.833 -121 -50.5s-49 -74.834 -49 -123.501z" />
    <glyph glyph-name="plusminus" unicode="&#xb1;" 
d="M121 33v145c0 13.333 2.33301 22.5 7 27.5s14.667 7.5 30 7.5h942c15.333 0 25.333 -2.33301 30 -7s7 -14 7 -28v-145c0 -13.333 -2.5 -22.5 -7.5 -27.5s-14.833 -7.5 -29.5 -7.5h-942c-15.333 0 -25.333 2.33301 -30 7s-7 14 -7 28zM127 737v134.998c0 15.333 2 26 6 32
s13.667 9 29 9h360v369c0 15.333 3.16699 25.333 9.5 30s16.166 7 29.499 7h150c15.333 0 26 -2.33301 32 -7s9 -14.667 9 -30v-369h356c15.333 0 25.333 -3 30 -9s7 -16.667 7 -32v-135c0 -15.333 -2.5 -25.666 -7.5 -30.999s-14.833 -8 -29.5 -8h-356v-370
c0 -15.333 -3.16699 -25.333 -9.5 -30s-16.833 -7 -31.5 -7h-150c-13.333 0 -23.166 2.33301 -29.499 7s-9.5 14.667 -9.5 30v370h-360c-15.333 0 -25 2.83301 -29 8.5s-6 15.834 -6 30.501z" />
    <glyph glyph-name="acute" unicode="&#xb4;" horiz-adv-x="1021" 
d="M393.5 1225.5c-1.66699 6.33301 -0.499023 14.832 3.50098 25.499l140 336c9.33301 22 26.333 29.667 51 23l172 -47c10.667 -2.66699 17 -7.5 19 -14.5s0.333008 -13.833 -5 -20.5l-231 -328c-8 -12 -15.167 -18.667 -21.5 -20s-14.833 -0.666016 -25.5 2.00098l-84 28
c-10.667 4 -16.834 9.16699 -18.501 15.5z" />
    <glyph glyph-name="mu" unicode="&#xb5;" horiz-adv-x="1175" 
d="M133 -381v1423c0 15.333 2.83301 25 8.5 29s15.834 6 30.501 6h160c15.333 0 25.666 -2 30.999 -6s8 -13.667 8 -29v-659c0 -35.333 3 -65.666 9 -90.999s18.5 -46.166 37.5 -62.499s46.667 -28.333 83 -36s85.166 -11.5 146.499 -11.5c15.333 0 36.333 0.333008 63 1
s58.334 4.66699 95.001 12v847c0 15.333 2.66699 25 8 29s15.666 6 30.999 6h160c13.333 0 23 -2 29 -6s9 -13.667 9 -29v-872c0 -54.667 -11.167 -95.334 -33.5 -122.001s-58.833 -44 -109.5 -52c-19.333 -2.66699 -40.166 -5.33398 -62.499 -8.00098
s-44.833 -4.66699 -67.5 -6s-44.5 -2.5 -65.5 -3.5s-39.833 -1.5 -56.5 -1.5c-20.667 0 -43.5 0.833008 -68.5 2.5s-50.5 4.16699 -76.5 7.5s-51 7.66602 -75 12.999s-44 11.333 -60 18v-399c0 -15.333 -2.83301 -25 -8.5 -29s-15.834 -6 -30.501 -6h-156
c-13.333 0 -23.166 2.16699 -29.499 6.5s-9.5 13.833 -9.5 28.5z" />
    <glyph glyph-name="paragraph" unicode="&#xb6;" horiz-adv-x="1114" 
d="M117 1053c0 52 9.5 101.165 28.5 147.498s45.167 86.833 78.5 121.5s73.666 62.334 120.999 83.001s99.666 31 156.999 31h178c16.667 0 25 -8.33301 25 -25v-715c0 -16.667 -8.33301 -24.667 -25 -24h-178c-58.667 0 -111.667 9.5 -159 28.5s-87.666 45.5 -120.999 79.5
s-59.166 74.333 -77.499 121s-27.5 97.334 -27.5 152.001zM537 -168.002c-2.66699 18 4 29 20 33c53.333 5.33301 96.333 14.833 129 28.5s58.667 31 78 52s32.333 45.833 39 74.5s10 61.667 10 99v1294c0 6.66699 3 12.167 9 16.5s12.667 6.5 20 6.5h133
c18 0 26.667 -7.66699 26 -23v-1304c0 -131.333 -32 -231.833 -96 -301.5s-173 -109.167 -327 -118.5c-6.66699 0 -12.5 1 -17.5 3s-8.83301 8.33301 -11.5 19z" />
    <glyph glyph-name="periodcentered" unicode="&#xb7;" horiz-adv-x="571" 
d="M111 608c0 23.333 4.33105 45.3311 12.998 65.998s20.834 38.834 36.501 54.501s33.834 27.834 54.501 36.501s43.334 13 68.001 13c49.333 0 90.333 -16.333 123 -49s49 -73 49 -121c0 -23.333 -4.5 -45.5 -13.5 -66.5s-21.333 -39 -37 -54s-33.834 -27 -54.501 -36
s-43 -13.5 -67 -13.5c-48 0 -88.667 16.5 -122 49.5s-50 73.167 -50 120.5z" />
    <glyph glyph-name="cedilla" unicode="&#xb8;" horiz-adv-x="1026" 
d="M340 -393l20 55.001c5.33301 12 10.166 18.5 14.499 19.5s11.166 -0.166992 20.499 -3.5c46.667 -16.667 90.334 -24.667 131.001 -24c68 0 102.333 22.333 103 67c0 23.333 -11.667 39.833 -35 49.5s-50 14.5 -80 14.5h-41c-8 0 -15.333 3.33301 -22 10
s-9.5 14.834 -8.5 24.501s3.16699 19.834 6.5 30.501l69 187c1.33301 2.66699 3.33301 6 6 10s8.33398 6 17.001 6h80c9.33301 0 14 -2.33301 14 -7s-0.666992 -8.33398 -2 -11.001l-55 -148c42 -2.66699 77.667 -9.5 107 -20.5s52.5 -24.333 69.5 -40s29.333 -33 37 -52
s11.5 -38.167 11.5 -57.5c0 -22 -4.83301 -44.167 -14.5 -66.5s-24 -42.333 -43 -60s-44.167 -32.334 -75.5 -44.001s-68.333 -17.5 -111 -17.5c-36.667 0 -74.167 3.66699 -112.5 11s-69.166 16.666 -92.499 27.999c-16.667 6.66699 -21.334 19.667 -14.001 39z" />
    <glyph glyph-name="ordmasculine" unicode="&#xba;" horiz-adv-x="813" 
d="M55 903c0 118.667 32.5 210.5 97.5 275.5s150.167 97.5 255.5 97.5c114.667 0 201.667 -32.833 261 -98.5s89 -156.5 89 -272.5c0 -120 -29.667 -212.5 -89 -277.5s-148 -97.5 -266 -97.5c-116 0 -203 31.833 -261 95.5s-87 156.167 -87 277.5zM250 907
c0 -65.333 11.1689 -117.833 33.502 -157.5s62.166 -59.5 119.499 -59.5c30 0 55 5.83301 75 17.5s36.167 27 48.5 46s21.166 41.5 26.499 67.5s8 53.333 8 82s-2.33301 56 -7 82s-12.5 48.833 -23.5 68.5s-26.333 35 -46 46s-44.5 16.5 -74.5 16.5
c-54.667 0 -95 -19.5 -121 -58.5s-39 -89.167 -39 -150.5z" />
    <glyph glyph-name="guillemotright" unicode="&#xbb;" horiz-adv-x="1075" 
d="M90 68.5c-5.33301 7.66699 -4 18.832 4 33.499l250 402l-240 405c-6.66699 12 -7.5 22.5 -2.5 31.5s14.167 13.5 27.5 13.5h143c24.667 0 42.167 -3.66699 52.5 -11s20.166 -18.666 29.499 -33.999l187 -309l22 -41.5c8 -15.667 12 -32.5 12 -50.5
c0 -12 -3.66699 -26.333 -11 -43s-14.333 -31 -21 -43l-197 -322c-6.66699 -13.333 -15.167 -23.833 -25.5 -31.5s-28.5 -11.5 -54.5 -11.5h-145c-15.333 0 -25.666 3.83301 -30.999 11.5zM471 68.498c-5.33301 7.66699 -4.00098 18.832 3.99902 33.499l250 402l-240 405
c-6.66699 12 -7.66699 22.5 -3 31.5s14 13.5 28 13.5h143c26 0 43.833 -3.66699 53.5 -11s19.167 -18.666 28.5 -33.999l187 -309l22 -41.5c8 -15.667 12 -32.5 12 -50.5c0 -12 -3.66699 -26.333 -11 -43s-14.333 -31 -21 -43l-197 -322
c-6.66699 -13.333 -15.167 -23.833 -25.5 -31.5s-28.5 -11.5 -54.5 -11.5h-145c-15.333 0 -25.666 3.83301 -30.999 11.5z" />
    <glyph glyph-name="divide" unicode="&#xf7;" 
d="M123 637v137.001c0 13.333 2 23.166 6 29.499s13.667 9.5 29 9.5h948c15.333 0 25 -3 29 -9s6 -16 6 -30v-137c0 -13.333 -2.16699 -23.166 -6.5 -29.499s-13.833 -9.5 -28.5 -9.5h-946c-15.333 0 -25.333 2.66699 -30 8s-7 15.666 -7 30.999zM467 301.001
c0 48 16.3311 88.333 48.998 121s73 49 121 49c50.667 0 92.334 -16 125.001 -48s49 -72.667 49 -122c0 -48 -16.667 -88.333 -50 -121s-74.666 -49 -123.999 -49c-48 0 -88.333 16.333 -121 49s-49 73 -49 121zM466.998 1092c0 48 16.3311 88 48.998 120s73 48 121 48
c50.667 0 92.334 -16 125.001 -48s49 -72 49 -120s-16.667 -88.333 -50 -121s-74.666 -49 -123.999 -49c-48 0 -88.333 16 -121 48s-49 72.667 -49 122z" />
    <glyph glyph-name="florin" unicode="&#x192;" 
d="M98.5 -160c-0.333008 5.33301 0.831055 13.668 3.49805 25.001l33 117c8 19.333 21 26 39 20c23.333 -4 43.5 -6.66699 60.5 -8s33.167 -2 48.5 -2c50.667 0 86.5 19.5 107.5 58.5s38.833 89.833 53.5 152.5l24.5 128.5c8.33301 45 16 89.667 23 134
s13.167 87.333 18.5 129s10.666 80.5 15.999 116.5h-166c-15.333 0 -24.166 3.33301 -26.499 10s-2.83301 15.667 -1.5 27v94c0 26 13 39 39 39h182c2.66699 16.667 5.66699 39.167 9 67.5s7.66602 54.166 12.999 77.499c6.66699 42 17.334 86.333 32.001 133s36 89 64 127
s64.167 69.667 108.5 95s100.5 38 168.5 38c20.667 0 50.834 -1 90.501 -3s79.834 -9 120.501 -21c12 -4 18.5 -9.5 19.5 -16.5s0.833008 -15.167 -0.5 -24.5l-21 -119c-1.33301 -18 -16.333 -25 -45 -21c-46.667 9.33301 -88.334 14.333 -125.001 15
c-58.667 0 -101.667 -15.333 -129 -46s-47.666 -82.334 -60.999 -155.001c-6.66699 -31.333 -11.167 -57.166 -13.5 -77.499s-6.16602 -42.833 -11.499 -67.5h219c15.333 0 24.666 -2.5 27.999 -7.5s5 -13.5 5 -25.5l-2 -102c-1.33301 -10.667 -4.33301 -19.5 -9 -26.5
s-14.667 -10.5 -30 -10.5h-235l-17.5 -122c-6.33301 -44.667 -13.333 -89.834 -21 -135.501s-14.834 -90.334 -21.501 -134.001s-14 -83.834 -22 -120.501c-13.333 -61.333 -27.666 -116.666 -42.999 -165.999s-36.333 -91.666 -63 -126.999
s-60.834 -62.666 -102.501 -81.999s-95.167 -29 -160.5 -29c-26 0 -56.667 2.5 -92 7.5s-66 12.833 -92 23.5c-9.33301 4 -14.166 8.66699 -14.499 14z" />
    <glyph glyph-name="circumflex" unicode="&#x2c6;" horiz-adv-x="1183" 
d="M221 1225c-10.667 12 -10.668 24.999 -0.000976562 38.999l268 274c32.667 32.667 65.667 49 99 49c23.333 0 42.5 -3.33301 57.5 -10s31.167 -19.667 48.5 -39l264 -272c18 -18 18 -34.333 0 -49l-47 -46c-6.66699 -5.33301 -13.667 -7.66602 -21 -6.99902
s-16.666 4.66699 -27.999 12l-272 192l-271 -197c-18 -10.667 -33.667 -9 -47 5z" />
    <glyph glyph-name="ring" unicode="&#x2da;" horiz-adv-x="1120" 
d="M375 1393c0 30 5.83301 58.333 17.5 85s27.667 49.5 48 68.5s44.5 34 72.5 45s57.667 16.5 89 16.5c62.667 0 115.834 -20.167 159.501 -60.5s65.5 -91.833 65.5 -154.5s-21.833 -114.167 -65.5 -154.5s-96.834 -60.5 -159.501 -60.5c-64 0 -117.833 19.667 -161.5 59
s-65.5 91.333 -65.5 156zM498 1393c0 -31.333 9.5 -56.666 28.5 -75.999s44.167 -29 75.5 -29c28.667 0 53 9.66699 73 29s30 44.666 30 75.999s-9.66699 56.5 -29 75.5s-44 28.5 -74 28.5c-31.333 0 -56.5 -9.5 -75.5 -28.5s-28.5 -44.167 -28.5 -75.5z" />
    <glyph glyph-name="tilde" unicode="&#x2dc;" horiz-adv-x="1175" 
d="M223.5 1308.5c-1.66699 5.66699 0.166016 13.832 5.49902 24.499c24.667 49.333 54.167 88 88.5 116s80.166 42 137.499 42c24.667 0 48.167 -4.16699 70.5 -12.5l66.5 -25.5l63.5 -25.5c20.333 -8.33301 40.833 -12.5 61.5 -12.5c24.667 0 44.167 5.5 58.5 16.5
s26.833 26.167 37.5 45.5c6.66699 12 12.5 19 17.5 21s12.833 1 23.5 -3l82 -29c15.333 -5.33301 24 -10 26 -14s0.666992 -11.333 -4 -22c-23.333 -53.333 -52.666 -97.166 -87.999 -131.499s-81.666 -51.5 -138.999 -51.5c-24.667 0 -48.5 4.16699 -71.5 12.5
s-45.833 17.166 -68.5 26.499s-45.667 18.166 -69 26.499s-46.333 12.5 -69 12.5c-18 0 -34.167 -5.5 -48.5 -16.5s-29.166 -25.833 -44.499 -44.5c-6.66699 -9.33301 -12.334 -15.166 -17.001 -17.499s-12.667 -0.833008 -24 4.5l-73 39
c-13.333 6.66699 -20.833 12.834 -22.5 18.501z" />
    <glyph glyph-name="uni03A9" unicode="&#x3a9;" horiz-adv-x="1546" 
d="M86 41l-0.00390625 133.001c0 16.667 3 27.667 9 33s16 8 30 8h194l7 6c-38 32.667 -69.333 70.167 -94 112.5s-44.167 86 -58.5 131s-24.333 91 -30 138s-8.5 92.5 -8.5 136.5c0 104 15.333 200 46 288s74 163.833 130 227.5s123.333 113.167 202 148.5
s166.334 53 263.001 53c100 0 189.167 -17.333 267.5 -52s144.833 -83.5 199.5 -146.5s96.334 -138.5 125.001 -226.5s43 -185.333 43 -292c0 -92.667 -15 -184.667 -45 -276s-80.667 -172 -152 -242l5 -6h194c13.333 0 22.833 -2.66699 28.5 -8s8.5 -16.333 8.5 -33v-133
c0 -15.333 -2.66699 -26 -8 -32s-15.666 -9 -30.999 -9h-414c-35.333 0 -62.166 7.5 -80.499 22.5s-27.5 41.5 -27.5 79.5v45c0 30 6.16699 53 18.5 69s33.5 37 63.5 63c68 56 116 122.167 144 198.5s42 162.166 42 257.499c0 74 -7.83301 141.667 -23.5 203
s-39.5 113.5 -71.5 156.5s-72 76.5 -120 100.5s-104 36 -168 36c-60 0 -113.833 -12 -161.5 -36s-88 -57.833 -121 -101.5s-58 -95.834 -75 -156.501s-25.5 -128 -25.5 -202c0 -87.333 13 -168.5 39 -243.5s75.333 -143.167 148 -204.5c18 -15.333 32.667 -28.5 44 -39.5
s20 -20.833 26 -29.5s10.167 -18.167 12.5 -28.5s3.5 -22.166 3.5 -35.499v-45c0 -36.667 -9.33301 -64 -28 -82s-43.667 -27 -75 -27h-434c-27.333 0 -41 13.667 -41 41z" />
    <glyph glyph-name="pi" unicode="&#x3c0;" horiz-adv-x="1212" 
d="M133 35v942c0 23.333 6.83301 45.5 20.5 66.5s40.167 31.5 79.5 31.5h744c39.333 0 66.166 -10.5 80.499 -31.5s21.5 -43.167 21.5 -66.5v-942c0 -15.333 -3 -25 -9 -29s-16.667 -6 -32 -6h-159c-13.333 0 -23.166 2 -29.499 6s-9.5 13.667 -9.5 29v839h-469v-839
c0 -15.333 -2.83301 -25 -8.5 -29s-15.834 -6 -30.501 -6h-160c-13.333 0 -23.166 2 -29.499 6s-9.5 13.667 -9.5 29z" />
    <glyph glyph-name="uni0401" unicode="&#x401;" horiz-adv-x="1224" 
d="M154 367l0.00195312 700.001c0 48 6.5 94.167 19.5 138.5s34.167 83.5 63.5 117.5s67.166 61.333 113.499 82s102.166 31 167.499 31h572c18 0 29.167 -3.83301 33.5 -11.5s6.5 -19.5 6.5 -35.5v-129c0 -18 -2.33301 -30.167 -7 -36.5s-15.667 -9.5 -33 -9.5h-545
c-52 0 -88.667 -11.5 -110 -34.5s-32 -56.5 -32 -100.5v-215h619c18 0 29.333 -3.33301 34 -10s7 -19.667 7 -39v-113c0 -16.667 -2.33301 -28.667 -7 -36s-16 -11 -34 -11h-619v-299c0 -44 11.333 -77.167 34 -99.5s58.667 -33.5 108 -33.5h557
c19.333 0 31.333 -3.33301 36 -10s7 -19.667 7 -39v-127c0 -15.333 -2.83301 -27 -8.5 -35s-17.167 -12 -34.5 -12h-584c-72.667 0 -132.167 10.167 -178.5 30.5s-83.5 47.666 -111.5 81.999s-47.333 73.333 -58 117s-16 89.5 -16 137.5zM354.002 1667
c0 35.333 13.333 66.333 40 93s57.667 40 93 40s66.833 -13.333 94.5 -40s41.5 -57.667 41.5 -93c0 -34 -13.667 -64.333 -41 -91s-59 -40 -95 -40c-35.333 0 -66.333 13.333 -93 40s-40 57 -40 91zM748.002 1667c0 18 3.66699 34.833 11 50.5s17.166 29.667 29.499 42
s26.666 22.166 42.999 29.499s33.5 11 51.5 11c35.333 0 66.333 -13.333 93 -40s40 -57.667 40 -93c0 -34 -13.333 -64.333 -40 -91s-57.667 -40 -93 -40c-18 0 -35.167 3.83301 -51.5 11.5s-30.666 17.5 -42.999 29.5s-22.166 25.833 -29.499 41.5s-11 31.834 -11 48.501z
" />
    <glyph glyph-name="uni0402" unicode="&#x402;" horiz-adv-x="1626" 
d="M29 1253l-0.000976562 142.002c0 15.333 2 25.666 6 30.999s13.333 8 28 8h1129c15.333 0 25 -2.83301 29 -8.5s6 -15.834 6 -30.501v-142c0 -13.333 -2.16699 -22.666 -6.5 -27.999s-13.833 -8 -28.5 -8l-502 -3v-309c54.667 15.333 113.5 27.666 176.5 36.999
s120.167 14 171.5 14c152.667 0 273.834 -43.333 363.501 -130s134.5 -210.334 134.5 -371.001c0 -42 -4.5 -89.5 -13.5 -142.5s-25.333 -106.333 -49 -160s-56 -106.167 -97 -157.5s-93.5 -97.333 -157.5 -138c-10.667 -6.66699 -19.5 -10.167 -26.5 -10.5
s-14.833 5.16699 -23.5 16.5l-88 114c-8 16.667 -5 30.334 9 41.001c135.333 98 202.666 242.333 201.999 433c0 98 -27.667 172.333 -83 223s-128 76 -218 76c-49.333 0 -99.833 -4.83301 -151.5 -14.5s-101.5 -22.834 -149.5 -39.501v-661c0 -15.333 -2.33301 -25 -7 -29
s-14.667 -6 -30 -6h-178c-13.333 0 -23.166 2 -29.499 6s-9.5 13.667 -9.5 29v1179h-373c-15.333 0 -24.833 2.83301 -28.5 8.5s-5.5 15.834 -5.5 30.501z" />
    <glyph glyph-name="uni0403" unicode="&#x403;" horiz-adv-x="1144" 
d="M154 43l-0.000976562 1024c0 48 5.66699 94.167 17 138.5s31.333 83.5 60 117.5s66.334 61.333 113.001 82s104.667 31 174 31h563c19.333 0 31.333 -3.83301 36 -11.5s7 -19.5 7 -35.5v-127c0 -18 -2.66699 -30.5 -8 -37.5s-17 -10.5 -35 -10.5h-536
c-52 0 -88.667 -11.167 -110 -33.5s-32 -55.5 -32 -99.5v-1038c0 -19.333 -3 -31.333 -9 -36s-18.667 -7 -38 -7h-155c-15.333 0 -27 2.66699 -35 8s-12 17 -12 35zM495.999 1618.5c0 5 5.33398 12.166 16.001 21.499l307 236c9.33301 6.66699 17.5 10.334 24.5 11.001
s14.5 -4.33301 22.5 -15l113 -141c13.333 -16.667 12 -29 -4 -37l-373 -181c-8 -4 -14.833 -6 -20.5 -6s-11.834 4.33301 -18.501 13l-57 79c-6.66699 8 -10 14.5 -10 19.5z" />
    <glyph glyph-name="uni0404" unicode="&#x404;" horiz-adv-x="1269" 
d="M113 711c0 112 15.6699 213.665 47.0029 304.998s75 169.5 131 234.5s123.5 115.167 202.5 150.5s167.167 53 264.5 53c61.333 0 124.333 -5.5 189 -16.5s130.667 -34.167 198 -69.5c10.667 -5.33301 17.667 -11.833 21 -19.5s1 -20.834 -7 -39.501l-57 -119
c-5.33301 -13.333 -10.833 -22.166 -16.5 -26.499s-15.834 -3.16602 -30.501 3.50098c-45.333 18 -91.5 32.167 -138.5 42.5s-96.5 15.5 -148.5 15.5c-56 0 -106.167 -9.66699 -150.5 -29s-82.5 -45.666 -114.5 -78.999s-58 -72.833 -78 -118.5s-33.333 -95.167 -40 -148.5
h537c15.333 0 24.833 -2.33301 28.5 -7s5.5 -14.667 5.5 -30v-133c0 -15.333 -2 -25.333 -6 -30s-13.333 -7 -28 -7h-547c1.33301 -64 9.5 -122.333 24.5 -175s38.5 -98.5 70.5 -137.5s73.167 -69 123.5 -90s111.833 -31.5 184.5 -31.5c61.333 0 118 7.16699 170 21.5
s100.667 30.5 146 48.5c19.333 8 32.666 9.16699 39.999 3.5s13 -13.834 17 -24.501l53 -117c9.33301 -19.333 12.666 -32.666 9.99902 -39.999s-9.33398 -14.333 -20.001 -21c-69.333 -40.667 -143.666 -68 -222.999 -82s-156 -21 -230 -21
c-207.333 0 -363.833 61.833 -469.5 185.5s-158.5 306.5 -158.5 548.5z" />
    <glyph glyph-name="uni0405" unicode="&#x405;" horiz-adv-x="1200" 
d="M80 141l60.9971 139.998c9.33301 20.667 24.333 26.667 45 18c65.333 -27.333 133.333 -50.166 204 -68.499s138.667 -27.5 204 -27.5c104 0 177.5 17.667 220.5 53s64.5 79.666 64.5 132.999c0 28.667 -5.5 54 -16.5 76s-28.167 42.167 -51.5 60.5
s-52.666 36 -87.999 53s-77.666 35.167 -126.999 54.5c-74 28.667 -140.333 57.334 -199 86.001s-107.834 59.667 -147.501 93s-70 70.833 -91 112.5s-31.5 89.167 -31.5 142.5c0 57.333 9.5 109.833 28.5 157.5s47.667 89 86 124s86.5 62 144.5 81s126 28.5 204 28.5
c36.667 0 74.834 -2 114.501 -6s79.334 -9.5 119.001 -16.5s77.834 -15.833 114.501 -26.5s70.667 -23 102 -37c10.667 -6.66699 17.5 -12.667 20.5 -18s1.83301 -15 -3.5 -29l-49 -139c-5.33301 -15.333 -10.5 -23.666 -15.5 -24.999s-12.833 -0.666016 -23.5 2.00098
c-68 23.333 -134.833 40.833 -200.5 52.5s-126.5 17.5 -182.5 17.5c-70.667 0 -122.167 -14.667 -154.5 -44s-48.5 -64 -48.5 -104c0 -24.667 5.83301 -46.834 17.5 -66.501s30.5 -38.667 56.5 -57s58.333 -36.666 97 -54.999s86 -38.5 142 -60.5
c58.667 -24.667 114.667 -49.667 168 -75s100.5 -55 141.5 -89s73.5 -73.833 97.5 -119.5s36 -101.5 36 -167.5c0 -70.667 -13.333 -132.334 -40 -185.001s-62.834 -96 -108.501 -130s-100 -59.667 -163 -77s-130.5 -26 -202.5 -26c-86 0 -176.167 8.33301 -270.5 25
s-181.833 46.667 -262.5 90c-19.333 8 -23.333 24.333 -12 49z" />
    <glyph glyph-name="uni0406" unicode="&#x406;" horiz-adv-x="606" 
d="M178 43v1348c0 18 3.83301 29.667 11.5 35s19.5 8 35.5 8h156c19.333 0 32.333 -2.5 39 -7.5s10 -16.833 10 -35.5v-1348c0 -19.333 -3.33301 -31.333 -10 -36s-19.667 -7 -39 -7h-156c-16.667 0 -28.667 2.66699 -36 8s-11 17 -11 35z" />
    <glyph glyph-name="uni0407" unicode="&#x407;" horiz-adv-x="606" 
d="M-31 1667c0 35.333 13.333 66.333 40 93s57.667 40 93 40s66.833 -13.333 94.5 -40s41.5 -57.667 41.5 -93c0 -34 -13.667 -64.333 -41 -91s-59 -40 -95 -40c-35.333 0 -66.333 13.333 -93 40s-40 57 -40 91zM178 43v1348c0 18 3.83301 29.667 11.5 35s19.5 8 35.5 8h156
c19.333 0 32.333 -2.5 39 -7.5s10 -16.833 10 -35.5v-1348c0 -19.333 -3.33301 -31.333 -10 -36s-19.667 -7 -39 -7h-156c-16.667 0 -28.667 2.66699 -36 8s-11 17 -11 35zM362 1667c0 18 3.83301 34.833 11.5 50.5s17.667 29.667 30 42s26.666 22.166 42.999 29.499
s33.5 11 51.5 11c35.333 0 66.333 -13.333 93 -40s40 -57.667 40 -93c0 -34 -13.333 -64.333 -40 -91s-57.667 -40 -93 -40c-18 0 -35.167 3.83301 -51.5 11.5s-30.666 17.5 -42.999 29.5s-22.333 25.833 -30 41.5s-11.5 31.834 -11.5 48.501z" />
    <glyph glyph-name="uni0408" unicode="&#x408;" horiz-adv-x="1179" 
d="M14.5 98c-3 5.33301 -0.164062 17.002 8.50293 35.002l61 131c5.33301 10.667 11.833 16.834 19.5 18.501s17.5 -0.5 29.5 -6.5c45.333 -20.667 97 -38 155 -52s117 -21 177 -21c58.667 0 107.5 8.5 146.5 25.5s70 41.833 93 74.5s39.667 72.667 50 120
s15.5 101.666 15.5 162.999l-2 805c0 19.333 4.16699 31.333 12.5 36s19.833 7 34.5 7h158c18 0 30.333 -2.5 37 -7.5s10 -16.833 10 -35.5v-255c0 -74.667 -0.333008 -144.167 -1 -208.5s-1 -125.833 -1 -184.5v-184c0 -90 -10.333 -170.833 -31 -242.5
s-52.834 -132.834 -96.501 -183.501s-100 -89.334 -169 -116.001s-152.5 -40 -250.5 -40c-28.667 0 -61.834 1.83301 -99.501 5.5s-75.834 9.5 -114.501 17.5s-77.167 18.5 -115.5 31.5s-73.833 29.167 -106.5 48.5c-10.667 6.66699 -17.5 12.667 -20.5 18z" />
    <glyph glyph-name="uni0409" unicode="&#x409;" horiz-adv-x="2076" 
d="M17 145.5c2 8.33301 10.6689 15.8389 26.002 22.5059c57.333 24.667 102 56 134 94s57 89.167 75 153.5s31.333 144.666 40 240.999s18.667 215.5 30 357.5l20 284c2.66699 49.333 14.667 84.666 36 105.999s53 32 95 32h557c87.333 0 131 -46.667 131 -140v-395h336
c78 0 144.333 -7.83301 199 -23.5s100.667 -36.5 138 -62.5s67.333 -55 90 -87s39.834 -65 51.501 -99s19.167 -66.833 22.5 -98.5s5 -59.834 5 -84.501c0 -64 -12.667 -123.333 -38 -178s-59.833 -101.667 -103.5 -141s-94.5 -70.333 -152.5 -93s-120.333 -34 -187 -34
h-498c-44 0 -74.167 9.16699 -90.5 27.5s-24.5 48.166 -24.5 89.499v1097h-336l-12 -178c-10.667 -152.667 -21.834 -289.167 -33.501 -409.5s-31.834 -224.833 -60.501 -313.5s-70.334 -161.667 -125.001 -219s-129.667 -100.333 -225 -129
c-13.333 -2.66699 -24.5 -2.33398 -33.5 0.999023s-16.5 12.666 -22.5 27.999l-43 121c-2.66699 12 -3 22.167 -1 30.5zM1161 225.006l334.001 0.00292969c49.333 0 90 7.83301 122 23.5s57.5 35.167 76.5 58.5s32.333 48.666 40 75.999s11.5 52.666 11.5 75.999
c0 65.333 -20.833 120.166 -62.5 164.499s-102.834 66.5 -183.501 66.5h-338v-465z" />
    <glyph glyph-name="uni040A" unicode="&#x40a;" horiz-adv-x="2125" 
d="M154 35l0.00292969 1364c0 15.333 3 25 9 29s16 6 30 6h176c15.333 0 25.666 -2.16699 30.999 -6.5s8 -13.833 8 -28.5v-518h550v520c0 15.333 3.16699 25 9.5 29s16.166 6 29.499 6h174c15.333 0 25.666 -2.16699 30.999 -6.5s8 -13.833 8 -28.5v-518h336
c116 0 207.833 -16.5 275.5 -49.5s118.5 -72.667 152.5 -119s55.5 -94.666 64.5 -144.999s13.5 -94.166 13.5 -131.499c0 -64 -12.667 -123 -38 -177s-59.833 -100.5 -103.5 -139.5s-94.5 -69 -152.5 -90s-120.333 -31.5 -187 -31.5h-498c-44 0 -74.167 9.16699 -90.5 27.5
s-24.5 48.166 -24.5 89.499v555h-550v-637c0 -15.333 -2.83301 -25 -8.5 -29s-15.834 -6 -30.501 -6h-176c-13.333 0 -23.166 2 -29.499 6s-9.5 13.667 -9.5 29zM1210 224.999l334.002 -0.000976562c49.333 0 90 7.5 122 22.5s57.667 33.833 77 56.5
s32.666 47.334 39.999 74.001s11 51.667 11 75c0 65.333 -20.833 118.5 -62.5 159.5s-102.834 61.5 -183.501 61.5h-338v-449z" />
    <glyph glyph-name="uni040B" unicode="&#x40b;" horiz-adv-x="1619" 
d="M29 1253l-0.00195312 142.003c0 15.333 2 25.666 6 30.999s13.333 8 28 8h1119c15.333 0 25 -2.83301 29 -8.5s6 -15.834 6 -30.501v-142c0 -13.333 -2.16699 -22.666 -6.5 -27.999s-13.833 -8 -28.5 -8h-492v-314c53.333 15.333 111 27.666 173 36.999s119 14 171 14
c158.667 0 277.167 -40.5 355.5 -121.5s117.5 -198.167 117.5 -351.5v-440c0 -18 -3.33301 -29.333 -10 -34s-17.667 -7 -33 -7h-159c-15.333 0 -26.666 2.66699 -33.999 8s-11 16.333 -11 33v426c0 92.667 -23 163 -69 211s-116.667 72 -212 72
c-38 0 -83.667 -5.16699 -137 -15.5s-104 -23.833 -152 -40.5v-659c0 -15.333 -2.33301 -25 -7 -29s-14.667 -6 -30 -6h-176c-13.333 0 -23.166 2 -29.499 6s-9.5 13.667 -9.5 29v1182h-375c-15.333 0 -24.833 2.66699 -28.5 8s-5.5 14.666 -5.5 27.999z" />
    <glyph glyph-name="uni040C" unicode="&#x40c;" horiz-adv-x="1318" 
d="M154 33l0.000976562 1368c0 15.333 3 24.666 9 27.999s15 5 27 5h177c13.333 0 22.666 -1.83301 27.999 -5.5s6.66602 -12.834 3.99902 -27.501v-533h219c20.667 0 42.667 1.83301 66 5.5s46.166 12.334 68.499 26.001s43.166 33.334 62.499 59.001s34.333 60.5 45 104.5
l90 346c2.66699 13.333 8.5 21.5 17.5 24.5s16.833 4.5 23.5 4.5h168c18 0 28 -5.16699 30 -15.5s1.66699 -18.833 -1 -25.5l-90 -367c-13.333 -57.333 -34.166 -107.5 -62.499 -150.5s-64.166 -77.5 -107.499 -103.5v-10c35.333 -12 64.666 -26 87.999 -42
s42.5 -34.5 57.5 -55.5s26.833 -44.167 35.5 -69.5s17.334 -53 26.001 -83l127 -475c2.66699 -6.66699 3 -15.167 1 -25.5s-12 -15.5 -30 -15.5h-180c-6.66699 -0 -14.167 1.33301 -22.5 4s-14.5 11 -18.5 25l-123 448c-20.667 74 -51.167 122.833 -91.5 146.5
s-95.833 35.5 -166.5 35.5h-232l2 -626c0 -15.333 -2.66699 -24.666 -8 -27.999s-14.666 -5 -27.999 -5h-175c-12 0 -21 1.66699 -27 5s-9 12.666 -9 27.999zM487.501 1625c-0.333008 4.66699 5.16797 11.998 16.501 21.998l307 235
c9.33301 6.66699 17.5 10.334 24.5 11.001s14.5 -4.33301 22.5 -15l113 -141c13.333 -16.667 12 -29 -4 -37l-373 -180c-8 -4 -14.833 -6.16699 -20.5 -6.5s-11.834 3.83398 -18.501 12.501l-57 80c-6.66699 8 -10.167 14.333 -10.5 19z" />
    <glyph glyph-name="uni040E" unicode="&#x40e;" horiz-adv-x="1204" 
d="M33 1405c-8 22 0 33.001 24 33.001h193c19.333 0 32 -2.83301 38 -8.5s11 -14.5 15 -26.5l184 -481l127 -347h15l127 367l166 463c5.33301 13.333 11 22.166 17 26.499s16.667 6.5 32 6.5h188c10.667 0 17.834 -3.16699 21.501 -9.5s4.16699 -13.5 1.5 -21.5l-439 -1184
c-19.333 -52 -40.5 -95 -63.5 -129s-49.833 -60.833 -80.5 -80.5s-65.167 -33.667 -103.5 -42s-81.166 -12.5 -128.499 -12.5c-20.667 0 -46.667 1.66699 -78 5s-63.333 10 -96 20c-15.333 5.33301 -25 10.333 -29 15s-4.66699 12.667 -2 24l26 137
c2.66699 13.333 7.16699 20.666 13.5 21.999s16.166 1.33301 29.499 0l67 -7c20 -2 39.333 -2.33301 58 -1c42 1.33301 75.5 8.83301 100.5 22.5s46.167 43.834 63.5 90.501l43 114h-43c-27.333 0 -48.833 4.5 -64.5 13.5s-30.834 32.5 -45.501 70.5zM249 1738.5
c-2 7 2.33398 15.8311 13.001 26.498l57 54c12 10.667 20.5 14.334 25.5 11.001s13.167 -9.33301 24.5 -18c42 -44 84.5 -78.167 127.5 -102.5s84.5 -36.5 124.5 -36.5c16.667 0 33 2.16699 49 6.5s33.667 11.833 53 22.5s41.166 25.667 65.499 45s52.833 43.333 85.5 72
c12 10.667 20.833 15.334 26.5 14.001s12.167 -4.66602 19.5 -9.99902l57 -49c13.333 -10.667 19 -19.5 17 -26.5s-5 -13.167 -9 -18.5c-62.667 -80.667 -125.5 -139.834 -188.5 -177.501s-125.167 -56.5 -186.5 -56.5c-36.667 0 -72 6.16699 -106 18.5s-65.667 29 -95 50
s-57 45.167 -83 72.5s-49.333 56 -70 86c-2.66699 4 -5 9.5 -7 16.5z" />
    <glyph glyph-name="uni040F" unicode="&#x40f;" horiz-adv-x="1443" 
d="M154 137l0.00292969 1262c0 15.333 3 25 9 29s16 6 30 6h172c15.333 0 25.5 -2.16699 30.5 -6.5s7.5 -13.833 7.5 -28.5v-1182h635v1182c0 15.333 3.16699 25 9.5 29s16.166 6 29.499 6h172c15.333 0 25.666 -2.16699 30.999 -6.5s8 -13.833 8 -28.5v-1262
c0 -91.333 -43 -137 -129 -137h-309l-19 -293c0 -24.667 -10 -37 -30 -37h-148c-10.667 0 -18.334 2.5 -23.001 7.5s-7 14.833 -7 29.5l-17 293h-321c-40.667 -0 -72.667 11.333 -96 34s-35 57 -35 103z" />
    <glyph glyph-name="uni0410" unicode="&#x410;" horiz-adv-x="1308" 
d="M32.5 13.5c-3.66699 9 -3.50195 18.833 0.498047 29.5l442 1296c6.66699 20.667 13.5 37.167 20.5 49.5s15.667 21.833 26 28.5s22.333 11.834 36 15.501s29.834 5.5 48.501 5.5h88c42 0 72 -6.5 90 -19.5s33.667 -39.5 47 -79.5l445 -1296
c4 -10.667 4.33301 -20.5 1 -29.5s-12.666 -13.5 -27.999 -13.5h-188c-15.333 0 -27.333 1.66699 -36 5s-15.667 12.666 -21 27.999l-91 280h-520l-90 -278c-4 -12 -9.83301 -20.833 -17.5 -26.5s-19.5 -8.5 -35.5 -8.5h-189c-15.333 0 -24.833 4.5 -28.5 13.5zM454.998 526
h393l-107 344l-86 291h-10l-84 -284z" />
    <glyph glyph-name="uni0411" unicode="&#x411;" horiz-adv-x="1320" 
d="M154 115l0.000976562 1179c0 92.667 43.667 139.334 131 140.001h772c15.333 0 25 -3.16699 29 -9.5s6 -16.833 6 -31.5v-140c0 -13.333 -2.16699 -22.666 -6.5 -27.999s-13.833 -8 -28.5 -8h-651v-318h335c78 0 144.333 -7.83301 199 -23.5s100.834 -36.5 138.501 -62.5
s67.667 -55 90 -87s39.333 -65.167 51 -99.5s19.167 -67.166 22.5 -98.499s5 -59.333 5 -84c0 -64 -12.667 -123.333 -38 -178s-59.833 -101.667 -103.5 -141s-94.834 -70 -153.501 -92s-121.334 -33 -188.001 -33h-496c-44 -0 -74 8.83301 -90 26.5s-24 47.167 -24 88.5z
M406.001 222.997l333.003 0.000976562c49.333 0 89.666 7.83301 120.999 23.5s56.666 35.167 75.999 58.5s32.666 49 39.999 77s11 53.667 11 77c0 65.333 -20.833 120.166 -62.5 164.499s-102.167 66.5 -181.5 66.5h-337v-467z" />
    <glyph glyph-name="uni0412" unicode="&#x412;" horiz-adv-x="1359" 
d="M154 117l0.000976562 1202c0 39.333 8.16699 68.666 24.5 87.999s46.166 29 89.499 29l475 2c62.667 0 121.334 -6.83301 176.001 -20.5s101.5 -34.834 140.5 -63.501s69.833 -65.5 92.5 -110.5s34 -99.167 34 -162.5c0 -61.333 -15.333 -116.833 -46 -166.5
s-69.334 -87.5 -116.001 -113.5v-15c38 -15.333 71.333 -35.5 100 -60.5s52 -53.167 70 -84.5s31.333 -64.833 40 -100.5s13 -71.834 13 -108.501c0 -64 -12.667 -122.667 -38 -176s-59.5 -99.166 -102.5 -137.499s-93.5 -67.666 -151.5 -87.999s-120.333 -30.5 -187 -30.5
h-500c-44 0 -74 9.16699 -90 27.5s-24 48.166 -24 89.499zM403.001 225.002h338.004c49.333 0 89.666 7.16699 120.999 21.5s56.666 32.5 75.999 54.5s32.666 46.333 39.999 73s11 51.667 11 75c0 65.333 -20.833 118.833 -62.5 160.5s-102.834 62.5 -183.501 62.5h-340
v-447zM403.005 879.002l332.003 0.00195312c19.333 0 40.166 2.33301 62.499 7s43.166 13.5 62.499 26.5s35.166 30.667 47.499 53s18.5 52.166 18.5 89.499c0 49.333 -16.167 88.166 -48.5 116.499s-75.5 42.5 -129.5 42.5h-345v-335z" />
    <glyph glyph-name="uni0413" unicode="&#x413;" horiz-adv-x="1144" 
d="M154 43l-0.000976562 1024c0 48 5.66699 94.167 17 138.5s31.333 83.5 60 117.5s66.334 61.333 113.001 82s104.667 31 174 31h563c19.333 0 31.333 -3.83301 36 -11.5s7 -19.5 7 -35.5v-127c0 -18 -2.66699 -30.5 -8 -37.5s-17 -10.5 -35 -10.5h-536
c-52 0 -88.667 -11.167 -110 -33.5s-32 -55.5 -32 -99.5v-1038c0 -19.333 -3 -31.333 -9 -36s-18.667 -7 -38 -7h-155c-15.333 0 -27 2.66699 -35 8s-12 17 -12 35z" />
    <glyph glyph-name="uni0414" unicode="&#x414;" horiz-adv-x="1529" 
d="M20 119c0 23.333 4.49609 44.8359 13.4961 64.5029s29.167 30.834 60.5 33.501l74 6c24.667 27.333 44.834 55.666 60.501 84.999s28.667 61.166 39 95.499s18.833 72.333 25.5 114s13.334 88.167 20.001 139.5l84 652c6.66699 42 21.667 73.333 45 94s59 31 107 31h633
c50.667 0 85.834 -11.333 105.501 -34s29.5 -57.334 29.5 -104.001v-1077l84 -4c32.667 -2.66699 52.834 -11.834 60.501 -27.501s10.5 -32.5 8.5 -50.5l-26 -438c-1.33301 -15.333 -4.5 -25.333 -9.5 -30s-12.833 -7 -23.5 -7h-137c-10.667 0 -18.167 2.33301 -22.5 7
s-7.16602 14.667 -8.49902 30l-12 301h-955l-24 -301c-1.33301 -15.333 -4.83301 -25.333 -10.5 -30s-13.834 -7 -24.501 -7h-135c-9.33301 0 -16.833 2.33301 -22.5 7s-9.16699 14.667 -10.5 30zM443.996 221.003h624.998v993h-446l-50 -405
c-12 -106.667 -22.833 -192.667 -32.5 -258s-19.167 -118.5 -28.5 -159.5s-19.166 -73.5 -29.499 -97.5s-23.166 -48.333 -38.499 -73z" />
    <glyph glyph-name="uni0415" unicode="&#x415;" horiz-adv-x="1224" 
d="M154 367l0.00195312 700.001c0 48 6.5 94.167 19.5 138.5s34.167 83.5 63.5 117.5s67.166 61.333 113.499 82s102.166 31 167.499 31h572c18 0 29.167 -3.83301 33.5 -11.5s6.5 -19.5 6.5 -35.5v-129c0 -18 -2.33301 -30.167 -7 -36.5s-15.667 -9.5 -33 -9.5h-545
c-52 0 -88.667 -11.5 -110 -34.5s-32 -56.5 -32 -100.5v-215h619c18 0 29.333 -3.33301 34 -10s7 -19.667 7 -39v-113c0 -16.667 -2.33301 -28.667 -7 -36s-16 -11 -34 -11h-619v-299c0 -44 11.333 -77.167 34 -99.5s58.667 -33.5 108 -33.5h557
c19.333 0 31.333 -3.33301 36 -10s7 -19.667 7 -39v-127c0 -15.333 -2.83301 -27 -8.5 -35s-17.167 -12 -34.5 -12h-584c-72.667 0 -132.167 10.167 -178.5 30.5s-83.5 47.666 -111.5 81.999s-47.333 73.333 -58 117s-16 89.5 -16 137.5z" />
    <glyph glyph-name="uni0416" unicode="&#x416;" horiz-adv-x="2019" 
d="M60 15.5c-2 10.333 -1.66699 18.835 1 25.502l127 475c8 28.667 16.5 55.667 25.5 81s21 48.5 36 69.5s34.167 39.833 57.5 56.5s52.666 31 87.999 43v10c-45.333 26 -81.5 60.5 -108.5 103.5s-47.5 93.167 -61.5 150.5l-90 367c-2.66699 6.66699 -3 15.167 -1 25.5
s12 15.5 30 15.5h168c6.66699 0 14.5 -1.33301 23.5 -4s14.833 -11 17.5 -25l88 -346c12 -44 27.333 -78.833 46 -104.5s38.5 -45.334 59.5 -59.001s43.167 -22.334 66.5 -26.001s45 -5.5 65 -5.5h189v533c-2.66699 15.333 -1.33398 24.666 3.99902 27.999s15 5 29 5h176
c12 0 21.167 -1.83301 27.5 -5.5s9.5 -12.834 9.5 -27.501v-533h186c20.667 0 42.5 1.83301 65.5 5.5s45.167 12.334 66.5 26.001s41.166 33.334 59.499 59.001s33.5 60.5 45.5 104.5l91 346c2.66699 13.333 8.33398 21.5 17.001 24.5s16.667 4.5 24 4.5h167
c18 0 28 -5.16699 30 -15.5s1.66699 -18.833 -1 -25.5l-90 -367c-13.333 -57.333 -34 -107.5 -62 -150.5s-64 -77.5 -108 -103.5v-10c35.333 -12 64.666 -26 87.999 -42s42.5 -34.5 57.5 -55.5s27 -44.167 36 -69.5s17.5 -53 25.5 -83l127 -475
c2.66699 -6.66699 3 -15.167 1 -25.5s-12 -15.5 -30 -15.5h-182c-6.66699 -0 -14.167 1.33301 -22.5 4s-14.5 11 -18.5 25l-121 448c-10.667 36.667 -22.834 67 -36.501 91s-30.834 42.5 -51.501 55.5s-44.667 22.167 -72 27.5s-58.666 8 -93.999 8h-198v-626
c0 -15.333 -3.16699 -24.666 -9.5 -27.999s-15.5 -5 -27.5 -5h-174c-13.333 0 -22.833 1.66699 -28.5 5s-8.5 12.666 -8.5 27.999l2 626h-199c-35.333 0 -66.666 -2.66699 -93.999 -8s-51.166 -14.5 -71.499 -27.5s-38.166 -31.5 -53.499 -55.5s-27.666 -54.333 -36.999 -91
l-119 -448c-4 -13.333 -10 -21.5 -18 -24.5s-15.667 -4.5 -23 -4.5h-182c-18 0 -28 5.16699 -30 15.5z" />
    <glyph glyph-name="uni0417" unicode="&#x417;" horiz-adv-x="1236" 
d="M42 103.5c-2 7.66699 0.996094 20.8369 8.99609 39.5039l55 113c4 10.667 10.167 18.5 18.5 23.5s22.166 3.83301 41.499 -3.5c23.333 -9.33301 50 -18.833 80 -28.5s61.333 -17.834 94 -24.501s65.334 -12.334 98.001 -17.001s65 -7 97 -7
c117.333 0 204.666 23.167 261.999 69.5s86 106.5 86 180.5c0 26 -5.5 51.5 -16.5 76.5s-28.5 47.167 -52.5 66.5s-55 35 -93 47s-83.667 18 -137 18h-107c-28.667 0 -48.834 4.5 -60.501 13.5s-17.5 27.167 -17.5 54.5v59c0 24.667 5.16699 43.167 15.5 55.5
s27.833 18.5 52.5 18.5h117c86 0 150.833 18.833 194.5 56.5s65.5 87.167 65.5 148.5c0 60 -24.667 103.667 -74 131s-110.666 41 -183.999 41c-65.333 0 -128.166 -7.83301 -188.499 -23.5s-114.166 -33.167 -161.499 -52.5
c-19.333 -6.66699 -33.166 -7.33398 -41.499 -2.00098s-14.5 13.666 -18.5 24.999l-43 108c-8 22 -11 36.333 -9 43s9 13.667 21 21c62.667 36.667 135 63.167 217 79.5s162 24.5 240 24.5c69.333 0 134.5 -7.5 195.5 -22.5s114 -37.5 159 -67.5s80.5 -68.167 106.5 -114.5
s39 -100.833 39 -163.5c0 -74 -21.167 -139.333 -63.5 -196s-97.833 -98.667 -166.5 -126v-10c39.333 -8 75.5 -22 108.5 -42s61.5 -44.667 85.5 -74s42.833 -62.166 56.5 -98.499s20.5 -74.833 20.5 -115.5c0 -66.667 -14.333 -127.334 -43 -182.001
s-68.667 -101.834 -120 -141.501s-112.166 -70.834 -182.499 -93.501s-147.166 -34 -230.499 -34c-36.667 0 -77.167 1.83301 -121.5 5.5s-89 9.16699 -134 16.5s-89 17.833 -132 31.5s-82.5 30.834 -118.5 51.501c-10.667 6.66699 -17 13.834 -19 21.501z" />
    <glyph glyph-name="uni0418" unicode="&#x418;" horiz-adv-x="1472" 
d="M154 123v1278c0 15.333 3 25 9 29s16 6 30 6h169c15.333 0 25.666 -2.16699 30.999 -6.5s8 -13.833 8 -28.5v-1036h9l170 286l413 695c20.667 35.333 39.167 59.166 55.5 71.499s42.166 18.5 77.499 18.5h74c45.333 0 76.5 -10 93.5 -30s25.5 -51.667 25.5 -95v-1276
c0 -15.333 -3.16699 -25 -9.5 -29s-16.166 -6 -29.499 -6h-170c-15.333 0 -25.666 2 -30.999 6s-8 13.667 -8 29v1040h-8l-180 -311l-404 -676c-20.667 -34 -39.167 -57.167 -55.5 -69.5s-42.833 -18.5 -79.5 -18.5h-72c-46.667 0 -78 10.5 -94 31.5s-24 51.5 -24 91.5z" />
    <glyph glyph-name="uni0419" unicode="&#x419;" horiz-adv-x="1472" 
d="M154 123v1278c0 15.333 3 25 9 29s16 6 30 6h169c15.333 0 25.666 -2.16699 30.999 -6.5s8 -13.833 8 -28.5v-1036h9l170 286l413 695c20.667 35.333 39.167 59.166 55.5 71.499s42.166 18.5 77.499 18.5h74c45.333 0 76.5 -10 93.5 -30s25.5 -51.667 25.5 -95v-1276
c0 -15.333 -3.16699 -25 -9.5 -29s-16.166 -6 -29.499 -6h-170c-15.333 0 -25.666 2 -30.999 6s-8 13.667 -8 29v1040h-8l-180 -311l-404 -676c-20.667 -34 -39.167 -57.167 -55.5 -69.5s-42.833 -18.5 -79.5 -18.5h-72c-46.667 0 -78 10.5 -94 31.5s-24 51.5 -24 91.5z
M359.5 1736.5c-2.33301 7 2.16602 15.8301 13.499 26.4971l57 54c12 10.667 20.5 14.334 25.5 11.001s12.833 -9.33301 23.5 -18c42 -44 84.667 -78.167 128 -102.5s84.666 -36.5 123.999 -36.5c16.667 0 33.167 2 49.5 6s34 11.5 53 22.5s40.833 26.167 65.5 45.5
s53.334 43.333 86.001 72c12 10.667 20.833 15.334 26.5 14.001s11.834 -4.66602 18.501 -9.99902l57 -49c13.333 -10.667 19.166 -19.5 17.499 -26.5s-4.5 -13.5 -8.5 -19.5c-62.667 -80.667 -125.5 -139.667 -188.5 -177s-125.167 -56 -186.5 -56
c-36.667 0 -72.167 6.16699 -106.5 18.5s-66.166 29 -95.499 50s-57 45.167 -83 72.5s-49 56 -69 86c-2.66699 4 -5.16699 9.5 -7.5 16.5z" />
    <glyph glyph-name="uni041A" unicode="&#x41a;" horiz-adv-x="1318" 
d="M154 33l0.000976562 1368c0 15.333 3 24.666 9 27.999s15 5 27 5h177c13.333 0 22.666 -1.83301 27.999 -5.5s6.66602 -12.834 3.99902 -27.501v-533h219c20.667 0 42.667 1.83301 66 5.5s46.166 12.334 68.499 26.001s43.166 33.334 62.499 59.001s34.333 60.5 45 104.5
l90 346c2.66699 13.333 8.5 21.5 17.5 24.5s16.833 4.5 23.5 4.5h168c18 0 28 -5.16699 30 -15.5s1.66699 -18.833 -1 -25.5l-90 -367c-13.333 -57.333 -34.166 -107.5 -62.499 -150.5s-64.166 -77.5 -107.499 -103.5v-10c35.333 -12 64.666 -26 87.999 -42
s42.5 -34.5 57.5 -55.5s26.833 -44.167 35.5 -69.5s17.334 -53 26.001 -83l127 -475c2.66699 -6.66699 3 -15.167 1 -25.5s-12 -15.5 -30 -15.5h-180c-6.66699 -0 -14.167 1.33301 -22.5 4s-14.5 11 -18.5 25l-123 448c-20.667 74 -51.167 122.833 -91.5 146.5
s-95.833 35.5 -166.5 35.5h-232l2 -626c0 -15.333 -2.66699 -24.666 -8 -27.999s-14.666 -5 -27.999 -5h-175c-12 0 -21 1.66699 -27 5s-9 12.666 -9 27.999z" />
    <glyph glyph-name="uni041B" unicode="&#x41b;" horiz-adv-x="1431" 
d="M17 145.5c2 8.33301 10.668 15.8369 26.001 22.5039c57.333 24.667 102 56 134 94s57 89.167 75 153.5s31.333 144.666 40 240.999s18.667 215.5 30 357.5l20 282c2.66699 49.333 14.667 84.666 36 105.999s53 32 95 32h672c87.333 0 131 -46 131 -138v-1261
c0 -15.333 -2.66699 -25 -8 -29s-15.666 -6 -30.999 -6h-174c-13.333 0 -23.166 2 -29.499 6s-9.5 13.667 -9.5 29v1179h-451l-12 -178c-10.667 -152.667 -21.834 -289.167 -33.501 -409.5s-31.834 -224.833 -60.501 -313.5s-70.334 -161.667 -125.001 -219
s-129.667 -100.333 -225 -129c-13.333 -2.66699 -24.5 -2.33398 -33.5 0.999023s-16.5 12.666 -22.5 27.999l-43 121c-2.66699 12 -3 22.167 -1 30.5z" />
    <glyph glyph-name="uni041C" unicode="&#x41c;" horiz-adv-x="1716" 
d="M154 43l-0.00195312 1268c0 42 8.16699 73.333 24.5 94s47.5 31 93.5 31h84c35.333 0 62 -6.16699 80 -18.5s34.333 -37.166 49 -74.499l244 -600l127 -317h8l127 319l242 598c15.333 36.667 32.5 61.334 51.5 74.001s46.167 19 81.5 19h78
c44 0 74.833 -9.66699 92.5 -29s26.5 -50 26.5 -92v-1272c0 -19.333 -3.5 -31.333 -10.5 -36s-19.167 -7 -36.5 -7h-146c-15.333 -0 -26.666 2.33301 -33.999 7s-11 16.667 -11 36v946h-12l-109 -278l-182 -453c-15.333 -35.333 -30.166 -59.166 -44.499 -71.499
s-38.5 -18.5 -72.5 -18.5h-92c-34 0 -58.167 6.16699 -72.5 18.5s-28.5 36.166 -42.5 71.499l-180 432l-110 275h-13v-922c0 -19.333 -3.33301 -31.333 -10 -36s-19 -7 -37 -7h-147c-15.333 -0 -27 2.33301 -35 7s-12 16.667 -12 36z" />
    <glyph glyph-name="uni041D" unicode="&#x41d;" horiz-adv-x="1445" 
d="M154 43v1348c0 18 4 29.667 12 35s19.667 8 35 8h155c19.333 0 32.5 -2.5 39.5 -7.5s10.5 -16.833 10.5 -35.5v-531h636v531c0 18 3.83301 29.667 11.5 35s19.834 8 36.501 8h155c19.333 0 32 -2.5 38 -7.5s9 -16.833 9 -35.5v-1348c0 -19.333 -3 -31.333 -9 -36
s-18.667 -7 -38 -7h-155c-16.667 0 -28.834 2.66699 -36.501 8s-11.5 17 -11.5 35v602h-636v-602c0 -19.333 -3.5 -31.333 -10.5 -36s-20.167 -7 -39.5 -7h-155c-15.333 0 -27 2.66699 -35 8s-12 17 -12 35z" />
    <glyph glyph-name="uni041E" unicode="&#x41e;" horiz-adv-x="1472" 
d="M113 715c0 117.333 15.333 221.668 46 313.001s73.667 168.833 129 232.5s120.833 112.167 196.5 145.5s159.167 50 250.5 50c102.667 0 193.167 -16.667 271.5 -50s143.5 -81.833 195.5 -145.5s91.333 -140.834 118 -231.501s40 -192.667 40 -306
c0 -237.333 -52.167 -421 -156.5 -551s-262.5 -195 -474.5 -195c-206 0 -360.167 62.5 -462.5 187.5s-153.5 308.5 -153.5 550.5zM369 725.002c0 -79.333 5.66797 -151.001 17.001 -215.001s31.333 -119 60 -165s66.667 -81.167 114 -105.5s105.666 -36.5 174.999 -36.5
s127.666 14.333 174.999 43s85.333 66.5 114 113.5s48.834 101.333 60.501 163s17.5 125.834 17.5 192.501c0 68 -5.16699 133.167 -15.5 195.5s-28.833 117.333 -55.5 165s-63.5 85.5 -110.5 113.5s-107.5 42 -181.5 42c-62.667 0 -117.167 -13.333 -163.5 -40
s-84.833 -63.167 -115.5 -109.5s-53.5 -100 -68.5 -161s-22.5 -126.167 -22.5 -195.5z" />
    <glyph glyph-name="uni041F" unicode="&#x41f;" horiz-adv-x="1443" 
d="M154 35l-0.00195312 1261c0 48 11.5 83.333 34.5 106s55.167 34 96.5 34h874c87.333 0 131 -46.667 131 -140v-1261c0 -15.333 -3 -25 -9 -29s-16.667 -6 -32 -6h-170c-13.333 0 -23.166 2 -29.499 6s-9.5 13.667 -9.5 29v1179h-634v-1179
c0 -15.333 -3.16699 -25 -9.5 -29s-16.833 -6 -31.5 -6h-172c-13.333 0 -23.166 2 -29.499 6s-9.5 13.667 -9.5 29z" />
    <glyph glyph-name="uni0420" unicode="&#x420;" horiz-adv-x="1280" 
d="M154 43l0.00195312 1278c0 38 8.16699 67 24.5 87s46.166 30 89.499 30h488c68 0 130.333 -10.667 187 -32s105.167 -51.5 145.5 -90.5s71.833 -85.333 94.5 -139s34 -112.834 34 -177.501c0 -36.667 -5.83301 -80.5 -17.5 -131.5s-35 -100.5 -70 -148.5
s-83.833 -88.667 -146.5 -122s-145.334 -50 -248.001 -50h-334v-504c0 -19.333 -3 -31.333 -9 -36s-18.667 -7 -38 -7h-153c-15.333 0 -27 2.66699 -35 8s-12 17 -12 35zM403.002 758.001l307.999 0.00292969c86 0 148.667 21.167 188 63.5s59 96.166 59 161.499
c0 23.333 -3.66699 48.666 -11 75.999s-20.166 52.166 -38.499 74.499s-44 41 -77 56s-74.5 22.5 -124.5 22.5h-304v-454z" />
    <glyph glyph-name="uni0421" unicode="&#x421;" horiz-adv-x="1269" 
d="M113 700c0 113.333 15.6699 216.5 47.0029 309.5s75 172.333 131 238s123.5 116.5 202.5 152.5s167.167 54 264.5 54c61.333 0 124.333 -5.5 189 -16.5s130.667 -34.167 198 -69.5c10.667 -5.33301 17.667 -11.833 21 -19.5s1 -20.834 -7 -39.501l-57 -119
c-5.33301 -13.333 -10.833 -22.166 -16.5 -26.499s-15.834 -3.16602 -30.501 3.50098c-45.333 18 -91.5 32.167 -138.5 42.5s-96.5 15.5 -148.5 15.5c-68 0 -127 -14.333 -177 -43s-91 -67.334 -123 -116.001s-55.833 -104.667 -71.5 -168s-23.5 -129.333 -23.5 -198
c0 -68 6.5 -131.667 19.5 -191s34.833 -111.166 65.5 -155.499s72.167 -79.5 124.5 -105.5s117.5 -39 195.5 -39c61.333 0 118 7.16699 170 21.5s100.667 30.5 146 48.5c19.333 8 32.666 9.16699 39.999 3.5s13 -13.834 17 -24.501l53 -117
c9.33301 -19.333 12.666 -32.666 9.99902 -39.999s-9.33398 -14.333 -20.001 -21c-69.333 -40.667 -143.666 -68 -222.999 -82s-156 -21 -230 -21c-207.333 0 -363.833 60.167 -469.5 180.5s-158.5 301.166 -158.5 542.499z" />
    <glyph glyph-name="uni0422" unicode="&#x422;" horiz-adv-x="1150" 
d="M29 1253l0.000976562 142.002c0 15.333 2 25.666 6 30.999s13.333 8 28 8h1024c15.333 0 25.333 -2.83301 30 -8.5s7 -15.834 7 -30.501v-142c0 -13.333 -2.33301 -22.666 -7 -27.999s-14.667 -8 -30 -8h-389v-1174c0 -19.333 -3 -31.333 -9 -36s-18.667 -7 -38 -7h-159
c-16.667 0 -28.834 2.66699 -36.501 8s-11.5 17 -11.5 35v1174h-381c-15.333 0 -24.833 2.66699 -28.5 8s-5.5 14.666 -5.5 27.999z" />
    <glyph glyph-name="uni0423" unicode="&#x423;" horiz-adv-x="1204" 
d="M33 1405c-8 22 0 33.001 24 33.001h193c19.333 0 32 -2.83301 38 -8.5s11 -14.5 15 -26.5l184 -481l127 -347h15l127 367l166 463c5.33301 13.333 11 22.166 17 26.499s16.667 6.5 32 6.5h188c10.667 0 17.834 -3.16699 21.501 -9.5s4.16699 -13.5 1.5 -21.5l-439 -1184
c-19.333 -52 -40.5 -95 -63.5 -129s-49.833 -60.833 -80.5 -80.5s-65.167 -33.667 -103.5 -42s-81.166 -12.5 -128.499 -12.5c-20.667 0 -46.667 1.66699 -78 5s-63.333 10 -96 20c-15.333 5.33301 -25 10.333 -29 15s-4.66699 12.667 -2 24l26 137
c2.66699 13.333 7.16699 20.666 13.5 21.999s16.166 1.33301 29.499 0l67 -7c20 -2 39.333 -2.33301 58 -1c42 1.33301 75.5 8.83301 100.5 22.5s46.167 43.834 63.5 90.501l43 114h-43c-27.333 0 -48.833 4.5 -64.5 13.5s-30.834 32.5 -45.501 70.5z" />
    <glyph glyph-name="uni0424" unicode="&#x424;" horiz-adv-x="1740" 
d="M113 733c0 86 15.002 164.836 45.002 236.503s72.333 134.167 127 187.5s120.5 96.666 197.5 129.999s161.833 55.666 254.5 66.999v45c0 15.333 3.16699 25 9.5 29s16.833 6 31.5 6h172c15.333 0 25.666 -2.16699 30.999 -6.5s8 -13.833 8 -28.5v-45
c206 -19.333 364 -82.5 474 -189.5s165 -250.167 165 -429.5c0 -88.667 -15.333 -168.834 -46 -240.501s-74.334 -134.167 -131.001 -187.5s-124.334 -96.333 -203.001 -129s-165 -53.667 -259 -63v-80c0 -15.333 -2.66699 -25 -8 -29s-15.666 -6 -30.999 -6h-172
c-15.333 0 -26 2 -32 6s-9 13.667 -9 29v82c-202 19.333 -356.5 82.5 -463.5 189.5s-160.5 249.167 -160.5 426.5zM354.002 735.003c0 -54.667 7.49805 -105.499 22.498 -152.499s38.333 -89 70 -126s71.334 -67.333 119.001 -91s104.834 -39.834 171.501 -48.501v836
c-61.333 -8 -115.833 -24.667 -163.5 -50s-88 -56.833 -121 -94.5s-57.667 -80 -74 -127s-24.5 -95.833 -24.5 -146.5zM989 317.004c69.333 6.66699 128.998 22.3311 178.998 46.998s91 55.834 123 93.501s55.833 80.334 71.5 128.001s23.5 98.167 23.5 151.5
c0 52 -7.5 101.833 -22.5 149.5s-38.167 90 -69.5 127s-72.166 68.167 -122.499 93.5s-111.166 41.333 -182.499 48v-838z" />
    <glyph glyph-name="uni0425" unicode="&#x425;" horiz-adv-x="1206" 
d="M20.5 11.5c-3 7.66699 -2.16797 14.834 2.49902 21.501l438 706l-408 666c-4 6.66699 -4.66699 13.5 -2 20.5s10.334 10.5 23.001 10.5h192c22 0 37.5 -2.5 46.5 -7.5s17.5 -14.833 25.5 -29.5l268 -459l266 459c8 15.333 16.5 25.333 25.5 30s24.5 7 46.5 7h184
c12 0 19.5 -3.83301 22.5 -11.5s1.83301 -15.5 -3.5 -23.5l-402 -658l439 -710c4 -6.66699 4.33301 -13.834 1 -21.501s-10.666 -11.5 -21.999 -11.5h-200c-20.667 -0 -35.834 2.33301 -45.501 7s-18.5 14.667 -26.5 30l-291 502l-291 -502
c-8 -15.333 -16.833 -25.333 -26.5 -30s-24.5 -7 -44.5 -7h-197c-10.667 -0 -17.5 3.83301 -20.5 11.5z" />
    <glyph glyph-name="uni0426" unicode="&#x426;" horiz-adv-x="1497" 
d="M154 139l0.00195312 1262c0 15.333 3 25 9 29s16 6 30 6h172c15.333 0 26 -2.16699 32 -6.5s9 -13.833 9 -28.5v-1182h634v1182c0 15.333 3.16699 25 9.5 29s16.166 6 29.499 6h170c15.333 0 26 -2.16699 32 -6.5s9 -13.833 9 -28.5v-1176l80 -8
c19.333 -2.66699 34.166 -6.66699 44.499 -12s17.833 -12.166 22.5 -20.499s7 -17 7 -26v-27.5l-25 -434c-1.33301 -15.333 -4.66602 -25.333 -9.99902 -30s-13 -7 -23 -7h-135c-20.667 0 -31.334 12.333 -32.001 37l-15 303h-919c-40.667 -0 -72.667 11.333 -96 34
s-35 57.667 -35 105z" />
    <glyph glyph-name="uni0427" unicode="&#x427;" horiz-adv-x="1323" 
d="M78 1008l0.000976562 393c0 15.333 2.66699 25 8 29s15.666 6 30.999 6h170c15.333 0 25.666 -2.16699 30.999 -6.5s8 -13.833 8 -28.5v-369c0 -105.333 29.333 -181.166 88 -227.499s150.667 -69.5 276 -69.5c39.333 0 79.5 2.5 120.5 7.5s78.167 10.833 111.5 17.5v641
c0 15.333 2.66699 25 8 29s15.666 6 30.999 6h169c15.333 0 25.666 -2.16699 30.999 -6.5s8 -13.833 8 -28.5v-1366c0 -15.333 -2.66699 -25 -8 -29s-15.666 -6 -30.999 -6h-169c-15.333 0 -25.666 2 -30.999 6s-8 13.667 -8 29v506
c-38 -6.66699 -79.667 -11.834 -125 -15.501s-89.666 -5.5 -132.999 -5.5c-200.667 0 -348.5 41 -443.5 123s-142.5 203.667 -142.5 365z" />
    <glyph glyph-name="uni0428" unicode="&#x428;" horiz-adv-x="2025" 
d="M154 139l0.00292969 1262c0 15.333 3 25 9 29s16 6 30 6h178c15.333 0 25.666 -2.16699 30.999 -6.5s8 -13.833 8 -28.5v-1182h485v1182c0 15.333 3 25 9 29s16.667 6 32 6h168c15.333 0 26 -2.16699 32 -6.5s9 -13.833 9 -28.5v-1182h475v1182c0 15.333 2.66699 25 8 29
s15.666 6 30.999 6h174c15.333 0 25.666 -2.16699 30.999 -6.5s8 -13.833 8 -28.5v-1262c0 -48 -11.333 -83.167 -34 -105.5s-53 -33.5 -91 -33.5h-1471c-39.333 -0 -69.5 11.333 -90.5 34s-31.5 57.667 -31.5 105z" />
    <glyph glyph-name="uni0429" unicode="&#x429;" horiz-adv-x="2078" 
d="M154 139l0.000976562 1262c0 15.333 3 25 9 29s16 6 30 6h178c15.333 0 25.666 -2.16699 30.999 -6.5s8 -13.833 8 -28.5v-1182h485v1182c0 15.333 3 25 9 29s16.667 6 32 6h168c15.333 0 26 -2.16699 32 -6.5s9 -13.833 9 -28.5v-1182h475v1182c0 15.333 3 25 9 29
s16 6 30 6h172c15.333 0 26 -2.16699 32 -6.5s9 -13.833 9 -28.5v-1176l76 -6c19.333 -1.33301 34 -4.66602 44 -9.99902s17.667 -12.166 23 -20.499s8.33301 -17.333 9 -27s1 -19.167 1 -28.5l-24 -434c-1.33301 -15.333 -4.83301 -25.333 -10.5 -30s-13.167 -7 -22.5 -7
h-135c-20.667 0 -31.667 12.333 -33 37l-14 301h-1510c-39.333 -0 -69.5 11.333 -90.5 34s-31.5 57.667 -31.5 105z" />
    <glyph glyph-name="uni042A" unicode="&#x42a;" horiz-adv-x="1691" 
d="M14 1253v142.004c0 15.333 2.16699 25.666 6.5 30.999s13.833 8 28.5 8h600c87.333 0 131 -46 131 -138v-395h334c78 0 144.333 -7.83301 199 -23.5s100.667 -36.5 138 -62.5s67 -55 89 -87s38.833 -65 50.5 -99s19.167 -66.833 22.5 -98.5s5 -59.834 5 -84.501
c0 -64 -12.667 -123.333 -38 -178s-59.833 -101.667 -103.5 -141s-94.5 -70.333 -152.5 -93s-120.333 -34 -187 -34h-494c-44 0 -74.167 9.16699 -90.5 27.5s-24.5 48.166 -24.5 89.499v1100h-479c-15.333 0 -25 2.66699 -29 8s-6 14.666 -6 27.999zM780 225.004
l330 0.00292969c49.333 0 90 7.83301 122 23.5s57.5 35.167 76.5 58.5s32.333 48.666 40 75.999s11.5 52.666 11.5 75.999c0 65.333 -20.833 120.166 -62.5 164.499s-102.167 66.5 -181.5 66.5h-336v-465z" />
    <glyph glyph-name="uni042B" unicode="&#x42b;" horiz-adv-x="1787" 
d="M154 117v1284c0 15.333 3 25 9 29s16 6 30 6h174c15.333 0 25.666 -2.16699 30.999 -6.5s8 -13.833 8 -28.5v-500h335c78 0 144.333 -7.83301 199 -23.5s100.834 -36.5 138.501 -62.5s67.667 -55 90 -87s39.333 -65 51 -99s19.167 -66.833 22.5 -98.5
s5 -59.834 5 -84.501c0 -64 -12.667 -123.333 -38 -178s-59.833 -101.667 -103.5 -141s-94.5 -70.333 -152.5 -93s-120.333 -34 -187 -34h-498c-44 0 -74 9.16699 -90 27.5s-24 48.166 -24 89.499zM406 225.002l333.002 0.00292969c49.333 0 90 7.83301 122 23.5
s57.667 35.167 77 58.5s32.666 48.666 39.999 75.999s11 52.666 11 75.999c0 65.333 -20.833 120.166 -62.5 164.499s-102.834 66.5 -183.501 66.5h-337v-465zM1382 35.0049v1364c0 15.333 3.16699 25 9.5 29s16.166 6 29.499 6h174c15.333 0 25.666 -2.16699 30.999 -6.5
s8 -13.833 8 -28.5v-1364c0 -15.333 -2.66699 -25 -8 -29s-15.666 -6 -30.999 -6h-174c-13.333 0 -23.166 2 -29.499 6s-9.5 13.667 -9.5 29z" />
    <glyph glyph-name="uni042C" unicode="&#x42c;" horiz-adv-x="1320" 
d="M154 117v1284c0 15.333 3 25 9 29s16 6 30 6h174c15.333 0 25.666 -2.16699 30.999 -6.5s8 -13.833 8 -28.5v-500h335c78 0 144.333 -7.83301 199 -23.5s100.834 -36.5 138.501 -62.5s67.667 -55 90 -87s39.333 -65 51 -99s19.167 -66.833 22.5 -98.5
s5 -59.834 5 -84.501c0 -64 -12.667 -123.333 -38 -178s-59.833 -101.667 -103.5 -141s-94.5 -70.333 -152.5 -93s-120.333 -34 -187 -34h-498c-44 0 -74 9.16699 -90 27.5s-24 48.166 -24 89.499zM406 225.002l333.002 0.00292969c49.333 0 90 7.83301 122 23.5
s57.667 35.167 77 58.5s32.666 48.666 39.999 75.999s11 52.666 11 75.999c0 65.333 -20.833 120.166 -62.5 164.499s-102.834 66.5 -183.501 66.5h-337v-465z" />
    <glyph glyph-name="uni042D" unicode="&#x42d;" horiz-adv-x="1277" 
d="M61.5 101.5c-3 7.66699 0.499023 20.832 10.499 39.499l53 117c4 10.667 9.83301 18.834 17.5 24.501s20.834 4.5 39.501 -3.5c45.333 -18 94.333 -34.167 147 -48.5s109.667 -21.5 171 -21.5c72.667 0 133.5 10.5 182.5 31.5s88.833 50.667 119.5 89
s53.834 84.5 69.501 138.5s25.5 113 29.5 177h-545c-15.333 0 -24.833 2.83301 -28.5 8.5s-5.5 15.167 -5.5 28.5v133c0 15.333 2 25.666 6 30.999s13.333 8 28 8h543c-5.33301 54.667 -16.833 104.834 -34.5 150.501s-41.5 84.834 -71.5 117.501s-67 58 -111 76
s-95.333 27 -154 27c-53.333 0 -105.5 -5.16699 -156.5 -15.5s-99.167 -24.5 -144.5 -42.5c-15.333 -6.66699 -26 -8 -32 -4s-11.667 13 -17 27l-49 119c-8 19.333 -10.667 32.666 -8 39.999s9.33398 13.666 20.001 18.999c66.667 34 135.667 56.833 207 68.5
s137.666 17.5 198.999 17.5c195.333 0 347.166 -59 455.499 -177s162.5 -293 162.5 -525c0 -250 -53.167 -441.667 -159.5 -575s-262.5 -200 -468.5 -200c-74 0 -151 6.83301 -231 20.5s-154.667 41.167 -224 82.5c-10.667 6.66699 -17.5 13.834 -20.5 21.501z" />
    <glyph glyph-name="uni042E" unicode="&#x42e;" horiz-adv-x="1937" 
d="M154 35l-0.00195312 1364c0 15.333 3 25 9 29s16 6 30 6h169c15.333 0 25.666 -2.16699 30.999 -6.5s8 -13.833 8 -28.5v-541h236c10.667 91.333 32.167 174 64.5 248s74 136.833 125 188.5s111 91.5 180 119.5s145.167 42 228.5 42c95.333 0 179.833 -17.667 253.5 -53
s135.5 -85.166 185.5 -149.499s87.667 -142.166 113 -233.499s38 -192.333 38 -303c0 -113.333 -13 -215.833 -39 -307.5s-64.667 -169.5 -116 -233.5s-114.166 -113.167 -188.499 -147.5s-160.5 -51.5 -258.5 -51.5c-105.333 0 -194.5 17.833 -267.5 53.5
s-132.667 84.167 -179 145.5s-80.833 132.333 -103.5 213s-36.667 166 -42 256h-230v-610c0 -15.333 -2.66699 -25 -8 -29s-15.666 -6 -30.999 -6h-169c-13.333 0 -23.166 2 -29.499 6s-9.5 13.667 -9.5 29zM882.998 718.998c0 -75.333 6.49902 -144.67 19.499 -208.003
s33.5 -117.833 61.5 -163.5s63.5 -81.5 106.5 -107.5s95.167 -39 156.5 -39s113.5 13.333 156.5 40s78.5 62.834 106.5 108.501s48.167 99.834 60.5 162.501s18.5 131 18.5 205s-5.83301 142.333 -17.5 205s-30.5 116.834 -56.5 162.501s-60.167 81.5 -102.5 107.5
s-94.833 39 -157.5 39c-60 0 -111.833 -13 -155.5 -39s-80.167 -61.5 -109.5 -106.5s-51.166 -99 -65.499 -162s-21.5 -131.167 -21.5 -204.5z" />
    <glyph glyph-name="uni042F" unicode="&#x42f;" horiz-adv-x="1339" 
d="M68.5 13.5c-1.66699 9 -1.16602 18.833 1.50098 29.5l108 406c13.333 50.667 33.5 93.667 60.5 129s69.167 62.333 126.5 81v3c-78 31.333 -135.833 78 -173.5 140s-56.5 134 -56.5 216c0 61.333 10.667 117.666 32 168.999s51.666 95.333 90.999 132
s86.666 65.334 141.999 86.001s118 31 188 31h481c44 0 74.167 -9.66699 90.5 -29s24.5 -48.666 24.5 -87.999v-1286c0 -15.333 -3.16699 -24.666 -9.5 -27.999s-16.166 -5 -29.499 -5h-174c-15.333 0 -26 1.66699 -32 5s-9 12.666 -9 27.999v563h-240
c-65.333 0 -119.5 -13 -162.5 -39s-74.167 -75 -93.5 -147l-100 -377c-4 -16.667 -11.5 -26.334 -22.5 -29.001s-21.833 -4 -32.5 -4h-181c-18 0 -27.833 4.5 -29.5 13.5zM389.001 1008c0 -57.333 18.498 -105.497 55.498 -144.497s97.167 -58.5 180.5 -58.5h303v405h-316
c-46.667 0 -84.167 -6.83301 -112.5 -20.5s-50.666 -30.334 -66.999 -50.001s-27.666 -41.334 -33.999 -65.001s-9.5 -45.834 -9.5 -66.501z" />
    <glyph glyph-name="uni0430" unicode="&#x430;" horiz-adv-x="1140" 
d="M92 319c0 48 7.83301 94.1641 23.5 138.497s41.334 83.333 77.001 117s81.834 60.667 138.501 81s126 30.5 208 30.5h229v35c0 26 -2.66699 49.833 -8 71.5s-15.833 40.667 -31.5 57s-37.167 29 -64.5 38s-63 13.5 -107 13.5c-46.667 0 -97.167 -4 -151.5 -12
s-98.833 -17.667 -133.5 -29c-15.333 -4 -26.333 -4.66699 -33 -2s-11.334 10.334 -14.001 23.001l-28 116c-5.33301 22 0.666992 36.333 18 43c57.333 22 120.166 37.5 188.499 46.5s132.5 13.5 192.5 13.5c142 0 246.167 -31.5 312.5 -94.5s99.5 -154.5 99.5 -274.5v-614
c0 -32.667 -13 -55.334 -39 -68.001c-30 -13.333 -62.5 -24.833 -97.5 -34.5s-70.833 -17.167 -107.5 -22.5s-73.167 -9.16602 -109.5 -11.499s-70.833 -3.5 -103.5 -3.5c-90 0 -164.667 9.33301 -224 28s-106.5 43.334 -141.5 74.001s-59.333 66.834 -73 108.501
s-20.5 85.5 -20.5 131.5zM336 327.997c0 -58.667 19.832 -99.6689 59.499 -123.002s92.167 -35 157.5 -35c9.33301 0 22.5 0.333008 39.5 1s35.167 2.33398 54.5 5.00098s39.5 6.16699 60.5 10.5s40.5 9.83301 58.5 16.5v301h-197c-23.333 0 -48.166 -1.33301 -74.499 -4
s-51.5 -10.167 -75.5 -22.5s-43.833 -30.166 -59.5 -53.499s-23.5 -55.333 -23.5 -96z" />
    <glyph glyph-name="uni0431" unicode="&#x431;" horiz-adv-x="1177" 
d="M88 518c0 126.667 5.49805 239.668 16.498 339.001s32.167 186.166 63.5 260.499s75.666 136.333 132.999 186s133 88.167 227 115.5c26 8 54.833 15.833 86.5 23.5s63.834 14.667 96.501 21l98 18.5c32.667 6 64 12.333 94 19c13.333 2.66699 23.5 3.33398 30.5 2.00098
s11.833 -9.33301 14.5 -24l33 -123c6.66699 -19.333 6.33398 -31.333 -0.999023 -36s-14.666 -8.33398 -21.999 -11.001l-245 -56c-68 -15.333 -123.333 -31.333 -166 -48s-76.5 -38 -101.5 -64s-43.667 -56.833 -56 -92.5s-22.166 -79.167 -29.499 -130.5
c1.33301 0 3.66602 -1.66699 6.99902 -5c49.333 32.667 101.166 55.5 155.499 68.5s104.166 19.5 149.499 19.5c79.333 0 145.5 -13.167 198.5 -39.5s96 -62.5 129 -108.5s56.667 -99.333 71 -160s21.5 -125 21.5 -193c0 -60 -8.66699 -121.167 -26 -183.5
s-45.666 -118.333 -84.999 -168s-92.5 -90.667 -159.5 -123s-149.833 -48.5 -248.5 -48.5c-105.333 0 -189.666 15.833 -252.999 47.5s-112.333 73 -147 124s-57.5 109 -68.5 174s-16.5 130.167 -16.5 195.5zM329.998 485.001c0 -45.333 4 -86.6709 12 -124.004
s21.667 -70 41 -98s45 -49.5 77 -64.5s72 -22.5 120 -22.5c52 0 95 9.5 129 28.5s61.167 44 81.5 75s34.666 65.167 42.999 102.5s12.5 74 12.5 110c0 40.667 -3.5 79.834 -10.5 117.501s-19.333 70.834 -37 99.501s-41.167 51.834 -70.5 69.501s-66.666 26.5 -111.999 26.5
c-42 0 -87.5 -7.16699 -136.5 -21.5s-94.167 -35.833 -135.5 -64.5c-6.66699 -53.333 -10.667 -96.666 -12 -129.999s-2 -68 -2 -104z" />
    <glyph glyph-name="uni0432" unicode="&#x432;" horiz-adv-x="1171" 
d="M133 94l-0.000976562 883c0 31.333 7.83301 55.5 23.5 72.5s41.167 25.5 76.5 25.5h463c44 0 86.5 -5.16699 127.5 -15.5s77.167 -26.333 108.5 -48s56.166 -49.5 74.499 -83.5s27.5 -75 27.5 -123c0 -45.333 -11.167 -87 -33.5 -125s-52.166 -66.667 -89.499 -86v-12
c60 -23.333 103 -59 129 -107s39 -98.333 39 -151c0 -49.333 -9.5 -93.833 -28.5 -133.5s-44.833 -73.5 -77.5 -101.5s-71.667 -49.833 -117 -65.5s-93.666 -23.5 -144.999 -23.5h-475c-36.667 0 -63 8.5 -79 25.5s-24 39.833 -24 68.5zM368.999 190h297
c34 0 61.833 4.83301 83.5 14.5s38.667 22 51 37s21 31.333 26 49s7.5 34.167 7.5 49.5c0 44 -13.667 79.5 -41 106.5s-69 40.5 -125 40.5h-299v-297zM368.999 659l300.999 -0.000976562c12 0 24.833 1.83301 38.5 5.5s26.334 9.83398 38.001 18.501s21.167 20.5 28.5 35.5
s11 33.5 11 55.5c0 30 -9.5 54.667 -28.5 74s-45.5 29 -79.5 29h-309v-218z" />
    <glyph glyph-name="uni0433" unicode="&#x433;" horiz-adv-x="968" 
d="M133 41l0.000976562 701.998c0 44 4.5 85.833 13.5 125.5s25.667 74.834 50 105.501s58 55.167 101 73.5s98.833 27.5 167.5 27.5h444c18 0 29 -3.66699 33 -11s6 -18.666 6 -33.999v-110c0 -15.333 -2.33301 -26.333 -7 -33s-15.334 -10 -32.001 -10h-407
c-48 0 -81.833 -10 -101.5 -30s-29.5 -51.667 -29.5 -95v-711c0 -18 -2.83301 -29.333 -8.5 -34s-17.834 -7 -36.501 -7h-148c-15.333 0 -26.666 2.66699 -33.999 8s-11 16.333 -11 33z" />
    <glyph glyph-name="uni0434" unicode="&#x434;" horiz-adv-x="1286" 
d="M14 104c0 20.667 3.83203 38.4951 11.499 53.4951s25.834 23.833 54.501 26.5l59 6c18 18 32.833 36.833 44.5 56.5s21.5 41.834 29.5 66.501s15.167 51.667 21.5 81s12.166 63.333 17.499 102l70 469c5.33301 38 18.5 65.833 39.5 83.5s54.833 26.5 101.5 26.5h514
c50.667 0 82.834 -10.167 96.501 -30.5s20.5 -48.166 20.5 -83.499v-773l63 -6c27.333 -2.66699 44.833 -11.167 52.5 -25.5s11.5 -31.166 11.5 -50.499l-27 -397c0 -19.333 -9 -28.666 -27 -27.999h-149c-16.667 0 -25.667 9.33301 -27 28l-10 291h-725
c-2.66699 -48 -5.66699 -96.5 -9 -145.5s-6.33301 -97.5 -9 -145.5c-1.33301 -19.333 -11 -28.666 -29 -27.999h-146c-16.667 0 -24.667 8.66699 -24 26zM390.999 187.995h463.001v684h-326l-39 -309c-8 -61.333 -15.667 -112.5 -23 -153.5s-14.833 -75.5 -22.5 -103.5
s-15.834 -50.833 -24.501 -68.5s-18 -34.167 -28 -49.5z" />
    <glyph glyph-name="uni0435" unicode="&#x435;" horiz-adv-x="1130" 
d="M92 532c0 90 12.333 170.334 37 241.001s58.5 130.167 101.5 178.5s94.667 85.166 155 110.499s125.833 38 196.5 38c157.333 0 273.666 -40.333 348.999 -121s113 -191.334 113 -332.001c0 -35.333 -4 -64.666 -12 -87.999s-19.5 -41.833 -34.5 -55.5
s-32.5 -23.167 -52.5 -28.5s-41.333 -8 -64 -8h-545c1.33301 -53.333 9.5 -98 24.5 -134s35.5 -65.333 61.5 -88s56 -38.834 90 -48.501s71 -14.5 111 -14.5c44 0 87 5.5 129 16.5s78.667 24.167 110 39.5c22 9.33301 37 5 45 -13l56 -116c9.33301 -22 4.33301 -38 -15 -48
c-52 -31.333 -108.667 -53.166 -170 -65.499s-120 -18.5 -176 -18.5c-165.333 0 -291.666 44.5 -378.999 133.5s-131 229.5 -131 421.5zM344 639.001h470.998c0 36.667 -3.33301 70.667 -10 102s-18.667 59 -36 83s-40.5 42.833 -69.5 56.5s-66.833 20.5 -113.5 20.5
c-36.667 0 -69.5 -7.16699 -98.5 -21.5s-53.667 -33.833 -74 -58.5s-36.666 -52.667 -48.999 -84s-19.166 -64 -20.499 -98z" />
    <glyph glyph-name="uni0436" unicode="&#x436;" horiz-adv-x="1607" 
d="M51 13.5c-1.33301 9 -1.33105 16.834 0.00195312 23.501l105 354c6.66699 22 13.667 42.5 21 61.5s17.166 36.667 29.499 53s27.833 30.666 46.5 42.999s42.334 22.833 71.001 31.5l-2 4c-38 16.667 -67.667 41.667 -89 75s-37.666 71 -48.999 113l-75 268
c-1.33301 6.66699 -1 14.167 1 22.5s9.66699 12.5 23 12.5h168c6.66699 0 13.167 -1.33301 19.5 -4s11.5 -10 15.5 -22l74 -240c19.333 -60 45.333 -98.833 78 -116.5s68.667 -26.5 108 -26.5h90v376c0 15.333 2.66699 24.666 8 27.999s15 5 29 5h164
c12 0 21.167 -1.66699 27.5 -5s9.5 -12.666 9.5 -27.999v-376h88c38 0 73.667 8.83301 107 26.5s59.666 56.5 78.999 116.5l74 240c4 12 9 19.333 15 22s12.667 4 20 4h168c13.333 0 21 -4 23 -12s2.33301 -15.667 1 -23l-76 -268c-10.667 -42 -26.667 -79.833 -48 -113.5
s-51 -58.5 -89 -74.5l-2 -4c28.667 -8 52.167 -18.333 70.5 -31s33.666 -27.167 45.999 -43.5s22.333 -34 30 -53s14.834 -39.5 21.501 -61.5l104 -354c1.33301 -6.66699 1.33301 -14.5 0 -23.5s-10 -13.5 -26 -13.5h-176c-5.33301 -0 -11.833 1.33301 -19.5 4
s-12.834 9.66699 -15.501 21l-98 327c-13.333 46.667 -37.5 80.167 -72.5 100.5s-73.833 30.5 -116.5 30.5h-108v-450c0 -15.333 -3.16699 -24.666 -9.5 -27.999s-15.5 -5 -27.5 -5h-164c-13.333 0 -22.833 1.66699 -28.5 5s-8.5 12.666 -8.5 27.999v450h-111
c-42 0 -80.333 -10.167 -115 -30.5s-59 -53.833 -73 -100.5l-98 -327c-2.66699 -10.667 -7.83398 -17.5 -15.501 -20.5s-14.167 -4.5 -19.5 -4.5h-176c-16.667 0 -25.667 4.5 -27 13.5z" />
    <glyph glyph-name="uni0437" unicode="&#x437;" horiz-adv-x="1007" 
d="M44.5 74.5c-2.33301 7.66699 -1.50098 16.8301 2.49902 27.4971l49 113c4 9.33301 9.16699 15.833 15.5 19.5s17.5 1.83398 33.5 -5.49902c38 -15.333 84.5 -28.666 139.5 -39.999s106.167 -17 153.5 -17c46.667 0 86 4.5 118 13.5s58.333 21.333 79 37
s35.334 33.334 44.001 53.001s13 40.5 13 62.5c0 44 -20.5 78.833 -61.5 104.5s-111.833 39.167 -212.5 40.5c-24.667 0 -43.5 4.16699 -56.5 12.5s-19.5 24.166 -19.5 47.499v47c0 38 25.333 58.333 76 61c78 4 136.667 15.667 176 35s59 50.666 59 93.999
c0.666992 78 -66.666 117 -201.999 117c-38 0 -81 -5.16699 -129 -15.5s-91 -22.166 -129 -35.499c-15.333 -6.66699 -26 -8.66699 -32 -6s-11.333 8.66699 -16 18l-41 107c-6.66699 15.333 -9.33398 26.333 -8.00098 33s8.33301 12.667 21 18
c50.667 26 107.667 46.167 171 60.5s131.333 21.5 204 21.5c120 0 216.833 -24 290.5 -72s110.5 -119 110.5 -213c0 -52 -14.333 -98.5 -43 -139.5s-66.334 -73.833 -113.001 -98.5v-8c57.333 -18 103.5 -48 138.5 -90s52.5 -93 52.5 -153c0 -52 -11 -99.167 -33 -141.5
s-53.167 -78.5 -93.5 -108.5s-88.5 -53.167 -144.5 -69.5s-118.667 -24.5 -188 -24.5c-34 0 -69.167 1.33301 -105.5 4s-72.166 7 -107.499 13s-69.5 13.5 -102.5 22.5s-62.167 20.167 -87.5 33.5c-12 6.66699 -19.167 13.834 -21.5 21.501z" />
    <glyph glyph-name="uni0438" unicode="&#x438;" horiz-adv-x="1222" 
d="M133 98l0.00195312 944c0 15.333 2.83301 24.666 8.5 27.999s15.167 5 28.5 5h162c15.333 0 25.666 -1.66699 30.999 -5s8 -12.666 8 -27.999v-704h8l127 205c8 12 16.833 26.167 26.5 42.5l45 73l82 130l137.5 219.5c18 26 33.667 43.667 47 53s36.333 14 69 14h74
c31.333 0 56.333 -7.5 75 -22.5s28 -40.167 28 -75.5v-944c0 -15.333 -2.83301 -24.666 -8.5 -27.999s-15.167 -5 -28.5 -5h-164c-13.333 0 -22.833 1.66699 -28.5 5s-8.5 12.666 -8.5 27.999v692h-12l-123 -197l-297 -460c-18 -27.333 -34.833 -45.5 -50.5 -54.5
s-37.834 -13.5 -66.501 -13.5h-70c-66.667 0 -100 32.667 -100 98z" />
    <glyph glyph-name="uni0439" unicode="&#x439;" horiz-adv-x="1222" 
d="M133 98l0.00195312 944c0 15.333 2.83301 24.666 8.5 27.999s15.167 5 28.5 5h162c15.333 0 25.666 -1.66699 30.999 -5s8 -12.666 8 -27.999v-704h8l127 205c8 12 16.833 26.167 26.5 42.5l45 73l82 130l137.5 219.5c18 26 33.667 43.667 47 53s36.333 14 69 14h74
c31.333 0 56.333 -7.5 75 -22.5s28 -40.167 28 -75.5v-944c0 -15.333 -2.83301 -24.666 -8.5 -27.999s-15.167 -5 -28.5 -5h-164c-13.333 0 -22.833 1.66699 -28.5 5s-8.5 12.666 -8.5 27.999v692h-12l-123 -197l-297 -460c-18 -27.333 -34.833 -45.5 -50.5 -54.5
s-37.834 -13.5 -66.501 -13.5h-70c-66.667 0 -100 32.667 -100 98zM241.002 1425.5c-2 7 2.33203 15.832 12.999 26.499l57 53c12 10.667 20.5 14.334 25.5 11.001s12.833 -9 23.5 -17c42 -44 84.667 -78.167 128 -102.5s84.666 -36.5 123.999 -36.5
c16.667 0 33.167 2 49.5 6s34 11.5 53 22.5s40.833 26 65.5 45s53.334 42.833 86.001 71.5c12 10.667 20.833 15.5 26.5 14.5s11.834 -4.5 18.501 -10.5l58 -49c13.333 -10.667 19 -19.5 17 -26.5s-5 -13.167 -9 -18.5c-62.667 -80.667 -125.5 -139.667 -188.5 -177
s-125.167 -56 -186.5 -56c-36.667 0 -72.167 6.16699 -106.5 18.5s-66.166 29 -95.499 50s-56.833 45.167 -82.5 72.5s-48.834 56 -69.501 86c-2.66699 4 -5 9.5 -7 16.5z" />
    <glyph glyph-name="uni043A" unicode="&#x43a;" horiz-adv-x="1099" 
d="M131 33l0.00195312 1009c0 15.333 3.16699 24.666 9.5 27.999s15.5 5 27.5 5h164c13.333 0 22.833 -1.66699 28.5 -5s8.5 -12.666 8.5 -27.999v-374h129c38 0 73.333 8.5 106 25.5s58.667 55.5 78 115.5l76 240c2.66699 12 7.33398 19.333 14.001 22s13.667 4 21 4h168
c13.333 0 21 -4 23 -12s2.33301 -15.667 1 -23l-76 -268c-10.667 -42 -27 -79.833 -49 -113.5s-52 -58.5 -90 -74.5l-2 -4c28.667 -8 52.167 -18.333 70.5 -31s33.666 -27.167 45.999 -43.5s22.666 -34 30.999 -53s15.833 -39.5 22.5 -61.5l104 -354
c1.33301 -6.66699 1.33301 -14.5 0 -23.5s-10 -13.5 -26 -13.5h-176c-5.33301 0 -11.833 1.33301 -19.5 4s-12.834 9.66699 -15.501 21l-98 327c-15.333 46.667 -40 79.834 -74 99.501s-72.333 29.5 -115 29.5h-149v-448c0 -15.333 -2.83301 -24.666 -8.5 -27.999
s-15.167 -5 -28.5 -5h-164c-12 0 -21.167 1.66699 -27.5 5s-9.5 12.666 -9.5 27.999z" />
    <glyph glyph-name="uni043B" unicode="&#x43b;" horiz-adv-x="1175" 
d="M17.5 132c3.66699 6 13.4971 13.3369 29.4971 22.0039c34 15.333 62.333 33.166 85 53.499s41.5 50.833 56.5 91.5s27.333 96.167 37 166.5s18.5 163.5 26.5 279.5l16 216c2.66699 42 14.334 71.5 35.001 88.5s49.334 25.5 86.001 25.5h539
c45.333 0 75.666 -9.5 90.999 -28.5s23 -48.5 23 -88.5v-921c0 -15.333 -3.33301 -25.333 -10 -30s-18.334 -7 -35.001 -7h-149c-15.333 0 -26.666 2.33301 -33.999 7s-11 14.667 -11 30v837h-322l-8 -129c-8 -130 -18.167 -239.833 -30.5 -329.5
s-30.833 -164.334 -55.5 -224.001s-58.167 -106.834 -100.5 -141.501s-98.166 -62.334 -167.499 -83.001c-18 -5.33301 -31 -7 -39 -5s-14.333 10 -19 24l-41 112c-5.33301 16.667 -6.16602 28 -2.49902 34z" />
    <glyph glyph-name="uni043C" unicode="&#x43c;" horiz-adv-x="1484" 
d="M133 35l0.00585938 941.999c0 27.333 8.16699 50.5 24.5 69.5s43.166 28.5 80.499 28.5h94c27.333 0 49.166 -4 65.499 -12s31.833 -27.667 46.5 -59l179 -373l114 -254h8l129 278l166 344c15.333 30 31.166 50.167 47.499 60.5s40.166 15.5 71.499 15.5h88
c36.667 0 63.334 -9.16699 80.001 -27.5s25 -41.166 25 -68.499v-944c0 -15.333 -3.16699 -25 -9.5 -29s-16.833 -6 -31.5 -6h-150c-15.333 0 -26 2 -32 6s-9 13.667 -9 29v663h-10l-98 -223l-133 -280c-12 -26 -25 -43.833 -39 -53.5s-35.333 -14.5 -64 -14.5h-69
c-28.667 0 -49.834 4.83301 -63.501 14.5s-26.834 27.5 -39.501 53.5l-127 266l-102 221h-10v-647c0 -15.333 -2.83301 -25 -8.5 -29s-15.834 -6 -30.501 -6h-152c-13.333 0 -23.5 2 -30.5 6s-10.5 13.667 -10.5 29z" />
    <glyph glyph-name="uni043D" unicode="&#x43d;" horiz-adv-x="1193" 
d="M133 41l-0.00488281 995.004c0 15.333 3.83301 25.666 11.5 30.999s18.834 8 33.501 8h150c16.667 0 28.334 -2.33301 35.001 -7s10 -15.334 10 -32.001v-364h450v364c0 15.333 3.83301 25.666 11.5 30.999s18.834 8 33.501 8h150c18 0 29.667 -2.33301 35 -7
s8 -15.334 8 -32.001v-995c0 -18 -2.83301 -29.333 -8.5 -34s-17.167 -7 -34.5 -7h-150c-15.333 0 -26.666 2.66699 -33.999 8s-11 16.333 -11 33v436h-450v-436c0 -18 -3.5 -29.333 -10.5 -34s-18.5 -7 -34.5 -7h-150c-15.333 0 -26.666 2.66699 -33.999 8
s-11 16.333 -11 33z" />
    <glyph glyph-name="uni043E" unicode="&#x43e;" horiz-adv-x="1177" 
d="M92 537c0 90 12.3301 169.832 36.9971 239.499s58.834 128.334 102.501 176.001s95.834 84.167 156.501 109.5s128 38 202 38c162.667 0 285.834 -49.5 369.501 -148.5s125.5 -235.167 125.5 -408.5c0 -181.333 -41.833 -321 -125.5 -419s-208.834 -147 -375.501 -147
c-165.333 0 -288.666 47.5 -369.999 142.5s-122 234.167 -122 417.5zM333.997 542.999c0 -113.333 18.332 -202.5 54.999 -267.5s102.334 -97.5 197.001 -97.5c48 0 88.333 10 121 30s58.834 46.333 78.501 79s34 70.5 43 113.5s13.5 88.5 13.5 136.5
c0 49.333 -3.83301 95.666 -11.5 138.999s-20.667 81.833 -39 115.5s-43.5 60 -75.5 79s-72.667 28.5 -122 28.5c-44 0 -82.333 -9.16699 -115 -27.5s-59.834 -43.166 -81.501 -74.499s-37.667 -69 -48 -113s-15.5 -91 -15.5 -141z" />
    <glyph glyph-name="uni043F" unicode="&#x43f;" horiz-adv-x="1212" 
d="M133 35v942c0 23.333 6.83301 45.5 20.5 66.5s40.167 31.5 79.5 31.5h744c39.333 0 66.166 -10.5 80.499 -31.5s21.5 -43.167 21.5 -66.5v-942c0 -15.333 -3 -25 -9 -29s-16.667 -6 -32 -6h-159c-13.333 0 -23.166 2 -29.499 6s-9.5 13.667 -9.5 29v839h-469v-839
c0 -15.333 -2.83301 -25 -8.5 -29s-15.834 -6 -30.501 -6h-160c-13.333 0 -23.166 2 -29.499 6s-9.5 13.667 -9.5 29z" />
    <glyph glyph-name="uni0440" unicode="&#x440;" horiz-adv-x="1187" 
d="M133 -381l-0.000976562 1352c0 12 2 21.5 6 28.5s13 13.833 27 20.5c68 30 140 50.5 216 61.5s148 16.5 216 16.5c88.667 0 164.5 -14.333 227.5 -43s114.5 -68.334 154.5 -119.001s69.333 -110.167 88 -178.5s28 -141.166 28 -218.499
c0 -76.667 -10 -148.834 -30 -216.501s-49.667 -127 -89 -178s-89.166 -91.167 -149.499 -120.5s-130.833 -44 -211.5 -44c-36.667 0 -74.5 2 -113.5 6s-82.167 11.333 -129.5 22v-389c0 -15.333 -2.83301 -25 -8.5 -29s-15.834 -6 -30.501 -6h-162
c-13.333 0 -23.166 2.16699 -29.499 6.5s-9.5 13.833 -9.5 28.5zM372.999 213.001c42 -10.667 78.9971 -18.166 110.997 -22.499s61.667 -6.5 89 -6.5c39.333 0 75.833 6.16699 109.5 18.5s62.834 32.5 87.501 60.5s43.834 64.667 57.501 110s20.5 101.333 20.5 168
c0 65.333 -6.5 120.166 -19.5 164.499s-31.833 80.5 -56.5 108.5s-54.667 48.167 -90 60.5s-75 18.5 -119 18.5c-27.333 0 -59.666 -2.66699 -96.999 -8s-68.333 -12.333 -93 -21v-651z" />
    <glyph glyph-name="uni0441" unicode="&#x441;" horiz-adv-x="1009" 
d="M92 530c0 86 11.666 164.166 34.999 234.499s56.5 130.5 99.5 180.5s94.833 88.333 155.5 115s129.334 40 206.001 40c56 0 110.167 -5.83301 162.5 -17.5s101.833 -29.834 148.5 -54.501c12 -6.66699 19.5 -13.5 22.5 -20.5s0.833008 -17.167 -6.5 -30.5l-51 -121
c-5.33301 -10.667 -11 -17.5 -17 -20.5s-17.333 -0.833008 -34 6.5c-32.667 12 -66.834 22.5 -102.501 31.5s-73.167 13.5 -112.5 13.5c-46.667 0 -86.667 -10 -120 -30s-60.5 -46.333 -81.5 -79s-36.333 -70.5 -46 -113.5s-14.5 -87.833 -14.5 -134.5
c0 -48 4 -92.667 12 -134s22 -77.666 42 -108.999s47 -56 81 -74s77.667 -27 131 -27c44 0 87.833 5.5 131.5 16.5s79.834 23.5 108.501 37.5c15.333 6.66699 26 8.66699 32 6s11 -9.66699 15 -21l51 -119c13.333 -22 9.33301 -39 -12 -51
c-56 -31.333 -116.5 -52.166 -181.5 -62.499s-125.5 -15.5 -181.5 -15.5c-152.667 0 -269.667 46.5 -351 139.5s-122 230.833 -122 413.5z" />
    <glyph glyph-name="uni0442" unicode="&#x442;" horiz-adv-x="970" 
d="M20 918v112c0 15.333 2.5 26.666 7.5 33.999s16.167 11 33.5 11h848c18 0 29.333 -3.66699 34 -11s7 -18.666 7 -33.999v-112c0 -13.333 -2.66699 -23.5 -8 -30.5s-16.333 -10.5 -33 -10.5h-311v-836c0 -18 -3 -29.333 -9 -34s-17.333 -7 -34 -7h-147
c-16.667 0 -28.5 2.66699 -35.5 8s-10.5 16.333 -10.5 33v836h-301c-16.667 0 -27.667 3.33301 -33 10s-8 17 -8 31z" />
    <glyph glyph-name="uni0443" unicode="&#x443;" horiz-adv-x="1069" 
d="M23 1047c-5.33301 19.333 1.99805 28.666 21.998 27.999h188c15.333 0 25.666 -1.66699 30.999 -5s9.33301 -10.333 12 -21l140 -471l106 -371h13l114 375l152 465c2.66699 10.667 6.33398 18 11.001 22s14.667 6 30 6h186c20.667 0 27.667 -8.66699 21 -26l-410 -1225v2
c-31.333 -94 -74.666 -160.5 -129.999 -199.5s-126 -58.5 -212 -58.5c-22 0 -49 1.33301 -81 4s-65 9.33398 -99 20.001c-15.333 2.66699 -24.666 6.83398 -27.999 12.501s-3.66602 14.5 -0.999023 26.5l29 125c2.66699 13.333 7 21.166 13 23.499
s15.333 2.16602 28 -0.500977c23.333 -5.33301 41.333 -9.16602 54 -11.499s28 -3.5 46 -3.5c48 0 86 9.33301 114 28s50 52.667 66 102l43 129h-49c-24.667 0 -44.834 4 -60.501 12s-29.5 31.667 -41.5 71z" />
    <glyph glyph-name="uni0444" unicode="&#x444;" horiz-adv-x="1501" 
d="M92 541c0 86 13.999 162.671 41.999 230.004s66.333 124.666 115 171.999s105.667 83.166 171 107.499s135.666 38.166 210.999 41.499v370c0 15.333 3 25 9 29s16 6 30 6h161c15.333 0 25.666 -2 30.999 -6s8 -13.667 8 -29v-372
c78 -2.66699 149.833 -16.334 215.5 -41.001s122.334 -60.334 170.001 -107.001s85.167 -103.667 112.5 -171s41 -144 41 -230c0 -79.333 -11.667 -152.166 -35 -218.499s-57.5 -124 -102.5 -173s-100.833 -88.5 -167.5 -118.5s-144.667 -48 -234 -54v-356
c0 -15.333 -2.66699 -25 -8 -29s-15.666 -6 -30.999 -6h-161c-13.333 0 -23.166 2.16699 -29.499 6.5s-9.5 13.833 -9.5 28.5v356c-88.667 5.33301 -166.5 22.833 -233.5 52.5s-123 69 -168 118s-79.167 107 -102.5 174s-35 140.167 -35 219.5zM321.999 532.004
c0 -46.667 6.33203 -91 18.999 -133s32 -79.333 58 -112s58.167 -60 96.5 -82s83.5 -35 135.5 -39v725c-101.333 -6.66699 -178.166 -41.5 -230.499 -104.5s-78.5 -147.833 -78.5 -254.5zM869.998 166.004c54.667 5.33301 101.831 19 141.498 41s71.834 49.333 96.501 82
s42.834 69.667 54.501 111s17.5 85.333 17.5 132c0 106.667 -26 191.167 -78 253.5s-129.333 96.833 -232 103.5v-723z" />
    <glyph glyph-name="uni0445" unicode="&#x445;" horiz-adv-x="1019" 
d="M25 39l350 528l-309 473c-4 6.66699 -5.5 14.167 -4.5 22.5s7.83301 12.5 20.5 12.5h190c16.667 0 29.167 -2.33301 37.5 -7s15.833 -12.667 22.5 -24l180 -313l186 313c6.66699 10.667 14.167 18.5 22.5 23.5s20.166 7.5 35.499 7.5h184
c15.333 0 23.333 -3.66699 24 -11s-0.333008 -14 -3 -20l-318 -469l354 -538c5.33301 -8 7.33301 -16.167 6 -24.5s-9.33301 -12.5 -24 -12.5h-195c-19.333 0 -32.666 3 -39.999 9s-14.333 14.667 -21 26l-217 366l-221 -366c-6.66699 -10.667 -14.5 -19.167 -23.5 -25.5
s-21.833 -9.5 -38.5 -9.5h-182c-26 0 -31.333 13 -16 39z" />
    <glyph glyph-name="uni0446" unicode="&#x446;" horiz-adv-x="1259" 
d="M133 123l-0.000976562 913.004c0 15.333 3.5 25.666 10.5 30.999s17.833 8 32.5 8h152c19.333 0 31.333 -2.33301 36 -7s7 -15.334 7 -32.001v-843h452v843c0 15.333 3.83301 25.666 11.5 30.999s18.834 8 33.501 8h152c15.333 0 26.333 -2.33301 33 -7
s10 -15.334 10 -32.001v-841l74 -7c30 -2.66699 48.333 -11.834 55 -27.501s9.33398 -31.5 8.00098 -47.5l-22 -404c-1.33301 -19.333 -11 -28.666 -29 -27.999h-148c-16.667 0 -25.334 9.33301 -26.001 28l-12 291h-719c-38 0 -66 10.5 -84 31.5s-27 51.5 -27 91.5z" />
    <glyph glyph-name="uni0447" unicode="&#x447;" horiz-adv-x="1120" 
d="M76 797l0.00195312 244.997c0 13.333 3 22.166 9 26.499s15.333 6.5 28 6.5h166c15.333 0 25.166 -1.66699 29.499 -5s6.5 -12.666 6.5 -27.999v-237c0 -48 4.5 -86.667 13.5 -116s22.667 -52.166 41 -68.499s41.833 -27.166 70.5 -32.499s63 -8 103 -8
c30 0 64.5 2.66699 103.5 8s73.5 13.333 103.5 24v430c0 13.333 2.66699 22.166 8 26.499s14.666 6.5 27.999 6.5h164c13.333 0 22.833 -1.66699 28.5 -5s8.5 -12.666 8.5 -27.999v-1009c0 -15.333 -2.66699 -24.666 -8 -27.999s-15 -5 -29 -5h-164
c-13.333 0 -22.666 2 -27.999 6s-8 13 -8 27v383c-34 -10.667 -74.333 -19.5 -121 -26.5s-88.334 -10.5 -125.001 -10.5c-151.333 0 -260.5 34.833 -327.5 104.5s-100.5 174.167 -100.5 313.5z" />
    <glyph glyph-name="uni0448" unicode="&#x448;" horiz-adv-x="1763" 
d="M133 123l-0.000976562 913.001c0 15.333 3.5 25.666 10.5 30.999s17.833 8 32.5 8h152c19.333 0 31.333 -2.33301 36 -7s7 -15.334 7 -32.001v-843h395v843c0 15.333 3.33301 25.666 10 30.999s17.667 8 33 8h149c16.667 0 28.5 -2.33301 35.5 -7
s10.5 -15.334 10.5 -32.001v-843h389v843c0 16.667 3.33301 27.334 10 32.001s18.334 7 35.001 7h151c15.333 0 26 -2.66699 32 -8s9 -15.666 9 -30.999v-913c0 -39.333 -8.83301 -69.666 -26.5 -90.999s-46.167 -32 -85.5 -32h-1274c-38 0 -66 10.5 -84 31.5
s-27 51.5 -27 91.5z" />
    <glyph glyph-name="uni0449" unicode="&#x449;" horiz-adv-x="1826" 
d="M133 123l0.000976562 913.007c0 15.333 3.5 25.666 10.5 30.999s17.833 8 32.5 8h152c19.333 0 31.333 -2.33301 36 -7s7 -15.334 7 -32.001v-843h395v843c0 15.333 3.33301 25.666 10 30.999s17.667 8 33 8h149c16.667 0 28.5 -2.33301 35.5 -7
s10.5 -15.334 10.5 -32.001v-843h389v843c0 15.333 3.66699 25.666 11 30.999s18.666 8 33.999 8h149c15.333 0 26.333 -2.33301 33 -7s10 -15.334 10 -32.001v-843l74 -9c30 -2.66699 48.833 -11.834 56.5 -27.501s10.5 -30.834 8.5 -45.501l-24 -402
c-1.33301 -19.333 -10.333 -28.666 -27 -27.999h-149c-16.667 0 -25.667 9.33301 -27 28l-12 291h-1286c-38 0 -66 10.5 -84 31.5s-27 51.5 -27 91.5z" />
    <glyph glyph-name="uni044A" unicode="&#x44a;" horiz-adv-x="1400" 
d="M20 918l-0.00195312 117.997c0 15.333 2.16699 25.666 6.5 30.999s13.833 8 28.5 8h473c30 0 54 -7.16699 72 -21.5s27 -39.166 27 -74.499l-2 -258h295c88.667 0 159.834 -13.667 213.501 -41s94.834 -60.166 123.501 -98.499s47.5 -78 56.5 -119
s13.5 -75.167 13.5 -102.5c0 -52 -9.83301 -99.667 -29.5 -143s-46.667 -81.166 -81 -113.499s-74.333 -57.666 -120 -75.999s-94.5 -27.5 -146.5 -27.5h-448c-46.667 0 -77.5 12 -92.5 36s-22.5 51.667 -22.5 83v758h-332c-15.333 0 -25 3 -29 9s-6 16.667 -6 32z
M624.998 189.997h282c36.667 0 67 5.83301 91 17.5s42.5 26.5 55.5 44.5s21.833 36.667 26.5 56s7 37.333 7 54c0 45.333 -15 85 -45 119s-74.333 51 -133 51h-284v-342z" />
    <glyph glyph-name="uni044B" unicode="&#x44b;" horiz-adv-x="1560" 
d="M133 119l-0.000976562 916.999c0 15.333 3.5 25.666 10.5 30.999s17.833 8 32.5 8h152c16.667 0 28 -2.33301 34 -7s9 -15.334 9 -32.001v-315h295c88.667 0 160 -13.667 214 -41s95.333 -60.166 124 -98.499s47.334 -78 56.001 -119s13 -75.167 13 -102.5
c0 -52 -9.83301 -99.667 -29.5 -143s-46.667 -81.166 -81 -113.499s-74.333 -57.666 -120 -75.999s-94.5 -27.5 -146.5 -27.5h-448c-46.667 0 -77.5 12 -92.5 36s-22.5 51.667 -22.5 83zM370.999 189.999h282c36.667 0 67 5.83301 91 17.5s42.5 26.5 55.5 44.5
s22 36.667 27 56s7.5 37.333 7.5 54c0 45.333 -14.833 85 -44.5 119s-74.5 51 -134.5 51h-284v-342zM1192 40.999v995.002c0 15.333 3.33301 25.666 10 30.999s17.667 8 33 8h149c15.333 0 26.333 -2.33301 33 -7s10 -15.334 10 -32.001v-995
c0 -18 -3.33301 -29.333 -10 -34s-17.667 -7 -33 -7h-149c-15.333 0 -26.333 2.66699 -33 8s-10 16.333 -10 33z" />
    <glyph glyph-name="uni044C" unicode="&#x44c;" horiz-adv-x="1146" 
d="M133 119l-0.000976562 916.999c0 15.333 3.5 25.666 10.5 30.999s17.833 8 32.5 8h150c18 0 30 -2.33301 36 -7s9 -15.334 9 -32.001v-315h295c88.667 0 160 -13.667 214 -41s95.333 -60.166 124 -98.499s47.334 -78 56.001 -119s13 -75.167 13 -102.5
c0 -52 -9.83301 -99.667 -29.5 -143s-46.667 -81.166 -81 -113.499s-74.333 -57.666 -120 -75.999s-94.5 -27.5 -146.5 -27.5h-448c-46.667 0 -77.5 12 -92.5 36s-22.5 51.667 -22.5 83zM370.999 189.999h282c36.667 0 67 5.83301 91 17.5s42.5 26.5 55.5 44.5
s22 36.667 27 56s7.5 37.333 7.5 54c0 45.333 -14.833 85 -44.5 119s-74.5 51 -134.5 51h-284v-342z" />
    <glyph glyph-name="uni044D" unicode="&#x44d;" horiz-adv-x="1001" 
d="M50.5 72.5c-2.33301 7.66699 -0.831055 17.5 4.50195 29.5l54 123c4 10.667 9 17.5 15 20.5s16.667 1.16699 32 -5.5c30 -12 66.333 -24 109 -36s86 -18 130 -18c91.333 0 158.666 25.667 201.999 77s67 121.333 71 210h-353c-4 0 -8.66699 1.66699 -14 5
s-8 10.666 -8 21.999v131c0 6.66699 1 12.334 3 17.001s8.33301 7 19 7h344c-6.66699 74 -29.5 131.167 -68.5 171.5s-95.833 60.5 -170.5 60.5c-39.333 0 -78.833 -4.5 -118.5 -13.5s-75.834 -19.5 -108.501 -31.5c-16.667 -6.66699 -28 -8.66699 -34 -6
s-12 9.33398 -18 20.001l-43 121c-5.33301 15.333 -7.33301 26 -6 32s9 12.333 23 19c46.667 23.333 98.167 41.166 154.5 53.499s112.5 18.5 168.5 18.5c152.667 0 270 -45.833 352 -137.5s123 -224.834 123 -399.501c0 -192.667 -41.5 -338.5 -124.5 -437.5
s-205.167 -148.5 -366.5 -148.5c-56 0 -115.333 4.83301 -178 14.5s-120 29.5 -172 59.5c-12 6.66699 -19.167 13.834 -21.5 21.501z" />
    <glyph glyph-name="uni044E" unicode="&#x44e;" horiz-adv-x="1593" 
d="M133 41l0.00292969 995.002c0 15.333 3.83301 25.666 11.5 30.999s18.167 8 31.5 8h150c19.333 0 31.666 -2.33301 36.999 -7s8 -15.334 8 -32.001v-374h174c19.333 136.667 71.166 243.834 155.499 321.501s191.5 116.5 321.5 116.5
c158.667 0 278.167 -49.833 358.5 -149.5s120.5 -235.5 120.5 -407.5c0 -174.667 -40.667 -312.667 -122 -414s-201.666 -152 -360.999 -152c-152.667 0 -268.334 42.667 -347.001 128s-122.667 206.666 -132 363.999h-168v-428c0 -18 -2.83301 -29.333 -8.5 -34
s-17.834 -7 -36.501 -7h-150c-13.333 0 -23.833 2.66699 -31.5 8s-11.5 16.333 -11.5 33zM778.003 543.002c0 -56 4.16992 -106.5 12.5029 -151.5s21.666 -83.333 39.999 -115s43.166 -56 74.499 -73s69.666 -25.5 114.999 -25.5c42 0 78.5 9.66699 109.5 29
s55.667 45 74 77s31.833 69.833 40.5 113.5s13 90.167 13 139.5c0 50.667 -4 98 -12 142s-20.833 82.5 -38.5 115.5s-41.5 58.667 -71.5 77s-66.333 27.5 -109 27.5c-78 0 -138.833 -32.333 -182.5 -97s-65.5 -151 -65.5 -259z" />
    <glyph glyph-name="uni044F" unicode="&#x44f;" horiz-adv-x="1157" 
d="M55 23c0 6.66699 0.666992 11.334 2 14.001l93 285c10.667 35.333 26.5 67.333 47.5 96s55.5 49.667 103.5 63v2c-68 23.333 -115.667 59 -143 107s-41 102.667 -41 164c0 45.333 8.16699 87.666 24.5 126.999s40.5 73.333 72.5 102s70.5 51.167 115.5 67.5
s96.167 24.5 153.5 24.5h439c27.333 0 50.5 -7.16699 69.5 -21.5s29.167 -35.833 30.5 -64.5v-958c0 -12 -3 -20.167 -9 -24.5s-16 -6.5 -30 -6.5h-158c-15.333 0 -25.666 2 -30.999 6s-8 13 -8 27v389h-208c-52 0 -94.167 -8.16699 -126.5 -24.5
s-56.5 -51.833 -72.5 -106.5l-78 -256c-4 -15.333 -10.833 -25 -20.5 -29s-19.834 -6 -30.501 -6h-164c-12 0 -20.167 2 -24.5 6s-6.5 9.66699 -6.5 17zM352 741c0 -39.333 12.668 -73 38.001 -101s70.666 -42 135.999 -42h260v285h-270
c-32.667 0 -59.667 -4.83301 -81 -14.5s-38 -21.334 -50 -35.001s-20.5 -29.167 -25.5 -46.5s-7.5 -32.666 -7.5 -45.999z" />
    <glyph glyph-name="uni0451" unicode="&#x451;" horiz-adv-x="1130" 
d="M92 532c0 90 12.333 170.334 37 241.001s58.5 130.167 101.5 178.5s94.667 85.166 155 110.499s125.833 38 196.5 38c157.333 0 273.666 -40.333 348.999 -121s113 -191.334 113 -332.001c0 -35.333 -4 -64.666 -12 -87.999s-19.5 -41.833 -34.5 -55.5
s-32.5 -23.167 -52.5 -28.5s-41.333 -8 -64 -8h-545c1.33301 -53.333 9.5 -98 24.5 -134s35.5 -65.333 61.5 -88s56 -38.834 90 -48.501s71 -14.5 111 -14.5c44 0 87 5.5 129 16.5s78.667 24.167 110 39.5c22 9.33301 37 5 45 -13l56 -116c9.33301 -22 4.33301 -38 -15 -48
c-52 -31.333 -108.667 -53.166 -170 -65.499s-120 -18.5 -176 -18.5c-165.333 0 -291.666 44.5 -378.999 133.5s-131 229.5 -131 421.5zM252 1378c0 35.333 13.333 66.333 40 93s57.667 40 93 40s66.666 -13.333 93.999 -40s41 -57.667 41 -93
c0 -34 -13.667 -64.333 -41 -91s-58.666 -40 -93.999 -40s-66.333 13.333 -93 40s-40 57 -40 91zM344 639.001h470.998c0 36.667 -3.33301 70.667 -10 102s-18.667 59 -36 83s-40.5 42.833 -69.5 56.5s-66.833 20.5 -113.5 20.5c-36.667 0 -69.5 -7.16699 -98.5 -21.5
s-53.667 -33.833 -74 -58.5s-36.666 -52.667 -48.999 -84s-19.166 -64 -20.499 -98zM644.998 1378c0 18 3.83496 34.834 11.502 50.501s17.667 29.667 30 42s26.666 22.166 42.999 29.499s33.166 11 50.499 11c35.333 0 66.333 -13.333 93 -40s40 -57.667 40 -93
c0 -34 -13.167 -64.333 -39.5 -91s-57.5 -40 -93.5 -40c-18 0 -35 3.83301 -51 11.5s-30.167 17.667 -42.5 30s-22.333 26.333 -30 42s-11.5 31.5 -11.5 47.5z" />
    <glyph glyph-name="uni0452" unicode="&#x452;" horiz-adv-x="1177" 
d="M41 1229l0.000976562 66.999c0 10.667 1.66699 18.167 5 22.5s10.666 6.5 21.999 6.5h82v137c0 15.333 3 25 9 29s15.667 6 29 6h160c15.333 0 25.666 -2 30.999 -6s8 -13.667 8 -29v-137h381c10.667 0 17.5 -2.33301 20.5 -7s4.5 -12.667 4.5 -24v-63
c0 -12 -1.5 -20.167 -4.5 -24.5s-9.83301 -6.5 -20.5 -6.5h-381v-201c40.667 13.333 83.334 22.833 128.001 28.5s86 8.5 124 8.5c82 0 152.333 -14 211 -42s106.5 -65.833 143.5 -113.5s64.333 -103.334 82 -167.001s26.5 -131.5 26.5 -203.5
c0 -65.333 -7.83301 -129.166 -23.5 -191.499s-38.167 -121.166 -67.5 -176.499s-65.166 -105.833 -107.499 -151.5s-90.166 -84.167 -143.499 -115.5c-10.667 -6.66699 -19.834 -9.33398 -27.501 -8.00098s-16.167 7.33301 -25.5 18l-78 101
c-10.667 15.333 -6.66699 29 12 41c65.333 54.667 117.833 119.834 157.5 195.501s59.5 164.5 59.5 266.5c0 108 -20.5 192 -61.5 252s-109.833 90 -206.5 90c-27.333 0 -58.833 -2.33301 -94.5 -7s-71.834 -13 -108.501 -25v-764c0 -15.333 -2.66699 -25 -8 -29
s-15.666 -6 -30.999 -6h-158c-15.333 0 -25.833 2 -31.5 6s-8.5 13.667 -8.5 29v1165h-82c-10.667 0 -17.834 2 -21.501 6s-5.5 11.667 -5.5 23z" />
    <glyph glyph-name="uni0453" unicode="&#x453;" horiz-adv-x="968" 
d="M133 41l0.000976562 701.998c0 44 4.5 85.833 13.5 125.5s25.667 74.834 50 105.501s58 55.167 101 73.5s98.833 27.5 167.5 27.5h444c18 0 29 -3.66699 33 -11s6 -18.666 6 -33.999v-110c0 -15.333 -2.33301 -26.333 -7 -33s-15.334 -10 -32.001 -10h-407
c-48 0 -81.833 -10 -101.5 -30s-29.5 -51.667 -29.5 -95v-711c0 -18 -2.83301 -29.333 -8.5 -34s-17.834 -7 -36.501 -7h-148c-15.333 0 -26.666 2.66699 -33.999 8s-11 16.333 -11 33zM405.501 1256.5c-1.66699 6.33301 -0.166016 14.835 4.50098 25.502l139 336
c9.33301 22 26.333 29.333 51 22l172 -47c10.667 -2.66699 17.167 -7.33398 19.5 -14.001s0.5 -13.334 -5.5 -20.001l-231 -328c-8 -12 -15.167 -18.833 -21.5 -20.5s-14.833 -1.16699 -25.5 1.5l-84 29c-10.667 4 -16.834 9.16699 -18.501 15.5z" />
    <glyph glyph-name="uni0454" unicode="&#x454;" horiz-adv-x="1009" 
d="M92 530c0 86 11.668 163.836 35.001 233.503s56.5 129.167 99.5 178.5s94.833 87.666 155.5 114.999s129.334 41.666 206.001 42.999c113.333 2.66699 217 -21.333 311 -72c12 -6.66699 19.5 -13.5 22.5 -20.5s0.833008 -17.167 -6.5 -30.5l-51 -121
c-5.33301 -10.667 -11 -17.5 -17 -20.5s-17.333 -0.833008 -34 6.5c-32.667 12 -66.834 22.5 -102.501 31.5s-73.167 13.5 -112.5 13.5c-74 -2.66699 -131.833 -26.5 -173.5 -71.5s-67.834 -101.833 -78.501 -170.5h344c10.667 0 17.167 -2.33301 19.5 -7
s3.5 -10.334 3.5 -17.001v-132c0 -10.667 -2.83301 -17.667 -8.5 -21s-10.5 -5 -14.5 -5h-350c2.66699 -39.333 9.16699 -75.833 19.5 -109.5s25.666 -62.834 45.999 -87.501s46.5 -44.167 78.5 -58.5s71.333 -21.5 118 -21.5c44 0 87.833 5.5 131.5 16.5
s79.834 23.5 108.501 37.5c15.333 6.66699 26 8.66699 32 6s11 -9.66699 15 -21l51 -119c13.333 -22 9.33301 -39 -12 -51c-56 -31.333 -116.5 -52.166 -181.5 -62.499s-125.5 -15.5 -181.5 -15.5c-152.667 0 -269.667 46.5 -351 139.5s-122 230.833 -122 413.5z" />
    <glyph glyph-name="uni0455" unicode="&#x455;" horiz-adv-x="987" 
d="M76 117l49 114.005c6.66699 12 13.5 19.833 20.5 23.5s17.833 2.16699 32.5 -4.5c49.333 -23.333 104 -41.5 164 -54.5s113.333 -19.5 160 -19.5c57.333 0 100.333 11.333 129 34s43 51.667 43 87c0 39.333 -18.5 70.666 -55.5 93.999s-92.167 48.666 -165.5 75.999
c-56 20.667 -104.833 41.167 -146.5 61.5s-76.167 43.166 -103.5 68.499s-48.166 53.666 -62.499 84.999s-21.5 67.666 -21.5 108.999c0 45.333 8.16699 86.666 24.5 123.999s40.5 69.666 72.5 96.999s72 48.833 120 64.5s103.333 23.5 166 23.5
c57.333 0 114.666 -5.16699 171.999 -15.5s112.666 -26.5 165.999 -48.5c10.667 -5.33301 17 -12 19 -20s1.66699 -17.667 -1 -29l-47 -117c-4 -10.667 -9.16699 -16.667 -15.5 -18s-14.833 0 -25.5 4c-53.333 19.333 -100.166 32.333 -140.499 39s-83.5 10 -129.5 10
c-50.667 0 -87.667 -10.5 -111 -31.5s-35 -44.5 -35 -70.5c0 -19.333 3.83301 -35.833 11.5 -49.5s19.667 -26.334 36 -38.001s37.833 -23.5 64.5 -35.5s59 -25 97 -39c44 -16.667 86.833 -34.167 128.5 -52.5s78.5 -40.5 110.5 -66.5s57.833 -56.667 77.5 -92
s29.5 -78.333 29.5 -129c0 -54.667 -10.167 -102.5 -30.5 -143.5s-48.666 -74.833 -84.999 -101.5s-79 -46.5 -128 -59.5s-102.167 -19.5 -159.5 -19.5c-32.667 0 -67.5 1.83301 -104.5 5.5s-73.833 8.83398 -110.5 15.501s-72.167 15.834 -106.5 27.501
s-65.833 25.834 -94.5 42.501c-20.667 10.667 -25.334 27 -14.001 49z" />
    <glyph glyph-name="uni0456" unicode="&#x456;" horiz-adv-x="585" 
d="M147 1356c0 40.667 14.333 75.334 43 104.001s63.667 43 105 43c40.667 0 75.334 -14.333 104.001 -43s43 -63.334 43 -104.001s-14.333 -75.5 -43 -104.5s-63.334 -43.5 -104.001 -43.5s-75.5 14.333 -104.5 43s-43.5 63.667 -43.5 105zM174 35v1005
c0 15.333 3.16699 25 9.5 29s16.166 6 29.499 6h158c15.333 0 26 -2 32 -6s9 -13.667 9 -29v-1005c0 -15.333 -3.16699 -25 -9.5 -29s-16.833 -6 -31.5 -6h-158c-13.333 0 -23.166 2 -29.499 6s-9.5 13.667 -9.5 29z" />
    <glyph glyph-name="uni0457" unicode="&#x457;" horiz-adv-x="591" 
d="M-31 1372c0 35.333 13.333 66.333 40 93s57.667 40 93 40s66.833 -13.333 94.5 -40s41.5 -57.667 41.5 -93c0 -34 -13.667 -64.333 -41 -91s-59 -40 -95 -40c-35.333 0 -66.333 13.333 -93 40s-40 57 -40 91zM178 35l0.00195312 1005c0 15.333 3.16699 25 9.5 29
s16.166 6 29.499 6h160c15.333 0 25.666 -2 30.999 -6s8 -13.667 8 -29v-1005c0 -15.333 -2.83301 -25 -8.5 -29s-15.834 -6 -30.501 -6h-160c-13.333 0 -23.166 2 -29.499 6s-9.5 13.667 -9.5 29zM362.002 1372c0 18 3.83301 34.834 11.5 50.501s17.667 29.667 30 42
s26.666 22.166 42.999 29.499s33.5 11 51.5 11c35.333 0 66.333 -13.333 93 -40s40 -57.667 40 -93c0 -34 -13.333 -64.333 -40 -91s-57.667 -40 -93 -40c-18 0 -35.167 3.83301 -51.5 11.5s-30.666 17.5 -42.999 29.5s-22.333 26 -30 42s-11.5 32 -11.5 48z" />
    <glyph glyph-name="uni0458" unicode="&#x458;" horiz-adv-x="610" 
d="M-42 -263.5c4.66699 5 12.6689 10.832 24.002 17.499c45.333 20.667 81.5 44.334 108.5 71.001s48 56 63 88s24.833 66.167 29.5 102.5s7 74.833 7 115.5v909c0 15.333 3.16699 25 9.5 29s16.166 6 29.499 6h162c15.333 0 25.666 -2 30.999 -6s8 -13.667 8 -29v-882
c0 -98 -9.5 -181.667 -28.5 -251s-45.333 -127.5 -79 -174.5s-73.334 -84.833 -119.001 -113.5s-94.5 -52 -146.5 -70c-26 -6.66699 -41.667 -1 -47 17l-51 143c-5.33301 13.333 -5.66602 22.5 -0.999023 27.5zM164.002 1356c0 40.667 14.667 75.334 44 104.001
s63.666 43 102.999 43c40.667 0 75.5 -14.333 104.5 -43s43.5 -63.334 43.5 -104.001s-14.333 -75.5 -43 -104.5s-63.667 -43.5 -105 -43.5c-39.333 0 -73.666 14.333 -102.999 43s-44 63.667 -44 105z" />
    <glyph glyph-name="uni0459" unicode="&#x459;" horiz-adv-x="1728" 
d="M17.5 132c3.66699 6 13.4971 13.3369 29.4971 22.0039c34 15.333 62.333 33.166 85 53.499s41.5 50.833 56.5 91.5s27.333 96.167 37 166.5s18.5 163.5 26.5 279.5l16 216c2.66699 42 14.334 71.5 35.001 88.5s49.334 25.5 86.001 25.5h463
c39.333 0 66.166 -9.5 80.499 -28.5s21.5 -42.167 21.5 -69.5v-260h293c90 0 162 -13.667 216 -41s95.333 -59.833 124 -97.5s47.167 -77 55.5 -118s12.5 -75.167 12.5 -102.5c0 -52 -9.66699 -99.667 -29 -143s-45.666 -80.833 -78.999 -112.5s-72.833 -56.667 -118.5 -75
s-95.167 -27.5 -148.5 -27.5h-451c-46.667 0 -77.334 12 -92.001 36s-22 51.667 -22 83v755h-234l-8 -129c-8 -130 -18.167 -239.833 -30.5 -329.5s-30.833 -164.334 -55.5 -224.001s-58.167 -106.834 -100.5 -141.501s-98.166 -62.334 -167.499 -83.001
c-18 -5.33301 -31 -7 -39 -5s-14.333 10 -19 24l-41 112c-5.33301 16.667 -6.16602 28 -2.49902 34zM951.997 190.004h285c36.667 0 66.667 5.5 90 16.5s41.5 25 54.5 42s21.833 35.333 26.5 55s7 38.5 7 56.5c0 48 -15 88 -45 120s-74.333 48 -133 48h-285v-338z" />
    <glyph glyph-name="uni045A" unicode="&#x45a;" horiz-adv-x="1753" 
d="M133 41l-0.00195312 995.004c0 15.333 3.83301 25.666 11.5 30.999s18.834 8 33.501 8h150c16.667 0 28.334 -2.33301 35.001 -7s10 -15.334 10 -32.001v-358h385v358c0 15.333 3.33301 25.666 10 30.999s17.667 8 33 8h151c16.667 0 28 -2.33301 34 -7
s9 -15.334 9 -32.001v-356h289c84.667 0 153 -12.333 205 -37s92 -54.334 120 -89.001s46.333 -71.167 55 -109.5s13 -71.166 13 -98.499c0 -52 -9.16699 -99.167 -27.5 -141.5s-43.5 -78.5 -75.5 -108.5s-70.167 -53.5 -114.5 -70.5s-92.5 -25.5 -144.5 -25.5h-443
c-46.667 0 -77.334 12 -92.001 36s-22 51.667 -22 83v368h-385v-446c0 -18 -3.5 -29.333 -10.5 -34s-18.5 -7 -34.5 -7h-150c-15.333 0 -26.666 2.66699 -33.999 8s-11 16.333 -11 33zM994.998 190.004l277 -0.00195312c34 0 62 5.16699 84 15.5s39 23.333 51 39
s20.167 32.334 24.5 50.001s6.5 34.834 6.5 51.501c0 46.667 -14 83 -42 109s-68.667 39 -122 39h-279v-304z" />
    <glyph glyph-name="uni045B" unicode="&#x45b;" horiz-adv-x="1196" 
d="M25 1233l0.00195312 67.001c0 10.667 1.33301 18.167 4 22.5s9.33398 6.5 20.001 6.5h84v133c0 15.333 3.16699 25 9.5 29s16.166 6 29.499 6h160c15.333 0 25.666 -2 30.999 -6s8 -13.667 8 -29v-133h391c10.667 0 17.334 -2.33301 20.001 -7s4 -12.667 4 -24v-63
c0 -12 -1.33301 -20.167 -4 -24.5s-9.33398 -6.5 -20.001 -6.5h-391v-209c39.333 13.333 82.5 23.166 129.5 29.499s89.167 9.5 126.5 9.5c151.333 0 262.166 -42 332.499 -126s105.5 -201 105.5 -351v-522c0 -15.333 -3 -25 -9 -29s-16.667 -6 -32 -6h-162
c-13.333 0 -23.166 2 -29.499 6s-9.5 13.667 -9.5 29v508c0 92.667 -18.333 163.167 -55 211.5s-98 72.5 -184 72.5c-35.333 0 -72.5 -2.66699 -111.5 -8s-72.833 -13.333 -101.5 -24v-760c0 -15.333 -2.83301 -25 -8.5 -29s-15.834 -6 -30.501 -6h-160
c-13.333 0 -23.166 2 -29.499 6s-9.5 13.667 -9.5 29v1169h-84c-10.667 0 -17.334 2.16699 -20.001 6.5s-4 11.833 -4 22.5z" />
    <glyph glyph-name="uni045C" unicode="&#x45c;" horiz-adv-x="1099" 
d="M131 33l0.00195312 1009c0 15.333 3.16699 24.666 9.5 27.999s15.5 5 27.5 5h164c13.333 0 22.833 -1.66699 28.5 -5s8.5 -12.666 8.5 -27.999v-374h129c38 0 73.333 8.5 106 25.5s58.667 55.5 78 115.5l76 240c2.66699 12 7.33398 19.333 14.001 22s13.667 4 21 4h168
c13.333 0 21 -4 23 -12s2.33301 -15.667 1 -23l-76 -268c-10.667 -42 -27 -79.833 -49 -113.5s-52 -58.5 -90 -74.5l-2 -4c28.667 -8 52.167 -18.333 70.5 -31s33.666 -27.167 45.999 -43.5s22.666 -34 30.999 -53s15.833 -39.5 22.5 -61.5l104 -354
c1.33301 -6.66699 1.33301 -14.5 0 -23.5s-10 -13.5 -26 -13.5h-176c-5.33301 0 -11.833 1.33301 -19.5 4s-12.834 9.66699 -15.501 21l-98 327c-15.333 46.667 -40 79.834 -74 99.501s-72.333 29.5 -115 29.5h-149v-448c0 -15.333 -2.83301 -24.666 -8.5 -27.999
s-15.167 -5 -28.5 -5h-164c-12 0 -21.167 1.66699 -27.5 5s-9.5 12.666 -9.5 27.999zM430.502 1225.5c-1.66699 6.33301 -0.499023 14.832 3.50098 25.499l139 336c9.33301 22 26.666 29.667 51.999 23l172 -47c10.667 -2.66699 17 -7.5 19 -14.5s0.333008 -13.833 -5 -20.5
l-231 -328c-8 -12 -15.167 -18.667 -21.5 -20s-15.166 -0.666016 -26.499 2.00098l-83 28c-10.667 4 -16.834 9.16699 -18.501 15.5z" />
    <glyph glyph-name="uni045E" unicode="&#x45e;" horiz-adv-x="1069" 
d="M23 1047c-5.33301 19.333 1.99805 28.666 21.998 27.999h188c15.333 0 25.666 -1.66699 30.999 -5s9.33301 -10.333 12 -21l140 -471l106 -371h13l114 375l152 465c2.66699 10.667 6.33398 18 11.001 22s14.667 6 30 6h186c20.667 0 27.667 -8.66699 21 -26l-410 -1225v2
c-31.333 -94 -74.666 -160.5 -129.999 -199.5s-126 -58.5 -212 -58.5c-22 0 -49 1.33301 -81 4s-65 9.33398 -99 20.001c-15.333 2.66699 -24.666 6.83398 -27.999 12.501s-3.66602 14.5 -0.999023 26.5l29 125c2.66699 13.333 7 21.166 13 23.499
s15.333 2.16602 28 -0.500977c23.333 -5.33301 41.333 -9.16602 54 -11.499s28 -3.5 46 -3.5c48 0 86 9.33301 114 28s50 52.667 66 102l43 129h-49c-24.667 0 -44.834 4 -60.501 12s-29.5 31.667 -41.5 71zM191.498 1429.5c-2.33301 7 2.16504 15.833 13.498 26.5l57 53
c12 10.667 20.5 14.5 25.5 11.5s12.833 -8.83301 23.5 -17.5c42 -44 84.667 -78.167 128 -102.5s84.666 -36.5 123.999 -36.5c16.667 0 33.167 2 49.5 6s34 11.5 53 22.5s40.833 26 65.5 45s53.334 42.833 86.001 71.5c12 10.667 20.833 15.5 26.5 14.5
s11.834 -4.5 18.501 -10.5l58 -49c13.333 -10.667 19 -19.5 17 -26.5s-5 -13.167 -9 -18.5c-62.667 -80.667 -125.5 -139.667 -188.5 -177s-125.167 -56 -186.5 -56c-36.667 0 -72.167 6.16699 -106.5 18.5s-66.166 29 -95.499 50s-57 45.167 -83 72.5s-49 56 -69 86
c-2.66699 4 -5.16699 9.5 -7.5 16.5z" />
    <glyph glyph-name="uni045F" unicode="&#x45f;" horiz-adv-x="1222" 
d="M133 123v912.999c0 15.333 3.5 25.666 10.5 30.999s17.833 8 32.5 8h152c19.333 0 31.333 -2.33301 36 -7s7 -15.334 7 -32.001v-843h481v843c0 16.667 3 27.334 9 32.001s17.333 7 34 7h152c15.333 0 26.333 -2.66699 33 -8s10 -15.666 10 -30.999v-913
c0 -39.333 -9 -69.666 -27 -90.999s-46.667 -32 -86 -32h-244l-16 -299c0 -22 -9.66699 -33 -29 -33h-151c-19.333 0 -29 11.667 -29 35l-16 297h-248c-38 0 -66 10.5 -84 31.5s-27 51.5 -27 91.5z" />
    <glyph glyph-name="uni0490" unicode="&#x490;" horiz-adv-x="1161" 
d="M154 43v1024c0 48 5.66699 94.167 17 138.5s31.333 83.5 60 117.5s66.334 61.333 113.001 82s104.667 31 174 31l381 2v235c0 15.333 2.66699 25 8 29s15 6 29 6h147c15.333 0 25.666 -2 30.999 -6s8 -13.667 8 -29v-325c0 -40.667 -10.5 -73.167 -31.5 -97.5
s-56.167 -36.5 -105.5 -36.5h-440c-52 0 -88.667 -11.167 -110 -33.5s-32 -55.5 -32 -99.5v-1038c0 -19.333 -3 -31.333 -9 -36s-18.667 -7 -38 -7h-155c-15.333 0 -27 2.66699 -35 8s-12 17 -12 35z" />
    <glyph glyph-name="uni0491" unicode="&#x491;" horiz-adv-x="997" 
d="M133 41l0.00292969 701.999c0 44 5.16699 85.833 15.5 125.5s28.166 74.834 53.499 105.501s59.166 55.167 101.499 73.5s96.166 27.5 161.499 27.5l301 2v232c0 13.333 2.66699 22 8 26s14.333 6 27 6h139c13.333 0 22.833 -2 28.5 -6s8.5 -12.667 8.5 -26v-308
c0 -39.333 -9.83301 -69.833 -29.5 -91.5s-53.5 -32.5 -101.5 -32.5h-344c-48 0 -81.833 -10 -101.5 -30s-29.5 -51.667 -29.5 -95v-711c0 -18 -2.83301 -29.333 -8.5 -34s-17.834 -7 -36.501 -7h-148c-15.333 0 -26.666 2.66699 -33.999 8s-11 16.333 -11 33z" />
    <glyph glyph-name="uni04D9" unicode="&#x4d9;" horiz-adv-x="1130" 
d="M92 432c0 35.333 4.16992 64.6709 12.5029 88.0039s19.666 41.833 33.999 55.5s31.666 23.167 51.999 28.5s42.166 8 65.499 8h543c-1.33301 53.333 -9.5 98.166 -24.5 134.499s-35.5 65.666 -61.5 87.999s-56.167 38.333 -90.5 48s-70.5 14.5 -108.5 14.5
c-44 0 -87 -5.5 -129 -16.5s-79 -23.833 -111 -38.5c-13.333 -5.33301 -23 -7.33301 -29 -6s-12 7.33301 -18 18l-53 117c-9.33301 22 -5.33301 37.667 12 47c52 31.333 109.167 53.166 171.5 65.499s121.5 18.5 177.5 18.5c164 0 289.833 -44.333 377.5 -133
s131.5 -229.334 131.5 -422.001c0 -90 -12.167 -170.167 -36.5 -240.5s-58 -129.833 -101 -178.5s-95 -85.5 -156 -110.5s-126.833 -37.5 -197.5 -37.5c-155.333 0 -271 40.5 -347 121.5s-114 191.167 -114 330.5zM319.003 440.005c0 -36.667 3.50195 -70.667 10.502 -102
s19.333 -59 37 -83s41.167 -42.833 70.5 -56.5s66.666 -20.5 111.999 -20.5c36.667 0 69.334 7.16699 98.001 21.5s53.667 33.833 75 58.5s37.666 52.667 48.999 84s18.666 64 21.999 98h-474z" />
    <glyph glyph-name="uni2000" unicode="&#x2000;" horiz-adv-x="946" 
 />
    <glyph glyph-name="uni2001" unicode="&#x2001;" horiz-adv-x="1893" 
 />
    <glyph glyph-name="uni2002" unicode="&#x2002;" horiz-adv-x="946" 
 />
    <glyph glyph-name="uni2003" unicode="&#x2003;" horiz-adv-x="1893" 
 />
    <glyph glyph-name="uni2004" unicode="&#x2004;" horiz-adv-x="631" 
 />
    <glyph glyph-name="uni2005" unicode="&#x2005;" horiz-adv-x="473" 
 />
    <glyph glyph-name="uni2006" unicode="&#x2006;" horiz-adv-x="315" 
 />
    <glyph glyph-name="uni2007" unicode="&#x2007;" horiz-adv-x="315" 
 />
    <glyph glyph-name="uni2008" unicode="&#x2008;" horiz-adv-x="236" 
 />
    <glyph glyph-name="uni2009" unicode="&#x2009;" horiz-adv-x="378" 
 />
    <glyph glyph-name="uni200A" unicode="&#x200a;" horiz-adv-x="105" 
 />
    <glyph glyph-name="uni2010" unicode="&#x2010;" horiz-adv-x="768" 
d="M102 512v168.002c0 15.333 2.16699 25.666 6.5 30.999s13.833 8 28.5 8h494c15.333 0 25 -2.83301 29 -8.5s6 -15.834 6 -30.501v-168c0 -13.333 -2.16699 -23.166 -6.5 -29.499s-13.833 -9.5 -28.5 -9.5h-494c-15.333 0 -25 3.16699 -29 9.5s-6 16.166 -6 29.499z" />
    <glyph glyph-name="uni2011" unicode="&#x2011;" horiz-adv-x="768" 
d="M102 512v168.002c0 15.333 2.16699 25.666 6.5 30.999s13.833 8 28.5 8h494c15.333 0 25 -2.83301 29 -8.5s6 -15.834 6 -30.501v-168c0 -13.333 -2.16699 -23.166 -6.5 -29.499s-13.833 -9.5 -28.5 -9.5h-494c-15.333 0 -25 3.16699 -29 9.5s-6 16.166 -6 29.499z" />
    <glyph glyph-name="figuredash" unicode="&#x2012;" horiz-adv-x="768" 
d="M102 512v168.002c0 15.333 2.16699 25.666 6.5 30.999s13.833 8 28.5 8h494c15.333 0 25 -2.83301 29 -8.5s6 -15.834 6 -30.501v-168c0 -13.333 -2.16699 -23.166 -6.5 -29.499s-13.833 -9.5 -28.5 -9.5h-494c-15.333 0 -25 3.16699 -29 9.5s-6 16.166 -6 29.499z" />
    <glyph glyph-name="endash" unicode="&#x2013;" horiz-adv-x="1024" 
d="M45 553v117c0 13.333 2.33301 23.166 7 29.499s14.667 9.5 30 9.5h860c15.333 0 25 -3.16699 29 -9.5s6 -16.166 6 -29.499v-117c0 -15.333 -2 -25.666 -6 -30.999s-13.667 -8 -29 -8h-860c-15.333 0 -25.333 2.66699 -30 8s-7 15.666 -7 30.999z" />
    <glyph glyph-name="emdash" unicode="&#x2014;" horiz-adv-x="2048" 
d="M41 553v117c0 13.333 2.33301 23.166 7 29.499s14.667 9.5 30 9.5h1892c15.333 0 25.333 -3.16699 30 -9.5s7 -16.166 7 -29.499v-117c0 -15.333 -2.33301 -25.666 -7 -30.999s-14.667 -8 -30 -8h-1892c-15.333 0 -25.333 2.66699 -30 8s-7 15.666 -7 30.999z" />
    <glyph glyph-name="uni2015" unicode="&#x2015;" horiz-adv-x="2048" 
d="M41 553v117c0 13.333 2.33301 23.166 7 29.499s14.667 9.5 30 9.5h1892c15.333 0 25.333 -3.16699 30 -9.5s7 -16.166 7 -29.499v-117c0 -15.333 -2.33301 -25.666 -7 -30.999s-14.667 -8 -30 -8h-1892c-15.333 0 -25.333 2.66699 -30 8s-7 15.666 -7 30.999z" />
    <glyph glyph-name="quoteleft" unicode="&#x2018;" horiz-adv-x="647" 
d="M121 944l149 490.001c4 15.333 8.5 25.666 13.5 30.999s14.833 8 29.5 8h86c28.667 0 43 -11.667 43 -35l-30 -494c-1.33301 -10.667 -4.83301 -20.167 -10.5 -28.5s-15.834 -12.5 -30.501 -12.5h-211c-19.333 0 -31.666 4.16699 -36.999 12.5s-6 17.833 -2 28.5z" />
    <glyph glyph-name="quoteright" unicode="&#x2019;" horiz-adv-x="647" 
d="M168 936l31.001 495.999c1.33301 10.667 4.33301 20.167 9 28.5s14.667 12.5 30 12.5h213c18 0 29.667 -4.5 35 -13.5s6.33301 -18.167 3 -27.5l-149 -490c-4 -15.333 -8.83301 -25.666 -14.5 -30.999s-15.834 -8 -30.501 -8h-84c-30 0 -44.333 11 -43 33z" />
    <glyph glyph-name="quotesinglbase" unicode="&#x201a;" horiz-adv-x="538" 
d="M125 -227l29.002 502.999c1.33301 10.667 4.66602 20.167 9.99902 28.5s15.666 12.5 30.999 12.5h213c18 0 29.667 -4.33301 35 -13s6.33301 -18 3 -28l-149 -499c-4 -15.333 -8.5 -25.666 -13.5 -30.999s-14.833 -8 -29.5 -8h-86c-30 0 -44.333 11.667 -43 35z" />
    <glyph glyph-name="quotedblleft" unicode="&#x201c;" horiz-adv-x="970" 
d="M121 944l149 490.001c4 15.333 8.5 25.666 13.5 30.999s14.833 8 29.5 8h86c28.667 0 43 -11.667 43 -35l-30 -494c-1.33301 -10.667 -4.83301 -20.167 -10.5 -28.5s-15.834 -12.5 -30.501 -12.5h-211c-19.333 0 -31.666 4.16699 -36.999 12.5s-6 17.833 -2 28.5z
M528 944.001l150.001 490.001c4 15.333 8.66699 25.666 14 30.999s15.666 8 30.999 8h84c31.333 0 45.666 -11.667 42.999 -35l-31 -494c-1.33301 -10.667 -4.33301 -20.167 -9 -28.5s-14.667 -12.5 -30 -12.5h-213c-18 0 -29.667 4.16699 -35 12.5
s-6.66602 17.833 -3.99902 28.5z" />
    <glyph glyph-name="quotedblright" unicode="&#x201d;" horiz-adv-x="970" 
d="M121 936l31.001 495.999c1.33301 10.667 4.33301 20.167 9 28.5s14.334 12.5 29.001 12.5h213c18 0 29.667 -4.5 35 -13.5s6.66602 -18.167 3.99902 -27.5l-149 -490c-4 -15.333 -8.83301 -25.666 -14.5 -30.999s-15.834 -8 -30.501 -8h-84c-30 0 -44.333 11 -43 33z
M528.001 935.999l31 495.999c0 10.667 3.16699 20.167 9.5 28.5s16.833 12.5 31.5 12.5h211c19.333 0 31.333 -4.5 36 -13.5s5.66699 -18.167 3 -27.5l-150 -490c-4 -15.333 -8.33301 -25.666 -13 -30.999s-14.667 -8 -30 -8h-86c-30 0 -44.333 11 -43 33z" />
    <glyph glyph-name="quotedblbase" unicode="&#x201e;" horiz-adv-x="927" 
d="M125 -229l29.002 505c1.33301 10.667 4.66602 20.167 9.99902 28.5s15.666 12.5 30.999 12.5h213c18 0 29.667 -4 35 -12s6.33301 -17.667 3 -29l-149 -501c-4 -15.333 -8.5 -25.333 -13.5 -30s-14.833 -7 -29.5 -7h-86c-30 0 -44.333 11 -43 33zM504.002 -229
l27.998 505c1.33301 10.667 4.83301 20.167 10.5 28.5s15.834 12.5 30.501 12.5h211c19.333 0 31.333 -4 36 -12s5.66699 -17.667 3 -29l-147 -501c-5.33301 -15.333 -10.166 -25.333 -14.499 -30s-13.833 -7 -28.5 -7h-86c-30 0 -44.333 11 -43 33z" />
    <glyph glyph-name="dagger" unicode="&#x2020;" horiz-adv-x="1167" 
d="M106 825v132.999c0 13.333 2.16699 23.166 6.5 29.499s13.833 9.5 28.5 9.5h334v406c0 15.333 3.16699 25 9.5 29s16.166 6 29.499 6h160c15.333 0 25.333 -2.16699 30 -6.5s7 -13.833 7 -28.5v-406h336c15.333 0 24.833 -3 28.5 -9s5.5 -16 5.5 -30v-133
c0 -15.333 -2 -25.666 -6 -30.999s-13.333 -8 -28 -8h-336v-968c0 -15.333 -2.5 -24.666 -7.5 -27.999s-14.833 -5 -29.5 -5h-160c-13.333 0 -23.166 1.66699 -29.499 5s-9.5 12.666 -9.5 27.999v968h-334c-15.333 0 -25 2.83301 -29 8.5s-6 15.834 -6 30.501z" />
    <glyph glyph-name="daggerdbl" unicode="&#x2021;" horiz-adv-x="1167" 
d="M106 412v133.001c0 13.333 2.16699 23.166 6.5 29.499s13.833 9.5 28.5 9.5h334v243h-334c-15.333 0 -25 2.5 -29 7.5s-6 14.833 -6 29.5v133c0 13.333 2.16699 23.166 6.5 29.499s13.833 9.5 28.5 9.5h334v367c0 15.333 3.16699 25 9.5 29s16.166 6 29.499 6h160
c15.333 0 25.333 -2.16699 30 -6.5s7 -13.833 7 -28.5v-367h338c15.333 0 24.5 -3 27.5 -9s4.5 -16 4.5 -30v-133c0 -15.333 -1.66699 -25.333 -5 -30s-12.333 -7 -27 -7h-338v-243h338c15.333 0 24.5 -3.16699 27.5 -9.5s4.5 -16.166 4.5 -29.499v-133
c0 -15.333 -1.66699 -25.333 -5 -30s-12.333 -7 -27 -7h-338v-557c0 -15.333 -2.5 -24.666 -7.5 -27.999s-14.833 -5 -29.5 -5h-160c-13.333 0 -23.166 1.66699 -29.499 5s-9.5 12.666 -9.5 27.999v557h-334c-15.333 0 -25 2.33301 -29 7s-6 14.667 -6 30z" />
    <glyph glyph-name="bullet" unicode="&#x2022;" horiz-adv-x="880" 
d="M168 623c0 38 7.16895 74.001 21.502 108.001s34.166 64 59.499 90s54.666 46.167 87.999 60.5s69.666 21.5 108.999 21.5s76.166 -7.16699 110.499 -21.5s64.166 -34.5 89.499 -60.5s45.166 -56 59.499 -90s21.5 -70 21.5 -108c0 -39.333 -7.16699 -75.833 -21.5 -109.5
s-34.166 -63.167 -59.499 -88.5s-55 -45.166 -89 -59.499s-71 -21.5 -111 -21.5c-39.333 0 -75.666 7.16699 -108.999 21.5s-62.666 34.166 -87.999 59.499s-45.166 54.666 -59.499 87.999s-21.5 70 -21.5 110z" />
    <glyph glyph-name="uni2023" unicode="&#x2023;" horiz-adv-x="976" 
d="M158 139v795l760 -387z" />
    <glyph glyph-name="ellipsis" unicode="&#x2026;" horiz-adv-x="1652" 
d="M115 145c0 48 16.6689 88.667 50.002 122s74 50 122 50c49.333 0 90.666 -16.333 123.999 -49s50 -73.667 50 -123c0 -48 -16.833 -88.333 -50.5 -121s-74.834 -49 -123.501 -49c-48 0 -88.667 16.5 -122 49.5s-50 73.167 -50 120.5zM655.002 145
c0 24.667 4.49805 47.3311 13.498 67.998s21.333 38.834 37 54.501s34.167 27.834 55.5 36.501s43.333 13 66 13c50.667 0 92.334 -16.333 125.001 -49s49 -73.667 49 -123c0 -48 -16.667 -88.333 -50 -121s-74.666 -49 -123.999 -49c-23.333 0 -45.5 4.5 -66.5 13.5
s-39.333 21 -55 36s-28 32.833 -37 53.5s-13.5 43 -13.5 67zM1192 144.997c0 48 16.667 88.667 50 122s74.666 50 123.999 50s90.333 -16.333 123 -49s49 -73.667 49 -123c0 -48 -16.333 -88.333 -49 -121s-73.667 -49 -123 -49s-90.666 16.5 -123.999 49.5
s-50 73.167 -50 120.5z" />
    <glyph glyph-name="uni202F" unicode="&#x202f;" horiz-adv-x="378" 
 />
    <glyph glyph-name="perthousand" unicode="&#x2030;" horiz-adv-x="2756" 
d="M90 961c0 64 7.83301 122.669 23.5 176.002s38.834 98.666 69.501 135.999s69.667 66.333 117 87s103 31 167 31c65.333 0 121.666 -10.333 168.999 -31s86 -49.334 116 -86.001s52.167 -81.334 66.5 -134.001s21.5 -111.667 21.5 -177c0 -64 -7.5 -122 -22.5 -174
s-38 -97.167 -69 -135.5s-70.333 -67.666 -118 -87.999s-103.5 -30.5 -167.5 -30.5c-125.333 0 -218.833 38.5 -280.5 115.5s-92.5 180.5 -92.5 310.5zM287 963.002c0 -35.333 2.66797 -69.4971 8.00098 -102.497s15.166 -62.167 29.499 -87.5s32.833 -45.5 55.5 -60.5
s51.667 -22.5 87 -22.5c34 0 62.333 7.5 85 22.5s40.834 35.167 54.501 60.5s23.5 54.166 29.5 86.499s9 66.166 9 101.499s-3 69.333 -9 102s-15.833 61.667 -29.5 87s-32.5 45.5 -56.5 60.5s-53 22.5 -87 22.5s-62.333 -7.5 -85 -22.5s-40.834 -34.833 -54.501 -59.5
s-23.167 -53.334 -28.5 -86.001s-8 -66.667 -8 -102zM457.001 -43.9951c-4 6 -2.66992 14.667 3.99707 26l842 1417c6.66699 12 12.334 20.5 17.001 25.5s14 7.5 28 7.5h96c8 0 14.833 -2.83301 20.5 -8.5s4.83398 -15.167 -2.49902 -28.5l-839 -1413
c-6.66699 -12 -14.167 -20.833 -22.5 -26.5s-20.166 -8.5 -35.499 -8.5h-84c-12 0 -20 3 -24 9zM1087 414.005c0 64 8.00098 122.669 24.001 176.002s39.333 98.666 70 135.999s69.5 66.333 116.5 87s102.5 31 166.5 31c65.333 0 121.666 -10.333 168.999 -31
s86 -49.334 116 -86.001s52.167 -81.334 66.5 -134.001s21.5 -111.667 21.5 -177c0 -64 -7.5 -122 -22.5 -174s-37.833 -97.167 -68.5 -135.5s-70 -67.666 -118 -87.999s-104 -30.5 -168 -30.5c-125.333 0 -218.833 38.5 -280.5 115.5s-92.5 180.5 -92.5 310.5z
M1284 416.007c0 -35.333 2.66797 -69.4971 8.00098 -102.497s15.166 -62.167 29.499 -87.5s32.833 -45.5 55.5 -60.5s51.667 -22.5 87 -22.5c34 0 62.333 7.5 85 22.5s40.834 35.167 54.501 60.5s23.5 54.166 29.5 86.499s9 66.166 9 101.499s-3 69.333 -9 102
s-15.833 61.667 -29.5 87s-32.5 45.5 -56.5 60.5s-53 22.5 -87 22.5s-62.333 -7.5 -85 -22.5s-40.834 -34.833 -54.501 -59.5s-23.167 -53.334 -28.5 -86.001s-8 -66.667 -8 -102zM1917 414.01c0 64 7.83105 122.669 23.498 176.002s38.834 98.666 69.501 135.999
s69.667 66.333 117.001 87c47.333 20.667 103 31 167 31c65.333 0 121.5 -10.333 168.5 -31s85.5 -49.334 115.5 -86.001s52.167 -81.334 66.5 -134.001s21.5 -111.667 21.5 -177c0 -64 -7.5 -122 -22.5 -174s-37.833 -97.167 -68.5 -135.5s-69.834 -67.666 -117.5 -87.999
c-47.667 -20.333 -103.5 -30.5 -167.5 -30.5c-125.333 0 -218.833 38.5 -280.5 115.5s-92.5 180.5 -92.5 310.5zM2114 416.012c0 -35.333 2.66699 -69.4971 8 -102.497s15.166 -62.167 29.5 -87.5c14.333 -25.333 32.833 -45.5 55.5 -60.5s51.667 -22.5 87 -22.5
c34 0 62.333 7.5 85 22.5s40.834 35.167 54.5 60.5c13.667 25.333 23.5 54.166 29.5 86.499s9 66.166 9 101.499s-3 69.333 -9 102s-15.833 61.667 -29.5 87s-32.5 45.5 -56.5 60.5s-53 22.5 -87 22.5s-62.333 -7.5 -85 -22.5s-40.834 -34.833 -54.5 -59.5
c-13.667 -24.667 -23.167 -53.334 -28.5 -86.001s-8 -66.667 -8 -102z" />
    <glyph glyph-name="guilsinglleft" unicode="&#x2039;" horiz-adv-x="704" 
d="M121 508c0 18 3.99902 34.834 11.999 50.501s15.667 29.5 23 41.5l186 309c9.33301 15.333 18.833 26.666 28.5 33.999s27.5 11 53.5 11h143c13.333 0 22.5 -4.33301 27.5 -13s4.16699 -19.334 -2.5 -32.001l-240 -405l250 -402c8 -15.333 9.33301 -26.666 4 -33.999
s-15.666 -11 -30.999 -11h-145c-26 0 -44.167 3.83301 -54.5 11.5s-18.833 18.167 -25.5 31.5l-198 322c-6.66699 12 -13.5 26.333 -20.5 43s-10.5 31 -10.5 43z" />
    <glyph glyph-name="guilsinglright" unicode="&#x203a;" horiz-adv-x="704" 
d="M94 68.5c-5.33301 7.66699 -3.99902 18.832 4.00098 33.499l250 402l-239 405c-6.66699 12 -7.66699 22.5 -3 31.5s13.667 13.5 27 13.5h143c24.667 0 42.167 -3.66699 52.5 -11s20.166 -18.666 29.499 -33.999l187 -309l22.5 -41.5
c8.33301 -15.667 12.5 -32.5 12.5 -50.5c0 -12 -3.83301 -26.333 -11.5 -43s-14.834 -31 -21.501 -43l-197 -322c-6.66699 -13.333 -15.5 -23.833 -26.5 -31.5s-28.833 -11.5 -53.5 -11.5h-145c-15.333 0 -25.666 3.83301 -30.999 11.5z" />
    <glyph glyph-name="fraction" unicode="&#x2044;" horiz-adv-x="397" 
d="M-317.5 -44c-4.33301 6 -2.83203 14.667 4.50098 26l841 1417c6.66699 12 12.5 20.5 17.5 25.5s14.167 7.5 27.5 7.5h97c8 0 14.667 -2.83301 20 -8.5s4.66602 -15.167 -2.00098 -28.5l-840 -1413c-6.66699 -12 -14 -20.833 -22 -26.5s-19.667 -8.5 -35 -8.5h-84
c-12 0 -20.167 3 -24.5 9z" />
    <glyph glyph-name="uni205F" unicode="&#x205f;" horiz-adv-x="473" 
 />
    <glyph glyph-name="Euro" unicode="&#x20ac;" 
d="M76 532l-0.000976562 72c0 12 1.66699 21.167 5 27.5s12.666 9.5 27.999 9.5h849c15.333 0 24.333 -3 27 -9s4 -15.333 4 -28v-72c0 -13.333 -1.33301 -22.666 -4 -27.999s-11.667 -8 -27 -8h-505c13.333 -96.667 48.666 -170.667 105.999 -222s142 -77 254 -77
c52 0 101.833 6.83301 149.5 20.5s93.5 29.167 137.5 46.5c16.667 6.66699 28.334 8 35.001 4s12 -10.667 16 -20l53 -119c8 -16.667 10.333 -28.667 7 -36s-9.66602 -14.333 -18.999 -21c-61.333 -38 -128.5 -63.333 -201.5 -76s-143.833 -19 -212.5 -19
c-165.333 0 -297 42 -395 126s-157.333 215 -178 393h-96c-15.333 0 -24.666 2.66699 -27.999 8s-5 14.666 -5 27.999zM75.999 782l0.00195312 71.999c0 12 1.66699 21.167 5 27.5s12.666 9.5 27.999 9.5h104c12 78 35.167 148.333 69.5 211s77 115.834 128 159.501
s109 77.5 174 101.5s134.5 36 208.5 36c57.333 0 115.666 -5.5 174.999 -16.5s119.666 -32.167 180.999 -63.5c10.667 -5.33301 17.5 -12.166 20.5 -20.499s0.833008 -19.833 -6.5 -34.5l-53 -123c-5.33301 -10.667 -10.833 -17.5 -16.5 -20.5s-15.834 -1.83301 -30.501 3.5
c-40.667 16.667 -82.667 29.5 -126 38.5s-88 13.5 -134 13.5c-90 0 -163.667 -26.333 -221 -79s-95.666 -121.334 -114.999 -206.001h491c15.333 0 24.333 -3.16699 27 -9.5s4 -15.5 4 -27.5v-72c0 -13.333 -1.33301 -22.833 -4 -28.5s-11.667 -8.5 -27 -8.5h-849
c-15.333 0 -24.666 2.83301 -27.999 8.5s-5 15.167 -5 28.5z" />
    <glyph glyph-name="trademark" unicode="&#x2122;" horiz-adv-x="1714" 
d="M63 1329v79.999c0 18 9 27 27 27h594c10.667 0 17.5 -2.16699 20.5 -6.5s4.5 -11.166 4.5 -20.499v-80c0 -18 -8.33301 -26.667 -25 -26h-221v-650c0 -18 -9.66699 -26.667 -29 -26h-104c-19.333 0 -29 8.66699 -29 26v650h-211c-18 0 -27 8.66699 -27 26zM778 650.999
l-0.000976562 713.001c0 22 5.5 39.5 16.5 52.5s30.167 19.5 57.5 19.5h55c23.333 0 41.833 -4.16699 55.5 -12.5s25.167 -24.166 34.5 -47.499l123 -317c6.66699 -20.667 16.5 -47.334 29.5 -80.001l32.5 -80l6 2c4 9.33301 8.66699 21.666 14 36.999
s11.166 30.833 17.499 46.5l18.5 45c6 14.333 10.333 25.5 13 33.5l121 313c9.33301 22 20.833 37.5 34.5 46.5s32.834 13.5 57.501 13.5h56c48 0 71.667 -24 71 -72v-713c0 -10.667 -2.33301 -17 -7 -19s-11.667 -3 -21 -3h-101c-10.667 0 -17.667 1 -21 3
s-5 8.33301 -5 19v523h-6l-46 -132l-102 -262c-8 -20.667 -16.5 -34.667 -25.5 -42s-23.833 -11 -44.5 -11h-55c-20.667 0 -35 3.83301 -43 11.5s-16 21.5 -24 41.5l-99 248l-51 148h-6v-525c0 -10.667 -2 -17 -6 -19s-11 -3 -21 -3h-102c-9.33301 0 -16.166 1 -20.499 3
s-6.5 8.33301 -6.5 19z" />
    <glyph glyph-name="partialdiff" unicode="&#x2202;" horiz-adv-x="1171" 
d="M119 455c0 76.667 11.502 145.67 34.502 207.003s54.667 113.166 95 155.499s87.5 74.666 141.5 96.999s111.667 33.5 173 33.5c35.333 0 76.666 -5.83301 123.999 -17.5s89.333 -33.167 126 -64.5c-10.667 143.333 -51.167 249.166 -121.5 317.499
s-172.5 106.5 -306.5 114.5c-10.667 1.33301 -18.167 3.16602 -22.5 5.49902s-7.16602 8.16602 -8.49902 17.499l8 125c0 8 2.5 15.167 7.5 21.5s12.167 9.5 21.5 9.5c108 0 203 -14.333 285 -43s151 -74.167 207 -136.5s98.333 -142.333 127 -240s43 -215.167 43 -352.5
c0 -124 -12 -231.833 -36 -323.5s-57.5 -167.667 -100.5 -228s-94.833 -105.166 -155.5 -134.499s-128.667 -44 -204 -44c-56 0 -110.333 8.33301 -163 25s-99.334 43.667 -140.001 81s-73.334 86.833 -98.001 148.5s-37 136.834 -37 225.501zM352.002 444.003
c0 -52 5.83398 -95.998 17.501 -131.998s27.334 -64.833 47.001 -86.5s41.834 -37.334 66.501 -47.001s50 -14.5 76 -14.5c39.333 0 75.166 8.5 107.499 25.5s59.666 45.333 81.999 85s39.666 91.167 51.999 154.5s18.5 141.666 18.5 234.999
c-50.667 40.667 -97.5 66.167 -140.5 76.5s-80.167 15.5 -111.5 15.5c-34 0 -64.333 -9.33301 -91 -28s-49.167 -42.667 -67.5 -72s-32.333 -62.5 -42 -99.5s-14.5 -74.5 -14.5 -112.5z" />
    <glyph glyph-name="Delta" unicode="&#x2206;" horiz-adv-x="1314" 
d="M37 92l0.00195312 23c0 27.333 4.66699 53.333 14 78c65.333 195.333 136 386.5 212 573.5s148 377.167 216 570.5c13.333 39.333 28.666 65.666 45.999 78.999s45 20 83 20h88c42 0 72.167 -6.66699 90.5 -20s34.166 -39.666 47.499 -78.999l207.5 -561l207.5 -561
c6.66699 -16.667 12.167 -32.5 16.5 -47.5s6.5 -31.167 6.5 -48.5v-27c0 -31.333 -8.5 -54.5 -25.5 -69.5s-39.167 -22.5 -66.5 -22.5h-1045c-38 -0 -63.833 7.83301 -77.5 23.5s-20.5 38.5 -20.5 68.5zM313.002 217l5.99902 -8h672l6 8l-117.5 326
c-40.333 108 -78.166 216.333 -113.499 325l-109 316h-8l-108 -322z" />
    <glyph glyph-name="product" unicode="&#x220f;" horiz-adv-x="1443" 
d="M154 -172l-0.00195312 1468c0 48 11.5 83.333 34.5 106s55.167 34 96.5 34h874c87.333 0 131 -46.667 131 -140v-1468c0 -15.333 -3 -25 -9 -29s-16.667 -6 -32 -6h-170c-13.333 0 -23.166 2 -29.499 6s-9.5 13.667 -9.5 29v1386h-634v-1386
c0 -15.333 -3.16699 -25 -9.5 -29s-16.833 -6 -31.5 -6h-172c-13.333 0 -23.166 2 -29.499 6s-9.5 13.667 -9.5 29z" />
    <glyph glyph-name="summation" unicode="&#x2211;" horiz-adv-x="1208" 
d="M61 -76c0 30 7.50098 57.665 22.501 82.998s30.167 49.666 45.5 72.999l379 561l-361 485c-19.333 27.333 -34 50 -44 68s-15 40.667 -15 68v61c0 44 10.667 73.833 32 89.5s49.666 23.5 84.999 23.5h876c15.333 0 25 -2.83301 29 -8.5s6 -15.834 6 -30.501v-142
c0 -13.333 -2 -22.666 -6 -27.999s-13.667 -8 -29 -8h-698l-4 -13l338 -442l45 -63.5c12 -17.667 18 -36.167 18 -55.5c1.33301 -16.667 -3 -34.167 -13 -52.5s-24.667 -41.166 -44 -68.499l-338 -501l4 -11h739c15.333 0 25 -2.66699 29 -8s6 -15.666 6 -30.999v-143
c0 -15.333 -2 -25.666 -6 -30.999s-13.667 -8 -29 -8h-970c-28.667 0 -52 6.5 -70 19.5s-27 37.167 -27 72.5v41z" />
    </font>
</defs>
</svg>
