<?xml version="1.0" standalone="no"?>
<!DOCTYPE svg PUBLIC "-//W3C//DTD SVG 1.1//EN" "http://www.w3.org/Graphics/SVG/1.1/DTD/svg11.dtd" >
<svg>
<metadata>
Created by FontForge 20090914 at Thu Jan 12 13:02:30 2017
 By www-data
Copyright (c) Mark Simonson, 2005. All rights reserved.
</metadata>
<defs>
<font id="ProximaNova-Regular" horiz-adv-x="471" >
  <font-face 
    font-family="Proxima Nova Rg"
    font-weight="400"
    font-stretch="normal"
    units-per-em="2048"
    panose-1="2 0 5 6 3 0 0 2 0 4"
    ascent="1618"
    descent="-430"
    x-height="989"
    cap-height="1366"
    bbox="-352 -408 2154 1776"
    underline-thickness="40"
    underline-position="-231"
    unicode-range="U+000D-U+FB02"
  />
<missing-glyph horiz-adv-x="748" 
d="M68 0v1365h544v-1365h-544zM136 68h408v1229h-408v-1229z" />
    <glyph glyph-name="uniFB01" unicode="fi" horiz-adv-x="1042" 
d="M33 854l-0.000976562 135.002h164v76c0 101.333 25.833 180.166 77.5 236.499s121.167 84.5 208.5 84.5c64.667 0 114.667 -11.333 150 -34l-39 -117c-27.333 16.667 -56.666 25 -87.999 25c-50 0 -88.5 -16.833 -115.5 -50.5s-40.5 -81.834 -40.5 -144.501v-76h201v-135
h-201v-854h-153v854h-164zM706.999 1233c0 28.667 10.167 53.167 30.5 73.5s44.166 30.5 71.499 30.5c28.667 0 53.167 -10.167 73.5 -30.5s30.5 -44.833 30.5 -73.5s-10.167 -53 -30.5 -73s-44.833 -30 -73.5 -30c-27.333 0 -51.166 10 -71.499 30s-30.5 44.333 -30.5 73z
M732.999 0.00195312v989h154v-989h-154z" />
    <glyph glyph-name="uniFB02" unicode="fl" horiz-adv-x="1042" 
d="M33 854l-0.000976562 135.002h164v76c0 101.333 25.833 180.166 77.5 236.499s121.167 84.5 208.5 84.5c64.667 0 114.667 -11.333 150 -34l-39 -117c-27.333 16.667 -56.666 25 -87.999 25c-50 0 -88.5 -16.833 -115.5 -50.5s-40.5 -81.834 -40.5 -144.501v-76h201v-135
h-201v-854h-153v854h-164zM732.999 0.00195312v1366h154v-1366h-154z" />
    <glyph glyph-name=".notdef" horiz-adv-x="748" 
d="M68 0v1365h544v-1365h-544zM136 68h408v1229h-408v-1229z" />
    <glyph glyph-name="glyph1" horiz-adv-x="0" 
 />
    <glyph glyph-name="glyph1" horiz-adv-x="0" 
 />
    <glyph glyph-name="uni000D" unicode="&#xd;" horiz-adv-x="0" 
 />
    <glyph glyph-name="space" unicode=" " horiz-adv-x="528" 
 />
    <glyph glyph-name="exclam" unicode="!" 
d="M123 92c0 30.667 11.167 57.167 33.5 79.5s48.833 33.5 79.5 33.5s57 -11.167 79 -33.5s33 -48.833 33 -79.5c0 -30 -11.167 -56.167 -33.5 -78.5s-48.5 -33.5 -78.5 -33.5c-30.667 0 -57.167 11.333 -79.5 34s-33.5 48.667 -33.5 78zM139 1366h193l-33 -983h-127z" />
    <glyph glyph-name="quotedbl" unicode="&#x22;" horiz-adv-x="702" 
d="M111 1292c0 25.333 9 47.335 27 66.002s39.667 28 65 28c26 0 48.167 -9.16699 66.5 -27.5s27.5 -40.5 27.5 -66.5c0 -8.66699 -4.5 -50.334 -13.5 -125.001s-18.167 -147 -27.5 -217l-14 -106h-76c-36.667 279.333 -55 428.666 -55 447.999zM408 1292
c0 26 9.16699 48.1689 27.5 66.502s40.5 27.5 66.5 27.5c25.333 0 47 -9.33301 65 -28s27 -40.667 27 -66c0 -8.66699 -4.66699 -50.334 -14 -125.001l-28 -217l-13 -106h-76c-36.667 279.333 -55 428.666 -55 447.999z" />
    <glyph glyph-name="numbersign" unicode="#" horiz-adv-x="1208" 
d="M45 371l35 108h219l135 408h-221l33 106h225l123 373h127l-123 -373h225l123 373h125l-125 -373h219l-30 -106h-224l-137 -408h227l-32 -108h-232l-123 -371h-125l125 371h-227l-123 -371h-127l125 371h-217zM424 479h225l135 408h-225z" />
    <glyph glyph-name="dollar" unicode="$" horiz-adv-x="1214" 
d="M86 193l100.001 129.001c44.667 -50 98.167 -92.5 160.5 -127.5s131.833 -56.833 208.5 -65.5v500c-36 10 -66 18.667 -90 26s-52.333 17.333 -85 30s-59.667 25.334 -81 38.001s-43.666 28.667 -66.999 48s-41.833 40 -55.5 62s-25 47.833 -34 77.5
s-13.5 62.167 -13.5 97.5c0 105.333 39.667 192.5 119 261.5s181.666 107.167 306.999 114.5v189h125v-191c164 -15.333 298.333 -77.333 403 -186l-102 -125c-81.333 87.333 -181.666 139.333 -300.999 156v-445c35.333 -10 65.666 -19 90.999 -27
s54.166 -18.667 86.499 -32s59.833 -27 82.5 -41s45.667 -31.333 69 -52s42.166 -42.834 56.499 -66.501s26 -51.334 35 -83.001s13.5 -66.167 13.5 -103.5c0 -48.667 -8 -94.667 -24 -138s-40.667 -83.833 -74 -121.5s-78.666 -69 -135.999 -94s-124 -40.5 -200 -46.5v-182
h-125v182c-196.667 11.333 -353 83.333 -469 216zM305.001 1018c0 -28 6.16602 -52.667 18.499 -74s30.833 -40 55.5 -56s50.334 -29.333 77.001 -40s59.667 -21.667 99 -33v418c-74 -5.33301 -134.167 -27.5 -180.5 -66.5s-69.5 -88.5 -69.5 -148.5zM680 129.001
c89.333 9.33301 154.667 36.5 196 81.5s62 95.5 62 151.5c0 32 -6.33301 60.5 -19 85.5s-31.667 46.5 -57 64.5s-52 33.167 -80 45.5s-62 24.5 -102 36.5v-465z" />
    <glyph glyph-name="percent" unicode="%" horiz-adv-x="1497" 
d="M63 1047c0 97.333 30.5 178.166 91.5 242.499s139.833 96.5 236.5 96.5c97.333 0 177 -32.167 239 -96.5s93 -145.166 93 -242.499c0 -96 -31 -175.667 -93 -239s-141.667 -95 -239 -95c-96.667 0 -175.5 31.667 -236.5 95s-91.5 143 -91.5 239zM186 1047
c0 -65.333 19.167 -120.333 57.5 -165s87.5 -67 147.5 -67c60.667 0 110.667 22.333 150 67s59 99.667 59 165c0 68 -19.5 124.167 -58.5 168.5s-89.167 66.5 -150.5 66.5c-60 0 -109.167 -22.167 -147.5 -66.5s-57.5 -100.5 -57.5 -168.5zM262 0l873 1366h112l-874 -1366
h-111zM776 309c0 97.333 30.5 178.333 91.5 243s139.833 97 236.5 97s175.834 -32.333 237.501 -97s92.5 -145.667 92.5 -243c0 -96 -30.833 -175.667 -92.5 -239s-140.834 -95 -237.501 -95s-175.5 31.667 -236.5 95s-91.5 143 -91.5 239zM897 309
c0 -65.333 19.333 -120.166 58 -164.499s88.334 -66.5 149.001 -66.5s110.667 22.167 150 66.5s59 99.166 59 164.499c0 68 -19.5 124.333 -58.5 169s-89.167 67 -150.5 67c-60.667 0 -110.334 -22.333 -149.001 -67s-58 -101 -58 -169z" />
    <glyph glyph-name="ampersand" unicode="&#x26;" horiz-adv-x="1312" 
d="M74 356c0 51.333 7.83203 98.1719 23.499 140.505s38.667 79.666 69 111.999s61.5 60.166 93.5 83.499s70.333 46.666 115 69.999c-70 119.333 -105 221.666 -105 306.999c0 90.667 33 166.167 99 226.5s147.667 90.5 245 90.5c91.333 0 165.833 -23.667 223.5 -71
s86.5 -113 86.5 -197c0 -28.667 -3.83301 -55.834 -11.5 -81.501s-16.5 -48.334 -26.5 -68.001s-25.167 -39.667 -45.5 -60s-38.333 -37 -54 -50s-38.167 -28.333 -67.5 -46s-52.333 -31 -69 -40l-75 -39.5c40 -55.333 92.667 -120 158 -194
c46.667 -56.667 100.667 -117.667 162 -183c58 86 107 190 147 312l134 -58c-65.333 -151.333 -127.666 -268.666 -186.999 -351.999c68 -71.333 156.667 -157.333 266 -258h-213c-41.333 35.333 -91 83 -149 143c-112 -112 -243 -168 -393 -168c-124 0 -226 33 -306 99
s-120 160 -120 282zM239.999 367.006c0 -81.333 26.832 -145.834 80.499 -193.501s118.167 -71.5 193.5 -71.5c100.667 0 196.334 45.333 287.001 136c-94 99.333 -157 168 -189 206c-66.667 76.667 -124 149.334 -172 218.001c-64 -39.333 -113.333 -82 -148 -128
s-52 -101.667 -52 -167zM429.998 1067c0 -64 27.333 -142.669 82 -236.002c33.333 16.667 61.5 31.334 84.5 44.001s47.167 28.167 72.5 46.5s45.5 36.333 60.5 54s27.5 38.334 37.5 62.001s15 48.5 15 74.5c0 48.667 -15 86.5 -45 113.5s-68.667 40.5 -116 40.5
c-52.667 0 -97.667 -18.833 -135 -56.5s-56 -85.167 -56 -142.5z" />
    <glyph glyph-name="quotesingle" unicode="'" horiz-adv-x="407" 
d="M111 1292c0 25.333 9 47.335 27 66.002s39.667 28 65 28c26 0 48.167 -9.16699 66.5 -27.5s27.5 -40.5 27.5 -66.5c0 -8.66699 -4.5 -50.334 -13.5 -125.001s-18.167 -147 -27.5 -217l-14 -106h-76c-36.667 279.333 -55 428.666 -55 447.999z" />
    <glyph glyph-name="parenleft" unicode="(" horiz-adv-x="507" 
d="M90 498c0 164 25 323.834 75 479.501s121.333 297.5 214 425.5l92 -70c-72 -142.667 -125.5 -277.334 -160.5 -404.001s-52.5 -270.334 -52.5 -431.001c0 -160 17.5 -303.667 52.5 -431s88.5 -261.666 160.5 -402.999l-92 -72c-92.667 126.667 -164 268.167 -214 424.5
s-75 316.833 -75 481.5z" />
    <glyph glyph-name="parenright" unicode=")" horiz-adv-x="507" 
d="M35 -336c72.667 140.667 126.667 274.834 162 402.501s53 271.5 53 431.5c0 160.667 -17.667 304.5 -53 431.5s-89.333 261.5 -162 403.5l92 70c93.333 -127.333 165.166 -269 215.499 -425s75.5 -316 75.5 -480c0 -164.667 -25.167 -325.334 -75.5 -482.001
s-122.166 -298 -215.499 -424z" />
    <glyph glyph-name="asterisk" unicode="*" horiz-adv-x="696" 
d="M70 985l209 107l-209 106l45 80l196 -127l-10 235h94l-12 -235l197 127l47 -80l-209 -106l209 -107l-47 -82l-197 129l12 -235h-94l10 235l-196 -129z" />
    <glyph glyph-name="plus" unicode="+" horiz-adv-x="1021" 
d="M59 637v106h394v424h116v-424h394v-106h-394v-436h-116v436h-394z" />
    <glyph glyph-name="comma" unicode="," 
d="M117 -197c34 22 63.668 50.998 89.001 86.998s40 70.667 44 104c-5.33301 -2.66699 -15 -4 -29 -4c-28.667 0 -52.167 9.66699 -70.5 29s-27.5 44.333 -27.5 75c0 30 10.5 56 31.5 78s46.5 33 76.5 33c35.333 0 65.666 -14.167 90.999 -42.5s38 -66.166 38 -113.499
c0 -60 -15.5 -117.667 -46.5 -173s-71.167 -100.666 -120.5 -135.999z" />
    <glyph glyph-name="hyphen" unicode="-" horiz-adv-x="614" 
d="M61 428v135h492v-135h-492z" />
    <glyph glyph-name="period" unicode="." 
d="M123 92c0 30.667 11.167 57.167 33.5 79.5s48.833 33.5 79.5 33.5s57 -11.167 79 -33.5s33 -48.833 33 -79.5s-11 -57 -33 -79s-48.333 -33 -79 -33s-57.167 11 -79.5 33s-33.5 48.333 -33.5 79z" />
    <glyph glyph-name="slash" unicode="/" horiz-adv-x="606" 
d="M0 -41l485 1448h121l-485 -1448h-121z" />
    <glyph glyph-name="zero" unicode="0" horiz-adv-x="1253" 
d="M104 682c0 69.333 6 136.671 18 202.004s31.5 128.666 58.5 189.999s60.333 114.833 100 160.5s89.167 82.334 148.5 110.001s125.333 41.5 198 41.5c72 0 137.667 -13.833 197 -41.5s108.833 -64.334 148.5 -110.001s73 -99.167 100 -160.5s46.5 -124.833 58.5 -190.5
s18 -132.834 18 -201.501s-6 -135.834 -18 -201.501s-31.5 -129.334 -58.5 -191.001s-60.333 -115.5 -100 -161.5s-89.167 -83 -148.5 -111s-125 -42 -197 -42c-72.667 0 -138.667 14 -198 42s-108.833 65 -148.5 111s-73 100 -100 162s-46.5 125.667 -58.5 191
s-18 132.333 -18 201zM279 682.005c0 -72 6.16504 -139.5 18.498 -202.5s31.5 -121.667 57.5 -176s62.333 -97.333 109 -129s101 -47.5 163 -47.5s116.333 15.833 163 47.5s83 74.667 109 129s45.167 113 57.5 176s18.5 130.5 18.5 202.5c0 56.667 -3.66699 110.667 -11 162
s-19.666 101.166 -36.999 149.499s-39 90.166 -65 125.499s-59.167 63.5 -99.5 84.5s-85.5 31.5 -135.5 31.5s-95.167 -10.5 -135.5 -31.5s-73.5 -49.167 -99.5 -84.5s-47.667 -77.166 -65 -125.499s-29.666 -98.166 -36.999 -149.499s-11 -105.333 -11 -162z" />
    <glyph glyph-name="one" unicode="1" horiz-adv-x="694" 
d="M43 1014l342 352h150v-1366h-170v1141l-220 -232z" />
    <glyph glyph-name="two" unicode="2" horiz-adv-x="1204" 
d="M109 1171c51.333 68 119 120.835 203 158.502s174.667 56.5 272 56.5c58 0 113.833 -8.33301 167.5 -25s102.334 -41 146.001 -73s78.667 -74.167 105 -126.5s39.5 -111.166 39.5 -176.499c0 -54.667 -11.333 -110.167 -34 -166.5s-52 -109.5 -88 -159.5
s-84.333 -105.167 -145 -165.5s-120.334 -115.333 -179.001 -165l-217 -176.5h670v-152h-938v135l174.5 138.5l150.5 123.5c52.667 44 96.5 82.333 131.5 115l106 104c35.667 36.667 64.167 69.667 85.5 99s41 59.666 59 90.999s30.833 61.666 38.5 90.999
s11.5 58.666 11.5 87.999c0 55.333 -14.167 102.5 -42.5 141.5s-63.333 66.833 -105 83.5s-87.167 25 -136.5 25c-79.333 0 -150.5 -15.333 -213.5 -46s-115.5 -72.667 -157.5 -126z" />
    <glyph glyph-name="three" unicode="3" horiz-adv-x="1140" 
d="M59 201l100.998 106.003c41.333 -54.667 95.5 -98.334 162.5 -131.001s139.833 -49 218.5 -49c99.333 0 177.333 22.833 234 68.5s85 108.167 85 187.5c0 82 -30.333 142.833 -91 182.5s-143.667 59.5 -249 59.5c-80.667 0 -127.667 -0.666992 -141 -2v155
c15.333 -1.33301 62.333 -2 141 -2c92.667 0 168.834 18.833 228.501 56.5s89.5 93.834 89.5 168.501c0 73.333 -29.167 130.666 -87.5 171.999s-131.166 62 -218.499 62c-73.333 0 -138.833 -13.667 -196.5 -41s-112.167 -69 -163.5 -125l-94 107
c52.667 63.333 118.5 114.166 197.5 152.499s168.833 57.5 269.5 57.5c134.667 0 245.5 -32.5 332.5 -97.5s130.5 -153.833 130.5 -266.5c0 -46.667 -9.16699 -89.5 -27.5 -128.5s-42.5 -71 -72.5 -96s-61.333 -45.167 -94 -60.5s-66.334 -26 -101.001 -32
c26 -2 53 -7.83301 81 -17.5s56 -23.834 84 -42.501s53 -40.5 75 -65.5s40 -55.833 54 -92.5s21 -76 21 -118c0 -116 -43.5 -210.667 -130.5 -284s-204.5 -110 -352.5 -110c-110 0 -207.167 21.167 -291.5 63.5s-149.166 96.5 -194.499 162.5z" />
    <glyph glyph-name="four" unicode="4" horiz-adv-x="1142" 
d="M66 346v141l585 879h234v-870h192v-150h-192v-346h-170v346h-649zM236 496h479v712z" />
    <glyph glyph-name="five" unicode="5" horiz-adv-x="1208" 
d="M135 195l104.997 112.001c94 -120 219.333 -180 376 -180c92 0 167.667 27.833 227 83.5s89 125.5 89 209.5c0 89.333 -29.167 160.833 -87.5 214.5s-133.833 80.5 -226.5 80.5c-122 0 -227 -43 -315 -129l-125 43v737h836v-152h-666v-475
c35.333 35.333 81.333 64.666 138 87.999s117.334 35 182.001 35c57.333 0 111.833 -9.66699 163.5 -29s97.834 -47 138.501 -83s72.834 -82 96.501 -138s35.5 -118 35.5 -186c0 -136.667 -46 -246 -138 -328s-208 -123 -348 -123c-210 0 -370.333 73.333 -481 220z" />
    <glyph glyph-name="six" unicode="6" horiz-adv-x="1210" 
d="M104 680c0 75.333 6.8291 147.333 20.4961 216s35.334 133 65.001 193s65.834 111.833 108.501 155.5s94.834 78.167 156.501 103.5s129.834 38 204.501 38c157.333 0 283.666 -54.333 378.999 -163l-86 -127c-38.667 45.333 -80.5 79.833 -125.5 103.5
s-100.833 35.5 -167.5 35.5c-63.333 0 -120.166 -15.333 -170.499 -46s-90.833 -71.5 -121.5 -122.5s-53.834 -108 -69.501 -171s-23.5 -128.833 -23.5 -197.5c0 -23.333 0.666992 -41 2 -53c34 54 86.833 103 158.5 147s148.167 66 229.5 66
c62 0 119.833 -9.16699 173.5 -27.5s100.834 -45.166 141.501 -80.499s72.667 -81.166 96 -137.499s35 -119.833 35 -190.5c0 -59.333 -11.167 -116 -33.5 -170s-53.5 -101.5 -93.5 -142.5s-90.5 -73.667 -151.5 -98s-127.833 -36.5 -200.5 -36.5
c-74 0 -140.833 12.667 -200.5 38s-109.5 59.666 -149.5 102.999s-73.5 95.166 -100.5 155.499s-46.5 124.5 -58.5 192.5s-18 140 -18 216zM280.996 506c4 -46 13.168 -89.999 27.501 -131.999s34.5 -82.167 60.5 -120.5s61 -69 105 -92s94.333 -34.5 151 -34.5
c50.667 0 96.5 8.83301 137.5 26.5s73.833 40.667 98.5 69s43.667 59.166 57 92.499s20 67 20 101c0 96 -29.333 169.167 -88 219.5s-134.334 75.5 -227.001 75.5c-66.667 0 -130.667 -18.833 -192 -56.5s-111.333 -87.167 -150 -148.5z" />
    <glyph glyph-name="seven" unicode="7" horiz-adv-x="1054" 
d="M63 1214v152h932v-117l-559 -1249h-188l551 1214h-736z" />
    <glyph glyph-name="eight" unicode="8" horiz-adv-x="1189" 
d="M106 346c0 86 31.335 160.333 94.002 223s140 108 232 136c-88 25.333 -160.5 65.166 -217.5 119.499s-85.5 123.5 -85.5 207.5c0 59.333 13.5 112.166 40.5 158.499s63.167 83.333 108.5 111s95 48.667 149 63s110.333 21.5 169 21.5c58 0 114.167 -7.16699 168.5 -21.5
s104.333 -35.333 150 -63s82.167 -64.667 109.5 -111s41 -99.166 41 -158.499c0 -43.333 -8.33301 -83.333 -25 -120s-39.667 -68.167 -69 -94.5s-61.5 -48.666 -96.5 -66.999s-73.167 -33.5 -114.5 -45.5c92 -27.333 169.167 -72.5 231.5 -135.5s93.5 -137.5 93.5 -223.5
c0 -112 -46.833 -201.833 -140.5 -269.5s-209.834 -101.5 -348.501 -101.5c-90.667 0 -172.834 14.5 -246.501 43.5s-132.667 72 -177 129s-66.5 123.167 -66.5 198.5zM276.002 365c0 -71.333 31.332 -128.833 93.999 -172.5s138 -65.5 226 -65.5
c87.333 0 162 21.833 224 65.5s93 101.167 93 172.5c0 34 -8.33301 65.667 -25 95s-37.334 53.5 -62.001 72.5s-52.167 35.833 -82.5 50.5s-57.666 25.5 -81.999 32.5s-46.166 11.5 -65.499 13.5c-19.333 -2 -41.333 -6.5 -66 -13.5s-52.167 -17.833 -82.5 -32.5
s-58 -31.5 -83 -50.5s-46 -43.167 -63 -72.5s-25.5 -61 -25.5 -95zM299.001 1010c0 -31.333 7.83203 -60.166 23.499 -86.499s34.5 -47.666 56.5 -63.999s47.833 -31 77.5 -44s55.167 -22.333 76.5 -28s42.333 -10.167 63 -13.5c20.667 3.33301 41.834 7.83301 63.501 13.5
s47.167 15 76.5 28s55 27.667 77 44s40.833 37.666 56.5 63.999s23.5 55.166 23.5 86.499c0 68.667 -28.333 123.334 -85 164.001s-127.334 61 -212.001 61c-85.333 0 -156.166 -20.333 -212.499 -61s-84.5 -95.334 -84.5 -164.001z" />
    <glyph glyph-name="nine" unicode="9" horiz-adv-x="1210" 
d="M100 942c0 59.333 11.1699 115.831 33.5029 169.498s53.5 101.167 93.5 142.5s90.5 74.166 151.5 98.499s127.5 36.5 199.5 36.5c74.667 0 142 -12.667 202 -38s110 -59.666 150 -102.999s73.333 -95.333 100 -156s46 -125 58 -193s18 -140.333 18 -217
c0 -75.333 -6.83301 -147.166 -20.5 -215.499s-35.334 -132.333 -65.001 -192s-65.834 -111.5 -108.501 -155.5s-94.834 -78.667 -156.501 -104s-129.834 -38 -204.501 -38c-156.667 0 -283 54.667 -379 164l86 127c38.667 -45.333 80.667 -79.833 126 -103.5
s101 -35.5 167 -35.5c53.333 0 101.833 10.333 145.5 31s80.167 48.334 109.5 83.001s54 75.167 74 121.5s34.333 94.5 43 144.5s13 101.667 13 155c0 24.667 -0.666992 43 -2 55c-34 -54 -86.667 -103 -158 -147s-147 -66 -227 -66c-84 0 -159.167 15.667 -225.5 47
s-120.166 80.5 -161.499 147.5s-62 147.5 -62 241.5zM272.003 947.998c0 -96 29.499 -169.169 88.499 -219.502s134.833 -75.5 227.5 -75.5c66.667 0 131 18.667 193 56s111 86.333 147 147c-2.66699 36 -8.5 71 -17.5 105s-22.5 68 -40.5 102s-39.5 63.667 -64.5 89
s-56.333 45.833 -94 61.5s-79.5 23.5 -125.5 23.5c-50 0 -95.5 -9 -136.5 -27s-74.167 -41.167 -99.5 -69.5s-44.666 -59.166 -57.999 -92.499s-20 -66.666 -20 -99.999z" />
    <glyph glyph-name="colon" unicode=":" 
d="M123 92c0 30.667 11.167 57.167 33.5 79.5s48.833 33.5 79.5 33.5s57 -11.167 79 -33.5s33 -48.833 33 -79.5s-11 -57 -33 -79s-48.333 -33 -79 -33s-57.167 11 -79.5 33s-33.5 48.333 -33.5 79zM123 891c0 30.667 11.167 57.167 33.5 79.5s48.833 33.5 79.5 33.5
s57 -11.167 79 -33.5s33 -48.833 33 -79.5s-11 -57.167 -33 -79.5s-48.333 -33.5 -79 -33.5s-57.167 11.167 -79.5 33.5s-33.5 48.833 -33.5 79.5z" />
    <glyph glyph-name="semicolon" unicode=";" 
d="M117 -195c33.333 22 62.834 51.332 88.501 87.999s40.5 71.667 44.5 105c-8 -4 -17.667 -6 -29 -6c-28.667 0 -52.167 9.83301 -70.5 29.5s-27.5 44.5 -27.5 74.5c0 30.667 10.5 57.167 31.5 79.5s46.5 33.5 76.5 33.5c35.333 0 65.666 -14.167 90.999 -42.5
s38 -66.166 38 -113.499c0 -61.333 -15.5 -119.5 -46.5 -174.5s-71.167 -99.833 -120.5 -134.5zM123.001 890.999c0 30.667 11.167 57.167 33.5 79.5s48.833 33.5 79.5 33.5s57 -11.167 79 -33.5s33 -48.833 33 -79.5c0 -30 -11.167 -56.333 -33.5 -79s-48.5 -34 -78.5 -34
s-56.333 11.333 -79 34s-34 49 -34 79z" />
    <glyph glyph-name="less" unicode="&#x3c;" horiz-adv-x="1021" 
d="M59 631v108l904 449v-129l-773 -375l773 -373v-127z" />
    <glyph glyph-name="equal" unicode="=" horiz-adv-x="1021" 
d="M59 432v107h904v-107h-904zM59 827v109h904v-109h-904z" />
    <glyph glyph-name="greater" unicode="&#x3e;" horiz-adv-x="1021" 
d="M59 184v127l770 373l-770 375v129l904 -449v-108z" />
    <glyph glyph-name="question" unicode="?" horiz-adv-x="946" 
d="M37 1178c50.667 65.333 113.668 116.333 189.001 153s160.333 55 255 55c122 0 219.5 -30.167 292.5 -90.5s109.5 -135.833 109.5 -226.5c0 -42 -7.33301 -80.667 -22 -116s-33.667 -65.5 -57 -90.5s-49.166 -48.5 -77.499 -70.5s-56.666 -42.667 -84.999 -62
s-54.166 -38.5 -77.499 -57.5s-42.333 -40.5 -57 -64.5s-22 -49.333 -22 -76c0 -16.667 5 -34.167 15 -52.5s23.667 -34.166 41 -47.499l-125 -53c-53.333 45.333 -80 100.666 -80 165.999c0 40.667 9.16699 78 27.5 112s41.166 62.167 68.499 84.5s57.166 45.333 89.499 69
l89.5 65.5c27.333 20 50.166 44.5 68.499 73.5s27.5 60.5 27.5 94.5c0 54 -21 99.333 -63 136s-101.667 55 -179 55c-72.667 0 -134.834 -14.5 -186.501 -43.5s-98.167 -70.5 -139.5 -124.5zM346.001 92c0 30.667 11.167 57.167 33.5 79.5s48.833 33.5 79.5 33.5
s57 -11.167 79 -33.5s33 -48.833 33 -79.5s-11 -57 -33 -79s-48.333 -33 -79 -33s-57.167 11 -79.5 33s-33.5 48.333 -33.5 79z" />
    <glyph glyph-name="at" unicode="@" horiz-adv-x="1603" 
d="M72 500c0 108 22.5 212 67.5 312s104.667 186 179 258s161.166 129.5 260.499 172.5s201.333 64.5 306 64.5c126 0 238.5 -29.333 337.5 -88s175 -137.167 228 -235.5s79.5 -207.166 79.5 -326.499c0 -77.333 -10.333 -147.5 -31 -210.5s-48 -113.833 -82 -152.5
s-71.667 -68.334 -113 -89.001s-84 -31 -128 -31c-54.667 0 -98.667 16.167 -132 48.5s-51.666 71.5 -54.999 117.5l-2 12c-38 -52.667 -85.5 -95.5 -142.5 -128.5s-117.167 -49.5 -180.5 -49.5c-94.667 0 -170.667 30.667 -228 92s-86 142 -86 242
c0 69.333 13.833 136 41.5 200s63.834 118.833 108.501 164.5s96 82 154 109s117 40.5 177 40.5c63.333 0 117.833 -15 163.5 -45s78.834 -68.333 99.501 -115l26 127h140l-117 -555c-2.66699 -16 -4 -30.333 -4 -43c0 -34 9 -60.167 27 -78.5s41 -27.5 69 -27.5
c17.333 0 35.333 3.66699 54 11s38.167 20.333 58.5 39s38.333 41.5 54 68.5s28.667 62.5 39 106.5s15.5 93 15.5 147c0 169.333 -53.333 308.333 -160 417s-246.334 163 -419.001 163c-96.667 0 -190.334 -20.333 -281.001 -61s-169.167 -94.5 -235.5 -161.5
s-119.5 -145.333 -159.5 -235s-60 -181.5 -60 -275.5c0 -108.667 25.167 -207.167 75.5 -295.5s120.5 -157.833 210.5 -208.5s190.667 -76 302 -76c132.667 0 259.667 38.333 381 115l37 -53c-133.333 -86 -275.333 -129 -426 -129c-122 0 -232.667 28.333 -332 85
s-177 134 -233 232s-84 206.667 -84 326zM496 516c0 -66.667 18.832 -121.167 56.499 -163.5s88.5 -63.5 152.5 -63.5s122 17.833 174 53.5s95.667 79.167 131 130.5l59 283c-14 38.667 -39 73.5 -75 104.5s-81.333 46.5 -136 46.5c-66 0 -127.167 -18.833 -183.5 -56.5
s-100.166 -86.5 -131.499 -146.5s-47 -122.667 -47 -188z" />
    <glyph glyph-name="A" unicode="A" horiz-adv-x="1347" 
d="M18 0l549 1366h211l551 -1366h-194l-121 303h-680l-121 -303h-195zM383 455h580l-289 735z" />
    <glyph glyph-name="B" unicode="B" horiz-adv-x="1288" 
d="M160 0l-0.000976562 1366h608c117.333 0 210.5 -32 279.5 -96s103.5 -148 103.5 -252c0 -82 -23.333 -151 -70 -207s-103.334 -91.333 -170.001 -106c72.667 -11.333 135.334 -49.833 188.001 -115.5s79 -139.167 79 -220.5c0 -111.333 -35.167 -200.666 -105.5 -267.999
s-167.166 -101 -290.499 -101h-622zM329.999 151.999h418c79.333 0 141.333 21 186 63s67 99.333 67 172c0 66.667 -22.167 122.667 -66.5 168s-106.5 68 -186.5 68h-418v-471zM329.999 773.999l409 -0.000976562c74.667 0 132.667 20.333 174 61s62 93.334 62 158.001
c0 64 -20.667 116.833 -62 158.5s-99.333 62.5 -174 62.5h-409v-440z" />
    <glyph glyph-name="C" unicode="C" horiz-adv-x="1384" 
d="M104 682c0 102.667 18.3311 198.332 54.998 286.999s86.334 163.5 149.001 224.5s137.167 108.833 223.5 143.5s178.166 52 275.499 52c217.333 0 390 -90.333 518 -271l-143 -80c-40 59.333 -93.5 107.333 -160.5 144s-138.5 55 -214.5 55
c-98.667 0 -188 -23.333 -268 -70s-143 -112.5 -189 -197.5s-69 -180.833 -69 -287.5c0 -106 23 -201.5 69 -286.5s109 -151 189 -198s169.333 -70.5 268 -70.5c76.667 0 148.334 18.167 215.001 54.5s120 84.5 160 144.5l145 -80
c-133.333 -180.667 -306.666 -271 -519.999 -271c-97.333 0 -189.166 17.333 -275.499 52s-160.833 82.5 -223.5 143.5s-112.334 135.833 -149.001 224.5s-55 184.334 -55 287.001z" />
    <glyph glyph-name="D" unicode="D" horiz-adv-x="1433" 
d="M160 0l-0.000976562 1366h467c138.667 0 261.5 -30.167 368.5 -90.5s189 -142.166 246 -245.499s85.5 -219.333 85.5 -348c0 -96.667 -16.667 -186.834 -50 -270.501s-80.166 -155.834 -140.499 -216.501s-134.333 -108.334 -222 -143.001s-183.5 -52 -287.5 -52h-467z
M329.999 152.002h296.999c107.333 0 201.333 24 282 72s141.167 111.667 181.5 191s60.5 168.333 60.5 267c0 100 -19.833 189.667 -59.5 269s-99.667 143 -180 191s-175.166 72 -284.499 72h-297v-1062z" />
    <glyph glyph-name="E" unicode="E" horiz-adv-x="1165" 
d="M160 0v1366h895v-152h-725v-440h710v-151h-710v-471h725v-152h-895z" />
    <glyph glyph-name="F" unicode="F" horiz-adv-x="1126" 
d="M160 0v1366h895v-152h-725v-440h710v-151h-710v-623h-170z" />
    <glyph glyph-name="G" unicode="G" horiz-adv-x="1460" 
d="M104 682c0 104 18.5 200.333 55.5 289s87 163.334 150 224.001s137.5 108.167 223.5 142.5s177.333 51.5 274 51.5c215.333 0 392 -85.333 530 -256l-135 -84c-44 57.333 -100.833 103 -170.5 137s-144.5 51 -224.5 51c-98.667 0 -188 -23.333 -268 -70
s-143 -112.5 -189 -197.5s-69 -180.833 -69 -287.5c0 -161.333 50.167 -294.5 150.5 -399.5s225.5 -157.5 375.5 -157.5c75.333 0 145.5 14.667 210.5 44s117.167 63.666 156.5 102.999v279h-469v151h638v-493c-66 -73.333 -144.833 -131 -236.5 -173s-191.5 -63 -299.5 -63
c-96.667 0 -188 17.167 -274 51.5s-160.5 82 -223.5 143s-113 136 -150 225s-55.5 185.5 -55.5 289.5z" />
    <glyph glyph-name="H" unicode="H" horiz-adv-x="1458" 
d="M160 0v1366h170v-588h798v588h170v-1366h-170v627h-798v-627h-170z" />
    <glyph glyph-name="I" unicode="I" horiz-adv-x="489" 
d="M160 0v1366h170v-1366h-170z" />
    <glyph glyph-name="J" unicode="J" horiz-adv-x="972" 
d="M23 133l87.999 129c74 -90 160 -135 258 -135c83.333 0 149.833 26.333 199.5 79s74.5 122 74.5 208v952h170v-954c0 -72.667 -11.167 -137.167 -33.5 -193.5s-53.166 -102 -92.499 -137s-85 -61.5 -137 -79.5s-109 -27 -171 -27c-148 0 -266.667 52.667 -356 158z" />
    <glyph glyph-name="K" unicode="K" horiz-adv-x="1230" 
d="M160 0v1366h170v-707l604 707h213l-569 -649l618 -717h-211l-518 614l-137 -155v-459h-170z" />
    <glyph glyph-name="L" unicode="L" horiz-adv-x="1044" 
d="M160 0v1366h170v-1214h635v-152h-805z" />
    <glyph glyph-name="M" unicode="M" horiz-adv-x="1656" 
d="M160 0v1366h243l424 -1028l426 1028h244v-1366h-170v1124l-465 -1124h-69l-463 1124v-1124h-170z" />
    <glyph glyph-name="N" unicode="N" horiz-adv-x="1449" 
d="M160 0v1366h174l786 -1067v1067h170v-1366h-164l-796 1090v-1090h-170z" />
    <glyph glyph-name="O" unicode="O" horiz-adv-x="1566" 
d="M104 682c0 133.333 28 253.666 84 360.999s135.833 191.833 239.5 253.5s221.834 92.5 354.501 92.5c132 0 249.833 -30.833 353.5 -92.5s183.667 -146.167 240 -253.5s84.5 -227.666 84.5 -360.999s-28.167 -253.666 -84.5 -360.999s-136.333 -191.833 -240 -253.5
s-221.5 -92.5 -353.5 -92.5c-132.667 0 -250.834 30.833 -354.501 92.5s-183.5 146.167 -239.5 253.5s-84 227.666 -84 360.999zM281 682c0 -105.333 20.167 -200 60.5 -284s98.833 -150.167 175.5 -198.5s165 -72.5 265 -72.5c99.333 0 187.5 24.167 264.5 72.5
s135.833 114.5 176.5 198.5s61 178.667 61 284c0 106 -20.333 201 -61 285s-99.334 150 -176.001 198s-165 72 -265 72c-151.333 0 -272.666 -52 -363.999 -156s-137 -237 -137 -399z" />
    <glyph glyph-name="P" unicode="P" horiz-adv-x="1202" 
d="M160 0v1366h549c132 0 236.333 -39.5 313 -118.5s115 -176.833 115 -293.5c0 -116 -38.667 -213.5 -116 -292.5s-181.333 -118.5 -312 -118.5h-379v-543h-170zM330 694h358c80.667 0 146.334 24 197.001 72s76 110.667 76 188s-25.333 140 -76 188
s-116.334 72 -197.001 72h-358v-520z" />
    <glyph glyph-name="Q" unicode="Q" horiz-adv-x="1566" 
d="M104 682c0 133.333 28 253.667 84 361s135.833 191.833 239.5 253.5s221.834 92.5 354.501 92.5c132 0 249.833 -30.833 353.5 -92.5s183.667 -146.167 240 -253.5s84.5 -227.666 84.5 -360.999c0 -100.667 -16.333 -194 -49 -280s-79 -160.667 -139 -224l131 -139
l-119 -102l-133 141c-106 -68.667 -229 -103 -369 -103c-132.667 0 -250.834 30.833 -354.501 92.5s-183.5 146.167 -239.5 253.5s-84 227.666 -84 360.999zM281 682.001c0 -105.333 20.166 -200 60.499 -284s98.833 -150.167 175.5 -198.5s165 -72.5 265 -72.5
c96.667 0 183.334 23.333 260.001 70l-194 211l119 100l192 -209c83.333 102 125 229.667 125 383c0 106 -20.333 201 -61 285s-99.334 150 -176.001 198s-165 72 -265 72c-151.333 0 -272.666 -52 -363.999 -156s-137 -237 -137 -399z" />
    <glyph glyph-name="R" unicode="R" horiz-adv-x="1245" 
d="M160 0v1366h549c126.667 0 229.667 -37.5 309 -112.5s119 -174.833 119 -299.5c0 -116.667 -34.333 -209.834 -103 -279.501s-152.667 -108.834 -252 -117.501l369 -557h-201l-348 543h-272v-543h-170zM330 692.002h358c80.667 0 146.334 24.333 197.001 73
s76 111.667 76 189s-25.333 140 -76 188s-116.334 72 -197.001 72h-358v-522z" />
    <glyph glyph-name="S" unicode="S" horiz-adv-x="1200" 
d="M78 193l100 129.006c50.667 -56.667 112.667 -103.334 186 -140.001s154.666 -55 243.999 -55c58 0 108.833 7.16699 152.5 21.5s77.334 33.5 101.001 57.5s41 49 52 75s16.5 53 16.5 81c0 37.333 -9.16699 70.166 -27.5 98.499s-43.166 51.333 -74.499 69
s-67.166 33.5 -107.499 47.5s-82.833 27 -127.5 39l-134.5 37.5c-45 13 -87.667 29.333 -128 49s-76.166 42.334 -107.499 68.001s-56.166 58.667 -74.499 99s-27.5 86.5 -27.5 138.5c0 111.333 44.333 202.166 133 272.499s200.667 105.5 336 105.5
c202.667 0 364.334 -63.333 485.001 -190l-102 -125c-98.667 109.333 -230.334 164 -395.001 164c-82.667 0 -150.167 -20.167 -202.5 -60.5s-78.5 -92.5 -78.5 -156.5c0 -32.667 9.16699 -61.334 27.5 -86.001s43.166 -44.834 74.499 -60.501
s67.166 -29.834 107.499 -42.501s83 -25 128 -37s89.833 -24.833 134.5 -38.5s87.167 -31 127.5 -52s76.166 -45.333 107.499 -73s56.166 -62.834 74.499 -105.501s27.5 -91.334 27.5 -146.001c0 -41.333 -5.5 -80.833 -16.5 -118.5s-29.333 -74 -55 -109
s-57.5 -65.167 -95.5 -90.5s-85.833 -45.666 -143.5 -60.999s-122.167 -23 -193.5 -23c-220 0 -394.667 72.667 -524 218z" />
    <glyph glyph-name="T" unicode="T" horiz-adv-x="1167" 
d="M66 1214v152h1036v-152h-434v-1214h-170v1214h-432z" />
    <glyph glyph-name="U" unicode="U" horiz-adv-x="1433" 
d="M160 530v836h170v-831c0 -126.667 33.5 -226.334 100.5 -299.001s162.5 -109 286.5 -109s219.5 36.333 286.5 109s100.5 172.334 100.5 299.001v831h170v-834c0 -174 -47.333 -310.333 -142 -409s-233 -148 -415 -148c-181.333 0 -319.5 49.5 -414.5 148.5
s-142.5 234.5 -142.5 406.5z" />
    <glyph glyph-name="V" unicode="V" horiz-adv-x="1347" 
d="M18 1366h195l461 -1180l461 1180h194l-551 -1366h-211z" />
    <glyph glyph-name="W" unicode="W" horiz-adv-x="1808" 
d="M29 1366h188l303 -1139l314 1139h141l313 -1139l301 1139h189l-389 -1366h-185l-301 1102l-301 -1102h-184z" />
    <glyph glyph-name="X" unicode="X" horiz-adv-x="1335" 
d="M25 0l532 700l-502 666h207l406 -547l403 547h207l-500 -664l531 -702h-205l-436 582l-437 -582h-206z" />
    <glyph glyph-name="Y" unicode="Y" horiz-adv-x="1282" 
d="M18 1366h199l424 -635l424 635h199l-537 -788v-578h-170v578z" />
    <glyph glyph-name="Z" unicode="Z" horiz-adv-x="1198" 
d="M98 0v141l768 1073h-768v152h985v-141l-768 -1073h783v-152h-1000z" />
    <glyph glyph-name="bracketleft" unicode="[" horiz-adv-x="497" 
d="M82 -389v1778h381v-113h-262v-1552h262v-113h-381z" />
    <glyph glyph-name="backslash" unicode="\" horiz-adv-x="606" 
d="M0 1407h121l485 -1448h-121z" />
    <glyph glyph-name="bracketright" unicode="]" horiz-adv-x="497" 
d="M35 -276h262v1552h-262v113h381v-1778h-381v113z" />
    <glyph glyph-name="asciicircum" unicode="^" horiz-adv-x="884" 
d="M39 682l346 684h117l344 -684h-127l-277 571l-276 -571h-127z" />
    <glyph glyph-name="underscore" unicode="_" horiz-adv-x="1155" 
d="M-6 -82h1167v-113h-1167v113z" />
    <glyph glyph-name="grave" unicode="`" horiz-adv-x="462" 
d="M0 1434h160l303 -295h-117z" />
    <glyph glyph-name="a" unicode="a" horiz-adv-x="1079" 
d="M98 303c0 53.333 10.002 101.332 30.002 143.999s46.667 76.834 80 102.501s70.166 45.334 110.499 59.001s82.166 20.5 125.499 20.5c140.667 0 250 -45 328 -135v178c0 64.667 -23.333 115.667 -70 153s-106.667 56 -180 56c-116 0 -217 -46 -303 -138l-72 107
c104.667 109.333 236.667 164 396 164c54 0 103.5 -6.33301 148.5 -19s85.333 -31.834 121 -57.501s63.5 -60.5 83.5 -104.5s30 -95 30 -153v-680h-154v113c-84 -92 -193.333 -138 -328 -138c-58 0 -112.667 12 -164 36s-94.5 61.5 -129.5 112.5s-52.5 110.833 -52.5 179.5z
M256.002 300.999c0 -62.667 22.833 -114.167 68.5 -154.5s104.167 -60.5 175.5 -60.5c56 0 108.167 10.5 156.5 31.5s86.833 51.5 115.5 91.5v186c-28.667 40 -67.167 70.5 -115.5 91.5s-100.5 31.5 -156.5 31.5c-71.333 0 -129.833 -20.333 -175.5 -61
s-68.5 -92.667 -68.5 -156z" />
    <glyph glyph-name="b" unicode="b" horiz-adv-x="1177" 
d="M154 0l-0.00292969 1366h153v-526c40.667 55.333 89.834 98.166 147.501 128.499s119.834 45.5 186.501 45.5c130 0 235.833 -47.667 317.5 -143s122.5 -221 122.5 -377c0 -158.667 -40.667 -284.834 -122 -378.501s-187.333 -140.5 -318 -140.5
c-67.333 0 -130.166 15.667 -188.499 47s-106.833 73 -145.5 125v-147h-153zM306.997 268.002c27.333 -44 68.499 -80.833 123.499 -110.5s112.167 -44.5 171.5 -44.5c98.667 0 176.667 35.5 234 106.5s86 162.5 86 274.5s-28.667 203.833 -86 275.5
s-135.333 107.5 -234 107.5c-58.667 0 -115.667 -15.5 -171 -46.5s-96.666 -68.833 -123.999 -113.5v-449z" />
    <glyph glyph-name="c" unicode="c" horiz-adv-x="1013" 
d="M96 496c0 97.333 20.5 185.166 61.5 263.499s99.167 140.333 174.5 186s161.333 68.5 258 68.5c152.667 0 273.334 -57.333 362.001 -172l-102 -94c-63.333 86 -147.333 129 -252 129c-104 0 -187 -35.667 -249 -107s-93 -162.666 -93 -273.999s31 -203 93 -275
s145 -108 249 -108c103.333 0 187.333 43 252 129l102 -95c-88.667 -114.667 -209.334 -172 -362.001 -172c-96.667 0 -182.667 22.833 -258 68.5s-133.5 108 -174.5 187s-61.5 167.5 -61.5 265.5z" />
    <glyph glyph-name="d" unicode="d" horiz-adv-x="1177" 
d="M96 494c0 156.667 40.832 282.5 122.499 377.5s187.834 142.5 318.501 142.5c66 0 127.833 -15.333 185.5 -46s106.834 -73.334 147.501 -128.001v526h154v-1366h-154v147c-38.667 -52 -87 -93.667 -145 -125s-120.667 -47 -188 -47
c-130.667 0 -236.834 46.833 -318.501 140.5s-122.5 219.834 -122.5 378.501zM255.999 494c0 -112 28.5 -203.5 85.5 -274.5s134.167 -106.5 231.5 -106.5c60 0 117.5 14.833 172.5 44.5s96.5 66.5 124.5 110.5v449c-28.667 44.667 -70.5 82.5 -125.5 113.5
s-112.167 46.5 -171.5 46.5c-97.333 0 -174.5 -35.833 -231.5 -107.5s-85.5 -163.5 -85.5 -275.5z" />
    <glyph glyph-name="e" unicode="e" horiz-adv-x="1153" 
d="M96 496c0 94.667 20.8301 181.501 62.4971 260.501s99.834 141.667 174.501 188s158.334 69.5 251.001 69.5c97.333 0 182.333 -23.667 255 -71s127.5 -110.833 164.5 -190.5s55.5 -169.5 55.5 -269.5v-39h-801c6 -96.667 41.167 -177.834 105.5 -243.501
s147.833 -98.5 250.5 -98.5c57.333 0 113 11 167 33s100.333 52.667 139 92l73 -100c-101.333 -101.333 -232.333 -152 -393 -152c-147.333 0 -268.166 48.333 -362.499 145s-141.5 222 -141.5 376zM257.997 557.001h649.001c-0.666992 38.667 -7.5 76.667 -20.5 114
s-32.167 72.5 -57.5 105.5s-59.333 59.667 -102 80s-91 30.5 -145 30.5c-50.667 0 -96.667 -10 -138 -30s-74.833 -46.167 -100.5 -78.5s-45.834 -67.5 -60.501 -105.5s-23 -76.667 -25 -116z" />
    <glyph glyph-name="f" unicode="f" horiz-adv-x="579" 
d="M33 854v135h164v76c0 100.667 25.5 179.334 76.5 236.001s120.833 85 209.5 85c86 0 155.667 -25 209 -75l-63 -101c-38 33.333 -79 50 -123 50c-50 0 -88.5 -16.833 -115.5 -50.5s-40.5 -81.834 -40.5 -144.501v-76h201v-135h-201v-854h-153v854h-164z" />
    <glyph glyph-name="g" unicode="g" horiz-adv-x="1175" 
d="M96 500c0 156.667 40.668 281.5 122.001 374.5s187.666 139.5 318.999 139.5c66 0 127.5 -15.167 184.5 -45.5s105.833 -73.166 146.5 -128.499v149h154v-960c0 -63.333 -8.66699 -120 -26 -170s-40.5 -91 -69.5 -123s-64 -58.5 -105 -79.5s-83.667 -35.833 -128 -44.5
s-91.833 -13 -142.5 -13c-88 0 -162.333 10.667 -223 32s-119.334 59.666 -176.001 114.999l77 115c40 -48 85.667 -82.5 137 -103.5s113 -31.5 185 -31.5c42.667 0 82.334 5.5 119.001 16.5s70.167 27.833 100.5 50.5s54.166 53.667 71.499 93s26 85 26 137v141
c-38 -52.667 -86 -95.167 -144 -127.5s-120.333 -48.5 -187 -48.5c-131.333 0 -237.666 46 -318.999 138s-122 216.667 -122 374zM256.001 500c0 -110.667 28.5 -201.168 85.5 -271.501s134.167 -105.5 231.5 -105.5c59.333 0 116.333 15.833 171 47.5
s96 69.834 124 114.501v432c-27.333 44.667 -68.5 82.5 -123.5 113.5s-112.167 46.5 -171.5 46.5c-98 0 -175.333 -35 -232 -105s-85 -160.667 -85 -272z" />
    <glyph glyph-name="h" unicode="h" horiz-adv-x="1130" 
d="M154 0l0.000976562 1366h153v-520c39.333 46 90.833 85.5 154.5 118.5s130.5 49.5 200.5 49.5c210 0 315 -105.333 315 -316v-698h-154v651c0 82.667 -19.167 141 -57.5 175s-93.5 51 -165.5 51c-56.667 0 -111.834 -15 -165.501 -45s-96.167 -66.333 -127.5 -109v-723
h-153z" />
    <glyph glyph-name="i" unicode="i" horiz-adv-x="460" 
d="M127 1233c0 28.667 10.167 53.167 30.5 73.5s44.166 30.5 71.499 30.5c28.667 0 53.334 -10.167 74.001 -30.5s31 -44.833 31 -73.5s-10.333 -53 -31 -73s-45.334 -30 -74.001 -30c-27.333 0 -51.166 10 -71.499 30s-30.5 44.333 -30.5 73zM154 0v989h153v-989h-153z" />
    <glyph glyph-name="j" unicode="j" horiz-adv-x="460" 
d="M-203 -328l56 117c42 -42 89 -63 141 -63c48.667 0 87.5 14.667 116.5 44s43.5 74 43.5 134v1085h153v-1085c0 -97.333 -25.333 -172.5 -76 -225.5s-123 -79.5 -217 -79.5c-48 0 -87.833 5.66699 -119.5 17s-64.167 30 -97.5 56zM127 1233
c0 28.667 10.167 53.167 30.5 73.5s44.166 30.5 71.499 30.5c28.667 0 53.334 -10.167 74.001 -30.5s31 -44.833 31 -73.5s-10.333 -53 -31 -73s-45.334 -30 -74.001 -30c-27.333 0 -51.166 10 -71.499 30s-30.5 44.333 -30.5 73z" />
    <glyph glyph-name="k" unicode="k" horiz-adv-x="1052" 
d="M154 0v1366h153v-903l520 526h195l-438 -448l440 -541h-197l-356 444l-164 -161v-283h-153z" />
    <glyph glyph-name="l" unicode="l" horiz-adv-x="460" 
d="M154 0v1366h153v-1366h-153z" />
    <glyph glyph-name="m" unicode="m" horiz-adv-x="1654" 
d="M154 0v989h153v-143c24.667 38 67.667 75.5 129 112.5s125 55.5 191 55.5c72 0 130.5 -17.167 175.5 -51.5s75.167 -78.833 90.5 -133.5c30 48.667 76 91.667 138 129s126.667 56 194 56c90.667 0 159.334 -25 206.001 -75s70 -124.667 70 -224v-715h-153v672
c0 64.667 -15.167 115 -45.5 151s-76.166 54 -137.499 54c-48.667 0 -97.834 -15 -147.501 -45s-87.834 -65.667 -114.501 -107v-725h-153v672c0 136.667 -61 205 -183 205c-48 0 -96.333 -15.167 -145 -45.5s-87 -66.5 -115 -108.5v-723h-153z" />
    <glyph glyph-name="n" unicode="n" horiz-adv-x="1128" 
d="M154 0l-0.000976562 989h153v-143c38.667 46 89.834 85.5 153.501 118.5s129.834 49.5 198.501 49.5c210.667 0 316 -106.667 316 -320v-694h-154v647c0 82.667 -19 141.667 -57 177s-92.667 53 -164 53c-57.333 0 -112.833 -15 -166.5 -45
s-95.834 -66.333 -126.501 -109v-723h-153z" />
    <glyph glyph-name="o" unicode="o" horiz-adv-x="1171" 
d="M96 496c0 96 19.667 183 59 261s96.5 140.333 171.5 187s161.5 70 259.5 70s184.5 -23.333 259.5 -70s132 -109 171 -187s58.5 -165 58.5 -261s-19.5 -183.333 -58.5 -262s-96 -141.5 -171 -188.5s-161.5 -70.5 -259.5 -70.5s-184.5 23.5 -259.5 70.5
s-132.167 109.833 -171.5 188.5s-59 166 -59 262zM256 496c0 -106.667 29.668 -197.168 89.001 -271.501s139.666 -111.5 240.999 -111.5c68 0 127.167 18 177.5 54s87.833 82.5 112.5 139.5s37 120.167 37 189.5c0 68.667 -12.333 131.334 -37 188.001
s-62.167 103 -112.5 139s-109.5 54 -177.5 54s-127.5 -18 -178.5 -54s-89 -82.5 -114 -139.5s-37.5 -119.5 -37.5 -187.5z" />
    <glyph glyph-name="p" unicode="p" horiz-adv-x="1171" 
d="M154 -377v1366h153v-147c37.333 52 85.5 93.667 144.5 125s122.167 47 189.5 47c131.333 0 237.5 -46.5 318.5 -139.5s121.5 -219.167 121.5 -378.5c0 -158 -40.5 -284.333 -121.5 -379s-187.167 -142 -318.5 -142c-67.333 0 -129.833 15.167 -187.5 45.5
s-106.5 73.5 -146.5 129.5v-527h-153zM307 272c27.333 -44.667 68.666 -82.333 123.999 -113s112.333 -46 171 -46c97.333 0 174.666 35.833 231.999 107.5s86 163.5 86 275.5s-28.667 203.5 -86 274.5s-134.666 106.5 -231.999 106.5c-58.667 0 -115.667 -15.333 -171 -46
s-96.666 -68 -123.999 -112v-447z" />
    <glyph glyph-name="q" unicode="q" horiz-adv-x="1171" 
d="M90 496c0 159.333 40.5 285.5 121.5 378.5s187.167 139.5 318.5 139.5c67.333 0 130.5 -15.833 189.5 -47.5s106.5 -73.167 142.5 -124.5v147h154v-1366h-154v527c-40 -56 -88.833 -99.167 -146.5 -129.5s-119.5 -45.5 -185.5 -45.5c-131.333 0 -237.5 47.333 -318.5 142
s-121.5 221 -121.5 379zM252 496c0 -112 28.167 -203.834 84.5 -275.501s133.166 -107.5 230.499 -107.5c60 0 117.667 15.333 173 46s96 68.334 122 113.001v447c-26 44 -66.667 81.333 -122 112s-113 46 -173 46c-97.333 0 -174.166 -35.5 -230.499 -106.5
s-84.5 -162.5 -84.5 -274.5z" />
    <glyph glyph-name="r" unicode="r" horiz-adv-x="675" 
d="M154 0l0.00195312 989h153v-160c42.667 55.333 92.167 99.333 148.5 132s116.833 49 181.5 49v-158c-18 4 -38.667 6 -62 6c-46.667 0 -97.334 -16.333 -152.001 -49s-93.334 -69 -116.001 -109v-700h-153z" />
    <glyph glyph-name="s" unicode="s" horiz-adv-x="952" 
d="M68 131l78.9932 110.996c35.333 -40 82.333 -73.667 141 -101s120.334 -41 185.001 -41c74 0 131.5 15.667 172.5 47s61.5 72.333 61.5 123c0 32 -11.333 59 -34 81s-52 39 -88 51s-75.667 23 -119 33s-86.833 21.667 -130.5 35s-83.5 29.666 -119.5 48.999
s-65.333 46.833 -88 82.5s-34 78.167 -34 127.5c0 80.667 33 148.334 99 203.001s156 82 270 82c148 0 270 -48 366 -144l-71 -106c-30.667 37.333 -72.167 67.5 -124.5 90.5s-109.166 34.5 -170.499 34.5c-66 0 -119 -14.833 -159 -44.5s-60 -66.834 -60 -111.501
c0 -29.333 11.333 -53.666 34 -72.999s51.834 -34.666 87.501 -45.999s75.334 -21.666 119.001 -30.999s87.334 -21.166 131.001 -35.499s83.334 -31.666 119.001 -51.999s64.834 -49.333 87.501 -87s34 -82.5 34 -134.5c0 -86.667 -34 -158.167 -102 -214.5
s-163.667 -84.5 -287 -84.5c-168 0 -301 52 -399 156z" />
    <glyph glyph-name="t" unicode="t" horiz-adv-x="602" 
d="M20 854l0.000976562 135h164v271h154v-271h201v-135h-201v-614c0 -38.667 8.5 -69.5 25.5 -92.5s41.833 -34.5 74.5 -34.5c46 0 81 13.667 105 41l45 -115c-44.667 -42.667 -106.334 -64 -185.001 -64c-72 0 -126.5 20.167 -163.5 60.5s-55.5 97.5 -55.5 171.5v647h-164z
" />
    <glyph glyph-name="u" unicode="u" horiz-adv-x="1128" 
d="M154 291v698.001h153v-651c0 -82.667 19 -140.834 57 -174.501s92.667 -50.5 164 -50.5c58 0 113.833 14.333 167.5 43s95.5 64 125.5 106v727h154v-989h-154v139c-41.333 -46.667 -93 -85.667 -155 -117s-127.667 -47 -197 -47c-210 0 -315 105.333 -315 316z" />
    <glyph glyph-name="v" unicode="v" horiz-adv-x="1003" 
d="M6 989h166l330 -811l327 811h168l-411 -989h-168z" />
    <glyph glyph-name="w" unicode="w" horiz-adv-x="1503" 
d="M25 989h159l242 -788l260 788h131l260 -788l242 788h160l-316 -989h-153l-258 795l-258 -795h-154z" />
    <glyph glyph-name="x" unicode="x" horiz-adv-x="995" 
d="M25 0l378 508l-358 481h178l275 -377l274 377h178l-358 -481l381 -508h-178l-297 406l-297 -406h-176z" />
    <glyph glyph-name="y" unicode="y" horiz-adv-x="1003" 
d="M6 989h165.999l330 -811l327 811h168l-495 -1190c-54 -131.333 -151 -198 -291 -200c-41.333 0 -79 4.66699 -113 14l25 139c24.667 -10.667 52.667 -16 84 -16c36 0 65.333 7.5 88 22.5s42.334 42.167 59.001 81.5l66 150z" />
    <glyph glyph-name="z" unicode="z" horiz-adv-x="966" 
d="M106 0v119l545 735h-545v135h746v-117l-549 -739h557v-133h-754z" />
    <glyph glyph-name="braceleft" unicode="{" horiz-adv-x="532" 
d="M10 449v101.998c34.667 0 61.167 13.333 79.5 40s27.5 60.334 27.5 101.001v420c0 81.333 25.667 147.833 77 199.5s111 77.5 179 77.5h125v-113h-125c-37.333 0 -69.166 -15.5 -95.499 -46.5s-39.5 -70.167 -39.5 -117.5v-432c0 -92.667 -31.667 -152.667 -95 -180
c63.333 -27.333 95 -87.666 95 -180.999v-432c0 -46.667 13.167 -85.5 39.5 -116.5s58.166 -46.5 95.499 -46.5h125v-113h-125c-68 0 -127.667 25.5 -179 76.5s-77 116.833 -77 197.5v422c0 40.667 -9.33301 74.5 -28 101.5s-45 40.5 -79 40.5z" />
    <glyph glyph-name="bar" unicode="|" horiz-adv-x="432" 
d="M160 -41v1448h112v-1448h-112z" />
    <glyph glyph-name="braceright" unicode="}" horiz-adv-x="532" 
d="M35 -276l125 0.000976562c37.333 0 69.166 15.5 95.499 46.5s39.5 69.833 39.5 116.5v432c0 94 31.333 154.333 94 181c-62.667 26.667 -94 86.667 -94 180v432c0 47.333 -13.167 86.5 -39.5 117.5s-58.166 46.5 -95.499 46.5h-125v113h125
c68.667 0 128.5 -25.667 179.5 -77s76.5 -118 76.5 -200v-420c0 -40.667 9.16699 -74.334 27.5 -101.001s44.5 -40 78.5 -40v-102c-34 0 -60.167 -13.5 -78.5 -40.5s-27.5 -60.833 -27.5 -101.5v-422c0 -80.667 -25.5 -146.5 -76.5 -197.5s-110.833 -76.5 -179.5 -76.5h-125
v113z" />
    <glyph glyph-name="asciitilde" unicode="~" horiz-adv-x="1030" 
d="M55 879c5.33301 54 11.668 102.832 19.001 146.499s18.166 87.334 32.499 131.001s31.5 80 51.5 109s45.333 52.667 76 71s65.334 27.5 104.001 27.5c34.667 0 65.334 -7.16699 92.001 -21.5s47.834 -33 63.501 -56s29.5 -48.5 41.5 -76.5s22.667 -55.833 32 -83.5
s19 -53 29 -76s22.833 -41.667 38.5 -56s34.167 -21.5 55.5 -21.5c89.333 0 145.333 131 168 393l115 -14c-4 -44.667 -9 -85.334 -15 -122.001s-13.667 -74.334 -23 -113.001s-21.166 -72.334 -35.499 -101.001s-31 -54.667 -50 -78s-42 -41.166 -69 -53.499
s-57.167 -18.5 -90.5 -18.5c-40 0 -74.667 9.66699 -104 29s-51.333 43.333 -66 72s-28.834 59.834 -42.501 93.501s-25.334 64.834 -35.001 93.501s-23.334 52.667 -41.001 72s-38.834 29 -63.501 29c-24 0 -45.5 -9.5 -64.5 -28.5s-35.167 -46.5 -48.5 -82.5
s-24.333 -76.667 -33 -122s-16 -98 -22 -158z" />
    <glyph glyph-name="uni00A0" unicode="&#xa0;" horiz-adv-x="528" 
 />
    <glyph glyph-name="cent" unicode="&#xa2;" horiz-adv-x="1013" 
d="M96 496c0 134 38.5 248.5 115.5 343.5s178.5 151.167 304.5 168.5v149h121v-145c128 -10 233 -66.667 315 -170l-102 -94c-54 73.333 -125 115.333 -213 126v-759c86 8 157 50.333 213 127l102 -95c-80 -103.333 -185 -160 -315 -170v-182h-121v187
c-126 16.667 -227.5 72.5 -304.5 167.5s-115.5 210.5 -115.5 346.5zM256 496c0 -96 23.167 -177.83 69.5 -245.497s109.833 -110.834 190.5 -129.501v745c-80.667 -18.667 -144.167 -61.334 -190.5 -128.001s-69.5 -147.334 -69.5 -242.001z" />
    <glyph glyph-name="sterling" unicode="&#xa3;" horiz-adv-x="1060" 
d="M39 549l0.00292969 109.997h217c-51.333 59.333 -85.333 102.333 -102 129c-37.333 61.333 -56 126.333 -56 195c0 73.333 20.833 141 62.5 203s97.667 110.833 168 146.5s146.5 53.5 228.5 53.5c93.333 0 176.166 -20 248.499 -60s127.5 -96.333 165.5 -169l-137 -82
c-18.667 46 -52 85.5 -100 118.5s-101.667 49.5 -161 49.5c-81.333 0 -150.333 -23.833 -207 -71.5s-85 -111.167 -85 -190.5c0 -28.667 3.16699 -55.5 9.5 -80.5s16.166 -49 29.499 -72s25.666 -42.167 36.999 -57.5s26.666 -34.666 45.999 -57.999
s33.666 -41.333 42.999 -54h308v-110h-250c9.33301 -31.333 14 -60.666 14 -87.999c0 -107.333 -52 -197.666 -156 -270.999c36.667 12.667 72.334 19 107.001 19c44.667 0 96.834 -14 156.501 -42s108.5 -42 146.5 -42c41.333 0 80 8.5 116 25.5s62.333 35.833 79 56.5
l73 -137c-67.333 -64.667 -159.333 -97 -276 -97c-41.333 0 -79.166 5 -113.499 15s-61.5 20.833 -81.5 32.5s-45.167 22.5 -75.5 32.5s-62.5 15 -96.5 15c-56 0 -136.333 -27.333 -241 -82l-62 127c87.333 39.333 154.666 86 201.999 140s71 111.667 71 173
c0 39.333 -10.333 80.333 -31 123h-297z" />
    <glyph glyph-name="yen" unicode="&#xa5;" horiz-adv-x="1282" 
d="M18 1366h199l424 -635l424 635h199l-465 -682h440v-106h-512v-220h512v-108h-512v-250h-170v250h-512v108h512v220h-512v106h438z" />
    <glyph glyph-name="section" unicode="&#xa7;" horiz-adv-x="958" 
d="M70 -6l76.9932 99.999c34 -41.333 79 -76.166 135 -104.499s117.667 -42.5 185 -42.5c72 0 130 15.833 174 47.5s66 75.167 66 130.5c0 34 -11.333 62.667 -34 86s-52 41.5 -88 54.5s-75.667 24.833 -119 35.5s-86.833 22.834 -130.5 36.501s-83.5 30 -119.5 49
s-65.333 46.167 -88 81.5s-34 77.333 -34 126c0 68 22.333 124.167 67 168.5s101 75.5 169 93.5c-76.667 24 -135.167 56 -175.5 96s-60.5 92 -60.5 156c0 78.667 33.333 144.667 100 198s156.334 80 269.001 80c158.667 0 280 -48.333 364 -145l-69 -92
c-33.333 40 -76.166 70.5 -128.499 91.5s-106.5 31.5 -162.5 31.5c-66 0 -119.667 -15 -161 -45s-62 -69.667 -62 -119c0 -30.667 11.333 -56.5 34 -77.5s51.834 -37.167 87.501 -48.5s75.334 -21.833 119.001 -31.5s87.334 -21.334 131.001 -35.001
s83.334 -30.5 119.001 -50.5s64.834 -48.667 87.501 -86s34 -82 34 -134c0 -119.333 -62.667 -206.666 -188 -261.999c60.667 -22.667 107.167 -53.834 139.5 -93.501s48.5 -91.167 48.5 -154.5c0 -93.333 -35.667 -166.833 -107 -220.5s-165.333 -80.5 -282 -80.5
c-91.333 0 -167.5 14.167 -228.5 42.5s-117.167 67.5 -168.5 117.5zM243.993 609.999c0 -35.333 14.502 -65.5049 43.502 -90.5049s57.667 -42.167 86 -51.5s73.166 -21.666 134.499 -36.999c12 -3.33301 21 -5.66602 27 -6.99902c57.333 24.667 100 52.834 128 84.501
s42 70.5 42 116.5c0 22.667 -4.66699 43.5 -14 62.5s-20.833 34.667 -34.5 47s-31.667 23.833 -54 34.5s-42.833 19 -61.5 25s-41.334 12.333 -68.001 19c-84 -21.333 -143.167 -48.666 -177.5 -81.999s-51.5 -73.666 -51.5 -120.999z" />
    <glyph glyph-name="dieresis" unicode="&#xa8;" horiz-adv-x="557" 
d="M-29 1237c0 25.333 9.5 47.333 28.5 66s41.833 28 68.5 28c25.333 0 47.333 -9.33301 66 -28s28 -40.667 28 -66c0 -26.667 -9.33301 -49.334 -28 -68.001s-40.667 -28 -66 -28c-26.667 0 -49.5 9.33301 -68.5 28s-28.5 41.334 -28.5 68.001zM393 1237
c0 25.333 9.66797 47.333 29.001 66s41.666 28 66.999 28c26 0 48.667 -9.33301 68 -28s29 -40.667 29 -66c0 -26 -9.66699 -48.5 -29 -67.5s-42 -28.5 -68 -28.5s-48.5 9.5 -67.5 28.5s-28.5 41.5 -28.5 67.5z" />
    <glyph glyph-name="copyright" unicode="&#xa9;" horiz-adv-x="1593" 
d="M90 684c0 128 31.667 246.33 95 354.997s149.333 194.5 258 257.5s226.667 94.5 354 94.5c96 0 187.667 -18.667 275 -56s162.333 -87.5 225 -150.5s112.667 -138.167 150 -225.5s56 -179 56 -275c0 -95.333 -18.667 -186.666 -56 -273.999
s-87.333 -162.666 -150 -225.999s-137.667 -113.666 -225 -150.999s-179 -56 -275 -56c-127.333 0 -245.333 31.667 -354 95s-194.667 149.333 -258 258s-95 226.667 -95 354zM154 683.997c0 -116 28.833 -223.333 86.5 -322s135.834 -176.834 234.501 -234.501
s206 -86.5 322 -86.5s223.333 28.833 322 86.5s176.834 135.834 234.501 234.501s86.5 206 86.5 322s-28.833 223.333 -86.5 322s-135.834 176.834 -234.501 234.501s-206 86.5 -322 86.5s-223.333 -28.833 -322 -86.5s-176.834 -135.834 -234.501 -234.501
s-86.5 -206 -86.5 -322zM375 685.997c0 124 41.332 227.666 123.999 310.999s183.334 125 302.001 125c122 0 221.667 -45 299 -135l-51 -49c-26 36 -61.667 64.5 -107 85.5s-92.333 31.5 -141 31.5c-95.333 0 -177.5 -34.667 -246.5 -104s-103.5 -157.666 -103.5 -264.999
c0 -105.333 34.833 -193.5 104.5 -264.5s151.5 -106.5 245.5 -106.5c48.667 0 95.5 10.833 140.5 32.5s80.833 50.5 107.5 86.5l53 -51c-77.333 -90 -177.666 -135 -300.999 -135c-118.667 0 -219.334 42 -302.001 126s-124 188 -124 312z" />
    <glyph glyph-name="ordfeminine" unicode="&#xaa;" horiz-adv-x="774" 
d="M84 864c0 66.667 22.835 118.499 68.502 155.499s99.167 55.5 160.5 55.5c90.667 0 163.667 -28.667 219 -86v113c0 40.667 -15.5 73 -46.5 97s-69.167 36 -114.5 36c-81.333 0 -149 -31.333 -203 -94l-51 76c71.333 73.333 160.666 110 267.999 110
c77.333 0 140.666 -18.333 189.999 -55s74 -94 74 -172v-432h-117v71c-54 -58.667 -127 -88 -219 -88c-60.667 0 -114 19.333 -160 58s-69 90.334 -69 155.001zM203.002 863.999c0 -40.667 14.499 -73.333 43.499 -98s66.167 -37 111.5 -37c35.333 0 68.5 7 99.5 21
s55.833 33 74.5 57v115c-18 24 -42.667 42.833 -74 56.5s-64.666 20.5 -99.999 20.5c-45.333 0 -82.5 -12.5 -111.5 -37.5s-43.5 -57.5 -43.5 -97.5z" />
    <glyph glyph-name="guillemotleft" unicode="&#xab;" horiz-adv-x="899" 
d="M61 498l328 362h154l-328 -362l328 -369h-154zM356 498l328 362h154l-328 -362l328 -369h-154z" />
    <glyph glyph-name="logicalnot" unicode="&#xac;" horiz-adv-x="1032" 
d="M59 827v109h904v-504h-113v395h-791z" />
    <glyph glyph-name="uni00AD" unicode="&#xad;" horiz-adv-x="614" 
d="M61 428v135h492v-135h-492z" />
    <glyph glyph-name="registered" unicode="&#xae;" horiz-adv-x="1011" 
d="M72 952c0 120.667 42.333 223.167 127 307.5s187 126.5 307 126.5c79.333 0 152.333 -19.167 219 -57.5s119.167 -90.833 157.5 -157.5s57.5 -139.667 57.5 -219c0 -120 -42.167 -222.333 -126.5 -307s-186.833 -127 -307.5 -127c-120 0 -222.333 42.333 -307 127
s-127 187 -127 307zM129 952c0 -104 36.834 -192.832 110.501 -266.499s162.5 -110.5 266.5 -110.5c103.333 0 191.666 37 264.999 111s110 162.667 110 266c0 104 -36.5 192.5 -109.5 265.5s-161.5 109.5 -265.5 109.5c-104.667 0 -193.667 -36.333 -267 -109
s-110 -161.334 -110 -266.001zM340.001 702.001v498h203c43.333 0 80.333 -14 111 -42s46 -64.333 46 -109c0 -48 -15.333 -84.667 -46 -110s-57.667 -38 -81 -38l134 -199h-82l-129 197h-90v-197h-66zM406.001 958.001h137c22.667 0 43.334 9 62.001 27s28 39.333 28 64
c0 26.667 -9.33301 49 -28 67s-39.334 27 -62.001 27h-137v-185z" />
    <glyph glyph-name="degree" unicode="&#xb0;" horiz-adv-x="593" 
d="M47 1137c0 68.667 24.167 127.334 72.5 176.001s106.833 73 175.5 73c69.333 0 128.666 -24.333 177.999 -73s74 -107.334 74 -176.001c0 -69.333 -24.667 -128.333 -74 -177s-108.666 -73 -177.999 -73c-68.667 0 -127.167 24.333 -175.5 73s-72.5 107.667 -72.5 177z
M147 1137c0 -42 14.5 -77.833 43.5 -107.5s63.833 -44.5 104.5 -44.5c42 0 78.167 14.833 108.5 44.5s45.5 65.5 45.5 107.5c0 41.333 -15.167 76.833 -45.5 106.5s-66.5 44.5 -108.5 44.5c-40.667 0 -75.5 -14.833 -104.5 -44.5s-43.5 -65.167 -43.5 -106.5z" />
    <glyph glyph-name="plusminus" unicode="&#xb1;" horiz-adv-x="1021" 
d="M59 0v106h904v-106h-904zM59 664v106h394v424h116v-424h394v-106h-394v-439h-116v439h-394z" />
    <glyph glyph-name="acute" unicode="&#xb4;" horiz-adv-x="462" 
d="M0 1139l303 295h160l-346 -295h-117z" />
    <glyph glyph-name="mu" unicode="&#xb5;" horiz-adv-x="1157" 
d="M154 -377l-0.00195312 1366h153v-651c0 -152.667 75 -229 225 -229c56 0 110.667 14.833 164 44.5s95 65.834 125 108.501v727h154v-758c0 -36.667 8.33301 -65.5 25 -86.5s40.334 -31.5 71.001 -31.5c15.333 0 28.333 1.33301 39 4l12 -133c-34.667 -6 -62 -9 -82 -9
c-120.667 0 -191.667 59 -213 177c-37.333 -51.333 -83.666 -93.666 -138.999 -126.999s-113.333 -50 -174 -50c-102 0 -171 33 -207 99v-451h-153z" />
    <glyph glyph-name="paragraph" unicode="&#xb6;" horiz-adv-x="919" 
d="M55 1014c0 97.333 34.5 180.333 103.5 249s152.167 103 249.5 103h366v-1571h-92v1479h-182v-1479h-92v867c-97.333 0 -180.5 34.333 -249.5 103s-103.5 151.667 -103.5 249z" />
    <glyph glyph-name="periodcentered" unicode="&#xb7;" 
d="M123 500c0 30.667 11.167 57 33.5 79s48.833 33 79.5 33s57 -11 79 -33s33 -48.333 33 -79c0 -29.333 -11 -55.166 -33 -77.499s-48.333 -33.5 -79 -33.5s-57.167 11.167 -79.5 33.5s-33.5 48.166 -33.5 77.499z" />
    <glyph glyph-name="cedilla" unicode="&#xb8;" horiz-adv-x="419" 
d="M0 -330l39.001 78c47.333 -39.333 102 -59 164 -59c34.667 0 64.167 7.66699 88.5 23s36.5 36.333 36.5 63c0 22 -6.5 39.333 -19.5 52s-31.833 19 -56.5 19c-31.333 0 -57.333 -11.333 -78 -34l-68 38l64 173h92l-53 -136c22 15.333 47.333 23 76 23
c39.333 0 71.666 -12.5 96.999 -37.5s38 -58.167 38 -99.5c0 -48.667 -20.5 -88.167 -61.5 -118.5s-91.5 -45.5 -151.5 -45.5c-42 0 -81.5 5.83301 -118.5 17.5s-66.5 26.167 -88.5 43.5z" />
    <glyph glyph-name="ordmasculine" unicode="&#xba;" horiz-adv-x="829" 
d="M82 989c0 95.333 30.5 175.5 91.5 240.5s141.167 97.5 240.5 97.5c100.667 0 181.5 -32.333 242.5 -97s91.5 -145 91.5 -241s-30.5 -176.333 -91.5 -241s-141.833 -97 -242.5 -97c-99.333 0 -179.5 32.5 -240.5 97.5s-91.5 145.167 -91.5 240.5zM205 989
c0 -69.333 18.667 -126.5 56 -171.5s88.333 -67.5 153 -67.5c66 0 118 22.5 156 67.5s57 102.167 57 171.5c0 68.667 -19 125.167 -57 169.5s-90 66.5 -156 66.5c-64.667 0 -115.667 -22.167 -153 -66.5s-56 -100.833 -56 -169.5z" />
    <glyph glyph-name="guillemotright" unicode="&#xbb;" horiz-adv-x="899" 
d="M61 129l328 369l-328 362h154l328 -362l-328 -369h-154zM356 129l328 369l-328 362h154l328 -362l-328 -369h-154z" />
    <glyph glyph-name="divide" unicode="&#xf7;" horiz-adv-x="1046" 
d="M59 637v106h928v-106h-928zM430 295c0 25.333 9 47.333 27 66s39.667 28 65 28c26.667 0 49.334 -9.33301 68.001 -28s28 -40.667 28 -66s-9.33301 -47.333 -28 -66s-41.334 -28 -68.001 -28c-25.333 0 -47 9.33301 -65 28s-27 40.667 -27 66zM430 1077
c0 26.667 9 49 27 67s39.667 27 65 27c26.667 0 49.334 -9 68.001 -27s28 -40.333 28 -67c0 -25.333 -9.33301 -47.333 -28 -66s-41.334 -28 -68.001 -28c-25.333 0 -47 9.33301 -65 28s-27 40.667 -27 66z" />
    <glyph glyph-name="florin" unicode="&#x192;" horiz-adv-x="882" 
d="M51 -330l188.998 849.999h-140v139h168l94 418c20.667 94.667 63.334 169.834 128.001 225.501s141 83.5 229 83.5c81.333 0 145.333 -24.333 192 -73l-75 -125c-25.333 31.333 -59.666 47 -102.999 47c-49.333 0 -92.5 -16.667 -129.5 -50s-62.167 -79.333 -75.5 -138
l-86 -388h285v-139h-315l-189 -850h-172z" />
    <glyph glyph-name="circumflex" unicode="&#x2c6;" horiz-adv-x="542" 
d="M0 1139l195 295h147l201 -295h-105l-170 217l-164 -217h-104z" />
    <glyph glyph-name="ring" unicode="&#x2da;" horiz-adv-x="401" 
d="M0 1313c0 55.333 19.667 103 59 143s86.666 60 141.999 60s102.5 -19.833 141.5 -59.5s58.5 -87.5 58.5 -143.5c0 -55.333 -19.5 -102.666 -58.5 -141.999s-86.167 -59 -141.5 -59s-102.666 19.667 -141.999 59s-59 86.666 -59 141.999zM82 1313
c0 -33.333 11.667 -61.833 35 -85.5s51.333 -35.5 84 -35.5c33.333 0 61.333 11.833 84 35.5s34 52.167 34 85.5c0 34 -11.167 62.667 -33.5 86s-50.5 35 -84.5 35c-33.333 0 -61.5 -11.667 -84.5 -35s-34.5 -52 -34.5 -86z" />
    <glyph glyph-name="tilde" unicode="&#x2dc;" horiz-adv-x="641" 
d="M0 1147c0 82 17.502 148.167 52.502 198.5s83.833 75.5 146.5 75.5c27.333 0 51.666 -6.5 72.999 -19.5s38.666 -28.667 51.999 -47s26 -36.666 38 -54.999s25.333 -34 40 -47s31 -19.5 49 -19.5c29.333 0 53 14.667 71 44s27 73.333 27 132h92
c0 -82 -17.5 -148.167 -52.5 -198.5s-83.833 -75.5 -146.5 -75.5c-28 0 -52.667 6.5 -74 19.5s-38.666 28.667 -51.999 47s-25.833 36.666 -37.5 54.999s-24.834 34 -39.501 47s-31 19.5 -49 19.5c-29.333 0 -53 -14.667 -71 -44s-27 -73.333 -27 -132h-92z" />
    <glyph glyph-name="uni03A9" unicode="&#x3a9;" horiz-adv-x="1566" 
d="M104 713c0 130 28.335 246.333 85.002 349s136.5 182.834 239.5 240.501s220.833 86.5 353.5 86.5c133.333 0 251.666 -29 354.999 -87s183 -138.167 239 -240.5s84 -218.5 84 -348.5c0 -128 -27.833 -239 -83.5 -333s-130.834 -170 -225.501 -228h274v-152h-491v152
c45.333 11.333 88.666 31.5 129.999 60.5s78.5 65.333 111.5 109s59.333 96.834 79 159.501s29.5 130.334 29.5 203.001c0 102 -18.833 194.167 -56.5 276.5s-95 148.666 -172 198.999s-168.167 75.5 -273.5 75.5c-79.333 0 -151.166 -14.5 -215.499 -43.5
s-117 -68.667 -158 -119s-72.5 -108.666 -94.5 -174.999s-33 -137.5 -33 -213.5c0 -72.667 9.83301 -140.334 29.5 -203.001s46.334 -115.834 80.001 -159.501s71.167 -80 112.5 -109s84.666 -49.167 129.999 -60.5v-152h-492v152h277c-96 58 -172.333 134.167 -229 228.5
s-85 205.166 -85 332.499z" />
    <glyph glyph-name="pi" unicode="&#x3c0;" horiz-adv-x="1191" 
d="M20 854v135h1151v-135h-163v-854h-154v854h-516v-854h-154v854h-164z" />
    <glyph glyph-name="uni0401" unicode="&#x401;" horiz-adv-x="1165" 
d="M160 0v1366h895v-152h-725v-440h710v-151h-710v-471h725v-152h-895zM299 1579c0 25.333 9.33301 47.333 28 66s41.334 28 68.001 28c25.333 0 47.333 -9.33301 66 -28s28 -40.667 28 -66c0 -26.667 -9.33301 -49.334 -28 -68.001s-40.667 -28 -66 -28
c-26.667 0 -49.334 9.33301 -68.001 28s-28 41.334 -28 68.001zM721 1579c0 25.333 9.66895 47.333 29.002 66s41.666 28 66.999 28s47.666 -9.33301 66.999 -28s29 -40.667 29 -66c0 -26 -9.5 -48.5 -28.5 -67.5s-41.5 -28.5 -67.5 -28.5s-48.5 9.5 -67.5 28.5
s-28.5 41.5 -28.5 67.5z" />
    <glyph glyph-name="uni0402" unicode="&#x402;" horiz-adv-x="1574" 
d="M66 1214v151.999h1036v-152h-434v-383c115.333 32 225 48 329 48c154.667 0 272.167 -41.667 352.5 -125s120.5 -192.666 120.5 -327.999v-16c0 -72 -11.667 -136.167 -35 -192.5s-55.333 -102 -96 -137s-87.5 -61.333 -140.5 -79s-110.5 -26.5 -172.5 -26.5v152
c84.667 0 151.5 25.333 200.5 76s73.5 119.667 73.5 207v16c0 98.667 -27 173.5 -81 224.5s-132.667 76.5 -236 76.5c-114.667 0 -219.667 -15.667 -315 -47v-680h-170v1214h-432z" />
    <glyph glyph-name="uni0403" unicode="&#x403;" horiz-adv-x="1126" 
d="M160 0v1366h895v-152h-725v-1214h-170zM467 1481l303 295h160l-346 -295h-117z" />
    <glyph glyph-name="uni0404" unicode="&#x404;" horiz-adv-x="1384" 
d="M104 682c0 102.667 18.3291 198.332 54.9961 286.999s86.334 163.5 149.001 224.5s137.167 108.833 223.5 143.5s178.166 52 275.499 52c217.333 0 390 -90.333 518 -271l-143 -80c-40 59.333 -93.5 107.333 -160.5 144s-138.5 55 -214.5 55
c-134.667 0 -250.167 -42.833 -346.5 -128.5s-154.166 -197.167 -173.499 -334.5h747v-151h-751c13.333 -146 68.833 -265.167 166.5 -357.5s216.834 -138.5 357.501 -138.5c76.667 0 148.334 18.167 215.001 54.5s120 84.5 160 144.5l145 -80
c-133.333 -180.667 -306.666 -271 -519.999 -271c-97.333 0 -189.166 17.333 -275.499 52s-160.833 82.5 -223.5 143.5s-112.334 135.833 -149.001 224.5s-55 184.334 -55 287.001z" />
    <glyph glyph-name="uni0405" unicode="&#x405;" horiz-adv-x="1200" 
d="M78 193l100 129.006c50.667 -56.667 112.667 -103.334 186 -140.001s154.666 -55 243.999 -55c58 0 108.833 7.16699 152.5 21.5s77.334 33.5 101.001 57.5s41 49 52 75s16.5 53 16.5 81c0 37.333 -9.16699 70.166 -27.5 98.499s-43.166 51.333 -74.499 69
s-67.166 33.5 -107.499 47.5s-82.833 27 -127.5 39l-134.5 37.5c-45 13 -87.667 29.333 -128 49s-76.166 42.334 -107.499 68.001s-56.166 58.667 -74.499 99s-27.5 86.5 -27.5 138.5c0 111.333 44.333 202.166 133 272.499s200.667 105.5 336 105.5
c202.667 0 364.334 -63.333 485.001 -190l-102 -125c-98.667 109.333 -230.334 164 -395.001 164c-82.667 0 -150.167 -20.167 -202.5 -60.5s-78.5 -92.5 -78.5 -156.5c0 -32.667 9.16699 -61.334 27.5 -86.001s43.166 -44.834 74.499 -60.501
s67.166 -29.834 107.499 -42.501s83 -25 128 -37s89.833 -24.833 134.5 -38.5s87.167 -31 127.5 -52s76.166 -45.333 107.499 -73s56.166 -62.834 74.499 -105.501s27.5 -91.334 27.5 -146.001c0 -41.333 -5.5 -80.833 -16.5 -118.5s-29.333 -74 -55 -109
s-57.5 -65.167 -95.5 -90.5s-85.833 -45.666 -143.5 -60.999s-122.167 -23 -193.5 -23c-220 0 -394.667 72.667 -524 218z" />
    <glyph glyph-name="uni0406" unicode="&#x406;" horiz-adv-x="489" 
d="M160 0v1366h170v-1366h-170z" />
    <glyph glyph-name="uni0407" unicode="&#x407;" horiz-adv-x="489" 
d="M-63 1579c0 25.333 9.33301 47.333 28 66s41.334 28 68.001 28c25.333 0 47.333 -9.33301 66 -28s28 -40.667 28 -66c0 -26.667 -9.33301 -49.334 -28 -68.001s-40.667 -28 -66 -28c-26.667 0 -49.334 9.33301 -68.001 28s-28 41.334 -28 68.001zM160 0v1366h170v-1366
h-170zM358 1579c0 25.333 9.66797 47.333 29.001 66s42 28 68 28c25.333 0 47.666 -9.33301 66.999 -28s29 -40.667 29 -66c0 -26 -9.5 -48.5 -28.5 -67.5s-41.5 -28.5 -67.5 -28.5s-48.667 9.5 -68 28.5s-29 41.5 -29 67.5z" />
    <glyph glyph-name="uni0408" unicode="&#x408;" horiz-adv-x="972" 
d="M23 133l87.999 129c74 -90 160 -135 258 -135c83.333 0 149.833 26.333 199.5 79s74.5 122 74.5 208v952h170v-954c0 -72.667 -11.167 -137.167 -33.5 -193.5s-53.166 -102 -92.499 -137s-85 -61.5 -137 -79.5s-109 -27 -171 -27c-148 0 -266.667 52.667 -356 158z" />
    <glyph glyph-name="uni0409" unicode="&#x409;" horiz-adv-x="2170" 
d="M66 -25l-0.00292969 152.001c44 0 81 7.16699 111 21.5s58.333 41.333 85 81s49.334 96 68.001 169s35 166.833 49 281.5l84 686h835v-543h379c130.667 0 234.667 -39.5 312 -118.5s116 -176.5 116 -292.5c0 -116.667 -38.333 -214.5 -115 -293.5
s-181 -118.5 -313 -118.5h-549v1214h-514l-67 -546c-10.667 -84.667 -23.167 -160.334 -37.5 -227.001s-30 -124.167 -47 -172.5s-36.667 -90 -59 -125s-45.166 -63.333 -68.499 -85s-50 -38.667 -80 -51s-59.667 -20.833 -89 -25.5s-62.666 -7 -99.999 -7zM1298 152.001
h359c80.667 0 146.167 24 196.5 72s75.5 110.667 75.5 188s-25.167 140 -75.5 188s-115.833 72 -196.5 72h-359v-520z" />
    <glyph glyph-name="uni040A" unicode="&#x40a;" horiz-adv-x="2170" 
d="M160 0v1366h170v-588h798v588h170v-588h404c82.667 0 155 -17.833 217 -53.5s108.5 -82.667 139.5 -141s46.5 -123.166 46.5 -194.499c0 -110 -36 -202.333 -108 -277s-170.333 -112 -295 -112h-574v627h-798v-627h-170zM1298 151.999l383 -0.000976562
c73.333 0 133 21.833 179 65.5s69 100.834 69 171.501c0 70 -23 127.167 -69 171.5s-105.667 66.5 -179 66.5h-383v-475z" />
    <glyph glyph-name="uni040B" unicode="&#x40b;" horiz-adv-x="1607" 
d="M66 1214v152h1036v-152h-434v-383c115.333 32 225 48 329 48c156 0 273.833 -42 353.5 -126s119.5 -198.333 119.5 -343v-410h-170v412c0 104 -26.833 182.5 -80.5 235.5s-132.5 79.5 -236.5 79.5c-114.667 0 -219.667 -15.667 -315 -47v-680h-170v1214h-432z" />
    <glyph glyph-name="uni040C" unicode="&#x40c;" horiz-adv-x="1230" 
d="M160 0v1366h170v-707l604 707h213l-569 -649l618 -717h-211l-518 614l-137 -155v-459h-170zM506 1481l303 295h160l-346 -295h-117z" />
    <glyph glyph-name="uni040E" unicode="&#x40e;" horiz-adv-x="1282" 
d="M18 1366l194.998 0.000976562l428 -846l428 846h195l-596 -1124c-23.333 -44 -45.833 -81 -67.5 -111s-47.167 -57.5 -76.5 -82.5s-62.666 -43.5 -99.999 -55.5s-79.666 -18 -126.999 -18c-56 0 -108 10.333 -156 31s-84.667 46.667 -110 78l71 135
c58.667 -61.333 121 -92 187 -92c52 0 93 13.667 123 41s65.333 78.666 106 153.999l25 47zM282.998 1624l74.999 66c72.667 -98.667 167.667 -148 285 -148c58.667 0 112.5 13 161.5 39s89.5 62.333 121.5 109l75 -66c-41.333 -56 -93.166 -100 -155.499 -132
s-129.833 -48 -202.5 -48c-71.333 0 -138.5 16 -201.5 48s-115.833 76 -158.5 132z" />
    <glyph glyph-name="uni040F" unicode="&#x40f;" horiz-adv-x="1458" 
d="M160 0v1366h170v-1214h798v1214h170v-1366h-483v-260h-170v260h-485z" />
    <glyph glyph-name="uni0410" unicode="&#x410;" horiz-adv-x="1347" 
d="M18 0l549 1366h211l551 -1366h-194l-121 303h-680l-121 -303h-195zM383 455h580l-289 735z" />
    <glyph glyph-name="uni0411" unicode="&#x411;" horiz-adv-x="1202" 
d="M160 0v1366h887v-152h-717v-391h379c130.667 0 234.667 -39.5 312 -118.5s116 -176.5 116 -292.5c0 -116.667 -38.333 -214.5 -115 -293.5s-181 -118.5 -313 -118.5h-549zM330 152h358c80.667 0 146.334 24 197.001 72s76 110.667 76 188s-25.333 140 -76 188
s-116.334 72 -197.001 72h-358v-520z" />
    <glyph glyph-name="uni0412" unicode="&#x412;" horiz-adv-x="1288" 
d="M160 0l-0.000976562 1366h608c117.333 0 210.5 -32 279.5 -96s103.5 -148 103.5 -252c0 -82 -23.333 -151 -70 -207s-103.334 -91.333 -170.001 -106c72.667 -11.333 135.334 -49.833 188.001 -115.5s79 -139.167 79 -220.5c0 -111.333 -35.167 -200.666 -105.5 -267.999
s-167.166 -101 -290.499 -101h-622zM329.999 151.999h418c79.333 0 141.333 21 186 63s67 99.333 67 172c0 66.667 -22.167 122.667 -66.5 168s-106.5 68 -186.5 68h-418v-471zM329.999 773.999l409 -0.000976562c74.667 0 132.667 20.333 174 61s62 93.334 62 158.001
c0 64 -20.667 116.833 -62 158.5s-99.333 62.5 -174 62.5h-409v-440z" />
    <glyph glyph-name="uni0413" unicode="&#x413;" horiz-adv-x="1126" 
d="M160 0v1366h895v-152h-725v-1214h-170z" />
    <glyph glyph-name="uni0414" unicode="&#x414;" horiz-adv-x="1480" 
d="M66 137c36 2 66.333 7.16699 91 15.5s49.167 23.833 73.5 46.5s44.833 53.667 61.5 93s32.5 91 47.5 155s28.167 141.667 39.5 233l84 686h835v-1214h125v-404h-170v252h-1017v-252h-170v389zM338 152h790v1062h-514l-67 -546c-32 -262 -101.667 -434 -209 -516z" />
    <glyph glyph-name="uni0415" unicode="&#x415;" horiz-adv-x="1165" 
d="M160 0v1366h895v-152h-725v-440h710v-151h-710v-471h725v-152h-895z" />
    <glyph glyph-name="uni0416" unicode="&#x416;" horiz-adv-x="1861" 
d="M35 0l618 717l-569 649h213l549 -643v643h170v-643l551 643h213l-572 -649l621 -717h-213l-518 614l-82 -94v-520h-170v520l-82 94l-518 -614h-211z" />
    <glyph glyph-name="uni0417" unicode="&#x417;" horiz-adv-x="1196" 
d="M59 201l100.998 108c42 -54 100 -97.833 174 -131.5s152.333 -50.5 235 -50.5c107.333 0 191.5 22.833 252.5 68.5s91.5 108.167 91.5 187.5c0 82 -31.667 142.833 -95 182.5s-149.666 59.5 -258.999 59.5h-278v151h278c63.333 0 119.166 7.5 167.499 22.5
s87.833 39.833 118.5 74.5s46 77.334 46 128.001c0 73.333 -31.167 130.666 -93.5 171.999s-140.5 62 -234.5 62c-154.667 0 -283.667 -55.333 -387 -166l-94 107c54 62.667 123.667 113.334 209 152.001s180 58 284 58c90.667 0 172.667 -14 246 -42s132.333 -70 177 -126
s67 -121.333 67 -196c0 -46.667 -9.16699 -89.5 -27.5 -128.5s-42.666 -71 -72.999 -96s-61.833 -45.167 -94.5 -60.5s-66 -26 -100 -32c26 -2 53 -7.83301 81 -17.5s56 -23.834 84 -42.501s53 -40.5 75 -65.5s40 -55.833 54 -92.5s21 -76 21 -118
c0 -114.667 -47.333 -209 -142 -283s-218 -111 -370 -111c-114.667 0 -217.667 21.333 -309 64s-159.666 96.667 -204.999 162z" />
    <glyph glyph-name="uni0418" unicode="&#x418;" horiz-adv-x="1449" 
d="M160 0v1366h170v-1067l786 1067h174v-1366h-170v1090l-796 -1090h-164z" />
    <glyph glyph-name="uni0419" unicode="&#x419;" horiz-adv-x="1449" 
d="M160 0v1366h170v-1067l786 1067h174v-1366h-170v1090l-796 -1090h-164zM365 1624l74.999 66c72.667 -98.667 167.667 -148 285 -148c58.667 0 112.5 13 161.5 39s89.5 62.333 121.5 109l75 -66c-41.333 -56 -93.166 -100 -155.499 -132s-129.833 -48 -202.5 -48
c-71.333 0 -138.5 16 -201.5 48s-115.833 76 -158.5 132z" />
    <glyph glyph-name="uni041A" unicode="&#x41a;" horiz-adv-x="1230" 
d="M160 0v1366h170v-707l604 707h213l-569 -649l618 -717h-211l-518 614l-137 -155v-459h-170z" />
    <glyph glyph-name="uni041B" unicode="&#x41b;" horiz-adv-x="1458" 
d="M66 -25l-0.00292969 152.001c44 0 81 7.16699 111 21.5s58.333 41.333 85 81s49.334 96 68.001 169s35 166.833 49 281.5l84 686h835v-1366h-170v1214h-514l-67 -546c-10.667 -84.667 -23.167 -160.334 -37.5 -227.001s-30 -124.167 -47 -172.5s-36.667 -90 -59 -125
s-45.166 -63.333 -68.499 -85s-50 -38.667 -80 -51s-59.667 -20.833 -89 -25.5s-62.666 -7 -99.999 -7z" />
    <glyph glyph-name="uni041C" unicode="&#x41c;" horiz-adv-x="1656" 
d="M160 0v1366h243l424 -1028l426 1028h244v-1366h-170v1124l-465 -1124h-69l-463 1124v-1124h-170z" />
    <glyph glyph-name="uni041D" unicode="&#x41d;" horiz-adv-x="1458" 
d="M160 0v1366h170v-588h798v588h170v-1366h-170v627h-798v-627h-170z" />
    <glyph glyph-name="uni041E" unicode="&#x41e;" horiz-adv-x="1566" 
d="M104 682c0 133.333 28 253.666 84 360.999s135.833 191.833 239.5 253.5s221.834 92.5 354.501 92.5c132 0 249.833 -30.833 353.5 -92.5s183.667 -146.167 240 -253.5s84.5 -227.666 84.5 -360.999s-28.167 -253.666 -84.5 -360.999s-136.333 -191.833 -240 -253.5
s-221.5 -92.5 -353.5 -92.5c-132.667 0 -250.834 30.833 -354.501 92.5s-183.5 146.167 -239.5 253.5s-84 227.666 -84 360.999zM281 682c0 -105.333 20.167 -200 60.5 -284s98.833 -150.167 175.5 -198.5s165 -72.5 265 -72.5c99.333 0 187.5 24.167 264.5 72.5
s135.833 114.5 176.5 198.5s61 178.667 61 284c0 106 -20.333 201 -61 285s-99.334 150 -176.001 198s-165 72 -265 72c-151.333 0 -272.666 -52 -363.999 -156s-137 -237 -137 -399z" />
    <glyph glyph-name="uni041F" unicode="&#x41f;" horiz-adv-x="1458" 
d="M160 0v1366h1138v-1366h-170v1214h-798v-1214h-170z" />
    <glyph glyph-name="uni0420" unicode="&#x420;" horiz-adv-x="1202" 
d="M160 0v1366h549c132 0 236.333 -39.5 313 -118.5s115 -176.833 115 -293.5c0 -116 -38.667 -213.5 -116 -292.5s-181.333 -118.5 -312 -118.5h-379v-543h-170zM330 694h358c80.667 0 146.334 24 197.001 72s76 110.667 76 188s-25.333 140 -76 188
s-116.334 72 -197.001 72h-358v-520z" />
    <glyph glyph-name="uni0421" unicode="&#x421;" horiz-adv-x="1384" 
d="M104 682c0 102.667 18.3311 198.332 54.998 286.999s86.334 163.5 149.001 224.5s137.167 108.833 223.5 143.5s178.166 52 275.499 52c217.333 0 390 -90.333 518 -271l-143 -80c-40 59.333 -93.5 107.333 -160.5 144s-138.5 55 -214.5 55
c-98.667 0 -188 -23.333 -268 -70s-143 -112.5 -189 -197.5s-69 -180.833 -69 -287.5c0 -106 23 -201.5 69 -286.5s109 -151 189 -198s169.333 -70.5 268 -70.5c76.667 0 148.334 18.167 215.001 54.5s120 84.5 160 144.5l145 -80
c-133.333 -180.667 -306.666 -271 -519.999 -271c-97.333 0 -189.166 17.333 -275.499 52s-160.833 82.5 -223.5 143.5s-112.334 135.833 -149.001 224.5s-55 184.334 -55 287.001z" />
    <glyph glyph-name="uni0422" unicode="&#x422;" horiz-adv-x="1167" 
d="M66 1214v152h1036v-152h-434v-1214h-170v1214h-432z" />
    <glyph glyph-name="uni0423" unicode="&#x423;" horiz-adv-x="1282" 
d="M18 1366l194.998 0.000976562l428 -846l428 846h195l-596 -1124c-23.333 -44 -45.833 -81 -67.5 -111s-47.167 -57.5 -76.5 -82.5s-62.666 -43.5 -99.999 -55.5s-79.666 -18 -126.999 -18c-56 0 -108 10.333 -156 31s-84.667 46.667 -110 78l71 135
c58.667 -61.333 121 -92 187 -92c52 0 93 13.667 123 41s65.333 78.666 106 153.999l25 47z" />
    <glyph glyph-name="uni0424" unicode="&#x424;" horiz-adv-x="1650" 
d="M104 682c0 153.333 56.833 279.5 170.5 378.5s268.5 155.167 464.5 168.5v137h170v-137c196 -13.333 351.167 -69.5 465.5 -168.5s171.5 -225.167 171.5 -378.5c0 -154.667 -57.167 -281.5 -171.5 -380.5s-269.5 -155.167 -465.5 -168.5v-133h-170v133
c-196.667 13.333 -351.667 69.333 -465 168s-170 225.667 -170 381zM281 682c0 -109.333 40.333 -199.331 121 -269.998s193 -112.334 337 -125.001v790c-144 -12.667 -256.333 -54.334 -337 -125.001s-121 -160.667 -121 -270zM909 287.002
c143.333 12.667 256 54.332 338 124.999s123 160.667 123 270s-41 199.333 -123 270s-194.667 112.334 -338 125.001v-790z" />
    <glyph glyph-name="uni0425" unicode="&#x425;" horiz-adv-x="1335" 
d="M25 0l532 700l-502 666h207l406 -547l403 547h207l-500 -664l531 -702h-205l-436 582l-437 -582h-206z" />
    <glyph glyph-name="uni0426" unicode="&#x426;" horiz-adv-x="1480" 
d="M160 0v1366h170v-1214h798v1214h170v-1214h125v-404h-170v252h-1093z" />
    <glyph glyph-name="uni0427" unicode="&#x427;" horiz-adv-x="1251" 
d="M119 1012l0.000976562 354h170v-356c0 -104 26.833 -182.667 80.5 -236s132.5 -80 236.5 -80c115.333 0 220.666 15.667 315.999 47v625h170v-1366h-170v590c-112.667 -31.333 -222.667 -47 -330 -47c-156.667 0 -274.667 41.833 -354 125.5s-119 198.167 -119 343.5z
" />
    <glyph glyph-name="uni0428" unicode="&#x428;" horiz-adv-x="1961" 
d="M160 0v1366h170v-1214h567v1214h170v-1214h565v1214h170v-1366h-1642z" />
    <glyph glyph-name="uni0429" unicode="&#x429;" horiz-adv-x="1996" 
d="M170 0v1366h170v-1214h567v1214h170v-1214h568v1214h170v-1214h122v-404h-170v252h-1597z" />
    <glyph glyph-name="uni042A" unicode="&#x42a;" horiz-adv-x="1540" 
d="M66 1214v152h602v-543h379c131.333 0 235.5 -39.5 312.5 -118.5s115.5 -176.5 115.5 -292.5c0 -116.667 -38.333 -214.5 -115 -293.5s-181 -118.5 -313 -118.5h-549v1214h-432zM668 152h358c80.667 0 146.167 24 196.5 72s75.5 110.667 75.5 188s-25.167 140 -75.5 188
s-115.833 72 -196.5 72h-358v-520z" />
    <glyph glyph-name="uni042B" unicode="&#x42b;" horiz-adv-x="1613" 
d="M160 0v1366h170v-543h379c130.667 0 234.667 -39.5 312 -118.5s116 -176.5 116 -292.5c0 -116.667 -38.333 -214.5 -115 -293.5s-181 -118.5 -313 -118.5h-549zM330 152h358c80.667 0 146.334 24 197.001 72s76 110.667 76 188s-25.333 140 -76 188
s-116.334 72 -197.001 72h-358v-520zM1284 0v1366h170v-1366h-170z" />
    <glyph glyph-name="uni042C" unicode="&#x42c;" horiz-adv-x="1202" 
d="M160 0v1366h170v-543h379c130.667 0 234.667 -39.5 312 -118.5s116 -176.5 116 -292.5c0 -116.667 -38.333 -214.5 -115 -293.5s-181 -118.5 -313 -118.5h-549zM330 152h358c80.667 0 146.334 24 197.001 72s76 110.667 76 188s-25.333 140 -76 188
s-116.334 72 -197.001 72h-358v-520z" />
    <glyph glyph-name="uni042D" unicode="&#x42d;" horiz-adv-x="1384" 
d="M57 246l146 80.002c40 -60 93.333 -108.167 160 -144.5s138.334 -54.5 215.001 -54.5c140.667 0 259.667 46.167 357 138.5s152.333 211.5 165 357.5h-750v151h746c-19.333 137.333 -76.833 248.833 -172.5 334.5s-210.834 128.5 -345.501 128.5
c-76 0 -147.5 -18.333 -214.5 -55s-120.5 -84.667 -160.5 -144l-144 80c128 180.667 301 271 519 271c97.333 0 189 -17.333 275 -52s160.5 -82.5 223.5 -143.5s112.667 -135.833 149 -224.5s54.5 -184.334 54.5 -287.001s-18.167 -198.334 -54.5 -287.001
s-86 -163.5 -149 -224.5s-137.5 -108.833 -223.5 -143.5s-177.667 -52 -275 -52c-214 0 -387.667 90.333 -521 271z" />
    <glyph glyph-name="uni042E" unicode="&#x42e;" horiz-adv-x="2031" 
d="M160 0l0.000976562 1366h170v-588h243c20.667 179.333 92.5 326 215.5 440s275.833 171 458.5 171c132 0 250 -30.833 354 -92.5s184.333 -146.167 241 -253.5s85 -227.666 85 -360.999s-28.333 -253.666 -85 -360.999s-137 -191.833 -241 -253.5s-222 -92.5 -354 -92.5
c-94.667 0 -182.834 16.333 -264.501 49s-151.5 77.834 -209.5 135.501s-104.667 126.667 -140 207s-56 167.166 -62 260.499h-241v-627h-170zM745.001 681.998c0 -105.333 20.333 -199.999 61 -283.999s99.334 -150.167 176.001 -198.5s165 -72.5 265 -72.5
s188.5 24.167 265.5 72.5s136 114.5 177 198.5s61.5 178.667 61.5 284c0 161.333 -46.333 294.166 -139 398.499s-214.334 156.5 -365.001 156.5c-151.333 0 -272.833 -52 -364.5 -156s-137.5 -237 -137.5 -399z" />
    <glyph glyph-name="uni042F" unicode="&#x42f;" horiz-adv-x="1245" 
d="M96 0l369 556.998c-99.333 8.66699 -183.5 47.834 -252.5 117.501s-103.5 162.834 -103.5 279.501c0 124.667 39.833 224.5 119.5 299.5s183.167 112.5 310.5 112.5h548v-1366h-169v543h-275l-348 -543h-199zM285 953.998c0 -77.333 25.333 -140.333 76 -189
s116 -73 196 -73h361v522h-361c-80 0 -145.333 -24.167 -196 -72.5s-76 -110.833 -76 -187.5z" />
    <glyph glyph-name="uni0430" unicode="&#x430;" horiz-adv-x="1079" 
d="M98 303c0 53.333 10.002 101.332 30.002 143.999s46.667 76.834 80 102.501s70.166 45.334 110.499 59.001s82.166 20.5 125.499 20.5c140.667 0 250 -45 328 -135v178c0 64.667 -23.333 115.667 -70 153s-106.667 56 -180 56c-116 0 -217 -46 -303 -138l-72 107
c104.667 109.333 236.667 164 396 164c54 0 103.5 -6.33301 148.5 -19s85.333 -31.834 121 -57.501s63.5 -60.5 83.5 -104.5s30 -95 30 -153v-680h-154v113c-84 -92 -193.333 -138 -328 -138c-58 0 -112.667 12 -164 36s-94.5 61.5 -129.5 112.5s-52.5 110.833 -52.5 179.5z
M256.002 300.999c0 -62.667 22.833 -114.167 68.5 -154.5s104.167 -60.5 175.5 -60.5c56 0 108.167 10.5 156.5 31.5s86.833 51.5 115.5 91.5v186c-28.667 40 -67.167 70.5 -115.5 91.5s-100.5 31.5 -156.5 31.5c-71.333 0 -129.833 -20.333 -175.5 -61
s-68.5 -92.667 -68.5 -156z" />
    <glyph glyph-name="uni0431" unicode="&#x431;" horiz-adv-x="1181" 
d="M96 541c0 158.667 19.6689 289.332 59.002 391.999s96.333 180 171 232s170.667 85.667 288 101c106 16 179 31.333 219 46s60 32.667 60 54h149c0 -31.333 -8.5 -59.333 -25.5 -84s-37.667 -44.5 -62 -59.5s-55.5 -28.5 -93.5 -40.5s-72 -20.833 -102 -26.5
s-65.333 -11.167 -106 -16.5c-71.333 -10 -132.333 -25.167 -183 -45.5s-91.334 -45.666 -122.001 -75.999s-54.334 -62.333 -71.001 -96s-29.667 -73.167 -39 -118.5c39.333 62 90.5 112.667 153.5 152s135.833 59 218.5 59c91.333 0 172.5 -23.5 243.5 -70.5
s125.333 -109.5 163 -187.5s56.5 -164 56.5 -258c0 -71.333 -11.167 -138.666 -33.5 -201.999s-54 -118.833 -95 -166.5s-92.5 -85.334 -154.5 -113.001s-130 -41.5 -204 -41.5c-149.333 0 -268.333 52.667 -357 158s-133 241.333 -133 408zM256.002 497.998
c0 -107.333 29.668 -198.333 89.001 -273s139.666 -112 240.999 -112c68 0 127.167 18 177.5 54s87.833 82.833 112.5 140.5s37 121.167 37 190.5c0 68 -12.333 130.167 -37 186.5s-62.167 102.5 -112.5 138.5s-109.5 54 -177.5 54s-127.5 -18 -178.5 -54
s-89 -82.333 -114 -139s-37.5 -118.667 -37.5 -186z" />
    <glyph glyph-name="uni0432" unicode="&#x432;" horiz-adv-x="1134" 
d="M154 0l-0.000976562 989h544c86 0 154 -23.333 204 -70s75 -108 75 -184c0 -56.667 -15.333 -104.667 -46 -144s-68.667 -66.333 -114 -81c50.667 -12.667 93.334 -42.167 128.001 -88.5s52 -97.5 52 -153.5c0 -81.333 -25.5 -146.333 -76.5 -195s-121.5 -73 -211.5 -73
h-555zM306.999 135l371 -0.000976562c49.333 0 88.333 13.667 117 41s43 64.333 43 111c0 42.667 -14.167 78.834 -42.5 108.501s-67.5 44.5 -117.5 44.5h-371v-305zM306.999 574.999h365c46.667 0 82.834 12.833 108.501 38.5s38.5 58.834 38.5 99.501
c0 43.333 -12.833 77.666 -38.5 102.999s-61.834 38 -108.501 38h-365v-279z" />
    <glyph glyph-name="uni0433" unicode="&#x433;" horiz-adv-x="892" 
d="M154 0v989h692v-135h-539v-854h-153z" />
    <glyph glyph-name="uni0434" unicode="&#x434;" horiz-adv-x="1148" 
d="M37 127c33.333 6 60.668 19.167 82.001 39.5s41.166 57.5 59.499 111.5s33.833 128.667 46.5 224l64 487h688v-854h115v-387h-154v252h-748v-252h-153v379zM236.002 135h587v719h-399l-45 -371c-23.333 -175.333 -71 -291.333 -143 -348z" />
    <glyph glyph-name="uni0435" unicode="&#x435;" horiz-adv-x="1153" 
d="M96 496c0 94.667 20.8301 181.501 62.4971 260.501s99.834 141.667 174.501 188s158.334 69.5 251.001 69.5c97.333 0 182.333 -23.667 255 -71s127.5 -110.833 164.5 -190.5s55.5 -169.5 55.5 -269.5v-39h-801c6 -96.667 41.167 -177.834 105.5 -243.501
s147.833 -98.5 250.5 -98.5c57.333 0 113 11 167 33s100.333 52.667 139 92l73 -100c-101.333 -101.333 -232.333 -152 -393 -152c-147.333 0 -268.166 48.333 -362.499 145s-141.5 222 -141.5 376zM257.997 557.001h649.001c-0.666992 38.667 -7.5 76.667 -20.5 114
s-32.167 72.5 -57.5 105.5s-59.333 59.667 -102 80s-91 30.5 -145 30.5c-50.667 0 -96.667 -10 -138 -30s-74.833 -46.167 -100.5 -78.5s-45.834 -67.5 -60.501 -105.5s-23 -76.667 -25 -116z" />
    <glyph glyph-name="uni0436" unicode="&#x436;" horiz-adv-x="1456" 
d="M29 0l440 541l-438 448h194l426 -436v436h154v-434l426 434h194l-440 -448l442 -541h-196l-357 444l-69 -69v-375h-154v375l-69 69l-357 -444h-196z" />
    <glyph glyph-name="uni0437" unicode="&#x437;" horiz-adv-x="1052" 
d="M57 137l75.9971 98.999c93.333 -89.333 217 -134 371 -134c88 0 158.5 15.667 211.5 47s79.5 73 79.5 125c0 109.333 -104 164 -312 164h-221v125h221c86.667 0 157.167 14.167 211.5 42.5s81.5 69.5 81.5 123.5c0 46.667 -27.5 84.667 -82.5 114s-123.833 44 -206.5 44
c-138 0 -248.333 -42.333 -331 -127l-80 94c103.333 105.333 238.333 158 405 158c135.333 1.33301 245 -21.667 329 -69s126 -112.333 126 -195c0 -46 -14.333 -87.333 -43 -124s-62.5 -64.167 -101.5 -82.5s-79.5 -30.166 -121.5 -35.499
c30.667 -2 61.834 -8.16699 93.501 -18.5s62.334 -24.833 92.001 -43.5s53.834 -43.667 72.501 -75s28 -66.333 28 -105c0 -84.667 -40.5 -154 -121.5 -208s-191.167 -81 -330.5 -81c-190 0 -339 54 -447 162z" />
    <glyph glyph-name="uni0438" unicode="&#x438;" horiz-adv-x="1130" 
d="M154 0v989h153v-756l518 756h152v-989h-154v770l-522 -770h-147z" />
    <glyph glyph-name="uni0439" unicode="&#x439;" horiz-adv-x="1130" 
d="M154 0v989h153v-756l518 756h152v-989h-154v770l-522 -770h-147zM205 1282l76 66c72.667 -98.667 167.334 -148 284.001 -148c58.667 0 112.5 13 161.5 39s89.5 62.333 121.5 109l76 -66c-41.333 -56 -93.333 -100 -156 -132s-130.334 -48 -203.001 -48
c-71.333 0 -138.5 16 -201.5 48s-115.833 76 -158.5 132z" />
    <glyph glyph-name="uni043A" unicode="&#x43a;" horiz-adv-x="1052" 
d="M154 0v989h153v-526l520 526h195l-438 -448l440 -541h-197l-356 444l-164 -161v-283h-153z" />
    <glyph glyph-name="uni043B" unicode="&#x43b;" horiz-adv-x="1130" 
d="M37 -25v127c46.667 0 84.834 30.667 114.501 92s54.167 164 73.5 308l64 487h688v-989h-154v854h-399l-45 -371c-22 -181.333 -60.333 -311.333 -115 -390s-130.334 -118 -227.001 -118z" />
    <glyph glyph-name="uni043C" unicode="&#x43c;" horiz-adv-x="1316" 
d="M154 0v989h202l303 -733l299 733h205v-989h-153v776l-322 -776h-57l-324 776v-776h-153z" />
    <glyph glyph-name="uni043D" unicode="&#x43d;" horiz-adv-x="1130" 
d="M154 0v989h153v-411h516v411h154v-989h-154v442h-516v-442h-153z" />
    <glyph glyph-name="uni043E" unicode="&#x43e;" horiz-adv-x="1171" 
d="M96 496c0 96 19.667 183 59 261s96.5 140.333 171.5 187s161.5 70 259.5 70s184.5 -23.333 259.5 -70s132 -109 171 -187s58.5 -165 58.5 -261s-19.5 -183.333 -58.5 -262s-96 -141.5 -171 -188.5s-161.5 -70.5 -259.5 -70.5s-184.5 23.5 -259.5 70.5
s-132.167 109.833 -171.5 188.5s-59 166 -59 262zM256 496c0 -106.667 29.668 -197.168 89.001 -271.501s139.666 -111.5 240.999 -111.5c68 0 127.167 18 177.5 54s87.833 82.5 112.5 139.5s37 120.167 37 189.5c0 68.667 -12.333 131.334 -37 188.001
s-62.167 103 -112.5 139s-109.5 54 -177.5 54s-127.5 -18 -178.5 -54s-89 -82.5 -114 -139.5s-37.5 -119.5 -37.5 -187.5z" />
    <glyph glyph-name="uni043F" unicode="&#x43f;" horiz-adv-x="1130" 
d="M154 0v989h823v-989h-154v854h-516v-854h-153z" />
    <glyph glyph-name="uni0440" unicode="&#x440;" horiz-adv-x="1171" 
d="M154 -377v1366h153v-147c37.333 52 85.5 93.667 144.5 125s122.167 47 189.5 47c131.333 0 237.5 -46.5 318.5 -139.5s121.5 -219.167 121.5 -378.5c0 -158 -40.5 -284.333 -121.5 -379s-187.167 -142 -318.5 -142c-67.333 0 -129.833 15.167 -187.5 45.5
s-106.5 73.5 -146.5 129.5v-527h-153zM307 272c27.333 -44.667 68.666 -82.333 123.999 -113s112.333 -46 171 -46c97.333 0 174.666 35.833 231.999 107.5s86 163.5 86 275.5s-28.667 203.5 -86 274.5s-134.666 106.5 -231.999 106.5c-58.667 0 -115.667 -15.333 -171 -46
s-96.666 -68 -123.999 -112v-447z" />
    <glyph glyph-name="uni0441" unicode="&#x441;" horiz-adv-x="1013" 
d="M96 496c0 97.333 20.5 185.166 61.5 263.499s99.167 140.333 174.5 186s161.333 68.5 258 68.5c152.667 0 273.334 -57.333 362.001 -172l-102 -94c-63.333 86 -147.333 129 -252 129c-104 0 -187 -35.667 -249 -107s-93 -162.666 -93 -273.999s31 -203 93 -275
s145 -108 249 -108c103.333 0 187.333 43 252 129l102 -95c-88.667 -114.667 -209.334 -172 -362.001 -172c-96.667 0 -182.667 22.833 -258 68.5s-133.5 108 -174.5 187s-61.5 167.5 -61.5 265.5z" />
    <glyph glyph-name="uni0442" unicode="&#x442;" horiz-adv-x="823" 
d="M47 854v135h729v-135h-289v-854h-153v854h-287z" />
    <glyph glyph-name="uni0443" unicode="&#x443;" horiz-adv-x="1003" 
d="M6 989h165.999l330 -811l327 811h168l-495 -1190c-54 -131.333 -151 -198 -291 -200c-41.333 0 -79 4.66699 -113 14l25 139c24.667 -10.667 52.667 -16 84 -16c36 0 65.333 7.5 88 22.5s42.334 42.167 59.001 81.5l66 150z" />
    <glyph glyph-name="uni0444" unicode="&#x444;" horiz-adv-x="1634" 
d="M115 494c0 158 33.001 284.166 99.001 378.499s151.667 141.5 257 141.5c54 0 104.167 -15 150.5 -45s86.166 -73 119.499 -129v526h154v-524c29.333 52 67.666 93.667 114.999 125s98.333 47 153 47c106 0 192 -46.667 258 -140s99 -219.333 99 -378
c0 -158 -33.167 -284.333 -99.5 -379s-152.166 -142 -257.499 -142c-54 0 -104.333 15.167 -151 45.5s-85.667 73.5 -117 129.5v-527h-154v524c-29.333 -51.333 -68 -92.833 -116 -124.5s-99.333 -47.5 -154 -47.5c-106 0 -191.833 46.833 -257.5 140.5
s-98.5 219.834 -98.5 378.501zM270.001 493.999c0 -112 21.8311 -203.5 65.498 -274.5s103.167 -106.5 178.5 -106.5c46 0 90 15.167 132 45.5s73.667 67.5 95 111.5v447c-21.333 44.667 -53.166 82.5 -95.499 113.5s-86.166 46.5 -131.499 46.5
c-75.333 0 -134.833 -35.833 -178.5 -107.5s-65.5 -163.5 -65.5 -275.5zM894.999 271.999c21.333 -44.667 53 -82.333 95 -113s85.333 -46 130 -46c75.333 0 134.833 35.833 178.5 107.5s65.5 163.5 65.5 275.5s-21.833 203.5 -65.5 274.5s-103.167 106.5 -178.5 106.5
c-44.667 0 -88 -15.167 -130 -45.5s-73.667 -67.833 -95 -112.5v-447z" />
    <glyph glyph-name="uni0445" unicode="&#x445;" horiz-adv-x="995" 
d="M25 0l378 508l-358 481h178l275 -377l274 377h178l-358 -481l381 -508h-178l-297 406l-297 -406h-176z" />
    <glyph glyph-name="uni0446" unicode="&#x446;" horiz-adv-x="1148" 
d="M154 0v989h153v-854h516v854h154v-854h115v-387h-154v252h-784z" />
    <glyph glyph-name="uni0447" unicode="&#x447;" horiz-adv-x="1107" 
d="M133 664v325h154v-278c0 -88 20.333 -149.333 61 -184s104.334 -52 191.001 -52c107.333 0 194.666 17.667 261.999 53v461h153v-989h-153v403c-86.667 -43.333 -187 -65 -301 -65c-128.667 0 -222 26 -280 78s-87 134.667 -87 248z" />
    <glyph glyph-name="uni0448" unicode="&#x448;" horiz-adv-x="1603" 
d="M154 0v989h153v-854h418v854h154v-854h417v854h154v-989h-1296z" />
    <glyph glyph-name="uni0449" unicode="&#x449;" horiz-adv-x="1634" 
d="M154 0v989h153v-854h418v854h154v-854h417v854h154v-854h127v-387h-154v252h-1269z" />
    <glyph glyph-name="uni044A" unicode="&#x44a;" horiz-adv-x="1249" 
d="M47 854v135h440v-383h371c98 0 174.333 -29 229 -87s82 -130 82 -216s-27.5 -158 -82.5 -216s-131.167 -87 -228.5 -87h-524v854h-287zM487 135l355 -0.000976562c54 0 95.833 15.333 125.5 46s44.5 71.334 44.5 122.001c0 50 -14.667 90.5 -44 121.5
s-71.333 46.5 -126 46.5h-355v-336z" />
    <glyph glyph-name="uni044B" unicode="&#x44b;" horiz-adv-x="1458" 
d="M154 0v989h153v-383h371c98 0 174.333 -29 229 -87s82 -130 82 -216s-27.5 -158 -82.5 -216s-131.167 -87 -228.5 -87h-524zM307 135l355 -0.000976562c54 0 95.667 15.333 125 46s44 71.334 44 122.001c0 50 -14.5 90.5 -43.5 121.5s-70.833 46.5 -125.5 46.5h-355v-336
zM1151 -0.000976562v989h154v-989h-154z" />
    <glyph glyph-name="uni044C" unicode="&#x44c;" horiz-adv-x="1069" 
d="M154 0v989h153v-383h371c98 0 174.333 -29 229 -87s82 -130 82 -216s-27.5 -158 -82.5 -216s-131.167 -87 -228.5 -87h-524zM307 135l355 -0.000976562c54 0 95.667 15.333 125 46s44 71.334 44 122.001c0 50 -14.5 90.5 -43.5 121.5s-70.833 46.5 -125.5 46.5h-355v-336
z" />
    <glyph glyph-name="uni044D" unicode="&#x44d;" horiz-adv-x="1013" 
d="M61 147l99 90.999c68 -90.667 154 -136 258 -136c94 0 171 30.167 231 90.5s95 140.833 105 241.5h-498v133h496c-12.667 98 -48.5 175.833 -107.5 233.5s-134.5 86.5 -226.5 86.5c-106 0 -192 -45 -258 -135l-99 90c88.667 114.667 209.667 172 363 172
c97.333 0 183.833 -22.833 259.5 -68.5s134 -107.667 175 -186s61.5 -166.166 61.5 -263.499c0 -149.333 -46 -273.5 -138 -372.5s-211.333 -148.5 -358 -148.5c-153.333 0 -274.333 57.333 -363 172z" />
    <glyph glyph-name="uni044E" unicode="&#x44e;" horiz-adv-x="1570" 
d="M154 0v989h153v-411h193c16.667 127.333 68.334 231.833 155.001 313.5s196 122.5 328 122.5c98.667 0 185.667 -23.333 261 -70s132.666 -109 171.999 -187s59 -165 59 -261s-19.667 -183.333 -59 -262s-96.833 -141.5 -172.5 -188.5s-162.5 -70.5 -260.5 -70.5
c-137.333 0 -250 44.167 -338 132.5s-137 199.833 -147 334.5h-191v-442h-153zM655 496c0 -68.667 12.5 -131.667 37.5 -189s62.833 -104 113.5 -140s109.667 -54 177 -54c102 0 182.5 37.167 241.5 111.5s88.5 164.833 88.5 271.5c0 106 -29.5 196 -88.5 270
s-139.5 111 -241.5 111c-67.333 0 -126.333 -18 -177 -54s-88.5 -82.5 -113.5 -139.5s-37.5 -119.5 -37.5 -187.5z" />
    <glyph glyph-name="uni044F" unicode="&#x44f;" horiz-adv-x="1120" 
d="M121 0l264 389.001c-74.667 9.33301 -135.667 40.833 -183 94.5s-71 121.167 -71 202.5c0 87.333 27.833 159.666 83.5 216.999s132.167 86 229.5 86h523v-989h-154v383h-270l-242 -383h-180zM289 686.001c0 -50.667 14.833 -91.333 44.5 -122s72.167 -46 127.5 -46h352
v336h-352c-53.333 0 -95.333 -15.5 -126 -46.5s-46 -71.5 -46 -121.5z" />
    <glyph glyph-name="uni0451" unicode="&#x451;" horiz-adv-x="1153" 
d="M96 496c0 94.667 20.8301 181.501 62.4971 260.501s99.834 141.667 174.501 188s158.334 69.5 251.001 69.5c97.333 0 182.333 -23.667 255 -71s127.5 -110.833 164.5 -190.5s55.5 -169.5 55.5 -269.5v-39h-801c6 -96.667 41.167 -177.834 105.5 -243.501
s147.833 -98.5 250.5 -98.5c57.333 0 113 11 167 33s100.333 52.667 139 92l73 -100c-101.333 -101.333 -232.333 -152 -393 -152c-147.333 0 -268.166 48.333 -362.499 145s-141.5 222 -141.5 376zM257.997 557.001h649.001c-0.666992 38.667 -7.5 76.667 -20.5 114
s-32.167 72.5 -57.5 105.5s-59.333 59.667 -102 80s-91 30.5 -145 30.5c-50.667 0 -96.667 -10 -138 -30s-74.833 -46.167 -100.5 -78.5s-45.834 -67.5 -60.501 -105.5s-23 -76.667 -25 -116zM275.998 1237c0 25.333 9.5 47.333 28.5 66s41.833 28 68.5 28
c25.333 0 47.333 -9.33301 66 -28s28 -40.667 28 -66c0 -26.667 -9.33301 -49.334 -28 -68.001s-40.667 -28 -66 -28c-26.667 0 -49.5 9.33301 -68.5 28s-28.5 41.334 -28.5 68.001zM697.998 1237c0 25.333 9.66797 47.333 29.001 66s42 28 68 28
c25.333 0 47.666 -9.33301 66.999 -28s29 -40.667 29 -66c0 -26 -9.5 -48.5 -28.5 -67.5s-41.5 -28.5 -67.5 -28.5s-48.667 9.5 -68 28.5s-29 41.5 -29 67.5z" />
    <glyph glyph-name="uni0452" unicode="&#x452;" horiz-adv-x="1134" 
d="M18 1096l0.000976562 98h140v172h153v-172h322v-98h-322v-250c39.333 46 90.833 85.5 154.5 118.5s130.5 49.5 200.5 49.5c210 0 315 -105.333 315 -316v-794c0 -98 -25.5 -173.333 -76.5 -226s-123.833 -79 -218.5 -79c-48 0 -87.833 5.66699 -119.5 17
s-63.5 30 -95.5 56l53 117c42 -42 89.333 -63 142 -63c48.667 0 87.667 14.667 117 44s44 74 44 134v747c0 82.667 -19.167 141 -57.5 175s-93.5 51 -165.5 51c-56.667 0 -111.834 -15 -165.501 -45s-96.167 -66.333 -127.5 -109v-723h-153v1096h-140z" />
    <glyph glyph-name="uni0453" unicode="&#x453;" horiz-adv-x="892" 
d="M154 0v989h692v-135h-539v-854h-153zM385 1139l303 295h160l-346 -295h-117z" />
    <glyph glyph-name="uni0454" unicode="&#x454;" horiz-adv-x="1013" 
d="M96 496c0 97.333 20.5 185.167 61.5 263.5s99.167 140.333 174.5 186s161.333 68.5 258 68.5c152.667 0 273.334 -57.333 362.001 -172l-98 -90c-66 90 -151.333 135 -256 135c-92.667 0 -169 -28.833 -229 -86.5s-96.333 -135.5 -109 -233.5h498v-133h-500
c12 -101.333 47.833 -182 107.5 -242s137.167 -90 232.5 -90c102.667 0 188 45.333 256 136l98 -91c-88.667 -114.667 -209.334 -172 -362.001 -172c-96.667 0 -182.667 22.833 -258 68.5s-133.5 108 -174.5 187s-61.5 167.5 -61.5 265.5z" />
    <glyph glyph-name="uni0455" unicode="&#x455;" horiz-adv-x="952" 
d="M68 131l78.9932 110.996c35.333 -40 82.333 -73.667 141 -101s120.334 -41 185.001 -41c74 0 131.5 15.667 172.5 47s61.5 72.333 61.5 123c0 32 -11.333 59 -34 81s-52 39 -88 51s-75.667 23 -119 33s-86.833 21.667 -130.5 35s-83.5 29.666 -119.5 48.999
s-65.333 46.833 -88 82.5s-34 78.167 -34 127.5c0 80.667 33 148.334 99 203.001s156 82 270 82c148 0 270 -48 366 -144l-71 -106c-30.667 37.333 -72.167 67.5 -124.5 90.5s-109.166 34.5 -170.499 34.5c-66 0 -119 -14.833 -159 -44.5s-60 -66.834 -60 -111.501
c0 -29.333 11.333 -53.666 34 -72.999s51.834 -34.666 87.501 -45.999s75.334 -21.666 119.001 -30.999s87.334 -21.166 131.001 -35.499s83.334 -31.666 119.001 -51.999s64.834 -49.333 87.501 -87s34 -82.5 34 -134.5c0 -86.667 -34 -158.167 -102 -214.5
s-163.667 -84.5 -287 -84.5c-168 0 -301 52 -399 156z" />
    <glyph glyph-name="uni0456" unicode="&#x456;" horiz-adv-x="460" 
d="M127 1233c0 28.667 10.167 53.167 30.5 73.5s44.166 30.5 71.499 30.5c28.667 0 53.334 -10.167 74.001 -30.5s31 -44.833 31 -73.5s-10.333 -53 -31 -73s-45.334 -30 -74.001 -30c-27.333 0 -51.166 10 -71.499 30s-30.5 44.333 -30.5 73zM154 0v989h153v-989h-153z" />
    <glyph glyph-name="uni0457" unicode="&#x457;" horiz-adv-x="460" 
d="M-76 1237c0 25.333 9.33301 47.332 28 65.999s41.334 28 68.001 28c25.333 0 47.5 -9.33301 66.5 -28s28.5 -40.667 28.5 -66c0 -26 -9.5 -48.5 -28.5 -67.5s-41.167 -28.5 -66.5 -28.5c-26.667 0 -49.334 9.33301 -68.001 28s-28 41.334 -28 68.001zM154 -0.000976562
v989h153v-989h-153zM346 1237c0 25.333 9.66797 47.333 29.001 66s41.666 28 66.999 28c26 0 48.667 -9.33301 68 -28s29 -40.667 29 -66c0 -26 -9.66699 -48.5 -29 -67.5s-42 -28.5 -68 -28.5s-48.5 9.5 -67.5 28.5s-28.5 41.5 -28.5 67.5z" />
    <glyph glyph-name="uni0458" unicode="&#x458;" horiz-adv-x="460" 
d="M-203 -328l56 117c42 -42 89 -63 141 -63c48.667 0 87.5 14.667 116.5 44s43.5 74 43.5 134v1085h153v-1085c0 -97.333 -25.333 -172.5 -76 -225.5s-123 -79.5 -217 -79.5c-48 0 -87.833 5.66699 -119.5 17s-64.167 30 -97.5 56zM127 1233
c0 28.667 10.167 53.167 30.5 73.5s44.166 30.5 71.499 30.5c28.667 0 53.334 -10.167 74.001 -30.5s31 -44.833 31 -73.5s-10.333 -53 -31 -73s-45.334 -30 -74.001 -30c-27.333 0 -51.166 10 -71.499 30s-30.5 44.333 -30.5 73z" />
    <glyph glyph-name="uni0459" unicode="&#x459;" horiz-adv-x="1738" 
d="M37 -25v127c46.667 0 84.834 30.667 114.501 92s54.167 164 73.5 308l64 487h688v-383h369c98.667 0 175.5 -29 230.5 -87s82.5 -130 82.5 -216s-27.5 -158 -82.5 -216s-131.833 -87 -230.5 -87h-523v854h-399l-45 -371c-22 -181.333 -60.333 -311.333 -115 -390
s-130.334 -118 -227.001 -118zM977 135l354 -0.000976562c54 0 95.833 15.333 125.5 46s44.5 71.334 44.5 122.001c0 50 -14.833 90.5 -44.5 121.5s-71.5 46.5 -125.5 46.5h-354v-336z" />
    <glyph glyph-name="uni045A" unicode="&#x45a;" horiz-adv-x="1738" 
d="M154 0v988.999h153v-411h516v411h154v-411h385c93.333 0 166.166 -27.667 218.499 -83s78.5 -124.666 78.5 -207.999c0 -81.333 -26.167 -149.5 -78.5 -204.5s-125.166 -82.5 -218.499 -82.5h-539v442h-516v-442h-153zM977 134.999h369c48.667 0 86.667 14 114 42
s41 64.667 41 110c0 46.667 -13.5 84.167 -40.5 112.5s-65.167 42.5 -114.5 42.5h-369v-307z" />
    <glyph glyph-name="uni045B" unicode="&#x45b;" horiz-adv-x="1134" 
d="M18 1096l0.000976562 98h140v172h153v-172h320v-98h-320v-250c39.333 46 90.833 85.5 154.5 118.5s130.5 49.5 200.5 49.5c210 0 315 -105.333 315 -316v-698h-154v651c0 82.667 -19.167 141 -57.5 175s-93.5 51 -165.5 51c-56.667 0 -111.834 -15 -165.501 -45
s-96.167 -66.333 -127.5 -109v-723h-153v1096h-140z" />
    <glyph glyph-name="uni045C" unicode="&#x45c;" horiz-adv-x="1052" 
d="M154 0v989h153v-526l520 526h195l-438 -448l440 -541h-197l-356 444l-164 -161v-283h-153zM414 1139l303 295h160l-347 -295h-116z" />
    <glyph glyph-name="uni045E" unicode="&#x45e;" horiz-adv-x="1003" 
d="M6 989h165.999l330 -811l327 811h168l-495 -1190c-54 -131.333 -151 -198 -291 -200c-41.333 0 -79 4.66699 -113 14l25 139c24.667 -10.667 52.667 -16 84 -16c36 0 65.333 7.5 88 22.5s42.334 42.167 59.001 81.5l66 150zM142.999 1282l75.998 66
c72.667 -98.667 167.667 -148 285 -148c58.667 0 112.334 13 161.001 39s89 62.333 121 109l76 -66c-41.333 -56 -93.166 -100 -155.499 -132s-129.833 -48 -202.5 -48c-72 0 -139.5 16 -202.5 48s-115.833 76 -158.5 132z" />
    <glyph glyph-name="uni045F" unicode="&#x45f;" horiz-adv-x="1130" 
d="M154 0v989h153v-854h516v854h154v-989h-334v-258h-154v258h-335z" />
    <glyph glyph-name="uni0490" unicode="&#x490;" horiz-adv-x="1126" 
d="M160 0v1366h725v252h170v-404h-725v-1214h-170z" />
    <glyph glyph-name="uni0491" unicode="&#x491;" horiz-adv-x="892" 
d="M154 0v989h538v258h154v-393h-539v-854h-153z" />
    <glyph glyph-name="uni2000" unicode="&#x2000;" horiz-adv-x="888" 
 />
    <glyph glyph-name="uni2001" unicode="&#x2001;" horiz-adv-x="1776" 
 />
    <glyph glyph-name="uni2002" unicode="&#x2002;" horiz-adv-x="888" 
 />
    <glyph glyph-name="uni2003" unicode="&#x2003;" horiz-adv-x="1776" 
 />
    <glyph glyph-name="uni2004" unicode="&#x2004;" horiz-adv-x="592" 
 />
    <glyph glyph-name="uni2005" unicode="&#x2005;" horiz-adv-x="444" 
 />
    <glyph glyph-name="uni2006" unicode="&#x2006;" horiz-adv-x="296" 
 />
    <glyph glyph-name="uni2007" unicode="&#x2007;" horiz-adv-x="296" 
 />
    <glyph glyph-name="uni2008" unicode="&#x2008;" horiz-adv-x="222" 
 />
    <glyph glyph-name="uni2009" unicode="&#x2009;" horiz-adv-x="104" 
 />
    <glyph glyph-name="uni200A" unicode="&#x200a;" horiz-adv-x="98" 
 />
    <glyph glyph-name="uni2010" unicode="&#x2010;" horiz-adv-x="614" 
d="M61 428v135h492v-135h-492z" />
    <glyph glyph-name="uni2011" unicode="&#x2011;" horiz-adv-x="614" 
d="M61 428v135h492v-135h-492z" />
    <glyph glyph-name="figuredash" unicode="&#x2012;" horiz-adv-x="614" 
d="M61 428v135h492v-135h-492z" />
    <glyph glyph-name="endash" unicode="&#x2013;" horiz-adv-x="1214" 
d="M61 428v135h1092v-135h-1092z" />
    <glyph glyph-name="emdash" unicode="&#x2014;" horiz-adv-x="1705" 
d="M61 428v135h1584v-135h-1584z" />
    <glyph glyph-name="uni2015" unicode="&#x2015;" horiz-adv-x="1214" 
d="M61 428v135h1092v-135h-1092z" />
    <glyph glyph-name="quoteleft" unicode="&#x2018;" 
d="M96 1079c0 60 15.499 117.165 46.499 171.498s70.833 99.5 119.5 135.5l76 -61c-33.333 -21.333 -62.5 -50.166 -87.5 -86.499s-39.5 -70.833 -43.5 -103.5c0.666992 0 4.33398 0.333008 11.001 1s11.667 1 15 1c28.667 0 52.667 -10 72 -30s29 -45 29 -75
c0 -29.333 -10.833 -54.666 -32.5 -75.999s-47.167 -32 -76.5 -32c-36 0 -66.5 13.833 -91.5 41.5s-37.5 65.5 -37.5 113.5z" />
    <glyph glyph-name="quoteright" unicode="&#x2019;" 
d="M117 985c33.333 22 62.834 51.165 88.501 87.498s40.5 70.833 44.5 103.5c-6.66699 -3.33301 -16.334 -5 -29.001 -5c-28.667 0 -52.167 9.83301 -70.5 29.5s-27.5 44.834 -27.5 75.501c0 30 10.5 55.833 31.5 77.5s46.5 32.5 76.5 32.5c36 0 66.5 -13.833 91.5 -41.5
s37.5 -65.5 37.5 -113.5c0 -60 -15.5 -117.667 -46.5 -173s-71.167 -100.666 -120.5 -135.999z" />
    <glyph glyph-name="quotesinglbase" unicode="&#x201a;" 
d="M117 -197c34 22 63.668 50.998 89.001 86.998s40 70.667 44 104c-5.33301 -2.66699 -15 -4 -29 -4c-28.667 0 -52.167 9.66699 -70.5 29s-27.5 44.333 -27.5 75c0 30 10.5 56 31.5 78s46.5 33 76.5 33c35.333 0 65.666 -14.167 90.999 -42.5s38 -66.166 38 -113.499
c0 -60 -15.5 -117.667 -46.5 -173s-71.167 -100.666 -120.5 -135.999z" />
    <glyph glyph-name="quotereversed" unicode="&#x201b;" 
d="M111 1231c0 48 12.168 85.835 36.501 113.502s54.5 41.5 90.5 41.5c30 0 55.833 -10.833 77.5 -32.5s32.5 -47.5 32.5 -77.5c0 -30.667 -9.5 -55.834 -28.5 -75.501s-42.833 -29.5 -71.5 -29.5c-11.333 0 -20.333 1.66699 -27 5c4 -32.667 18.5 -67.334 43.5 -104.001
s54.167 -65.667 87.5 -87l-76 -63c-48.667 35.333 -88.334 80.5 -119.001 135.5s-46 112.833 -46 173.5z" />
    <glyph glyph-name="quotedblleft" unicode="&#x201c;" horiz-adv-x="798" 
d="M111 1079c0 60.667 15.332 118.169 45.999 172.502s70.334 99.166 119.001 134.499l76 -61c-34 -22 -63.667 -51 -89 -87s-39.333 -70.333 -42 -103l11 1c6.66699 0.666992 12 1 16 1c28.667 0 52.167 -9.83301 70.5 -29.5s27.5 -44.834 27.5 -75.501
c0 -30 -10.5 -55.5 -31.5 -76.5s-46.5 -31.5 -76.5 -31.5c-36 0 -66.167 13.833 -90.5 41.5s-36.5 65.5 -36.5 113.5zM437.999 1079c0 60 15.334 117.331 46.001 171.998s70.667 99.667 120 135l76 -61c-33.333 -21.333 -62.5 -50.166 -87.5 -86.499
s-39.5 -70.833 -43.5 -103.5l10 1c6.66699 0.666992 12 1 16 1c28.667 0 52.667 -10 72 -30s29 -45 29 -75c0 -29.333 -10.833 -54.666 -32.5 -75.999s-47.834 -32 -78.501 -32c-36 0 -66.167 13.833 -90.5 41.5s-36.5 65.5 -36.5 113.5z" />
    <glyph glyph-name="quotedblright" unicode="&#x201d;" horiz-adv-x="798" 
d="M117 985c33.333 22 62.834 51.165 88.501 87.498s40.5 70.833 44.5 103.5c-6.66699 -3.33301 -16.334 -5 -29.001 -5c-28.667 0 -52.167 9.83301 -70.5 29.5s-27.5 44.834 -27.5 75.501c0 30 10.5 55.833 31.5 77.5s46.5 32.5 76.5 32.5c36 0 66.5 -13.833 91.5 -41.5
s37.5 -65.5 37.5 -113.5c0 -60 -15.5 -117.667 -46.5 -173s-71.167 -100.666 -120.5 -135.999zM446.001 984.998c33.333 22 62.668 51.166 88.001 87.499s40 70.833 44 103.5c-6.66699 -3.33301 -15.667 -5 -27 -5c-28.667 0 -52.5 9.83301 -71.5 29.5
s-28.5 44.834 -28.5 75.501c0 29.333 10.667 55 32 77s46.666 33 75.999 33c36 0 66.5 -13.833 91.5 -41.5s37.5 -65.5 37.5 -113.5c0 -60 -15.5 -117.5 -46.5 -172.5s-70.833 -100.5 -119.5 -136.5z" />
    <glyph glyph-name="quotedblbase" unicode="&#x201e;" horiz-adv-x="798" 
d="M117 -197c34 22 63.668 50.998 89.001 86.998s40 70.667 44 104c-5.33301 -2.66699 -15 -4 -29 -4c-28.667 0 -52.167 9.66699 -70.5 29s-27.5 44.333 -27.5 75c0 30 10.5 56 31.5 78s46.5 33 76.5 33c35.333 0 65.666 -14.167 90.999 -42.5s38 -66.166 38 -113.499
c0 -60 -15.5 -117.667 -46.5 -173s-71.167 -100.666 -120.5 -135.999zM446.001 -197.002c33.333 22 62.6689 50.999 88.002 86.999s40 70.667 44 104c-5.33301 -2.66699 -14.333 -4 -27 -4c-28.667 0 -52.5 9.83301 -71.5 29.5s-28.5 44.5 -28.5 74.5s10.667 56 32 78
s46.666 33 75.999 33c35.333 0 65.666 -14.167 90.999 -42.5s38 -66.166 38 -113.499c0 -60 -15.5 -117.5 -46.5 -172.5s-70.833 -100.5 -119.5 -136.5z" />
    <glyph glyph-name="dagger" unicode="&#x2020;" horiz-adv-x="538" 
d="M47 1087v89l182 -7l-10 217h98l-8 -217l183 7v-89l-183 9l8 -426h-98l10 426z" />
    <glyph glyph-name="daggerdbl" unicode="&#x2021;" horiz-adv-x="538" 
d="M47 580v88l180 -9v437l-180 -9v89l180 -7l-8 217h98l-8 -217l183 7v-89l-183 9v-437l183 9v-88l-183 6l8 -217h-98l8 217z" />
    <glyph glyph-name="bullet" unicode="&#x2022;" horiz-adv-x="733" 
d="M147 496c0 60.667 21.833 112.667 65.5 156s95.834 65 156.501 65s112.667 -21.667 156 -65s65 -95.333 65 -156c0 -60 -21.667 -111.667 -65 -155s-95.333 -65 -156 -65s-112.834 21.833 -156.501 65.5s-65.5 95.167 -65.5 154.5z" />
    <glyph glyph-name="ellipsis" unicode="&#x2026;" horiz-adv-x="1413" 
d="M123 92c0 30.667 10.833 57.167 32.5 79.5s47.5 33.5 77.5 33.5c30.667 0 57.167 -11.167 79.5 -33.5s33.5 -48.833 33.5 -79.5c0 -29.333 -11.333 -55.333 -34 -78s-49 -34 -79 -34s-55.833 11.167 -77.5 33.5s-32.5 48.5 -32.5 78.5zM594 92
c0 30.667 10.832 57.167 32.499 79.5s47.834 33.5 78.501 33.5s57.334 -11.167 80.001 -33.5s34 -48.833 34 -79.5c0 -29.333 -11.333 -55.333 -34 -78s-49.334 -34 -80.001 -34c-30 0 -56 11.167 -78 33.5s-33 48.5 -33 78.5zM1065 92c0 30.667 11.167 57.167 33.5 79.5
s48.833 33.5 79.5 33.5s57 -11.167 79 -33.5s33 -48.833 33 -79.5c0 -30 -11.167 -56.167 -33.5 -78.5s-48.5 -33.5 -78.5 -33.5c-30.667 0 -57.167 11.333 -79.5 34s-33.5 48.667 -33.5 78z" />
    <glyph glyph-name="uni202F" unicode="&#x202f;" horiz-adv-x="355" 
 />
    <glyph glyph-name="perthousand" unicode="&#x2030;" horiz-adv-x="2217" 
d="M63 1047c0 97.333 30.5 178.166 91.5 242.499s139.833 96.5 236.5 96.5c97.333 0 177 -32.167 239 -96.5s93 -145.166 93 -242.499c0 -96 -31 -175.667 -93 -239s-141.667 -95 -239 -95c-96.667 0 -175.5 31.667 -236.5 95s-91.5 143 -91.5 239zM186 1047
c0 -68 19.167 -124.667 57.5 -170s87.5 -68 147.5 -68c60.667 0 110.667 22.667 150 68s59 102 59 170c0 70 -19.5 128 -58.5 174s-89.167 69 -150.5 69c-60 0 -109.167 -23 -147.5 -69s-57.5 -104 -57.5 -174zM262 0l873 1366h112l-874 -1366h-111zM776 309
c0 97.333 30.5 178.333 91.5 243s139.833 97 236.5 97s175.834 -32.333 237.501 -97s92.5 -145.667 92.5 -243c0 -96 -30.833 -175.667 -92.5 -239s-140.834 -95 -237.501 -95s-175.5 31.667 -236.5 95s-91.5 143 -91.5 239zM897 309c0 -68 19.333 -124.5 58 -169.5
s88.334 -67.5 149.001 -67.5c61.333 0 111.5 22.5 150.5 67.5s58.5 101.5 58.5 169.5c0 70 -19.5 128.167 -58.5 174.5s-89.167 69.5 -150.5 69.5c-60.667 0 -110.334 -23.167 -149.001 -69.5s-58 -104.5 -58 -174.5zM1497 309c0 97.333 30.5 178.333 91.5 243
s139.833 97 236.5 97s175.667 -32.333 237 -97s92 -145.667 92 -243c0 -96 -30.667 -175.667 -92 -239s-140.333 -95 -237 -95s-175.5 31.667 -236.5 95s-91.5 143 -91.5 239zM1620 309c0 -68.667 19 -125.333 57 -170s87.333 -67 148 -67c61.333 0 111.5 22.5 150.5 67.5
s58.5 101.5 58.5 169.5c0 70 -19.5 128.167 -58.5 174.5s-89.167 69.5 -150.5 69.5c-60.667 0 -110 -23 -148 -69s-57 -104.333 -57 -175z" />
    <glyph glyph-name="guilsinglleft" unicode="&#x2039;" horiz-adv-x="604" 
d="M61 498l328 362h154l-328 -362l328 -369h-154z" />
    <glyph glyph-name="guilsinglright" unicode="&#x203a;" horiz-adv-x="604" 
d="M61 129l328 369l-328 362h154l328 -362l-328 -369h-154z" />
    <glyph glyph-name="uni203E" unicode="&#x203e;" horiz-adv-x="743" 
d="M0 1171v99h743v-99h-743z" />
    <glyph glyph-name="fraction" unicode="&#x2044;" horiz-adv-x="282" 
d="M-352 0l872 1366h115l-875 -1366h-112z" />
    <glyph glyph-name="uni205F" unicode="&#x205f;" horiz-adv-x="444" 
 />
    <glyph glyph-name="Euro" unicode="&#x20ac;" horiz-adv-x="1423" 
d="M63 485l-0.00390625 107.001h89c-3.33301 48 -5 78 -5 90c0 10.667 1.66699 42 5 94h-89v107h109c40.667 153.333 122.834 276 246.501 368s267.5 138 431.5 138c217.333 0 390 -90.333 518 -271l-143 -80c-40 59.333 -93.5 107.333 -160.5 144s-138.5 55 -214.5 55
c-116 0 -218.333 -32 -307 -96s-151.667 -150 -189 -258h621v-107h-645c-4 -30.667 -6 -62 -6 -94c0 -30.667 2 -60.667 6 -90h645v-107h-621c36 -108.667 98.667 -195.5 188 -260.5s192 -97.5 308 -97.5c76.667 0 148.334 18.167 215.001 54.5s120 84.5 160 144.5l145 -80
c-133.333 -180.667 -306.666 -271 -519.999 -271c-165.333 0 -309.666 46.167 -432.999 138.5s-205 216.166 -245 371.499h-109z" />
    <glyph glyph-name="trademark" unicode="&#x2122;" horiz-adv-x="929" 
d="M35 1313v53h311v-53h-127v-398h-57v398h-127zM420 915v451h88l131 -328l131 328h88v-451h-57v373l-154 -373h-16l-154 373v-373h-57z" />
    <glyph glyph-name="partialdiff" unicode="&#x2202;" horiz-adv-x="1171" 
d="M96 479c0 92.667 18.8291 177.167 56.4961 253.5s91.167 136.833 160.5 181.5s147.333 67 234 67c134.667 0 240.334 -56 317.001 -168c-41.333 92 -106.166 180.833 -194.499 266.5s-193.5 158.5 -315.5 218.5l115 95c62 -32 121.333 -69.333 178 -112
s111.334 -92.167 164.001 -148.5s98.334 -116 137.001 -179s69.5 -132.833 92.5 -209.5s34.5 -154.667 34.5 -234c0 -156.667 -44.5 -285 -133.5 -385s-207.5 -150 -355.5 -150c-98 0 -184.5 22.667 -259.5 68s-132.167 106 -171.5 182s-59 160.667 -59 254zM255.996 479
c0 -66.667 12.5 -127.332 37.5 -181.999s63 -99 114 -133s110.5 -51 178.5 -51c101.333 0 181.166 35.167 239.499 105.5s87.5 157.166 87.5 260.499c0 65.333 -12.333 125.333 -37 180s-62.167 99.167 -112.5 133.5s-109.5 51.5 -177.5 51.5
c-101.333 0 -181.666 -35.5 -240.999 -106.5s-89 -157.167 -89 -258.5z" />
    <glyph glyph-name="Delta" unicode="&#x2206;" horiz-adv-x="1347" 
d="M18 0l549 1366h211l551 -1366h-1311zM262 152h823l-411 1038z" />
    <glyph glyph-name="product" unicode="&#x220f;" horiz-adv-x="1447" 
d="M66 1214v152h1316v-152h-223v-1398h-170v1398h-530v-1398h-170v1398h-223z" />
    <glyph glyph-name="summation" unicode="&#x2211;" horiz-adv-x="1177" 
d="M111 -33l473 641l-471 606v152h954v-152h-745l469 -604l-476 -643h752v-151h-956v151z" />
    <glyph glyph-name="radical" unicode="&#x221a;" horiz-adv-x="1484" 
d="M135 647l422 162l260 -649l481 1206h121l-545 -1366h-118l-267 670l-317 -125z" />
    <glyph glyph-name="infinity" unicode="&#x221e;" horiz-adv-x="1343" 
d="M59 686c0 42.667 6.33496 83.668 19.002 123.001s31.334 75.333 56.001 108s57.667 58.667 99 78s88.666 29 141.999 29c65.333 0 123.666 -21 174.999 -63s91.333 -95.333 120 -160c31.333 65.333 72.666 118.833 123.999 160.5s109.666 62.5 174.999 62.5
c53.333 0 100.666 -9.83301 141.999 -29.5s74.333 -45.834 99 -78.501s43.167 -68.5 55.5 -107.5s18.5 -79.833 18.5 -122.5c0 -42 -6.16699 -82.5 -18.5 -121.5s-30.833 -75 -55.5 -108s-57.667 -59.333 -99 -79s-88.666 -29.5 -141.999 -29.5
c-65.333 0 -123.666 20.833 -174.999 62.5s-92.666 95.167 -123.999 160.5c-28.667 -64.667 -68.667 -118 -120 -160s-109.666 -63 -174.999 -63c-42.667 0 -81.834 6.5 -117.501 19.5s-65.5 30.5 -89.5 52.5s-44.333 47.667 -61 77s-28.834 59.833 -36.501 91.5
s-11.5 64.167 -11.5 97.5zM174.002 686.001c0 -67.333 19.168 -122.666 57.501 -165.999s90.166 -65 155.499 -65c52.667 0 99 22.167 139 66.5s72.333 99.166 97 164.499c-25.333 66 -57.833 121.167 -97.5 165.5s-85.834 66.5 -138.501 66.5
c-65.333 0 -117.166 -21.667 -155.499 -65s-57.5 -99 -57.5 -167zM723.003 686.001c23.333 -64.667 54.999 -119 94.999 -163s86.667 -66 140 -66c65.333 0 116.833 21.167 154.5 63.5s56.5 97.5 56.5 165.5s-18.833 123.667 -56.5 167s-89.167 65 -154.5 65
c-52.667 0 -99.167 -22.333 -139.5 -67s-72.166 -99.667 -95.499 -165z" />
    <glyph glyph-name="integral" unicode="&#x222b;" horiz-adv-x="712" 
d="M35 -92h125c37.333 0 69.166 15.667 95.499 47s39.5 70.333 39.5 117v1224c0 81.333 25.667 147.833 77 199.5s111 77.5 179 77.5h127v-113h-127c-37.333 0 -69.166 -15.5 -95.499 -46.5s-39.5 -70.167 -39.5 -117.5v-1226c0 -80.667 -25.5 -146.667 -76.5 -198
s-110.833 -77 -179.5 -77h-125v113z" />
    <glyph glyph-name="approxequal" unicode="&#x2248;" horiz-adv-x="1021" 
d="M59 432l0.000976562 121.001c65.333 -45.333 140.666 -68 225.999 -68c36 0 69.167 4.16699 99.5 12.5s57 18.166 80 29.499l70 34.5c23.667 11.667 52.5 21.667 86.5 30s72 12.5 114 12.5c82.667 0 158.667 -18.333 228 -55v-121c-67.333 46.667 -143.333 70 -228 70
c-44 0 -84.833 -6.33301 -122.5 -19s-68.5 -26.5 -92.5 -41.5s-56.667 -28.833 -98 -41.5s-87 -19 -137 -19c-88 0 -163.333 18.333 -226 55zM59.001 819.001l-0.00292969 118.999c68.667 -45.333 144 -68 226 -68c43.333 0 83.833 6.33301 121.5 19
s68.334 26.5 92.001 41.5s56.334 28.833 98.001 41.5s87.834 19 138.501 19c82.667 0 158.667 -18.333 228 -55v-121c-65.333 45.333 -141.333 68 -228 68c-36.667 0 -70.167 -4.16699 -100.5 -12.5s-57 -18.166 -80 -29.499l-70 -34.5
c-23.667 -11.667 -52.5 -21.667 -86.5 -30s-71.667 -12.5 -113 -12.5c-84.667 0 -160 18.333 -226 55z" />
    <glyph glyph-name="notequal" unicode="&#x2260;" horiz-adv-x="1021" 
d="M59 432v107h303l185 288h-488v109h557l152 240h113l-154 -240h236v-109h-304l-184 -288h488v-107h-557l-154 -242h-111l154 242h-236z" />
    <glyph glyph-name="lessequal" unicode="&#x2264;" horiz-adv-x="1021" 
d="M59 0v106h904v-106h-904zM59 649v109l904 448v-129l-773 -375l773 -372v-127z" />
    <glyph glyph-name="greaterequal" unicode="&#x2265;" horiz-adv-x="1021" 
d="M57 0v106h904v-106h-904zM57 203v127l772 372l-772 375v129l904 -448v-109z" />
    <glyph glyph-name="lozenge" unicode="&#x25ca;" horiz-adv-x="768" 
d="M39 684l323 682h44l323 -682l-323 -684h-44zM113 684l272 -600l270 600l-272 598z" />
    <glyph glyph-name="uni25FC" unicode="&#x25fc;" horiz-adv-x="993" 
d="M0 0v993h993v-993h-993z" />
    <glyph glyph-name="uniF8FF" unicode="&#xf8ff;" horiz-adv-x="1366" 
d="M86 315c0 62.667 22.166 116.334 66.499 161.001s97.833 67 160.5 67h150v280h-148c-62.667 0 -116.5 22.667 -161.5 68s-67.5 99.333 -67.5 162s22.5 116.167 67.5 160.5s98.833 66.5 161.5 66.5s116.334 -22.167 161.001 -66.5s67 -97.833 67 -160.5v-154h280v154
c0 62 22.667 115.333 68 160s99.333 67 162 67s116.167 -22.167 160.5 -66.5s66.5 -97.833 66.5 -160.5s-22.333 -116.667 -67 -162s-98 -68 -160 -68h-150v-280h150c62.667 0 116.167 -22.333 160.5 -67s66.5 -98.334 66.5 -161.001s-22.167 -116.5 -66.5 -161.5
s-97.833 -67.5 -160.5 -67.5s-116.667 22.5 -162 67.5s-68 98.833 -68 161.5v152h-280v-152c0 -62.667 -22.667 -116.5 -68 -161.5s-99.333 -67.5 -162 -67.5s-116.167 22.5 -160.5 67.5s-66.5 98.833 -66.5 161.5zM163.999 315c0 -42 14.333 -78 43 -108s64 -45 106 -45
s77.5 15 106.5 45s43.5 66 43.5 108v152h-152c-42 0 -77 -14.833 -105 -44.5s-42 -65.5 -42 -107.5zM163.999 1053c0 -42 14.667 -78.167 44 -108.5s65 -45.5 107 -45.5h148v154c0 42 -14.167 77.667 -42.5 107s-63.5 44 -105.5 44s-77.667 -14.667 -107 -44
s-44 -65 -44 -107zM542.999 543h280v280h-280v-280zM902.999 315c0 -42 14.502 -78.001 43.502 -108.001s64.5 -45 106.5 -45c41.333 0 76.166 14.833 104.499 44.5s42.5 65.834 42.5 108.501s-13.833 78.667 -41.5 108s-62.834 44 -105.501 44h-150v-152zM903.001 898.999
h150.001c41.333 0 76.166 15 104.499 45s42.5 66.333 42.5 109c0 42 -14 77.667 -42 107s-63 44 -105 44s-77.5 -14.667 -106.5 -44s-43.5 -65 -43.5 -107v-154z" />
    <glyph glyph-name="glyph2" horiz-adv-x="682" 
 />
    </font>
</defs>
</svg>
